<svg width="493" height="422" viewBox="0 0 493 422" fill="none" xmlns="http://www.w3.org/2000/svg">
<g clip-path="url(#clip0_211_830)">
<path d="M144.883 417.597C152.797 410.91 157.604 400.346 156.344 390.062C155.083 379.778 147.275 370.325 137.146 368.141C127.018 365.957 115.472 372.002 112.396 381.896C110.703 362.821 108.752 342.948 98.6102 326.704C89.4272 311.996 73.5221 301.472 56.2846 299.589C39.0471 297.707 20.8981 304.818 10.1477 318.422C-0.602727 332.027 -3.23492 351.805 4.2944 367.425C9.84098 378.931 20.0597 387.494 30.7665 394.46C65.3637 416.782 106.859 425.859 147.616 420.022" fill="#F2F2F2"/>
<path d="M27.1936 305.212C41.4167 316.796 54.4649 329.752 66.1495 343.893C84.4357 365.947 99.2332 390.674 110.026 417.212C110.816 419.148 107.673 419.99 106.891 418.076C100.028 401.297 91.536 385.232 81.5382 370.109C65.9476 346.486 46.8471 325.378 24.8946 307.511C23.2715 306.189 25.5839 303.901 27.1936 305.212Z" fill="white"/>
<path d="M150.35 417.597C142.435 410.91 137.628 400.346 138.889 390.062C140.15 379.778 147.958 370.325 158.086 368.141C168.215 365.957 179.761 372.002 182.837 381.896C184.53 362.821 186.481 342.948 196.622 326.704C205.805 311.996 221.711 301.472 238.948 299.589C256.186 297.707 274.335 304.818 285.085 318.422C295.835 332.027 298.468 351.805 290.938 367.425C285.392 378.931 275.173 387.494 264.466 394.46C229.869 416.782 188.374 425.859 147.616 420.022" fill="#F2F2F2"/>
<path d="M268.039 305.212C253.816 316.796 240.768 329.752 229.083 343.893C210.797 365.947 196 390.674 185.206 417.212C184.416 419.148 187.56 419.99 188.341 418.076C206.001 374.946 234.193 336.932 270.338 307.511C271.961 306.189 269.649 303.901 268.039 305.212Z" fill="white"/>
<path d="M173.834 189.836C188.476 189.836 200.344 177.968 200.344 163.327C200.344 148.687 188.476 136.819 173.834 136.819C159.193 136.819 147.324 148.687 147.324 163.327C147.324 177.968 159.193 189.836 173.834 189.836Z" fill="#F2F2F2"/>
<path d="M92.0969 71.9475H274.744V81.9398H115.413C106.045 81.9398 96.7691 83.7848 88.1142 87.3696C79.4592 90.9544 71.5952 96.2087 64.971 102.833C58.3468 109.456 53.0922 117.32 49.5072 125.974C45.9222 134.629 44.077 143.905 44.077 153.272V266.796H24.0915C23.2081 266.796 22.3609 266.445 21.7362 265.821C21.1115 265.196 20.7606 264.349 20.7606 263.466V143.28C20.7606 133.912 22.6057 124.637 26.1907 115.982C29.7757 107.328 35.0303 99.4641 41.6545 92.8402C48.2787 86.2164 56.1427 80.9621 64.7977 77.3773C73.4526 73.7925 82.7289 71.9475 92.0969 71.9475Z" fill="#F2F2F2"/>
<path d="M127.228 418.152V266.369H171.697V418.152C171.695 419.172 171.29 420.15 170.568 420.872C169.847 421.593 168.869 421.999 167.848 422H131.076C130.056 421.999 129.078 421.593 128.357 420.872C127.635 420.15 127.229 419.172 127.228 418.152Z" fill="#3F3D56"/>
<path d="M11.3538 263.376V139.953C11.3759 120.305 19.1914 101.468 33.0854 87.5746C46.9794 73.6813 65.8174 65.8662 85.4666 65.844H273.888V267.651H15.6296C14.496 267.65 13.4091 267.199 12.6076 266.398C11.806 265.596 11.3551 264.509 11.3538 263.376ZM272.178 67.5542H85.4666C66.2709 67.576 47.8676 75.2107 34.2942 88.7834C20.7208 102.356 13.0858 120.758 13.0641 139.953V263.376C13.0648 264.056 13.3354 264.708 13.8163 265.189C14.2973 265.67 14.9494 265.941 15.6296 265.941H272.178V67.5542Z" fill="#3F3D56"/>
<path d="M173.834 177.009C169.753 177.005 165.841 175.381 162.955 172.496C160.069 169.61 158.446 165.698 158.442 161.617V51.307C158.441 50.6268 158.17 49.9748 157.689 49.4938C157.208 49.0129 156.556 48.7424 155.876 48.7416H96.0148C94.8811 48.7403 93.7944 48.2895 92.9928 47.4879C92.1912 46.6864 91.7403 45.5996 91.739 44.4661V4.27558C91.7403 3.14203 92.1912 2.05528 92.9928 1.25373C93.7944 0.452191 94.8811 0.00131264 96.0148 0H184.952C186.085 0.00129683 187.172 0.452175 187.974 1.25372C188.775 2.05527 189.226 3.14203 189.227 4.27558V161.617C189.223 165.698 187.6 169.61 184.714 172.496C181.828 175.381 177.916 177.005 173.834 177.009Z" fill="#2594EA"/>
<path d="M280.73 64.1337C293.63 64.1066 306.013 69.2052 315.155 78.3078C324.296 87.4103 329.447 99.7713 329.474 112.671V253.175H425.252C429.1 253.167 432.793 254.688 435.519 257.403C438.245 260.117 439.782 263.804 439.79 267.651H231.985V112.671C232.013 99.7713 237.163 87.4103 246.305 78.3078C255.446 69.2052 267.829 64.1066 280.73 64.1337Z" fill="#3F3D56"/>
<path d="M269.033 144.145L279.126 185.837L476.567 138.043L466.473 96.351C466.352 95.8412 466.103 95.3705 465.75 94.9826C465.398 94.5946 464.953 94.302 464.457 94.1319C464.091 94.0032 463.704 93.9449 463.316 93.9602L349.187 34.87C348.518 34.5286 347.75 34.4373 347.019 34.6128C346.289 34.7883 345.646 35.219 345.205 35.8271L290.202 112.526L269.466 141.448C269.428 141.499 269.402 141.557 269.389 141.619C269.375 141.68 269.376 141.744 269.39 141.806C268.968 142.508 268.839 143.349 269.033 144.145Z" fill="white"/>
<path d="M269.389 141.806C269.399 141.86 269.42 141.912 269.449 141.958C269.479 142.005 269.518 142.045 269.563 142.076C269.617 142.113 269.677 142.138 269.741 142.151C269.805 142.163 269.87 142.163 269.934 142.149C270.037 142.122 270.127 142.059 270.189 141.972L270.261 141.873L271.34 140.363L290.948 113.03L345.936 36.3492C346.249 35.9147 346.709 35.607 347.23 35.4821C347.751 35.3572 348.3 35.4232 348.776 35.6683L462.022 94.3008L463.038 94.8282C463.079 94.8455 463.121 94.8602 463.164 94.8724C463.24 94.8585 463.318 94.851 463.396 94.8502C463.502 94.8146 463.591 94.7397 463.644 94.6409C463.671 94.5888 463.688 94.5318 463.694 94.4732C463.699 94.4145 463.693 94.3554 463.676 94.2991C463.659 94.2428 463.63 94.1905 463.593 94.1451C463.555 94.0998 463.509 94.0623 463.457 94.0349L463.316 93.9602L349.187 34.87C348.518 34.5286 347.75 34.4373 347.019 34.6128C346.289 34.7883 345.646 35.219 345.205 35.8271L290.201 112.526L269.466 141.448C269.428 141.499 269.402 141.557 269.389 141.619C269.375 141.68 269.376 141.744 269.389 141.806Z" fill="#3F3D56"/>
<path d="M328.687 146.057L333.082 146.545L365.7 150.158L387.324 152.552L388.601 152.694L415.583 131.619L416.617 130.812L422.99 125.835L445.663 108.129L445.799 106.885L453.864 34.1028C453.974 33.1006 453.682 32.0957 453.052 31.3084C452.422 30.5211 451.506 30.0156 450.504 29.9028L342.877 17.981C341.875 17.8716 340.87 18.1637 340.083 18.7935C339.295 19.4232 338.79 20.3392 338.677 21.341L332.989 72.6801L329.835 101.143L327.013 126.607L325.704 138.433L325.323 141.858C325.214 142.861 325.507 143.866 326.137 144.653C326.768 145.44 327.685 145.945 328.687 146.057Z" fill="#E6E6E6"/>
<path d="M358.263 82.2602L404.884 87.4234L421.417 89.254C422.147 89.3348 422.886 89.2711 423.591 89.0665C424.296 88.8618 424.954 88.5203 425.528 88.0613C426.101 87.6023 426.578 87.035 426.932 86.3915C427.286 85.7481 427.51 85.0413 427.591 84.3114C427.672 83.5815 427.608 82.8428 427.403 82.1375C427.199 81.4322 426.857 80.7741 426.398 80.2008C425.939 79.6275 425.372 79.1503 424.728 78.7962C424.085 78.4422 423.378 78.2184 422.648 78.1376L402.084 75.8602L359.498 71.1383C358.023 70.9755 356.544 71.4047 355.386 72.3318C354.228 73.2589 353.486 74.608 353.322 76.0823C353.158 77.5567 353.587 79.0356 354.513 80.1941C355.44 81.3526 356.789 82.0958 358.263 82.2602Z" fill="white"/>
<path d="M355.609 102.882C355.729 102.904 355.849 102.925 355.972 102.937L410.091 108.932L419.127 109.935C420.601 110.098 422.081 109.669 423.239 108.742C424.397 107.814 425.139 106.465 425.302 104.99C425.466 103.515 425.036 102.036 424.109 100.878C423.181 99.7199 421.832 98.9776 420.357 98.8145L407.291 97.3691L364.422 92.619L357.207 91.8196C355.765 91.6587 354.316 92.0651 353.167 92.9529C352.019 93.8408 351.261 95.1404 351.053 96.5771C350.845 98.0138 351.204 99.475 352.055 100.652C352.905 101.828 354.179 102.628 355.609 102.882Z" fill="white"/>
<path d="M349.484 121.168C349.927 121.904 350.534 122.528 351.258 122.992C351.982 123.455 352.803 123.746 353.657 123.84L375.839 126.297L415.345 130.674L415.354 130.671L416.617 130.812L422.99 125.835C423.029 125.457 423.03 125.076 422.991 124.698C422.856 123.428 422.293 122.243 421.393 121.337C420.493 120.432 419.311 119.86 418.042 119.718L412.554 119.108L390.784 116.699L375.121 114.962L354.887 112.72C353.85 112.605 352.802 112.783 351.861 113.232C350.919 113.682 350.123 114.386 349.56 115.265C348.998 116.144 348.693 117.162 348.68 118.205C348.666 119.249 348.945 120.275 349.484 121.168Z" fill="white"/>
<path d="M380.64 57.0529L392.239 58.3375L397.363 58.9065L405.102 59.763C406.577 59.9261 408.056 59.4967 409.214 58.5693C410.372 57.6419 411.115 56.2924 411.278 54.8176C411.441 53.3429 411.012 51.8638 410.084 50.7057C409.157 49.5476 407.807 48.8053 406.332 48.6422L381.875 45.9354C380.401 45.7715 378.922 46.2 377.764 47.1266C376.605 48.0532 375.862 49.402 375.698 50.8763C375.535 52.3505 375.963 53.8295 376.89 54.9879C377.816 56.1462 379.165 56.889 380.64 57.0529Z" fill="white"/>
<path d="M285.789 88.0188L299.931 146.435L323.535 150.923L345.369 155.079L368.795 159.537L376.28 160.961C376.718 161.044 377.169 161.032 377.603 160.928C378.036 160.823 378.442 160.627 378.794 160.353L384.799 155.663L388.601 152.694L415.583 131.62L398.427 60.753C398.257 60.0479 397.888 59.4068 397.363 58.9067C396.902 58.4642 396.338 58.1447 395.721 57.9777C395.105 57.8108 394.456 57.8017 393.835 57.9514L288.591 83.4276C287.611 83.6655 286.766 84.2826 286.24 85.1435C285.715 86.0043 285.553 87.0385 285.789 88.0188Z" fill="#2594EA"/>
<path d="M318.217 134.491C318.568 135.932 319.475 137.175 320.741 137.948C322.007 138.72 323.528 138.959 324.969 138.611L386.724 123.662C388.165 123.311 389.408 122.403 390.18 121.138C390.953 119.872 391.191 118.352 390.845 116.91C390.829 116.839 390.809 116.768 390.784 116.699C390.39 115.309 389.473 114.126 388.225 113.397C386.978 112.669 385.497 112.451 384.092 112.79L322.337 127.739C320.896 128.089 319.653 128.997 318.881 130.263C318.108 131.529 317.87 133.049 318.217 134.491Z" fill="white"/>
<path d="M323.535 150.923L345.369 155.079L391.62 143.884C393.062 143.535 394.306 142.627 395.078 141.361C395.851 140.095 396.089 138.573 395.74 137.132C395.391 135.69 394.484 134.446 393.217 133.673C391.951 132.901 390.43 132.663 388.988 133.012L327.233 147.961C325.942 148.271 324.806 149.032 324.028 150.108C323.841 150.365 323.676 150.638 323.535 150.923Z" fill="white"/>
<path d="M368.795 159.537L376.28 160.961C376.718 161.044 377.169 161.032 377.602 160.927C378.036 160.823 378.442 160.627 378.794 160.352L384.799 155.663L368.795 159.537Z" fill="white"/>
<path d="M330.661 103.167C331.011 104.608 331.918 105.851 333.184 106.624C334.45 107.396 335.971 107.635 337.413 107.287L361.332 101.497C362.773 101.146 364.015 100.238 364.788 98.9726C365.56 97.7069 365.799 96.1867 365.452 94.7451C365.266 93.9705 364.914 93.2453 364.422 92.6191C363.76 91.7727 362.869 91.1346 361.854 90.781C360.839 90.4274 359.744 90.3733 358.7 90.6252L334.781 96.4152C333.339 96.7644 332.095 97.6718 331.323 98.938C330.55 100.204 330.312 101.725 330.661 103.167Z" fill="white"/>
<path d="M345.367 155.079L368.797 159.537L376.28 160.962C376.718 161.044 377.168 161.032 377.601 160.927C378.034 160.822 378.44 160.627 378.792 160.354L384.802 155.663L382.693 156.173L378.241 159.646C377.99 159.841 377.7 159.981 377.39 160.056C377.081 160.13 376.759 160.139 376.446 160.081L370.906 159.027L347.476 154.568L345.367 155.079ZM415.352 130.675L415.58 131.617L416.619 130.809L415.352 130.675ZM345.367 155.079L368.797 159.537L376.28 160.962C376.718 161.044 377.168 161.032 377.601 160.927C378.034 160.822 378.44 160.627 378.792 160.354L384.802 155.663L382.693 156.173L378.241 159.646C377.99 159.841 377.7 159.981 377.39 160.056C377.081 160.13 376.759 160.139 376.446 160.081L370.906 159.027L347.476 154.568L345.367 155.079ZM345.367 155.079L368.797 159.537L376.28 160.962C376.718 161.044 377.168 161.032 377.601 160.927C378.034 160.822 378.44 160.627 378.792 160.354L384.802 155.663L382.693 156.173L378.241 159.646C377.99 159.841 377.7 159.981 377.39 160.056C377.081 160.13 376.759 160.139 376.446 160.081L370.906 159.027L347.476 154.568L345.367 155.079ZM269.033 144.145L295.471 253.352C295.667 254.159 296.175 254.855 296.884 255.288C297.593 255.72 298.445 255.854 299.252 255.659L490.604 209.339C491.411 209.143 492.107 208.635 492.54 207.926C492.973 207.217 493.106 206.365 492.912 205.558L466.473 96.3509C466.352 95.8412 466.103 95.3705 465.75 94.9825C465.398 94.5946 464.953 94.302 464.457 94.1318C464.091 94.0031 463.704 93.9449 463.316 93.9602C462.864 93.9732 462.422 94.0897 462.022 94.3008C461.837 94.3884 461.663 94.4965 461.502 94.6232L445.798 106.885L422.991 124.7L415.35 130.668L415.352 130.675L415.345 130.676L387.325 152.549L382.693 156.173L378.241 159.646C377.99 159.841 377.7 159.981 377.39 160.056C377.081 160.13 376.759 160.139 376.446 160.081L370.906 159.027L347.476 154.568L324.026 150.109L272.664 140.335C272.226 140.248 271.774 140.258 271.34 140.363C270.756 140.506 270.225 140.814 269.811 141.249C269.652 141.42 269.511 141.607 269.39 141.806C268.968 142.508 268.839 143.349 269.033 144.145ZM345.367 155.079L368.797 159.537L376.28 160.962C376.718 161.044 377.168 161.032 377.601 160.927C378.034 160.822 378.44 160.627 378.792 160.354L384.802 155.663L382.693 156.173L378.241 159.646C377.99 159.841 377.7 159.981 377.39 160.056C377.081 160.13 376.759 160.139 376.446 160.081L370.906 159.027L347.476 154.568L345.367 155.079ZM345.367 155.079L368.797 159.537L376.28 160.962C376.718 161.044 377.168 161.032 377.601 160.927C378.034 160.822 378.44 160.627 378.792 160.354L384.802 155.663L382.693 156.173L378.241 159.646C377.99 159.841 377.7 159.981 377.39 160.056C377.081 160.13 376.759 160.139 376.446 160.081L370.906 159.027L347.476 154.568L345.367 155.079ZM345.367 155.079L368.797 159.537L376.28 160.962C376.718 161.044 377.168 161.032 377.601 160.927C378.034 160.822 378.44 160.627 378.792 160.354L384.802 155.663L382.693 156.173L378.241 159.646C377.99 159.841 377.7 159.981 377.39 160.056C377.081 160.13 376.759 160.139 376.446 160.081L370.906 159.027L347.476 154.568L345.367 155.079Z" fill="white"/>
<path d="M345.367 155.079L368.797 159.537L376.28 160.962C376.718 161.044 377.168 161.032 377.601 160.927C378.034 160.823 378.44 160.627 378.792 160.354L384.802 155.663L382.693 156.174L378.241 159.646C377.99 159.841 377.7 159.981 377.39 160.056C377.081 160.131 376.759 160.139 376.446 160.081L370.906 159.027L347.476 154.569L345.367 155.079ZM415.352 130.675L415.58 131.617L416.619 130.809L415.352 130.675ZM345.367 155.079L368.797 159.537L376.28 160.962C376.718 161.044 377.168 161.032 377.601 160.927C378.034 160.823 378.44 160.627 378.792 160.354L384.802 155.663L382.693 156.174L378.241 159.646C377.99 159.841 377.7 159.981 377.39 160.056C377.081 160.131 376.759 160.139 376.446 160.081L370.906 159.027L347.476 154.569L345.367 155.079ZM345.367 155.079L368.797 159.537L376.28 160.962C376.718 161.044 377.168 161.032 377.601 160.927C378.034 160.823 378.44 160.627 378.792 160.354L384.802 155.663L382.693 156.174L378.241 159.646C377.99 159.841 377.7 159.981 377.39 160.056C377.081 160.131 376.759 160.139 376.446 160.081L370.906 159.027L347.476 154.569L345.367 155.079ZM270.261 141.873L270.377 141.961C270.396 141.929 270.43 141.9 270.456 141.867C270.715 141.597 271.037 141.396 271.393 141.281C271.749 141.167 272.128 141.142 272.495 141.21L323.536 150.919L345.367 155.079L368.797 159.537L376.28 160.962C376.718 161.044 377.168 161.032 377.601 160.927C378.034 160.823 378.44 160.627 378.792 160.354L384.802 155.663L382.693 156.174L378.241 159.646C377.99 159.841 377.7 159.981 377.39 160.056C377.081 160.131 376.759 160.139 376.446 160.081L370.906 159.027L347.476 154.569L324.026 150.109L272.664 140.335C272.226 140.248 271.774 140.258 271.34 140.364L270.261 141.873ZM269.033 144.145L295.471 253.352C295.667 254.159 296.175 254.855 296.884 255.288C297.593 255.72 298.445 255.854 299.252 255.66L490.604 209.34C491.411 209.143 492.107 208.635 492.54 207.926C492.973 207.217 493.106 206.366 492.912 205.558L466.473 96.3512C466.352 95.8414 466.103 95.3707 465.75 94.9828C465.398 94.5948 464.953 94.3022 464.457 94.1321C464.091 94.0034 463.704 93.9451 463.316 93.9604C462.864 93.9735 462.422 94.09 462.022 94.301C461.837 94.3886 461.663 94.4968 461.502 94.6234L445.798 106.886L422.991 124.701L415.35 130.669L415.352 130.675L415.345 130.677L387.325 152.549L382.693 156.174L378.241 159.646C377.99 159.841 377.7 159.981 377.39 160.056C377.081 160.131 376.759 160.139 376.446 160.081L370.906 159.027L347.476 154.569L324.026 150.109L272.664 140.335C272.226 140.248 271.774 140.258 271.34 140.364C270.756 140.506 270.225 140.814 269.811 141.249C269.652 141.42 269.511 141.607 269.39 141.806C268.968 142.508 268.839 143.349 269.033 144.145ZM269.905 143.934C269.827 143.612 269.822 143.277 269.89 142.953C269.958 142.629 270.098 142.324 270.299 142.061C270.318 142.022 270.344 141.988 270.377 141.961C270.396 141.929 270.43 141.9 270.456 141.867C270.715 141.597 271.037 141.396 271.393 141.281C271.749 141.167 272.128 141.142 272.495 141.21L323.536 150.919L345.367 155.079L368.797 159.537L376.28 160.962C376.718 161.044 377.168 161.032 377.601 160.927C378.034 160.823 378.44 160.627 378.792 160.354L384.802 155.663L388.602 152.694L415.58 131.617L416.619 130.809L422.987 125.835L445.664 108.126L462.059 95.3233C462.308 95.1289 462.596 94.9899 462.903 94.9154C462.989 94.8944 463.076 94.8801 463.164 94.8726C463.241 94.8586 463.318 94.8512 463.396 94.8503C463.658 94.8478 463.919 94.8903 464.166 94.976C464.52 95.099 464.837 95.3084 465.088 95.5852C465.34 95.862 465.519 96.1973 465.608 96.5606L492.046 205.768C492.116 206.054 492.128 206.351 492.083 206.642C492.038 206.933 491.935 207.212 491.782 207.464C491.628 207.715 491.427 207.934 491.189 208.107C490.951 208.281 490.681 208.405 490.395 208.474L299.043 254.794C298.466 254.933 297.857 254.837 297.351 254.527C296.844 254.217 296.482 253.718 296.343 253.141L269.905 143.934ZM345.367 155.079L368.797 159.537L376.28 160.962C376.718 161.044 377.168 161.032 377.601 160.927C378.034 160.823 378.44 160.627 378.792 160.354L384.802 155.663L382.693 156.174L378.241 159.646C377.99 159.841 377.7 159.981 377.39 160.056C377.081 160.131 376.759 160.139 376.446 160.081L370.906 159.027L347.476 154.569L345.367 155.079ZM345.367 155.079L368.797 159.537L376.28 160.962C376.718 161.044 377.168 161.032 377.601 160.927C378.034 160.823 378.44 160.627 378.792 160.354L384.802 155.663L382.693 156.174L378.241 159.646C377.99 159.841 377.7 159.981 377.39 160.056C377.081 160.131 376.759 160.139 376.446 160.081L370.906 159.027L347.476 154.569L345.367 155.079ZM345.367 155.079L368.797 159.537L376.28 160.962C376.718 161.044 377.168 161.032 377.601 160.927C378.034 160.823 378.44 160.627 378.792 160.354L384.802 155.663L382.693 156.174L378.241 159.646C377.99 159.841 377.7 159.981 377.39 160.056C377.081 160.131 376.759 160.139 376.446 160.081L370.906 159.027L347.476 154.569L345.367 155.079Z" fill="#3F3D56"/>
<path d="M440.732 187.884C440.301 186.094 440.597 184.207 441.556 182.636C442.515 181.065 444.058 179.938 445.847 179.503L469.998 173.657C471.785 173.231 473.668 173.53 475.235 174.49C476.801 175.45 477.924 176.991 478.356 178.776C478.788 180.562 478.495 182.446 477.541 184.016C476.587 185.586 475.049 186.714 473.265 187.152L449.114 192.998C447.324 193.429 445.437 193.133 443.865 192.174C442.294 191.215 441.167 189.672 440.732 187.884Z" fill="#2594EA"/>
<path d="M173.835 167.603C177.141 167.603 179.821 164.923 179.821 161.617C179.821 158.311 177.141 155.631 173.835 155.631C170.528 155.631 167.848 158.311 167.848 161.617C167.848 164.923 170.528 167.603 173.835 167.603Z" fill="white"/>
</g>
<defs>
<clipPath id="clip0_211_830">
<rect width="493" height="422" fill="white"/>
</clipPath>
</defs>
</svg>
