<svg width="163" height="224" viewBox="0 0 163 224" fill="none" xmlns="http://www.w3.org/2000/svg">
<path d="M130.877 64.6177C136.957 77.9661 138.636 93.4129 134.603 108.691L134.229 108.594L102.793 100.169V100.164C105.89 88.6069 107.256 77.357 107.062 67.2996C115.962 67.53 124.085 66.5933 130.877 64.6177Z" fill="#8ECAC1"/>
<path d="M134.604 108.691C134.594 108.732 134.584 108.773 134.574 108.814C130.423 124.194 121.149 136.831 109.08 145.379C104.176 140.286 97.6046 135.434 89.7891 131.201C95.1018 122.5 99.6468 111.921 102.795 100.169L134.231 108.594L134.604 108.691Z" fill="#8ECAC1"/>
<path d="M91.2227 29.2251C109.423 35.1008 123.442 48.2906 130.879 64.6178C124.087 66.5934 115.964 67.5301 107.064 67.2997C106.716 48.6898 101.06 34.1437 91.2227 29.2251Z" fill="#8ECAC1"/>
<path d="M108.14 205.979V218.882H33.9258V205.979C45.3497 205.979 55.1511 199.033 59.3379 189.135C60.7352 185.833 61.5029 182.204 61.5029 178.402L61.5899 177.624C64.666 177.956 67.7932 178.125 70.9563 178.125C74.1757 178.125 77.349 177.951 80.4762 177.608L80.5632 178.402C80.5632 181.964 81.244 185.373 82.4775 188.505C84.4889 193.623 87.9898 197.989 92.4478 201.081C96.9007 204.167 102.311 205.979 108.14 205.979Z" fill="#F2D59F"/>
<path d="M107.065 67.2998C107.26 77.3572 105.893 88.6071 102.797 100.164V100.169L39.1719 83.1203V83.1152C42.2684 71.5633 46.711 61.1374 51.9061 52.5234C59.7114 56.7716 68.7656 60.4004 78.6438 63.0466C88.5271 65.6927 98.1852 67.0746 107.065 67.2998Z" fill="#8ECAC1"/>
<path d="M39.1705 83.1204L102.795 100.169C99.6477 111.921 95.1027 122.5 89.7899 131.201C82.0153 126.984 73.0072 123.375 63.1853 120.745C53.3582 118.114 43.7513 116.732 34.9121 116.502C34.6613 106.311 36.0176 94.8719 39.1705 83.1204Z" fill="#8ECAC1"/>
<path d="M91.2246 29.225C101.062 34.1437 106.718 48.6897 107.066 67.2997C98.1854 67.0745 88.5273 65.6925 78.644 63.0464C68.7658 60.4003 59.7116 56.7714 51.9062 52.5233C61.5132 36.58 73.6895 26.8092 84.663 27.4644C85.7635 27.6998 86.869 27.9659 87.9694 28.2628C89.0698 28.5597 90.1549 28.877 91.2246 29.225Z" fill="#8ECAC1"/>
<path d="M89.7912 131.201C97.6068 135.434 104.179 140.286 109.082 145.379C93.7886 156.209 74.0066 160.467 54.4805 155.405C66.0477 158.092 79.3961 148.255 89.7912 131.201Z" fill="#8ECAC1"/>
<path d="M84.6583 27.4645C73.6848 26.8093 61.5085 36.5801 51.9015 52.5234C44.0808 48.2701 37.5141 43.3976 32.6211 38.2896C47.2235 27.8688 65.9562 23.4569 84.6583 27.4645Z" fill="#8ECAC1"/>
<path d="M63.1873 120.744C73.0092 123.375 82.0173 126.984 89.7919 131.201C79.3967 148.255 66.0484 158.092 54.4811 155.405C54.302 155.364 54.1177 155.313 53.9386 155.267C42.2434 152.135 35.4054 136.78 34.9141 116.501C43.7533 116.732 53.3602 118.114 63.1873 120.744Z" fill="#8ECAC1"/>
<path d="M32.6203 38.2896C37.5134 43.3976 44.0801 48.2701 51.9008 52.5234C46.7058 61.1374 42.2631 71.5633 39.1666 83.1152V83.1203L7.35156 74.5984C11.4973 59.3511 20.6795 46.8114 32.6203 38.2896Z" fill="#8ECAC1"/>
<path d="M7.35577 74.5984L39.1708 83.1203C36.0179 94.8718 34.6616 106.311 34.9124 116.501C26.0271 116.256 17.9147 117.172 11.1228 119.127C4.94507 105.697 3.23046 90.1169 7.32506 74.7161C7.33529 74.6752 7.34553 74.6393 7.35577 74.5984Z" fill="#8ECAC1"/>
<path d="M34.9107 116.502C35.4021 136.78 42.24 152.135 53.9352 155.267C34.23 149.99 19.0237 136.314 11.1211 119.127C17.913 117.172 26.0254 116.256 34.9107 116.502Z" fill="#8ECAC1"/>
<path d="M108.138 224H33.9229C31.0966 224 28.8047 221.709 28.8047 218.882V205.979C28.8047 203.152 31.0966 200.86 33.9229 200.86C42.972 200.86 51.0962 195.475 54.6211 187.14C55.7891 184.38 56.3813 181.44 56.3813 178.402C56.3813 175.575 58.6732 173.283 61.4995 173.283C64.3263 173.283 66.6178 175.575 66.6178 178.402C66.6178 182.818 65.7533 187.101 64.0479 191.129C59.593 201.662 50.0899 208.96 39.0407 210.697V213.763H103.019V210.699C98.1882 209.94 93.5966 208.106 89.5291 205.287C84.1703 201.571 80.0839 196.416 77.7106 190.377C76.2058 186.555 75.4416 182.525 75.4416 178.402C75.4416 175.575 77.7336 173.283 80.5599 173.283C83.3862 173.283 85.6781 175.575 85.6781 178.402C85.6781 181.236 86.2022 184.003 87.2366 186.63C88.8668 190.777 91.6757 194.319 95.3614 196.874C99.1233 199.482 103.541 200.86 108.137 200.86C110.963 200.86 113.255 203.152 113.255 205.979V218.882C113.256 221.709 110.964 224 108.138 224Z" fill="#5E2A41"/>
<path d="M70.9523 183.243C67.6321 183.243 64.2955 183.065 61.0357 182.712C41.7855 180.636 23.9858 172.655 9.56356 159.634C7.46508 157.74 7.30027 154.504 9.19402 152.405C11.0888 150.307 14.3246 150.142 16.423 152.036C29.2345 163.602 45.0417 170.69 62.1346 172.535C67.9766 173.167 74.0724 173.161 79.9139 172.52C99.7097 170.353 117.994 160.977 131.399 146.117C144.901 131.15 152.337 111.796 152.337 91.6217C152.337 46.746 115.828 10.2365 70.9518 10.2365C68.1255 10.2365 65.8336 7.94506 65.8336 5.11825C65.8336 2.29144 68.1255 0 70.9518 0C121.472 0 162.574 41.1011 162.574 91.6217C162.574 114.334 154.202 136.123 138.999 152.974C123.91 169.701 103.323 180.256 81.0281 182.696C77.7166 183.059 74.3258 183.243 70.9523 183.243Z" fill="#5E2A41"/>
<path d="M58.3495 160.964C56.6528 160.964 54.9745 160.775 53.3203 160.391C50.5667 159.751 48.8536 157.001 49.4934 154.247C50.1326 151.493 52.8842 149.78 55.6368 150.42C64.3864 152.452 76.077 143.863 85.4194 128.537C90.6231 120.015 94.9101 109.788 97.8229 98.951C97.8321 98.9136 97.8413 98.8763 97.8516 98.8394C100.721 88.129 102.137 77.2568 101.947 67.3986C101.631 50.5304 96.6452 37.6585 88.9335 33.8029C88.2231 33.4456 87.4764 33.1621 86.7061 32.9553C83.976 32.2219 82.3576 29.4145 83.0911 26.6844C83.8245 23.9549 86.6298 22.3365 89.3619 23.0694C90.8012 23.4559 92.2 23.9881 93.52 24.652C104.978 30.3808 111.782 45.8927 112.181 67.2046C112.389 77.9729 110.863 89.7883 107.768 101.379C107.759 101.417 107.749 101.456 107.738 101.494C104.575 113.304 99.8794 124.498 94.1577 133.869C83.5911 151.203 70.534 160.963 58.3495 160.964Z" fill="#5E2A41"/>
<path d="M53.9364 160.386C53.4983 160.386 53.0525 160.33 52.6093 160.211C38.8939 156.538 30.3644 140.244 29.7921 116.625C29.5229 105.687 31.0451 93.6819 34.1943 81.9033C34.2041 81.8649 34.2133 81.827 34.2235 81.7891C37.338 70.1717 41.9352 59.1373 47.5187 49.8794C58.5198 31.6237 72.1687 21.6016 84.9633 22.3545C86.1794 22.4267 87.4149 22.6053 88.6336 22.8848C91.3887 23.5169 93.1095 26.2628 92.4779 29.018C91.8458 31.7731 89.1019 33.4954 86.3447 32.8618C85.6778 32.7087 85.0088 32.6115 84.3557 32.5731C75.7412 32.0587 64.9924 40.7162 56.2857 55.1645C51.2069 63.5861 47.0084 73.6695 44.1401 84.3339C44.1304 84.3718 44.1212 84.4086 44.1109 84.446C41.1925 95.3264 39.7799 106.367 40.0266 116.375C40.4688 134.639 46.4479 147.963 55.2585 150.323C57.9891 151.054 59.61 153.861 58.8781 156.591C58.2649 158.878 56.1967 160.386 53.9364 160.386Z" fill="#5E2A41"/>
<path d="M134.571 113.933C133.966 113.933 133.352 113.825 132.753 113.597C130.217 112.633 128.893 109.872 129.678 107.316C138.317 74.9734 119.049 41.6245 86.7069 32.9557L86.5723 32.9209C86.4976 32.9009 86.4229 32.8805 86.3492 32.8636C86.3005 32.8528 86.253 32.841 86.2048 32.8283C70.6003 28.7843 54.3325 31.0271 40.3965 39.1452C26.4862 47.2489 16.5209 60.2656 12.325 75.8072C11.7784 78.0464 9.75922 79.7109 7.35262 79.7109C4.52633 79.7109 2.23438 77.4246 2.23438 74.5977C2.23438 74.1499 2.29272 73.6944 2.40891 73.2624C7.29171 55.0481 18.9526 39.7901 35.2435 30.2998C51.5093 20.8244 70.4949 18.1977 88.7118 22.9029C88.8668 22.9398 89.0235 22.9802 89.1791 23.0212L89.3085 23.055C127.156 33.1988 149.672 72.1886 139.558 109.989C139.515 110.157 139.454 110.373 139.356 110.632C138.579 112.676 136.634 113.933 134.571 113.933Z" fill="#5E2A41"/>
<path d="M109.084 150.497C107.48 150.497 105.9 149.745 104.903 148.337C103.269 146.03 103.814 142.836 106.122 141.202C117.596 133.075 125.94 121.117 129.619 107.527L129.623 107.513C129.63 107.482 129.647 107.416 129.655 107.385C133.224 93.8699 132.004 79.4355 126.22 66.7397C125.049 64.1672 126.185 61.1316 128.757 59.96C131.328 58.789 134.364 59.9232 135.536 62.4961C142.291 77.3247 143.72 94.1791 139.562 109.961L139.553 110C139.543 110.037 139.525 110.109 139.515 110.147C135.223 126.05 125.465 140.046 112.038 149.555C111.14 150.191 110.107 150.497 109.084 150.497Z" fill="#5E2A41"/>
<path d="M11.1245 124.246C9.18771 124.246 7.3344 123.141 6.47146 121.266C-0.402343 106.323 -1.85593 89.3242 2.37738 73.4008L2.39427 73.3363C2.40041 73.3117 2.4086 73.2795 2.41576 73.2554C6.70025 57.4964 16.3727 43.5993 29.65 34.1234C31.9496 32.4804 35.1475 33.0153 36.7889 35.3164C38.4308 37.6176 37.897 40.8139 35.5958 42.4559C24.2389 50.5611 15.9648 62.4488 12.2965 75.9307L12.2843 75.9783C12.2802 75.9937 12.274 76.0167 12.2704 76.0316C8.64774 89.6584 9.89096 104.204 15.7718 116.988C16.9531 119.557 15.8286 122.596 13.2608 123.777C12.5678 124.095 11.8405 124.246 11.1245 124.246Z" fill="#5E2A41"/>
<path d="M109.748 72.453C108.819 72.453 107.881 72.4407 106.933 72.4161C97.3448 72.173 87.3806 70.6841 77.3201 67.9904C67.2551 65.2941 57.8815 61.6028 49.4595 57.0184C41.1756 52.5133 34.2685 47.4032 28.9297 41.83C27.9019 40.7572 27.3911 39.2908 27.5303 37.8111C27.669 36.332 28.4434 34.9859 29.6529 34.1229C45.8721 22.548 66.3133 18.2978 85.7356 22.4589C86.9327 22.7149 88.134 23.0051 89.303 23.3203C90.56 23.6597 91.7065 23.9985 92.8079 24.3568C111.699 30.4557 127.278 44.3579 135.539 62.4954C136.155 63.8476 136.153 65.401 135.533 66.7512C134.913 68.1019 133.737 69.1164 132.311 69.5315C125.639 71.4728 118.06 72.453 109.748 72.453ZM40.9473 39.0462C44.7752 42.2415 49.3177 45.2899 54.351 48.0271L54.3525 48.0282C62.0657 52.2262 70.6843 55.616 79.9683 58.1029C89.2497 60.5873 98.4104 61.9606 107.195 62.1837C112.922 62.3306 118.38 61.9641 123.294 61.1114C115.785 48.3542 103.807 38.6659 89.652 34.0963C88.7067 33.7887 87.7235 33.4985 86.6359 33.2052C85.6404 32.9365 84.6162 32.6893 83.592 32.4702C69.0449 29.3527 53.8274 31.7532 40.9473 39.0462Z" fill="#5E2A41"/>
<path d="M70.9788 162.896C64.8277 162.896 58.6352 162.093 52.5455 160.462C31.9891 154.952 15.1331 140.677 6.30058 121.296C5.67718 119.928 5.6869 118.356 6.32668 116.995C6.96698 115.635 8.17232 114.624 9.62437 114.233L9.7769 114.19C12.5059 113.446 15.3174 115.056 16.0601 117.783C16.0984 117.925 16.1312 118.067 16.1568 118.209C23.8521 134.208 38.0127 145.969 55.1942 150.575C72.3782 155.178 90.5254 152.068 105.19 142.053C105.208 142.033 105.225 142.013 105.243 141.993C107.113 139.873 110.347 139.671 112.467 141.543C112.671 141.722 112.865 141.917 113.044 142.121C113.998 143.208 114.448 144.649 114.282 146.087C114.115 147.524 113.348 148.824 112.17 149.665C99.9686 158.367 85.5904 162.895 70.9788 162.896Z" fill="#5E2A41"/>
<path d="M71.0267 162.638C65.0931 162.638 59.1263 161.892 53.2541 160.375C53.1026 160.34 52.9485 160.3 52.796 160.259L52.6624 160.224C52.646 160.22 52.6286 160.216 52.6123 160.211C32.15 154.732 15.3325 140.537 6.47178 121.265C5.84889 119.91 5.84786 118.351 6.46922 116.995C7.09109 115.638 8.27238 114.621 9.706 114.209C17.1172 112.075 25.6473 111.125 35.0531 111.385C44.5792 111.633 54.4922 113.119 64.5081 115.801C74.5025 118.477 83.8295 122.145 92.23 126.702C100.512 131.188 107.423 136.278 112.768 141.829C113.802 142.903 114.316 144.375 114.176 145.86C114.036 147.344 113.255 148.694 112.038 149.556C99.8931 158.156 85.5666 162.637 71.0267 162.638ZM55.2517 150.321L55.4032 150.36C55.4764 150.379 55.5496 150.399 55.6218 150.416C55.6694 150.427 55.717 150.438 55.7636 150.45C71.0426 154.412 87.1021 152.27 100.725 144.616C96.9025 141.445 92.3703 138.419 87.3524 135.701C79.6545 131.525 71.0789 128.157 61.8609 125.688C52.6215 123.214 43.5095 121.845 34.7788 121.617C29.074 121.46 23.6379 121.813 18.7392 122.647C26.7994 136.248 39.8136 146.184 55.2517 150.321Z" fill="#5E2A41"/>
<path d="M134.235 113.713C133.796 113.713 133.35 113.656 132.907 113.538L5.83029 79.488C3.10124 78.7499 1.48797 75.9395 2.22551 73.211C2.96305 70.4819 5.77348 68.8692 8.50253 69.6062L8.6919 69.6574L135.557 103.65C138.287 104.382 139.907 107.188 139.175 109.919C138.563 112.205 136.495 113.713 134.235 113.713Z" fill="#5E2A41"/>
<path d="M89.2398 31.7655C88.8011 31.7655 88.3553 31.7087 87.9121 31.5899C85.1815 30.8585 83.5611 28.0517 84.293 25.3211L88.0907 11.1487C88.8226 8.4191 91.63 6.79815 94.359 7.52955C97.0896 8.26094 98.71 11.0678 97.9781 13.7984L94.1804 27.9708C93.5677 30.2571 91.4995 31.7655 89.2398 31.7655Z" fill="#5E2A41"/>
<path d="M49.5054 180.025C49.0673 180.025 48.6209 179.968 48.1772 179.85C45.4471 179.118 43.8267 176.311 44.5586 173.581L49.0012 157.003C49.7331 154.273 52.5385 152.652 55.2701 153.384C58.0001 154.116 59.6206 156.922 58.8887 159.653L54.446 176.231C53.8339 178.517 51.7656 180.025 49.5054 180.025Z" fill="#5E2A41"/>
</svg>
