<svg width="666" height="477" fill="none" xmlns="http://www.w3.org/2000/svg"><g clip-path="url(#a)"><path d="M538.985 303.513a2.92 2.92 0 0 0 2.904-1.654 2.912 2.912 0 0 0-.558-3.293l-.163-.803.089-.186a7.825 7.825 0 0 1 7.454-4.434 7.84 7.84 0 0 1 6.973 5.158c2.095 5.791 4.835 11.62 5.295 17.661a23.145 23.145 0 0 1-.777 7.935 92.766 92.766 0 0 0 10.234-38.117 89.377 89.377 0 0 0-.09-10.01c-.18-2.732-.48-5.45-.9-8.154a93.865 93.865 0 0 0-16.761-40.619 24.99 24.99 0 0 1-9.886-11.254 19.026 19.026 0 0 1-1.491-5.284 23.196 23.196 0 0 0 1.999.259l.059.006a2.887 2.887 0 0 0 2.589-4.589c-.205-.278-.411-.557-.618-.835-.312-.43-.633-.852-.945-1.282a1.256 1.256 0 0 1-.102-.129c-.36-.49-.719-.972-1.079-1.462a8.358 8.358 0 0 1 2.859-2.515c3.927-2.059 9.127-.265 11.727 3.319 2.608 3.583 2.905 8.455 1.742 12.726a33.45 33.45 0 0 1-5.106 10.092c.195.275.398.542.593.816a94.544 94.544 0 0 1 9.133 16.069 39.266 39.266 0 0 1 3.193-18.119c2.496-5.305 6.915-9.666 10.836-14.17 4.711-5.411 13.72-2.535 14.172 4.623l.013.207c-.565.285-1.119.589-1.662.913a3.952 3.952 0 0 0 1.259 7.26l.08.016a39.504 39.504 0 0 1-1.31 5.826 40.49 40.49 0 0 1-21.336 24.415c-.331.151-.654.302-.985.444a96.38 96.38 0 0 1 4.053 24.65 91.41 91.41 0 0 1-.754 14.753l.033-.173a24.175 24.175 0 0 1 8.899-13.56c6.591-4.916 15.65-6.418 22.694-10.288a4.542 4.542 0 0 1 6.471 2.202 4.525 4.525 0 0 1 .233 2.712c-1.04.368-2.057.8-3.043 1.294-.565.285-1.119.589-1.662.913a3.952 3.952 0 0 0 1.258 7.26l.08.016.165.033a39.37 39.37 0 0 1-7.765 10.989 40.594 40.594 0 0 1-13.802 8.851 40.586 40.586 0 0 1-16.181 2.665h-.009a96.32 96.32 0 0 1-7.355 18.589l-23.131-1.076c-.071-.261-.133-.529-.196-.79 2.135.234 4.29.206 6.418-.083-1.618-2.184-3.235-4.385-4.853-6.57a1.256 1.256 0 0 1-.102-.129c-.821-1.117-1.65-2.227-2.47-3.345v-.001c.107-3.304.639-6.58 1.584-9.748h.001zM72.914 103.625a2.918 2.918 0 0 1-3-1.471 2.91 2.91 0 0 1 .353-3.322l.112-.81-.1-.181a7.83 7.83 0 0 0-7.714-3.965 7.834 7.834 0 0 0-6.64 5.579c-1.733 5.908-4.108 11.896-4.193 17.954a23.135 23.135 0 0 0 1.266 7.871 92.779 92.779 0 0 1-12.572-37.412 89.563 89.563 0 0 1-.528-9.996c.01-2.738.142-5.47.394-8.194a93.855 93.855 0 0 1 14.217-41.576 24.99 24.99 0 0 0 9.172-11.843 19.049 19.049 0 0 0 1.161-5.366c-.496.12-1.003.218-1.503.305l-.476.077-.059.01a2.892 2.892 0 0 1-3.33-2.852c0-.556.16-1.101.463-1.569l.565-.872c.285-.448.58-.889.864-1.337.034-.043.065-.089.094-.136.329-.51.658-1.014.986-1.525-.81-1-1.84-1.798-3.009-2.334-4.046-1.813-9.126.3-11.5 4.036-2.381 3.738-2.376 8.618-.951 12.81a33.453 33.453 0 0 0 5.72 9.757c-.177.286-.364.565-.541.852a94.476 94.476 0 0 0-8.122 16.601 39.263 39.263 0 0 0-4.308-17.887c-2.819-5.14-7.498-9.22-11.691-13.474-5.037-5.11-13.85-1.683-13.86 5.49l.001.207c.581.25 1.153.52 1.715.809a3.954 3.954 0 0 1 1.172 6.08 3.956 3.956 0 0 1-1.98 1.243l-.078.021c.41 1.951.967 3.868 1.668 5.735a40.495 40.495 0 0 0 22.804 23.05c.34.13.672.261 1.01.383a96.398 96.398 0 0 0-2.52 24.853c.157 4.93.714 9.838 1.664 14.678l-.044-.17a24.177 24.177 0 0 0-9.72-12.985c-6.883-4.5-16.017-5.44-23.286-8.867a4.542 4.542 0 0 0-6.323 2.597 4.534 4.534 0 0 0-.065 2.72 26.58 26.58 0 0 1 3.118 1.105c.58.25 1.152.519 1.714.808a3.954 3.954 0 0 1 1.172 6.08 3.956 3.956 0 0 1-1.979 1.244l-.079.021-.162.043a39.37 39.37 0 0 0 8.43 10.489 40.573 40.573 0 0 0 30.638 9.643l.008-.001a96.399 96.399 0 0 0 8.49 18.1l23.021-2.503c.055-.264.1-.536.147-.8-2.117.366-4.27.471-6.412.313 1.48-2.28 2.959-4.576 4.439-6.856.034-.044.065-.089.094-.136.75-1.166 1.508-2.325 2.258-3.491v-.001a38.477 38.477 0 0 0-2.184-9.631v-.001z" fill="#F2F2F2"/><path d="M390.962 95.1a8.087 8.087 0 0 1 5.208 4.431 8.07 8.07 0 0 1-.056 6.835l12.354 13.726-6.515 9.536-17.174-19.627a8.123 8.123 0 0 1 6.183-14.901z" fill="#A0616A"/><path d="M506.613 128.802a16.158 16.158 0 0 0-16.361-7.488 16.159 16.159 0 0 0-5.92 2.212l-40.628 25.145-43.825-37.227-10.903 10.145 48.414 62.772 62.923-32.781c-1.468.765 8.075-19.892 6.3-22.778z" fill="#CCC"/><path d="M426.129 212.413a152.562 152.562 0 0 1-11.622 58.434 152.657 152.657 0 0 1-33.119 49.538 152.766 152.766 0 0 1-49.571 33.097 152.84 152.84 0 0 1-58.474 11.614c-84.38 0-152.785-68.36-152.785-152.683a152.51 152.51 0 0 1 7.792-48.265 152.848 152.848 0 0 1 55.647-75.575 153.015 153.015 0 0 1 89.346-28.844 152.817 152.817 0 0 1 78.533 21.69 152.68 152.68 0 0 1 56.199 58.952 150.654 150.654 0 0 1 8.446 18.636c.331.891.653 1.781.967 2.681v.008a146.861 146.861 0 0 1 3.701 12.079 152.603 152.603 0 0 1 4.94 38.638z" fill="#3F3D56"/><path d="M256.627 109.399a51.282 51.282 0 0 0-45.003-1.84c-6.293 2.736-12.918 7.646-15.017 16.511 8.489-5.007 19.479 2.904 21.663 15.594l-.509.141c-1.154 8.79 1.421 18.36 6.408 23.811.655-5.662 4.38-9.515 8.044-11.922 3.664-2.407 7.717-4.155 10.514-8.293 3.315-4.905 4.157-12.073 5.474-18.612 1.317-6.539 3.816-13.568 8.426-15.39z" fill="#fff"/><path d="M209.105 184.2c-2.351 3.529-5.491 5.743-8.309 8.499-2.81 2.766-5.484 6.498-6.044 11.29-.356 3.071.195 6.193.119 9.297-.076 3.105-1.112 6.6-3.226 7.371-3.335 1.205-5.882-4.987-9.311-5.42-2.725-.339-5.178 3.945-4.388 7.66.789 3.715 4.498 5.361 6.629 2.935 1.927 3.231.569 9.093-2.326 10.085-.306 2.036-.611 4.063-.908 6.099-7.317-5.115-14.71-10.314-20.932-17.804a54.032 54.032 0 0 1-12.324-29.112c-.807-8.61.39-18.458-3.565-25.082-3.167-5.302-8.599-6.473-13.488-6.142a47.75 47.75 0 0 0-2.682.272 150.888 150.888 0 0 1 10.941-25.023 10.724 10.724 0 0 0 2.741-1.705c4.55-3.86 6.57-11.672 10.263-17.076.237-.347.483-.687.738-1.017 3.777-4.929 8.836-7.465 13.725-9.823 10.823-5.251 21.959-10.57 33.384-9.84l-3.251.314c-3.794 10.62-7.591 21.24-11.391 31.86-.577 1.629-1.16 3.26-1.748 4.894-2.156 6.04-4.38 12.47-4.049 19.23.195 4.004 1.587 8.279 4.235 9.653 2.47 1.272 5.169-.288 7.555-1.832 1.01-.645 2.011-1.29 3.021-1.943 3.625-2.332 7.64-4.724 11.468-3.164 3.505 1.425 6.094 6.184 6.587 11.316a22.61 22.61 0 0 1-3.464 14.208zM230.662 256.705l-31.757-19.539.18-.463c-6.582 2.505-9.314 14.197-8.226 23.757 1.087 9.561 4.775 18.108 6.639 27.424a72.743 72.743 0 0 1-2.747 38.196 312.787 312.787 0 0 0 36.771-50.635 27.099 27.099 0 0 0 3.326-7.37c.672-2.776.569-6.113-.778-8.339a9.291 9.291 0 0 0-3.408-3.031z" fill="#fff"/><path d="M188.884 138.21c-1.124 2.526-1.556 5.893-.536 8.506 1.042 2.669 3.244 3.875 5.271 4.88l5.849 2.897c1.946.964 4.044 1.937 6.027 1.144 2.393-.956 4.052-4.705 3.623-8.184-.457-3.703-2.793-6.251-4.953-8.42l-9.069-9.106-1.703 2.085a22.746 22.746 0 0 0-4.509 6.198zM394.774 177.796l7.894 1.857c-.458 8.882-4.864 17.101-10.771 20.078-2.462 1.239-5.204 1.697-7.241 4.013-1.842 2.103-2.775 5.377-3.633 8.507l-4.507 16.388c-1.612 5.887-3.684 12.427-7.877 14.548-3.599 1.823-7.715-.407-10.482-4.148-2.768-3.741-4.457-8.771-6.095-13.674.102 5.344-2.385 10.586-5.908 12.444-3.531 1.857-7.826.178-10.185-3.97-1.698-2.977-2.402-6.905-4.066-9.924-1.664-3.02-5.152-4.751-6.969-1.917-1.197 1.883-1.044 4.767-1.638 7.159-.925 3.715-3.726 6.048-6.502 6.251-2.767.204-5.466-1.391-7.784-3.554-4.778-4.479-8.301-11.587-9.668-19.484-.602-3.52-.772-7.354.272-10.654 1.044-3.299 3.565-5.844 6.069-5.216 1.647-3.478-1.604-8.093-4.533-7.686-2.937.408-5.237 3.554-7.647 5.972-2.402 2.418-5.764 4.173-8.183 1.773.017 2.231-1.799 3.707-3.37 3.52-1.562-.178-2.953-1.433-4.388-2.324-5.543-3.453-12.579-1.162-16.518 5.369 2.462-10.467 6.069-22.478 13.632-24.938 3.09-1.009 6.46-.178 9.379-1.926 5.17-3.096 6.214-14.793 1.749-19.619.569 4.563.458 9.89-1.952 13.012-2.411 3.121-7.47 1.085-7.164-3.529-.696 3.181-4.159 3.664-5.755 1.221-1.604-2.443-1.469-6.438-.331-9.356 1.137-2.918 3.072-5.013 4.948-7.023 4.032-4.318 8.123-8.686 12.792-11.401 4.677-2.714 10.075-3.63 14.761-.933 2.47 1.425 4.643 3.801 7.164 5.056 2.521 1.264 5.721 1.103 7.393-1.849 1.876-3.291.993-8.177 1.689-12.291 1.248-7.27 8.522-10.671 12.554-5.87-3.013-.772-6.129 2.791-6.502 7.108-.382 4.318 1.799 8.678 4.719 9.984 4.906 2.171 9.711-3.291 13.42-8.347 3.871-5.293 7.747-10.583 11.629-15.87a19.151 19.151 0 0 1 2.079-2.528 6.698 6.698 0 0 1 9.142-.187c3.921 3.198 5.763 9.755 8.98 14.268 4.669 6.557 11.655 8.151 18.156 9.424 4.847.941 9.697 1.888 14.549 2.841a150.654 150.654 0 0 1 8.446 18.636c-8.217 3.486-15.797 10.01-21.747 18.789zM410.443 279.856a152.047 152.047 0 0 1-12.647 21.147c-3.056-1.306-6.341 1.026-9.201 3.215-2.988 2.29-6.578 4.521-9.643 2.434-3.132-2.137-4.142-8.117-3.149-12.859.993-4.733 3.472-8.5 5.874-12.079 2.546-3.8 5.271-7.745 8.811-9.221 3.548-1.475 8.106.611 9.141 5.65l2.513-.085c-1.409-1.934-.671-5.938 1.222-6.642 2.182-.823 4.074 2.172 5.365 4.818.577 1.196 1.162 2.401 1.714 3.622z" fill="#fff"/><path d="M314.217 244.027c-5.4.34-9.678-6.304-12.52-12.84-2.843-6.536-5.437-14.01-10.309-17.337-2.785-1.901-5.959-2.162-8.979-3.083-3.02-.921-6.181-2.827-7.625-6.709l-3.426-1.383c-4.524 2.542-9.108 5.131-13.006 9.268a29.04 29.04 0 0 0-7.75 16.932c-.655 6.852 1.762 14.493 6.277 17.067 3.568 2.034 7.722.752 11.336 2.614 4.515 2.327 7.196 9.085 8.21 15.757 1.015 6.673.758 13.608 1.484 20.356.726 6.748 2.727 13.77 6.868 17.229 5.181 4.327 12.785.731 15.109-7.147 1.141-3.864 1.102-8.224 1.954-12.235 1.502-7.064 5.556-12.305 8.77-18.1 3.215-5.794 5.745-13.664 3.607-20.389zM260.853 174.614c.504.464.974.962 1.406 1.492a4.902 4.902 0 0 1-.086 5.062 4.713 4.713 0 0 0 3.375-1.714 21.734 21.734 0 0 0 2.587-3.642c.551-.898 1.137-2.111.763-3.177-.255-.728-.859-1.038-1.281-1.586-.671-.867-.837-2.244-1.184-3.435-.749-2.571-2.544-4.462-4.493-4.732l.271.052c-.814.279-1.383 1.57-1.203 2.733.164 1.058.845 1.937.777 3.017-.097 1.552-1.65 2.28-1.746 3.833a2.964 2.964 0 0 0 .814 2.097z" fill="#fff"/><path d="m251.6 148.234.024-.005c.167-.151.321-.315.461-.49l-.485.495z" fill="#E6E6E6"/><path d="M253.22 155.521c1.194-.768 1.861-2.89 1.466-4.666-.392-1.765-1.781-2.952-3.062-2.626a3.116 3.116 0 0 1-2.901.854c-.792-.204-1.661-.729-2.348-.132a3.535 3.535 0 0 0-.799 1.56l-.763 2.339a1.475 1.475 0 0 0-.09.887.753.753 0 0 0 .576.458l4.575 1.347c1.112.328 2.312.643 3.346-.021zM368.354 256.121l-2.115-3.46a11.545 11.545 0 0 0-2.787-3.497 2.471 2.471 0 0 0-3.515.352l.085.659c1.607 2.014 3.307 4.252 3.715 7.243.161 1.178.105 2.398.246 3.582.141 1.184.541 2.412 1.306 2.922 1.11.741 2.413-.351 3.204-1.685a5.797 5.797 0 0 0 .899-3.693 6.466 6.466 0 0 0-1.038-2.423z" fill="#fff"/><path d="m399.729 212.07.612-4.008c.331-1.468.372-2.986.121-4.469a2.476 2.476 0 0 0-1.038-1.61 2.474 2.474 0 0 0-1.878-.383l-.359.559c-.069 2.576-.21 5.382-1.825 7.932-.637 1.005-1.466 1.902-2.121 2.899-.655.996-1.14 2.193-.884 3.076.372 1.281 2.073 1.284 3.537.773a5.808 5.808 0 0 0 3.068-2.247 6.469 6.469 0 0 0 .767-2.522z" fill="#E6E6E6"/><path d="M379.413 257.622c.345-.99-.153-2.126-.258-3.22a7.068 7.068 0 0 1 1.077-4.008 13.024 13.024 0 0 0 1.677-3.675 3.067 3.067 0 0 0-.08-1.799c-.234-.524-.799-.763-1.123-.348l.694.446a6.335 6.335 0 0 0-2.816.136c-.523.2-.99.523-1.361.942a3.47 3.47 0 0 0-.773 1.462 14.868 14.868 0 0 1-.56 2.494c-.413.851-1.215 1.133-1.718 1.879a4.488 4.488 0 0 0 .071 4.269 4.988 4.988 0 0 0 2.82 2.216c.847.303 1.963.319 2.35-.794zM399.107 263.56a9.713 9.713 0 0 0 1.221 2.239c.943.949 2.224.365 3.368.135a5.823 5.823 0 0 1 5.54 2.22 14.089 14.089 0 0 0-8.11-10.111c-2.697-1.098-5.536-1.204-8.34-1.303l-.485.124c1.234 3.59 5.11 3.51 6.806 6.696z" fill="#fff"/><path d="m315.695 270.904.007.015.141-.271-.148.256z" fill="#E6E6E6"/><path d="M312.707 276.683a26.403 26.403 0 0 0-1.676 3.68 31.961 31.961 0 0 0-1.215 6.296c-.152 1.213-.199 2.763.562 3.354a1.08 1.08 0 0 0 1.412-.192c.422-.446.768-.96 1.023-1.52a34.977 34.977 0 0 0 3.454-8.193c.728-3.019.722-6.574-.565-9.189l-2.995 5.764z" fill="#fff"/><path d="M283.884 122.714a3.409 3.409 0 0 0 3.666.715 12.114 12.114 0 0 0 3.449-2.277 8.109 8.109 0 0 0 2.091-2.28 4.611 4.611 0 0 0 .428-3.521c-.473-1.381-1.671-1.844-2.729-2.157l-5.078-1.505 1.225-1.103c-1.26-.676-2.654.578-3.442 2.131a11.45 11.45 0 0 0-1.044 3.214c-.422 2.436-.01 5.338 1.434 6.783zM313.77 112.687a2.799 2.799 0 0 0 3.812.31 4.255 4.255 0 0 0 1.685-3.034c.12-1.331-.538-2.81-1.478-2.925l.215-1.245c-1.812-.327-4.041-.393-5.011 1.805a5.16 5.16 0 0 0 .777 5.089z" fill="#E6E6E6"/><path d="M309.778 46.435a40.313 40.313 0 0 0-29.635 8.529 40.26 40.26 0 0 0-14.921 26.971c-2.495 22.099 9.155 70.086 30.396 89.951 10.001-38.059 45.046-60.634 49.684-80.924 4.954-21.68-13.41-42.034-35.524-44.527z" fill="#2594EA"/><path d="M302.434 95.563c7.257 0 13.141-5.88 13.141-13.132 0-7.253-5.884-13.133-13.141-13.133-7.258 0-13.142 5.88-13.142 13.133 0 7.252 5.884 13.132 13.142 13.132z" fill="#fff"/><path d="M288.616 190.821c4.754 0 8.607-3.851 8.607-8.601 0-4.751-3.853-8.602-8.607-8.602-4.753 0-8.607 3.851-8.607 8.602 0 4.75 3.854 8.601 8.607 8.601z" fill="#2594EA"/><path opacity=".2" d="M313.307 73.022a13.146 13.146 0 0 1 5.982 8.08 13.134 13.134 0 0 1-1.487 9.94 13.138 13.138 0 0 1-8.085 5.978c-3.382.843-6.96.308-9.947-1.486a13.146 13.146 0 0 0 15.057-7.951 13.127 13.127 0 0 0-5.445-16.126c1.384.307 2.709.835 3.925 1.565z" fill="#231F20"/><path opacity=".2" d="M345.353 91.004c-4.637 20.29-39.683 42.865-49.684 80.925a55.738 55.738 0 0 1-5.55-6.077c11.238-35.775 44.102-57.513 48.582-77.117 4.01-17.546-7.254-34.22-23.417-41.264 19.566 4.915 34.61 23.665 30.069 43.533z" fill="#231F20"/><path d="M186.632 97.676a30.275 30.275 0 0 0-22.255 6.404 30.236 30.236 0 0 0-11.205 20.255c-1.873 16.595 6.876 52.632 22.826 67.55 7.511-28.581 33.829-45.534 37.311-60.771 3.721-16.282-10.07-31.566-26.677-33.438z" fill="#2594EA"/><path d="M181.117 134.569c5.45 0 9.868-4.415 9.868-9.862s-4.418-9.862-9.868-9.862-9.869 4.415-9.869 9.862 4.419 9.862 9.869 9.862z" fill="#fff"/><path d="M170.741 206.105a6.462 6.462 0 0 0 6.463-6.46 6.461 6.461 0 0 0-6.463-6.459 6.462 6.462 0 0 0-6.464 6.459 6.462 6.462 0 0 0 6.464 6.46z" fill="#2594EA"/><path opacity=".2" d="M189.282 117.641a9.868 9.868 0 0 1 4.677 9.911 9.85 9.85 0 0 1-3.89 6.47 9.874 9.874 0 0 1-10.952.526 9.874 9.874 0 0 0 11.307-5.972 9.858 9.858 0 0 0-4.089-12.11 9.889 9.889 0 0 1 2.947 1.175z" fill="#231F20"/><path opacity=".2" d="M213.348 131.146c-3.483 15.237-29.801 32.19-37.311 60.771a41.8 41.8 0 0 1-4.168-4.564c8.439-26.865 33.119-43.19 36.484-57.912 3.011-13.176-5.448-25.698-17.586-30.988 14.693 3.691 25.991 17.772 22.581 32.693z" fill="#231F20"/><path d="M495.595 454.929H484.76l-5.155-41.765h15.992l-.002 41.765z" fill="#A0616A"/><path d="M501.424 475.489h-7.689l-1.372-7.254-3.515 7.254h-20.392a4.584 4.584 0 0 1-4.333-6.075 4.579 4.579 0 0 1 1.729-2.275l16.284-11.239v-7.334l17.128 1.022 2.16 25.901z" fill="#2F2E41"/><path d="M453.627 454.929h-10.835l-5.155-41.765h15.992l-.002 41.765z" fill="#A0616A"/><path d="M459.456 475.489h-7.688l-1.373-7.254-3.515 7.254h-20.392a4.584 4.584 0 0 1-4.333-6.075 4.579 4.579 0 0 1 1.729-2.275l16.284-11.239v-7.334l17.128 1.022 2.16 25.901zM412.463 344.659c2.073 3.108 24.631 88.552 24.631 88.552l20.001 2.28-2.374-21.499-3.629-38.044-5.619-25.394s19.844-45.131 21.098-48.726l.892-2.58 6.2 56.227a15.797 15.797 0 0 1 .943 6.279c-.187 3.512 3.338 56.351 3.338 56.351l1.695 18.95 17.137 2.379 6.953-32.788c5.805-10.65 2.477-48.498.103-52.02-2.374-3.523-1.431-28.057-1.431-28.057 3.032-1.066 21.111-62.673 12.068-62.309.581-3.284 1.037-6.216 1.037-6.216l-15.697-12.651-39.282-10.205-9.911-4.755s-17.7 32.708-17.524 34.335a9.034 9.034 0 0 1-1.338 5.895l-17.871 59.771s-3.514 11.086-1.42 14.225z" fill="#2F2E41"/><path d="m511.154 130.778-6.249-13.26-21.27.817-6.938 13.794s-19.827 23.666-20.469 31.362c-.807 9.678 5.901 57.112-.807 54.037 0 0-15.815 18.551-6.457 18.551s51.687 26.554 54.465 29.54c2.777 2.986 15.176 4.923 14.136-1.312-1.039-6.234-6.411-39.95-6.411-39.95l14.542-53.016c4.186-11.446 5.488-24.285-3.973-31.974l-10.569-8.589z" fill="#CCC"/><path d="M432.368 91.751a23.324 23.324 0 0 0-25.324 5.425 23.288 23.288 0 0 0-4.94 7.631c-4.749 11.957-5.537 40.511 3.302 54.822 11.364-19.728 34.356-27.012 40.027-37.634 6.059-11.35-1.1-25.498-13.065-30.244z" fill="#2594EA"/><path d="M422.8 118.326a7.6 7.6 0 0 0 7.602-7.597 7.6 7.6 0 0 0-7.602-7.596 7.6 7.6 0 0 0-7.602 7.596 7.6 7.6 0 0 0 7.602 7.597z" fill="#fff"/><path d="M399.928 169.31a4.977 4.977 0 1 0 0-9.951 4.977 4.977 0 1 0 0 9.951z" fill="#2594EA"/><path opacity=".2" d="M430.299 107.127a7.595 7.595 0 0 1-5.651 12.846 7.605 7.605 0 0 1-5.325-2.333 7.603 7.603 0 0 0 11.126-7.177 7.593 7.593 0 0 0-2.104-4.805 7.59 7.59 0 0 1 1.954 1.469z" fill="#231F20"/><path opacity=".2" d="M445.455 122.026c-5.671 10.623-28.662 17.907-40.027 37.634a32.332 32.332 0 0 1-2.175-4.234c11.708-18.264 33.355-25.413 38.834-35.675 4.904-9.186 1.149-20.203-6.803-26.587 10.175 5.712 15.724 18.461 10.171 28.862z" fill="#231F20"/><path d="M397.684 162.621a8.101 8.101 0 0 1 3.503.053 8.095 8.095 0 0 1 5.36 4.247 8.09 8.09 0 0 1 .85 3.396l17.246 6.616-1.467 11.454-24.223-9.685a8.124 8.124 0 0 1-7.782-7.477 8.12 8.12 0 0 1 6.513-8.604z" fill="#A0616A"/><path d="M518.185 139.018a16.179 16.179 0 0 0-17.979.761 16.143 16.143 0 0 0-4.268 4.659l-24.754 40.85-55.968-13.258-5.099 13.989 71.673 33.928 36.3-57.778c5.434-7.632 8.096-18.269.095-23.151z" fill="#CCC"/><path d="M519.109 88.955a24.056 24.056 0 0 1-10.599 19.943 24.086 24.086 0 0 1-22.472 2.374 24.057 24.057 0 0 1-14.141-28.918 24.055 24.055 0 0 1 5.813-10.082l.116-.116a16.766 16.766 0 0 1 .591-.597.01.01 0 0 0 .003-.002l.002-.003.001-.004c.25-.23.5-.462.76-.683a24.07 24.07 0 0 1 25.799-3.82 24.053 24.053 0 0 1 14.127 21.908z" fill="#2F2E41"/><path d="M489.11 114.69c11.147 0 20.183-9.03 20.183-20.17 0-11.139-9.036-20.17-20.183-20.17s-20.183 9.031-20.183 20.17c0 11.14 9.036 20.17 20.183 20.17z" fill="#9E616A"/><path d="m510.543 100.272-3.344-.59a9.326 9.326 0 0 1-7.51-7.515l-3.263 5.465-.142.047c-7.775 2.58-15.864 1.808-24.724-2.355a68.989 68.989 0 0 1-7.359-4.055l-.175-.109-.014-.205c-.452-6.561 1.021-12.043 4.149-15.435a12.446 12.446 0 0 1 9.39-3.911.776.776 0 0 0 .333-.184c.045-.033.09-.066.135-.097v-.034l.231-.109a30.088 30.088 0 0 1 1.514-.663 22.773 22.773 0 0 1 23.767 4.604c6.217 5.931 9.068 15.885 7.095 24.77l-.083.376z" fill="#2F2E41"/><path d="M553.113 117.457c-6.868-3.543 1.965-16.4.19-23.918-1.775-7.518-14.557-9.936-15.371-17.617-.814-7.68-2.73-15.603-7.802-21.431-3.241-3.724-8.016-6.474-12.933-6.008a11.637 11.637 0 0 0-8.384 4.843 11.62 11.62 0 0 0-1.808 9.507c-1.4-1.982-5.023-1.552-5.92.703-.797 2.004.964 4.432 3.037 4.61 2.712 3.347 5.818 6.899 10.067 7.574a4.588 4.588 0 0 0 3.907-.901c.999-.96 1.077-2.877-.109-3.594 5.34 2.12 8.471 7.889 9.263 13.576.792 5.686-.304 11.44-1.026 17.137-.723 5.696-1.034 11.688 1.201 16.978 2.641 6.249 8.72 10.729 15.355 12.165 6.635 1.437 13.7.033 19.706-3.13 6.005-3.164 11.013-7.993 15.105-13.406-7.048 5-16.797 6.874-24.478 2.912z" fill="#2F2E41"/><path d="M509.684 99.712s-5.979-22.302-31.608-27.45a3.24 3.24 0 0 1-.25-.106c-.077-.048-.174-.096-.27-.144.289-.164.568-.308.857-.452h.004l.003-.003.002-.003.001-.004c.25-.23.5-.462.76-.683l.732.029s25.716-4.07 29.769 28.816z" fill="#FD6584"/><path opacity=".2" d="m496.298 171.273-14.475 16.759-23.918-7.058 26.074 12.008 12.319-21.709z" fill="#000"/><path d="M583.181 476.752 360.63 477a.962.962 0 0 1-.958-.96.96.96 0 0 1 .958-.961l222.551-.248a.96.96 0 0 1 0 1.921z" fill="#CACACA"/><path d="M592.949 327.511c-10.421 0-21.842-.393-34.265-1.181-64.254-4.077-147.483-18.254-234.355-39.917-86.872-21.663-167.009-48.226-225.647-74.793-28.564-12.943-50.487-25.193-65.16-36.413-15.533-11.878-22.328-22.232-20.195-30.772 4.154-16.638 40.943-20.278 71.074-20.401l.01 2.419c-41.377.17-65.788 6.764-68.735 18.568-3.754 15.034 26.865 38.505 84.006 64.395 58.509 26.509 138.499 53.021 225.233 74.65 86.734 21.629 169.81 35.781 233.923 39.85 62.611 3.974 100.677-2.37 104.431-17.404 3.116-12.482-17.432-30.87-57.859-51.778l1.113-2.149c29.375 15.192 63.473 36.981 59.095 54.513-2.133 8.54-12.998 14.489-32.295 17.682-11 1.819-24.511 2.731-40.374 2.731z" fill="#2594EA"/></g><defs><clipPath id="a"><path fill="#fff" d="M0 0h666v477H0z"/></clipPath></defs></svg>