<svg width="253" height="181" viewBox="0 0 253 181" fill="none" xmlns="http://www.w3.org/2000/svg">
<g clip-path="url(#clip0_255_4)">
<mask id="mask0_255_4" style="mask-type:luminance" maskUnits="userSpaceOnUse" x="0" y="0" width="253" height="181">
<path d="M253 0H0V181H253V0Z" fill="white"/>
</mask>
<g mask="url(#mask0_255_4)">
<path d="M204.75 115.17C204.976 115.191 205.203 115.142 205.4 115.029C205.597 114.917 205.755 114.747 205.853 114.542C205.95 114.337 205.982 114.108 205.944 113.884C205.906 113.66 205.8 113.454 205.641 113.293C205.618 113.18 205.602 113.1 205.579 112.988C205.59 112.964 205.601 112.941 205.613 112.917C205.866 112.389 206.27 111.948 206.774 111.649C207.278 111.35 207.859 111.206 208.444 111.235C209.03 111.264 209.594 111.466 210.065 111.814C210.536 112.162 210.894 112.642 211.093 113.192C211.889 115.389 212.93 117.601 213.105 119.894C213.181 120.907 213.081 121.926 212.809 122.905C215.129 118.417 216.455 113.484 216.697 108.441C216.757 107.175 216.745 105.907 216.663 104.642C216.595 103.606 216.481 102.574 216.321 101.548C215.45 95.9803 213.268 90.6983 209.954 86.1353C208.294 85.1286 206.983 83.6381 206.198 81.8649C205.914 81.2274 205.723 80.552 205.632 79.8599C205.823 79.894 206.018 79.9191 206.209 79.9403C206.269 79.9464 206.332 79.9525 206.391 79.9582L206.414 79.9604C206.625 79.9798 206.836 79.9377 207.024 79.8398C207.211 79.7415 207.366 79.5916 207.47 79.4076C207.574 79.2235 207.623 79.0133 207.61 78.8027C207.597 78.5918 207.523 78.3891 207.397 78.2191C207.319 78.1136 207.241 78.0078 207.163 77.9023C207.044 77.7391 206.922 77.579 206.804 77.4158C206.79 77.4003 206.777 77.384 206.765 77.3669C206.628 77.1809 206.492 76.998 206.355 76.8121C206.639 76.4148 207.01 76.0881 207.441 75.8578C208.933 75.0765 210.908 75.7572 211.896 77.1172C212.887 78.4768 212.999 80.3255 212.558 81.9461C212.133 83.3232 211.478 84.6183 210.618 85.7756C210.692 85.8799 210.769 85.9813 210.843 86.0852C212.196 88 213.358 90.0418 214.313 92.1827C214.166 89.8274 214.582 87.471 215.526 85.3073C216.474 83.2943 218.152 81.6395 219.642 79.9305C221.432 77.8772 224.854 78.9686 225.026 81.6847C225.028 81.7109 225.029 81.7371 225.031 81.7632C224.816 81.8714 224.606 81.9867 224.399 82.1097C224.14 82.2656 223.934 82.4963 223.808 82.7711C223.682 83.0462 223.643 83.3524 223.695 83.6503C223.746 83.9481 223.887 84.2232 224.098 84.4399C224.309 84.6566 224.58 84.8046 224.877 84.8645L224.908 84.8706C224.798 85.6189 224.632 86.3581 224.41 87.0813C223.771 89.0996 222.721 90.9643 221.327 92.5583C219.932 94.1524 218.222 95.4422 216.305 96.3457C216.179 96.403 216.057 96.4603 215.931 96.5142C216.848 99.5525 217.366 102.697 217.471 105.868C217.526 107.738 217.431 109.611 217.184 111.466L217.197 111.4C217.697 109.348 218.891 107.53 220.577 106.255C223.081 104.389 226.522 103.819 229.198 102.351C229.483 102.187 229.809 102.107 230.137 102.121C230.466 102.136 230.783 102.244 231.053 102.433C231.322 102.621 231.531 102.883 231.656 103.187C231.782 103.49 231.817 103.823 231.759 104.147C231.754 104.169 231.75 104.192 231.745 104.216C231.35 104.355 230.964 104.519 230.589 104.707C230.374 104.815 230.164 104.93 229.958 105.053C229.698 105.209 229.492 105.44 229.367 105.714C229.241 105.99 229.201 106.296 229.253 106.594C229.305 106.891 229.445 107.167 229.656 107.383C229.867 107.6 230.139 107.748 230.436 107.808L230.466 107.814C230.488 107.818 230.507 107.822 230.529 107.826C229.792 109.375 228.794 110.785 227.579 111.996C226.078 113.46 224.294 114.603 222.336 115.355C220.377 116.106 218.285 116.45 216.189 116.366H216.185C215.502 118.808 214.565 121.172 213.391 123.42L204.604 123.012C204.577 122.912 204.554 122.811 204.53 122.712C205.341 122.801 206.16 122.79 206.968 122.68C206.353 121.852 205.739 121.016 205.124 120.187C205.11 120.172 205.098 120.155 205.086 120.138C204.774 119.714 204.459 119.293 204.147 118.869V118.869C204.188 117.615 204.391 116.372 204.75 115.17Z" fill="#F2F2F2"/>
<path d="M27.6982 39.321C27.4738 39.3559 27.2441 39.321 27.0401 39.2212C26.8362 39.1214 26.6679 38.9613 26.5582 38.7628C26.4484 38.5644 26.4024 38.3371 26.4264 38.1117C26.4504 37.8861 26.5433 37.6734 26.6925 37.5024C26.7082 37.3892 26.7195 37.3079 26.7353 37.1947C26.7227 37.1719 26.7101 37.149 26.6975 37.1261C26.4118 36.615 25.9813 36.1995 25.4599 35.9319C24.9384 35.6642 24.3494 35.5564 23.7668 35.6218C23.1841 35.6873 22.6339 35.9231 22.1851 36.2997C21.7363 36.6764 21.409 37.1769 21.2443 37.7387C20.5858 39.9805 19.6839 42.2527 19.6514 44.5514C19.6375 45.5672 19.8002 46.5777 20.1323 47.5381C17.5394 43.2025 15.9108 38.361 15.3567 33.3419C15.2191 32.0823 15.152 30.816 15.1559 29.5488C15.1601 28.51 15.21 27.4735 15.3056 26.4395C15.8307 20.8285 17.6817 15.4217 20.7065 10.6634C22.3009 9.55623 23.5169 7.98779 24.1908 6.16948C24.4354 5.5156 24.5839 4.82982 24.6318 4.13348C24.4433 4.17924 24.2507 4.21601 24.0608 4.24925C24.0016 4.25885 23.9393 4.26879 23.8801 4.27839L23.8577 4.28184C23.6486 4.31406 23.4346 4.28526 23.2415 4.19893C23.0484 4.11257 22.8844 3.97236 22.7693 3.79516C22.6542 3.61793 22.5929 3.41128 22.5927 3.20007C22.5925 2.98886 22.6534 2.7821 22.7682 2.60468C22.8397 2.4943 22.9113 2.38396 22.9829 2.27368C23.0912 2.10361 23.203 1.93634 23.3114 1.76631C23.3242 1.74987 23.3361 1.73272 23.347 1.71492C23.4718 1.52092 23.5968 1.33006 23.7216 1.13606C23.414 0.756872 23.0228 0.45374 22.5785 0.250294C21.0415 -0.437596 19.1117 0.363929 18.2101 1.78198C17.3054 3.20034 17.3074 5.05218 17.8486 6.64281C18.3573 7.99105 19.0921 9.24307 20.0217 10.3452C19.9543 10.4538 19.8833 10.5597 19.8159 10.6683C18.5838 12.6625 17.5504 14.7724 16.7306 16.9678C16.7311 14.608 16.1702 12.2818 15.0942 10.1805C14.0232 8.22969 12.2456 6.68175 10.6528 5.06762C8.73965 3.12885 5.39139 4.42919 5.38808 7.15056C5.38804 7.17693 5.38808 7.20327 5.3882 7.22956C5.60894 7.32412 5.82612 7.42635 6.03965 7.53624C6.30807 7.67595 6.52799 7.89338 6.67052 8.15999C6.81309 8.42663 6.87163 8.73 6.83846 9.03042C6.80534 9.3308 6.68207 9.61421 6.48479 9.84348C6.28756 10.0727 6.02552 10.2372 5.73305 10.3153L5.70312 10.3233C5.85875 11.0635 6.07054 11.7909 6.3366 12.4991C7.09929 14.474 8.26244 16.2703 9.75317 17.7755C11.2439 19.2806 13.03 20.4621 14.9997 21.2459C15.1287 21.2953 15.2547 21.3449 15.3834 21.3911C14.656 24.4799 14.334 27.65 14.4256 30.8216C14.4856 32.6922 14.6971 34.5548 15.0579 36.3914L15.0413 36.3267C14.4155 34.3089 13.1112 32.5685 11.3488 31.3995C8.73425 29.692 5.26447 29.3355 2.50284 28.0347C2.20845 27.8882 1.87823 27.8288 1.55114 27.8635C1.22405 27.8982 0.913715 28.0256 0.656753 28.2306C0.399791 28.4356 0.206915 28.7096 0.100871 29.0204C-0.00517306 29.3313 -0.0199612 29.6659 0.0582521 29.9848C0.0642307 30.0074 0.0702719 30.0301 0.0763709 30.0528C0.479448 30.1678 0.874956 30.3077 1.2606 30.4718C1.48135 30.5664 1.69851 30.6686 1.91204 30.7785C2.18049 30.9182 2.40039 31.1356 2.54293 31.4023C2.68548 31.6689 2.74401 31.9723 2.71087 32.2727C2.67773 32.5731 2.55446 32.8565 2.35721 33.0857C2.15996 33.315 1.89793 33.4795 1.60545 33.5575L1.57548 33.5655C1.55389 33.571 1.53541 33.5762 1.51385 33.5817C2.34463 35.082 3.42791 36.4283 4.71623 37.5617C6.30435 38.9306 8.15585 39.9612 10.1572 40.5903C12.1585 41.2198 14.2675 41.4342 16.3548 41.2209L16.358 41.2206C17.1918 43.6153 18.2727 45.9171 19.5833 48.0887L28.3283 47.1389C28.3491 47.0387 28.3664 46.9355 28.3841 46.8354C27.5801 46.9742 26.7623 47.0141 25.9486 46.9541C26.5108 46.089 27.0723 45.2177 27.6346 44.3526C27.6474 44.3359 27.6594 44.3188 27.6702 44.301C27.955 43.8585 28.2433 43.4187 28.5281 42.9763L28.5282 42.9759C28.4099 41.7271 28.131 40.4988 27.6985 39.3214L27.6982 39.321Z" fill="#F2F2F2"/>
<path d="M148.518 36.086C148.951 36.2049 149.353 36.417 149.695 36.7075C150.036 36.9981 150.31 37.3599 150.497 37.7675C150.684 38.1749 150.778 38.6185 150.775 39.0666C150.771 39.5148 150.669 39.9568 150.475 40.3609L155.168 45.5693L152.694 49.1878L146.17 41.7403C145.51 41.371 145.01 40.7734 144.762 40.0604C144.516 39.3474 144.539 38.5688 144.828 37.8717C145.118 37.1747 145.653 36.608 146.334 36.2789C147.014 35.9498 147.791 35.8811 148.518 36.086Z" fill="#A0616A"/>
<path d="M192.452 48.8747C192.029 48.1875 191.474 47.5902 190.819 47.1174C190.164 46.6446 189.422 46.3054 188.636 46.1194C187.85 45.9331 187.034 45.9039 186.236 46.0333C185.439 46.1627 184.674 46.4477 183.987 46.8727L168.554 56.4141L151.905 42.2881L147.764 46.1377L166.155 69.9568L190.058 57.5179C189.501 57.8082 193.126 49.9698 192.452 48.8747Z" fill="#CCCCCC"/>
<path d="M161.877 80.6012C161.879 88.2097 160.379 95.7445 157.462 102.774C154.546 109.804 150.271 116.191 144.881 121.572C139.491 126.952 133.092 131.219 126.05 134.131C119.007 137.042 111.46 138.539 103.837 138.538C71.7826 138.538 45.7969 112.598 45.7969 80.6012C45.7912 74.377 46.7907 68.193 48.7569 62.2868C52.6169 50.7518 60.0116 40.7197 69.8961 33.6094C79.7802 26.4991 91.6537 22.6704 103.837 22.6646C114.344 22.6609 124.655 25.5056 133.67 30.8949C142.684 36.2843 150.063 44.0161 155.019 53.2645C156.248 55.5466 157.319 57.909 158.227 60.336C158.353 60.6741 158.475 61.0119 158.595 61.3534V61.3564C159.127 62.8564 159.595 64.3841 160.001 65.9398C161.25 70.727 161.881 75.6539 161.877 80.6012Z" fill="#3F3D56"/>
<path d="M97.4869 41.5119C94.8787 40.1038 91.9828 39.3092 89.0198 39.1881C86.0571 39.0671 83.1058 39.623 80.3912 40.8137C78.0006 41.8519 75.4839 43.715 74.6865 47.0789C77.9113 45.179 82.0862 48.1808 82.9159 52.9961L82.7225 53.0496C82.2841 56.385 83.2623 60.0164 85.1568 62.0848C85.4056 59.9364 86.8206 58.4743 88.2125 57.561C89.6044 56.6476 91.1441 55.9843 92.2066 54.4141C93.4659 52.5529 93.7857 49.833 94.2861 47.3517C94.7864 44.8705 95.7357 42.2033 97.4869 41.5119Z" fill="white"/>
<path d="M79.434 69.8955C78.5409 71.2346 77.3481 72.0748 76.2776 73.1205C75.2102 74.1701 74.1944 75.5862 73.9816 77.4046C73.8464 78.5699 74.0557 79.7545 74.0268 80.9324C73.998 82.1106 73.6044 83.4368 72.8013 83.7293C71.5344 84.1866 70.5669 81.837 69.2643 81.6727C68.2291 81.5441 67.2973 83.1696 67.5974 84.5793C67.8971 85.989 69.3061 86.6136 70.1156 85.693C70.8476 86.919 70.3317 89.1434 69.232 89.5198C69.1157 90.2924 68.9999 91.0615 68.8871 91.8341C66.1075 89.8932 63.299 87.9204 60.9354 85.0783C58.307 81.944 56.6766 78.0971 56.2538 74.0316C55.9472 70.7645 56.4019 67.0276 54.8995 64.5141C53.6964 62.5022 51.6329 62.0579 49.7757 62.1835C49.4372 62.2063 49.0953 62.2446 48.7568 62.2867C49.852 59.0029 51.2431 55.8246 52.9131 52.7916C53.2911 52.6296 53.6421 52.4114 53.9543 52.1446C55.6828 50.6799 56.4502 47.7156 57.8531 45.6651C57.9431 45.5334 58.0365 45.4044 58.1334 45.2792C59.5682 43.4088 61.49 42.4465 63.3473 41.5518C67.4587 39.5593 71.689 37.5412 76.0292 37.8181L74.7942 37.9371C73.3529 41.9669 71.9105 45.9967 70.467 50.0265C70.2478 50.6447 70.0263 51.2635 69.8029 51.8836C68.9839 54.1755 68.1391 56.6154 68.2648 59.1805C68.3389 60.6998 68.8677 62.322 69.8736 62.8434C70.8119 63.326 71.8372 62.7341 72.7436 62.1482C73.1273 61.9035 73.5075 61.6587 73.8912 61.4109C75.2683 60.526 76.7935 59.6184 78.2477 60.2103C79.5791 60.7511 80.5627 62.5569 80.7499 64.5043C80.9213 66.3974 80.4586 68.2935 79.434 69.8955Z" fill="white"/>
<path d="M87.6237 97.4082C83.6022 94.9368 79.5812 92.4654 75.5598 89.994L75.6282 89.8184C73.1278 90.7689 72.09 95.2055 72.5033 98.8331C72.9162 102.461 74.3172 105.704 75.0253 109.239C75.9796 114.077 75.6195 119.081 73.9818 123.733C79.2697 117.81 83.9491 111.374 87.9504 104.519C88.5092 103.656 88.935 102.713 89.2138 101.723C89.4691 100.669 89.43 99.403 88.9183 98.5583C88.5893 98.0734 88.1441 97.6784 87.6237 97.4082Z" fill="white"/>
<path d="M71.7525 52.4443C71.3255 53.4028 71.1614 54.6804 71.5489 55.6719C71.9447 56.6847 72.7812 57.1423 73.5512 57.5237L75.7731 58.623C76.5124 58.9888 77.3094 59.358 78.0627 59.0571C78.9717 58.6943 79.6019 57.2717 79.439 55.9516C79.2654 54.5465 78.378 53.5796 77.5574 52.7566C76.409 51.6049 75.2607 50.4533 74.1123 49.3013L73.4654 50.0924C72.7652 50.7743 72.1859 51.5693 71.7525 52.4443Z" fill="white"/>
<path d="M149.966 67.4655C150.966 67.7003 151.966 67.9352 152.965 68.1701C152.791 71.5404 151.117 74.6592 148.873 75.7888C147.938 76.259 146.897 76.4327 146.123 77.3116C145.423 78.1096 145.069 79.3519 144.743 80.5396C144.172 82.6125 143.601 84.6855 143.031 86.7581C142.418 88.9919 141.631 91.4736 140.038 92.2784C138.671 92.9701 137.107 92.124 136.056 90.7044C135.005 89.2849 134.363 87.3762 133.741 85.5158C133.78 87.5436 132.835 89.5327 131.497 90.2377C130.155 90.9423 128.524 90.3052 127.628 88.7313C126.982 87.6016 126.715 86.1111 126.083 84.9655C125.451 83.8196 124.126 83.1628 123.436 84.2381C122.981 84.9526 123.039 86.047 122.813 86.9546C122.462 88.3643 121.398 89.2496 120.343 89.3266C119.292 89.404 118.267 88.7988 117.386 87.978C115.571 86.2785 114.233 83.5813 113.714 80.5847C113.485 79.2491 113.42 77.7942 113.817 76.542C114.214 75.2902 115.171 74.3245 116.123 74.5628C116.748 73.243 115.513 71.4919 114.4 71.6463C113.285 71.8011 112.411 72.9949 111.496 73.9124C110.583 74.8299 109.306 75.4959 108.387 74.5852C108.393 75.4317 107.704 75.9918 107.107 75.9209C106.513 75.8533 105.985 75.3771 105.44 75.039C103.334 73.7287 100.661 74.5981 99.165 77.0763C100.1 73.1045 101.471 68.5469 104.344 67.6135C105.517 67.2306 106.798 67.5459 107.906 66.8826C109.87 65.7078 110.267 61.2693 108.571 59.4381C108.787 61.1695 108.745 63.1909 107.829 64.3756C106.913 65.5598 104.992 64.7873 105.108 63.0365C104.843 64.2435 103.528 64.4268 102.922 63.4998C102.312 62.5728 102.364 61.0568 102.796 59.9496C103.228 58.8423 103.963 58.0474 104.676 57.2847C106.207 55.6462 107.761 53.9887 109.535 52.9585C111.312 51.9287 113.362 51.5811 115.142 52.6045C116.081 53.1452 116.906 54.0468 117.864 54.523C118.822 55.0026 120.037 54.9416 120.672 53.8214C121.385 52.5726 121.05 50.7186 121.314 49.1575C121.788 46.3989 124.551 45.1084 126.083 46.9301C124.938 46.6372 123.755 47.9892 123.613 49.6273C123.468 51.2658 124.296 52.9202 125.406 53.4158C127.269 54.2396 129.095 52.167 130.504 50.2485C131.974 48.24 133.447 46.2327 134.921 44.2265C135.157 43.8846 135.421 43.564 135.711 43.2672C136.173 42.818 136.789 42.5607 137.433 42.5474C138.078 42.5341 138.704 42.7664 139.184 43.1963C140.673 44.4098 141.373 46.8979 142.595 48.6103C144.369 51.0984 147.023 51.7033 149.492 52.1863C151.334 52.5434 153.176 52.9027 155.019 53.2644C156.248 55.5464 157.32 57.9089 158.228 60.3359C155.106 61.6587 152.227 64.1342 149.966 67.4655Z" fill="white"/>
<path d="M155.919 106.193C154.537 108.993 152.931 111.676 151.114 114.217C149.953 113.722 148.706 114.606 147.619 115.437C146.484 116.306 145.12 117.153 143.956 116.361C142.766 115.55 142.382 113.281 142.76 111.481C143.137 109.685 144.079 108.256 144.991 106.898C145.958 105.456 146.993 103.959 148.338 103.399C149.686 102.839 151.418 103.631 151.811 105.543L152.765 105.511C152.23 104.777 152.51 103.257 153.23 102.99C154.058 102.678 154.777 103.814 155.268 104.818C155.487 105.272 155.709 105.729 155.919 106.193Z" fill="white"/>
<path d="M119.365 92.5975C117.313 92.7265 115.688 90.2054 114.608 87.7253C113.528 85.2451 112.543 82.4091 110.692 81.1467C109.634 80.4253 108.429 80.3263 107.281 79.9768C106.134 79.6273 104.933 78.9041 104.385 77.431L103.083 76.9062C101.365 77.8708 99.6233 78.8532 98.1425 80.423C96.4817 82.1841 95.4469 84.4418 95.1985 86.848C94.9496 89.448 95.8678 92.3474 97.583 93.3241C98.9384 94.0959 100.516 93.6095 101.889 94.316C103.604 95.199 104.623 97.7634 105.008 100.295C105.394 102.827 105.296 105.459 105.572 108.019C105.848 110.58 106.608 113.244 108.181 114.557C110.149 116.199 113.038 114.834 113.92 111.845C114.354 110.379 114.339 108.724 114.663 107.202C115.233 104.522 116.773 102.533 117.994 100.334C119.216 98.1356 120.177 95.1493 119.365 92.5975Z" fill="white"/>
<path d="M99.0926 66.2579C99.2841 66.434 99.4626 66.623 99.6267 66.8241C99.7969 67.117 99.8839 67.4505 99.8782 67.789C99.8725 68.1275 99.7741 68.458 99.5941 68.7449C99.8414 68.7308 100.083 68.6656 100.303 68.5536C100.524 68.4417 100.719 68.2853 100.876 68.0945C101.25 67.6687 101.58 67.2058 101.859 66.7125C102.068 66.3718 102.291 65.9115 102.149 65.507C102.052 65.2307 101.822 65.1131 101.662 64.9052C101.407 64.5762 101.344 64.0537 101.212 63.6017C100.928 62.6262 100.246 61.9086 99.5056 61.8062L99.6085 61.8259C99.2993 61.9318 99.0831 62.4216 99.1515 62.8629C99.2138 63.2644 99.4725 63.5979 99.4467 64.0078C99.4098 64.5967 98.8199 64.8729 98.7834 65.4622C98.7777 65.7578 98.889 66.0435 99.0926 66.2579Z" fill="white"/>
<path d="M95.5771 56.2479C95.5802 56.2471 95.5832 56.2468 95.5863 56.246C95.6497 56.1887 95.7082 56.1265 95.7614 56.0601L95.5771 56.2479Z" fill="#E6E6E6"/>
<path d="M96.1928 59.013C96.6464 58.7216 96.8997 57.9164 96.7497 57.2425C96.6008 56.5728 96.0731 56.1223 95.5865 56.246C95.4456 56.3891 95.2704 56.4934 95.0775 56.5504C94.8849 56.6069 94.6805 56.6137 94.4845 56.5701C94.1836 56.4927 93.8535 56.2935 93.5925 56.52C93.4432 56.6889 93.3387 56.8923 93.289 57.112C93.1921 57.4079 93.0956 57.7039 92.9991 57.9995C92.9532 58.1054 92.9414 58.223 92.9649 58.3361C92.9836 58.3812 93.0132 58.4211 93.0516 58.4514C93.0899 58.4818 93.1355 58.5019 93.1838 58.5099C93.7631 58.6802 94.3424 58.8506 94.9217 59.021C95.3441 59.1455 95.8 59.265 96.1928 59.013Z" fill="white"/>
<path d="M139.93 97.1862C139.662 96.7487 139.394 96.3108 139.126 95.8733C138.864 95.3664 138.504 94.9156 138.068 94.5464C137.972 94.4663 137.861 94.406 137.741 94.3692C137.622 94.3323 137.496 94.3198 137.372 94.3323C137.248 94.3449 137.127 94.3821 137.017 94.4416C136.907 94.5012 136.81 94.5824 136.732 94.6799L136.765 94.93C137.375 95.6942 138.021 96.5434 138.176 97.6784C138.237 98.1254 138.216 98.5883 138.269 99.0376C138.323 99.4869 138.475 99.9528 138.766 100.146C139.187 100.428 139.682 100.013 139.983 99.507C140.251 99.0915 140.371 98.5978 140.324 98.1056C140.257 97.7755 140.123 97.4625 139.93 97.1862Z" fill="white"/>
<path d="M151.848 80.4711C151.926 79.9642 152.003 79.4572 152.081 78.9503C152.207 78.3932 152.222 77.8172 152.127 77.2545C152.105 77.1316 152.059 77.0143 151.992 76.9092C151.924 76.8045 151.836 76.7138 151.733 76.6436C151.629 76.573 151.513 76.524 151.391 76.499C151.268 76.474 151.142 76.4736 151.019 76.4982L150.883 76.7104C150.857 77.6878 150.803 78.7526 150.189 79.7202C149.947 80.1015 149.633 80.4419 149.384 80.8202C149.135 81.1982 148.951 81.6524 149.048 81.9874C149.189 82.4735 149.835 82.4747 150.392 82.2808C150.865 82.135 151.276 81.8349 151.557 81.4281C151.719 81.1325 151.818 80.807 151.848 80.4711Z" fill="#E6E6E6"/>
<path d="M144.131 97.7562C144.262 97.3805 144.073 96.9494 144.033 96.5343C144.014 95.9978 144.156 95.468 144.442 95.0135C144.726 94.5847 144.94 94.1141 145.079 93.619C145.138 93.3936 145.127 93.1556 145.049 92.9363C144.96 92.7375 144.745 92.6468 144.622 92.8043L144.886 92.9735C144.53 92.9101 144.164 92.928 143.816 93.0251C143.617 93.101 143.44 93.2236 143.299 93.3826C143.158 93.5412 143.057 93.7317 143.005 93.9373C142.962 94.2583 142.891 94.5752 142.793 94.8837C142.636 95.2066 142.331 95.3136 142.14 95.5967C142.01 95.8479 141.944 96.1272 141.948 96.4099C141.953 96.6929 142.028 96.9699 142.167 97.2166C142.407 97.6196 142.789 97.9193 143.238 98.0574C143.56 98.1724 143.984 98.1785 144.131 97.7562Z" fill="white"/>
<path d="M151.612 100.009C151.728 100.312 151.884 100.597 152.076 100.859C152.434 101.219 152.921 100.997 153.355 100.91C153.749 100.848 154.153 100.893 154.524 101.042C154.894 101.19 155.218 101.436 155.46 101.752C155.291 100.914 154.923 100.127 154.387 99.4598C153.851 98.792 153.163 98.2626 152.379 97.9158C151.354 97.4992 150.276 97.459 149.211 97.4214L149.026 97.4684C149.495 98.8307 150.968 98.8003 151.612 100.009Z" fill="white"/>
<path d="M119.926 102.796L119.928 102.802C119.946 102.768 119.964 102.733 119.982 102.699L119.926 102.796Z" fill="#E6E6E6"/>
<path d="M118.791 104.989C118.543 105.437 118.331 105.904 118.154 106.385C117.921 107.164 117.766 107.965 117.693 108.774C117.635 109.235 117.617 109.823 117.906 110.047C117.989 110.102 118.089 110.125 118.188 110.112C118.287 110.098 118.377 110.049 118.443 109.974C118.603 109.805 118.734 109.61 118.831 109.397C119.399 108.421 119.84 107.376 120.143 106.289C120.42 105.143 120.418 103.794 119.929 102.802C119.549 103.531 119.17 104.26 118.791 104.989Z" fill="white"/>
<path d="M107.842 46.5643C108.022 46.74 108.25 46.8595 108.497 46.9077C108.745 46.9559 109.001 46.9308 109.234 46.8356C109.718 46.6246 110.161 46.3324 110.545 45.9716C110.863 45.7367 111.132 45.443 111.339 45.1064C111.453 44.9053 111.526 44.6841 111.554 44.4545C111.582 44.2253 111.564 43.9927 111.501 43.7704C111.322 43.2463 110.867 43.0706 110.465 42.9519C109.822 42.7614 109.179 42.5713 108.536 42.3808L109.001 41.9623C108.522 41.7057 107.993 42.1816 107.694 42.7709C107.502 43.1556 107.368 43.5666 107.297 43.9904C107.137 44.9148 107.293 46.016 107.842 46.5643Z" fill="#E6E6E6"/>
<path d="M119.194 42.7595C119.375 42.9591 119.626 43.082 119.895 43.1041C120.164 43.1261 120.431 43.0449 120.642 42.8771C120.824 42.7409 120.975 42.5679 121.085 42.3694C121.195 42.1714 121.263 41.952 121.282 41.7259C121.328 41.2208 121.078 40.6596 120.721 40.616L120.803 40.1435C120.114 40.0195 119.267 39.9944 118.899 40.8285C118.774 41.148 118.736 41.4948 118.788 41.8336C118.84 42.1725 118.98 42.4916 119.194 42.7595Z" fill="#E6E6E6"/>
<path d="M117.678 17.6203C113.644 17.1661 109.594 18.3301 106.42 20.8563C103.246 23.3825 101.207 27.0639 100.752 31.0908C99.8038 39.4763 104.229 57.6852 112.298 65.2231C116.098 50.7814 129.411 42.2152 131.172 34.5161C133.054 26.2893 126.078 18.5662 117.678 17.6203Z" fill="#2594EA"/>
<path d="M114.888 36.2617C117.645 36.2617 119.88 34.0306 119.88 31.2785C119.88 28.5264 117.645 26.2954 114.888 26.2954C112.131 26.2954 109.896 28.5264 109.896 31.2785C109.896 34.0306 112.131 36.2617 114.888 36.2617Z" fill="white"/>
<path d="M109.639 72.4081C111.445 72.4081 112.908 70.9469 112.908 69.1444C112.908 67.3417 111.445 65.8804 109.639 65.8804C107.833 65.8804 106.369 67.3417 106.369 69.1444C106.369 70.9469 107.833 72.4081 109.639 72.4081Z" fill="#2594EA"/>
<path opacity="0.2" d="M119.018 27.7085C119.58 28.0456 120.07 28.4898 120.46 29.0158C120.85 29.5419 121.132 30.1394 121.291 30.7744C121.449 31.4093 121.481 32.0692 121.384 32.7164C121.287 33.3636 121.064 33.9854 120.726 34.5463C120.388 35.1072 119.943 35.5962 119.417 35.9855C118.889 36.3747 118.291 36.6565 117.655 36.8148C116.37 37.1345 115.011 36.9317 113.876 36.251C115.033 36.5079 116.244 36.3454 117.292 35.7926C118.34 35.2397 119.157 34.3326 119.596 33.2336C120.035 32.1346 120.068 30.9154 119.689 29.7943C119.31 28.6732 118.544 27.7234 117.527 27.1147C118.053 27.2311 118.556 27.4316 119.018 27.7085Z" fill="#231F20"/>
<path opacity="0.2" d="M131.192 34.5323C129.431 42.2313 116.117 50.7975 112.318 65.2395C111.56 64.5239 110.855 63.7528 110.21 62.9336C114.479 49.3586 126.963 41.11 128.665 33.6712C130.189 27.0134 125.91 20.686 119.77 18.0132C127.202 19.8782 132.917 26.9933 131.192 34.5323Z" fill="#231F20"/>
<path d="M70.8976 37.0636C67.8684 36.7225 64.8271 37.5966 62.4434 39.4937C60.0596 41.3909 58.5287 44.1553 58.1868 47.1795C57.4753 53.4766 60.7989 67.151 66.8579 72.8117C69.7112 61.9665 79.7089 55.5336 81.0316 49.7518C82.4452 43.5736 77.2063 37.7739 70.8976 37.0636Z" fill="#2594EA"/>
<path d="M68.8018 51.063C70.8721 51.063 72.5504 49.3877 72.5504 47.3208C72.5504 45.2539 70.8721 43.5786 68.8018 43.5786C66.7314 43.5786 65.0527 45.2539 65.0527 47.3208C65.0527 49.3877 66.7314 51.063 68.8018 51.063Z" fill="white"/>
<path d="M64.8608 78.2074C66.2166 78.2074 67.316 77.11 67.316 75.7561C67.316 74.4026 66.2166 73.3052 64.8608 73.3052C63.5046 73.3052 62.4053 74.4026 62.4053 75.7561C62.4053 77.11 63.5046 78.2074 64.8608 78.2074Z" fill="#2594EA"/>
<path opacity="0.2" d="M71.9035 44.6392C72.3255 44.8923 72.6932 45.2262 72.9861 45.6212C73.279 46.0163 73.491 46.4648 73.6103 46.9418C73.7292 47.4187 73.7531 47.9143 73.6802 48.4C73.6076 48.8861 73.4397 49.3532 73.1859 49.7744C72.9326 50.1956 72.5983 50.5629 72.2024 50.8551C71.8066 51.1473 71.3572 51.359 70.8797 51.4778C70.4018 51.5969 69.9053 51.6204 69.4183 51.548C68.9317 51.4751 68.4637 51.3078 68.042 51.0547C68.9108 51.2474 69.8202 51.1252 70.6069 50.7101C71.3941 50.295 72.0076 49.6139 72.3373 48.7886C72.667 47.9632 72.6917 47.0476 72.4072 46.2056C72.1227 45.364 71.5471 44.6506 70.784 44.1934C71.1787 44.281 71.557 44.4313 71.9035 44.6392Z" fill="#231F20"/>
<path opacity="0.2" d="M81.0461 49.7638C79.723 55.5456 69.7253 61.9785 66.8724 72.8237C66.3026 72.2864 65.7734 71.7073 65.2891 71.0919C68.4949 60.8978 77.8703 54.7032 79.1486 49.1169C80.2924 44.1172 77.079 39.3656 72.468 37.3584C78.0496 38.7589 82.3415 44.102 81.0461 49.7638Z" fill="#231F20"/>
<path d="M188.266 172.625H184.15L182.191 156.777H188.266L188.266 172.625Z" fill="#A0616A"/>
<path d="M190.48 180.427H187.559L187.038 177.674L185.703 180.427H177.956C177.585 180.427 177.223 180.308 176.924 180.088C176.625 179.869 176.404 179.559 176.294 179.205C176.183 178.852 176.189 178.472 176.31 178.121C176.431 177.771 176.661 177.469 176.967 177.258L183.153 172.993V170.21L189.659 170.598L190.48 180.427Z" fill="#2F2E41"/>
<path d="M172.323 172.625H168.207L166.249 156.777H172.324L172.323 172.625Z" fill="#A0616A"/>
<path d="M174.538 180.427H171.617L171.096 177.674L169.76 180.427H162.014C161.643 180.427 161.281 180.308 160.982 180.088C160.683 179.869 160.462 179.559 160.351 179.205C160.241 178.852 160.247 178.472 160.368 178.121C160.489 177.771 160.719 177.469 161.025 177.258L167.21 172.993V170.21L173.717 170.598L174.538 180.427Z" fill="#2F2E41"/>
<path d="M156.686 130.783C157.473 131.962 166.042 164.384 166.042 164.384L173.64 165.249L172.739 157.091L171.36 142.655L169.225 133.019C169.225 133.019 176.764 115.894 177.24 114.53L177.579 113.551L179.934 134.887C180.214 135.649 180.336 136.459 180.292 137.269C180.221 138.602 181.56 158.652 181.56 158.652L182.204 165.843L188.714 166.745L191.356 154.304C193.561 150.263 192.297 135.901 191.395 134.565C190.493 133.228 190.851 123.918 190.851 123.918C192.003 123.514 198.871 100.137 195.436 100.275C195.656 99.0287 195.83 97.9161 195.83 97.9161L189.867 93.1156L174.944 89.2433L171.179 87.439C171.179 87.439 164.455 99.8502 164.522 100.468C164.615 101.249 164.435 102.039 164.014 102.704L157.225 125.385C157.225 125.385 155.89 129.591 156.686 130.783Z" fill="#2F2E41"/>
<path d="M194.176 49.6243L191.802 44.5928L183.722 44.9028L181.087 50.137C181.087 50.137 173.555 59.1172 173.311 62.0375C173.004 65.7098 175.553 83.7089 173.004 82.5421C173.004 82.5421 166.997 89.5813 170.552 89.5813C174.106 89.5813 190.186 99.6574 191.242 100.79C192.297 101.923 197.007 102.658 196.612 100.293C196.217 97.9271 194.176 85.1334 194.176 85.1334L199.7 65.0162C201.291 60.6729 201.785 55.8011 198.191 52.8835L194.176 49.6243Z" fill="#CCCCCC"/>
<path d="M164.248 34.8154C163.167 34.3872 162.012 34.1756 160.85 34.1929C159.687 34.2101 158.539 34.4557 157.471 34.9157C156.404 35.3758 155.438 36.0412 154.628 36.874C153.818 37.7068 153.18 38.6907 152.751 39.7695C150.947 44.3067 150.648 55.1416 154.005 60.572C158.322 53.0861 167.057 50.3222 169.211 46.2916C171.513 41.9848 168.793 36.6164 164.248 34.8154Z" fill="#2594EA"/>
<path d="M160.612 44.8993C162.207 44.8993 163.5 43.6088 163.5 42.0166C163.5 40.4248 162.207 39.1343 160.612 39.1343C159.018 39.1343 157.725 40.4248 157.725 42.0166C157.725 43.6088 159.018 44.8993 160.612 44.8993Z" fill="white"/>
<path d="M151.924 64.2457C152.968 64.2457 153.815 63.4006 153.815 62.3579C153.815 61.3152 152.968 60.4697 151.924 60.4697C150.879 60.4697 150.032 61.3152 150.032 62.3579C150.032 63.4006 150.879 64.2457 151.924 64.2457Z" fill="#2594EA"/>
<path opacity="0.2" d="M163.462 40.6497C163.99 41.2018 164.278 41.941 164.262 42.7048C164.245 43.4687 163.925 44.1946 163.373 44.7232C162.82 45.2517 162.08 45.5397 161.315 45.5242C160.55 45.5082 159.822 45.1899 159.292 44.6389C159.899 44.9577 160.599 45.0502 161.269 44.9004C161.937 44.7509 162.531 44.3684 162.943 43.8212C163.356 43.2744 163.56 42.599 163.519 41.9156C163.478 41.2325 163.194 40.586 162.719 40.0923C162.995 40.2369 163.246 40.4251 163.462 40.6497Z" fill="#231F20"/>
<path opacity="0.2" d="M169.219 46.3032C167.065 50.3342 158.331 53.0981 154.014 60.5836C153.699 60.0691 153.423 59.5322 153.188 58.977C157.635 52.0467 165.858 49.3339 167.94 45.44C169.803 41.9543 168.376 37.774 165.355 35.3516C169.221 37.5189 171.329 42.3565 169.219 46.3032Z" fill="#231F20"/>
<path d="M151.072 61.7075C151.511 61.6172 151.965 61.6241 152.402 61.7276C152.839 61.8316 153.248 62.0297 153.599 62.3078C153.951 62.5864 154.237 62.9385 154.438 63.3392C154.639 63.7403 154.749 64.1801 154.761 64.6278L161.313 67.1383L160.755 71.4846L151.554 67.8096C150.798 67.78 150.08 67.4749 149.535 66.9516C148.991 66.4287 148.657 65.7245 148.597 64.9724C148.538 64.2203 148.757 63.4724 149.213 62.8706C149.669 62.2691 150.33 61.8551 151.072 61.7075Z" fill="#A0616A"/>
<path d="M196.848 52.7511C196.158 52.3311 195.392 52.0506 194.594 51.9266C193.795 51.8025 192.979 51.8366 192.195 52.0279C191.409 52.2187 190.67 52.5629 190.018 53.0399C189.366 53.5169 188.815 54.1175 188.397 54.8078L178.993 70.3085L157.732 65.2777L155.795 70.5859L183.022 83.46L196.812 61.5359C198.876 58.6399 199.887 54.6036 196.848 52.7511Z" fill="#CCCCCC"/>
<path d="M197.199 33.7546C197.2 35.2486 196.833 36.7199 196.131 38.0393C195.428 39.3587 194.413 40.4861 193.172 41.322C191.932 42.1579 190.505 42.6774 189.017 42.8345C187.528 42.9916 186.024 42.7814 184.636 42.2228C183.248 41.6639 182.018 40.7737 181.055 39.63C180.093 38.486 179.426 37.1239 179.113 35.6628C178.801 34.2017 178.853 32.6864 179.264 31.2499C179.675 29.8134 180.433 28.4996 181.472 27.424L181.516 27.3802C181.589 27.3035 181.662 27.2268 181.739 27.1538L181.741 27.1535L181.742 27.1528L181.743 27.1516L181.743 27.1502C181.838 27.0625 181.933 26.9749 182.032 26.8909C183.353 25.7347 184.98 24.983 186.718 24.726C188.456 24.4689 190.232 24.7174 191.832 25.4415C193.433 26.1658 194.79 27.335 195.742 28.8094C196.694 30.2837 197.2 32.0006 197.199 33.7546Z" fill="#2F2E41"/>
<path d="M185.803 43.5198C190.037 43.5198 193.47 40.0934 193.47 35.8663C193.47 31.6395 190.037 28.2129 185.803 28.2129C181.568 28.2129 178.136 31.6395 178.136 35.8663C178.136 40.0934 181.568 43.5198 185.803 43.5198Z" fill="#9E616A"/>
<path d="M193.945 38.0489L192.675 37.825C191.965 37.6962 191.311 37.3542 190.801 36.8446C190.292 36.335 189.95 35.6822 189.822 34.9735L188.582 37.0472L188.528 37.0651C185.575 38.0439 182.502 37.7512 179.136 36.1714C178.174 35.7157 177.24 35.2018 176.34 34.6327L176.274 34.5913L176.269 34.5135C176.097 32.0238 176.657 29.9438 177.845 28.6567C178.301 28.1724 178.855 27.7899 179.47 27.5341C180.084 27.2783 180.746 27.1551 181.412 27.1725C181.459 27.1601 181.503 27.1362 181.538 27.1027C181.555 27.0902 181.573 27.0778 181.59 27.066V27.0531L181.677 27.0117C181.867 26.9229 182.06 26.8379 182.253 26.7602C183.769 26.174 185.422 26.0269 187.019 26.3359C188.616 26.6449 190.093 27.3975 191.281 28.5071C193.643 30.7577 194.726 34.5347 193.976 37.906L193.945 38.0489Z" fill="#2F2E41"/>
<path d="M210.116 44.5699C207.507 43.2255 210.863 38.3468 210.188 35.4941C209.514 32.6415 204.658 31.724 204.349 28.8094C204.04 25.8948 203.312 22.8886 201.385 20.677C200.154 19.2638 198.34 18.2205 196.472 18.3975C195.84 18.4574 195.229 18.6526 194.679 18.9697C194.13 19.2868 193.655 19.7184 193.287 20.2352C192.92 20.7519 192.669 21.3416 192.55 21.9642C192.432 22.5867 192.449 23.2274 192.601 23.8427C192.069 23.0905 190.692 23.2535 190.352 24.1091C190.049 24.8697 190.718 25.791 191.505 25.8583C192.536 27.1284 193.716 28.4763 195.33 28.7325C195.587 28.7914 195.854 28.7913 196.111 28.7321C196.368 28.6728 196.608 28.5561 196.814 28.3905C197.193 28.0265 197.223 27.2988 196.772 27.0267C198.801 27.8311 199.99 30.0203 200.291 32.1783C200.592 34.3361 200.176 36.5195 199.902 38.6811C199.627 40.8425 199.509 43.1162 200.358 45.1235C201.361 47.4947 203.67 49.1947 206.191 49.7396C208.711 50.2848 211.395 49.7521 213.677 48.5519C215.958 47.3513 217.86 45.5189 219.415 43.4649C216.737 45.3622 213.034 46.0733 210.116 44.5699Z" fill="#2F2E41"/>
<path d="M193.618 37.8358C193.618 37.8358 191.347 29.3732 181.611 27.42C181.6 27.4164 181.563 27.4017 181.516 27.3799C181.486 27.3616 181.45 27.3433 181.413 27.3251C181.523 27.263 181.629 27.2083 181.739 27.1535L181.74 27.1532L181.741 27.1524L181.742 27.1512L181.742 27.1498C181.837 27.0622 181.932 26.9746 182.031 26.8906L182.309 26.9016C182.309 26.9016 192.078 25.3573 193.618 37.8358Z" fill="#FD6584"/>
<path opacity="0.2" d="M188.533 64.9902L183.034 71.3495L173.948 68.6713L183.853 73.2278L188.533 64.9902Z" fill="black"/>
<path d="M221.538 180.906L136.996 181C136.899 180.999 136.807 180.961 136.738 180.893C136.67 180.824 136.632 180.732 136.632 180.636C136.632 180.539 136.67 180.447 136.738 180.378C136.807 180.31 136.899 180.271 136.996 180.271L221.538 180.177C221.635 180.177 221.728 180.215 221.796 180.284C221.865 180.352 221.903 180.445 221.903 180.541C221.903 180.638 221.865 180.731 221.796 180.799C221.728 180.867 221.635 180.906 221.538 180.906Z" fill="#CACACA"/>
<path d="M225.249 124.276C221.29 124.276 216.952 124.127 212.233 123.828C187.824 122.281 156.207 116.901 123.206 108.681C90.2049 100.461 59.7625 90.3813 37.4871 80.3004C26.6361 75.3891 18.308 70.7408 12.7344 66.4833C6.83338 61.9761 4.25221 58.0472 5.06222 54.8067C6.64059 48.4933 20.6159 47.1121 32.0619 47.0654L32.0658 47.9833C16.3475 48.0478 7.07441 50.55 5.95479 55.029C4.52857 60.7338 16.1602 69.64 37.8669 79.4641C60.0933 89.523 90.4799 99.5831 123.428 107.79C156.377 115.998 187.936 121.368 212.291 122.912C236.076 124.42 250.536 122.012 251.962 116.308C253.146 111.571 245.34 104.594 229.983 96.6602L230.406 95.8447C241.565 101.609 254.518 109.877 252.855 116.53C252.044 119.771 247.917 122.028 240.586 123.239C236.408 123.93 231.275 124.276 225.249 124.276Z" fill="#2594EA"/>
</g>
</g>
<defs>
<clipPath id="clip0_255_4">
<rect width="253" height="181" fill="white"/>
</clipPath>
</defs>
</svg>
