<svg width="666" height="477" viewBox="0 0 666 477" fill="none" xmlns="http://www.w3.org/2000/svg">
<g clip-path="url(#clip0_211_180)">
<path d="M538.985 303.513C539.58 303.568 540.178 303.439 540.698 303.143C541.217 302.847 541.633 302.399 541.889 301.859C542.145 301.319 542.229 300.714 542.129 300.124C542.029 299.535 541.751 298.991 541.331 298.566C541.271 298.27 541.228 298.058 541.168 297.763C541.198 297.701 541.227 297.639 541.257 297.577C541.924 296.186 542.987 295.023 544.314 294.234C545.64 293.446 547.17 293.066 548.711 293.143C550.253 293.221 551.737 293.752 552.978 294.67C554.218 295.587 555.16 296.851 555.684 298.301C557.779 304.092 560.519 309.921 560.979 315.962C561.181 318.632 560.918 321.317 560.202 323.897C566.308 312.071 569.799 299.071 570.436 285.78C570.593 282.444 570.563 279.102 570.346 275.77C570.166 273.038 569.866 270.32 569.446 267.616C567.152 252.942 561.408 239.022 552.685 226.997C548.316 224.344 544.865 220.416 542.799 215.743C542.049 214.063 541.547 212.283 541.308 210.459C541.811 210.549 542.323 210.615 542.827 210.671C542.984 210.687 543.15 210.703 543.307 210.718L543.366 210.724C543.921 210.775 544.478 210.664 544.972 210.406C545.465 210.147 545.873 209.752 546.146 209.267C546.42 208.782 546.548 208.228 546.514 207.673C546.48 207.117 546.286 206.583 545.955 206.135C545.75 205.857 545.544 205.578 545.337 205.3C545.025 204.87 544.704 204.448 544.392 204.018C544.355 203.977 544.321 203.934 544.29 203.889C543.93 203.399 543.571 202.917 543.211 202.427C543.958 201.38 544.936 200.519 546.07 199.912C549.997 197.853 555.197 199.647 557.797 203.231C560.405 206.814 560.702 211.686 559.539 215.957C558.422 219.586 556.696 222.999 554.433 226.049C554.628 226.324 554.831 226.591 555.026 226.865C558.588 231.911 561.647 237.292 564.159 242.934C563.773 236.727 564.868 230.517 567.352 224.815C569.848 219.51 574.267 215.149 578.188 210.645C582.899 205.234 591.908 208.11 592.36 215.268C592.365 215.337 592.369 215.406 592.373 215.475C591.808 215.76 591.254 216.064 590.711 216.388C590.029 216.799 589.486 217.407 589.155 218.131C588.824 218.856 588.72 219.663 588.856 220.448C588.992 221.233 589.362 221.958 589.918 222.529C590.473 223.1 591.188 223.49 591.97 223.648L592.05 223.664C591.761 225.636 591.323 227.584 590.74 229.49C589.058 234.809 586.294 239.723 582.623 243.924C578.951 248.125 574.451 251.524 569.404 253.905C569.073 254.056 568.75 254.207 568.419 254.349C570.834 262.356 572.196 270.642 572.472 278.999C572.619 283.929 572.367 288.863 571.718 293.752L571.751 293.579C573.067 288.17 576.21 283.38 580.65 280.019C587.241 275.103 596.3 273.601 603.344 269.731C604.093 269.298 604.951 269.088 605.816 269.126C606.681 269.164 607.517 269.449 608.226 269.946C608.935 270.443 609.486 271.133 609.815 271.933C610.145 272.734 610.238 273.611 610.084 274.463C610.072 274.523 610.06 274.584 610.048 274.645C609.008 275.013 607.991 275.445 607.005 275.939C606.44 276.224 605.886 276.528 605.343 276.852C604.66 277.263 604.118 277.871 603.787 278.595C603.456 279.32 603.352 280.127 603.488 280.912C603.624 281.697 603.994 282.422 604.549 282.993C605.105 283.564 605.82 283.954 606.601 284.112L606.681 284.128C606.739 284.139 606.788 284.15 606.846 284.161C604.908 288.242 602.281 291.959 599.081 295.15C595.131 299.008 590.434 302.02 585.279 304.001C580.123 305.981 574.617 306.888 569.098 306.666L569.089 306.666C567.289 313.1 564.824 319.33 561.734 325.255L538.603 324.179C538.532 323.918 538.47 323.65 538.407 323.389C540.542 323.623 542.697 323.595 544.825 323.306C543.207 321.122 541.59 318.921 539.972 316.736C539.935 316.695 539.901 316.652 539.87 316.607C539.049 315.49 538.22 314.38 537.4 313.262L537.4 313.261C537.507 309.957 538.039 306.681 538.984 303.513L538.985 303.513Z" fill="#F2F2F2"/>
<path d="M72.9143 103.625C72.3234 103.717 71.7187 103.625 71.1818 103.362C70.645 103.099 70.2021 102.677 69.9132 102.154C69.6242 101.631 69.5031 101.032 69.5664 100.438C69.6296 99.8434 69.8741 99.283 70.2667 98.8323C70.3082 98.534 70.3379 98.3198 70.3794 98.0215C70.3464 97.9612 70.3132 97.9009 70.2799 97.8406C69.528 96.4937 68.3945 95.3987 67.022 94.6934C65.6494 93.9881 64.0988 93.7038 62.5651 93.8763C61.0313 94.0488 59.5828 94.6703 58.4014 95.6628C57.22 96.6554 56.3585 97.9746 55.9249 99.4549C54.1915 105.363 51.8174 111.351 51.7317 117.409C51.695 120.086 52.1233 122.749 52.9976 125.28C46.1721 113.854 41.8848 101.095 40.4264 87.8679C40.064 84.5483 39.8875 81.2111 39.8978 77.8718C39.9087 75.134 40.04 72.4026 40.2917 69.6777C41.674 54.8905 46.5466 40.6418 54.5093 28.1019C58.7063 25.1841 61.9074 21.0507 63.6812 16.2588C64.3253 14.5356 64.7162 12.7283 64.8421 10.8932C64.346 11.0138 63.8389 11.1107 63.3392 11.1983C63.1833 11.2236 63.0192 11.2498 62.8633 11.2751L62.8044 11.2842C62.254 11.3691 61.6907 11.2932 61.1824 11.0657C60.6741 10.8381 60.2424 10.4686 59.9394 10.0016C59.6364 9.53455 59.4749 8.98994 59.4743 8.43333C59.4738 7.87672 59.6343 7.33183 59.9365 6.86426C60.1247 6.57337 60.3131 6.2826 60.5016 5.99196C60.7868 5.54377 61.0811 5.10296 61.3663 4.65485C61.4001 4.61155 61.4314 4.56633 61.4601 4.51944C61.7886 4.00817 62.1177 3.50519 62.4462 2.99392C61.6364 1.99463 60.6066 1.19577 59.437 0.659616C55.3909 -1.15322 50.3111 0.959084 47.9377 4.69615C45.556 8.43406 45.5613 13.3143 46.9859 17.5062C48.325 21.0593 50.2595 24.3588 52.7066 27.2632C52.529 27.5495 52.3422 27.8285 52.1647 28.1148C48.9213 33.3702 46.2011 38.9305 44.0431 44.7162C44.0442 38.4972 42.5678 32.3669 39.7354 26.8294C36.9161 21.6882 32.2366 17.6088 28.0438 13.355C23.0075 8.24565 14.1935 11.6725 14.1848 18.8443C14.1847 18.9138 14.1848 18.9832 14.1851 19.0525C14.7662 19.3017 15.3379 19.5711 15.9 19.8607C16.6066 20.2289 17.1855 20.8019 17.5607 21.5045C17.936 22.2072 18.0901 23.0067 18.0028 23.7984C17.9156 24.59 17.5911 25.3369 17.0718 25.9411C16.5526 26.5453 15.8628 26.9786 15.0929 27.1844L15.0141 27.2055C15.4238 29.1563 15.9813 31.0732 16.6817 32.9395C18.6894 38.1441 21.7513 42.8781 25.6755 46.8448C29.5997 50.8114 34.3016 53.9251 39.4864 55.9907C39.8262 56.1207 40.1577 56.2515 40.4966 56.3732C38.5818 64.5133 37.7342 72.8676 37.9753 81.2261C38.1333 86.1557 38.6899 91.0644 39.6397 95.9044L39.5961 95.7339C37.9486 90.4163 34.5152 85.8298 29.8758 82.7489C22.9933 78.2492 13.8594 77.3095 6.58967 73.8815C5.81471 73.4954 4.94544 73.3389 4.0844 73.4304C3.22335 73.5219 2.40643 73.8575 1.73 74.3977C1.05357 74.938 0.54584 75.6602 0.266689 76.4793C-0.0124621 77.2984 -0.0513906 78.1803 0.154499 79.0208C0.170237 79.0804 0.18614 79.1401 0.202195 79.1998C1.26326 79.5029 2.3044 79.8717 3.31956 80.3042C3.90069 80.5535 4.47232 80.8229 5.03444 81.1124C5.7411 81.4806 6.31997 82.0536 6.6952 82.7563C7.07043 83.4589 7.22451 84.2584 7.13727 85.0501C7.05003 85.8418 6.72554 86.5886 6.20629 87.1928C5.68705 87.797 4.99728 88.2304 4.22736 88.4361L4.14846 88.4572C4.09162 88.4717 4.04299 88.4854 3.98623 88.4999C6.17318 92.4537 9.02482 96.0017 12.4162 98.9886C16.5968 102.596 21.4707 105.312 26.739 106.97C32.0073 108.629 37.559 109.194 43.0538 108.632L43.0621 108.631C45.2571 114.942 48.1025 121.008 51.5524 126.731L74.573 124.228C74.6277 123.964 74.6732 123.692 74.7197 123.428C72.6034 123.794 70.4504 123.899 68.3085 123.741C69.7886 121.461 71.2667 119.165 72.7468 116.885C72.7806 116.841 72.812 116.796 72.8406 116.749C73.5903 115.583 74.3492 114.424 75.0988 113.258L75.0991 113.257C74.7877 109.966 74.0536 106.729 72.9149 103.626L72.9143 103.625Z" fill="#F2F2F2"/>
<path d="M390.962 95.1C392.102 95.4133 393.159 95.9724 394.059 96.738C394.958 97.5037 395.679 98.4571 396.17 99.5313C396.662 100.605 396.911 101.774 396.902 102.955C396.892 104.136 396.623 105.301 396.114 106.366L408.468 120.092L401.953 129.628L384.779 110.001C383.044 109.028 381.726 107.453 381.075 105.574C380.425 103.695 380.486 101.643 381.248 99.8059C382.01 97.9692 383.42 96.4757 385.211 95.6083C387.001 94.741 389.048 94.5601 390.962 95.1Z" fill="#A0616A"/>
<path d="M506.613 128.802C505.5 126.991 504.039 125.417 502.315 124.171C500.592 122.925 498.639 122.031 496.569 121.541C494.499 121.05 492.352 120.973 490.252 121.314C488.152 121.655 486.14 122.406 484.332 123.526L443.704 148.671L399.879 111.444L388.976 121.589L437.39 184.361L500.313 151.58C498.845 152.345 508.388 131.688 506.613 128.802Z" fill="#CCCCCC"/>
<path d="M426.129 212.413C426.133 232.464 422.184 252.321 414.507 270.847C406.83 289.373 395.576 306.206 381.388 320.385C367.2 334.564 350.355 345.81 331.817 353.482C313.278 361.154 293.409 365.1 273.343 365.096C188.963 365.096 120.558 296.736 120.558 212.413C120.543 196.01 123.174 179.713 128.35 164.148C138.511 133.749 157.977 107.311 183.997 88.5726C210.016 69.8345 241.272 59.7444 273.343 59.7291C301.003 59.7195 328.146 67.2163 351.876 81.4191C375.605 95.622 395.029 115.998 408.075 140.371C411.31 146.385 414.131 152.611 416.521 159.007C416.852 159.898 417.174 160.788 417.488 161.688V161.696C418.889 165.649 420.122 169.675 421.189 173.775C424.479 186.391 426.14 199.375 426.129 212.413Z" fill="#3F3D56"/>
<path d="M256.627 109.399C249.761 105.688 242.138 103.594 234.338 103.275C226.539 102.956 218.77 104.421 211.624 107.559C205.331 110.295 198.706 115.205 196.607 124.07C205.096 119.063 216.086 126.974 218.27 139.664L217.761 139.805C216.607 148.595 219.182 158.165 224.169 163.616C224.824 157.954 228.549 154.101 232.213 151.694C235.877 149.287 239.93 147.539 242.727 143.401C246.042 138.496 246.884 131.328 248.201 124.789C249.518 118.25 252.017 111.221 256.627 109.399Z" fill="white"/>
<path d="M209.105 184.2C206.754 187.729 203.614 189.943 200.796 192.699C197.986 195.465 195.312 199.197 194.752 203.989C194.396 207.06 194.947 210.182 194.871 213.286C194.795 216.391 193.759 219.886 191.645 220.657C188.31 221.862 185.763 215.67 182.334 215.237C179.609 214.898 177.156 219.182 177.946 222.897C178.735 226.612 182.444 228.258 184.575 225.832C186.502 229.063 185.144 234.925 182.249 235.917C181.943 237.953 181.638 239.98 181.341 242.016C174.024 236.901 166.631 231.702 160.409 224.212C153.49 215.952 149.198 205.814 148.085 195.1C147.278 186.49 148.475 176.642 144.52 170.018C141.353 164.716 135.921 163.545 131.032 163.876C130.141 163.936 129.241 164.037 128.35 164.148C131.233 155.494 134.895 147.118 139.291 139.125C140.286 138.698 141.21 138.123 142.032 137.42C146.582 133.56 148.602 125.748 152.295 120.344C152.532 119.997 152.778 119.657 153.033 119.327C156.81 114.398 161.869 111.862 166.758 109.504C177.581 104.253 188.717 98.9348 200.142 99.6643L196.891 99.9781C193.097 110.598 189.3 121.218 185.5 131.838C184.923 133.467 184.34 135.098 183.752 136.732C181.596 142.772 179.372 149.202 179.703 155.962C179.898 159.966 181.29 164.241 183.938 165.615C186.408 166.887 189.107 165.327 191.493 163.783C192.503 163.138 193.504 162.493 194.514 161.84C198.139 159.508 202.154 157.116 205.982 158.676C209.487 160.101 212.076 164.86 212.569 169.992C213.02 174.981 211.802 179.978 209.105 184.2Z" fill="white"/>
<path d="M230.662 256.705C220.076 250.192 209.491 243.679 198.905 237.166L199.085 236.703C192.503 239.208 189.771 250.9 190.859 260.46C191.946 270.021 195.634 278.568 197.498 287.884C200.01 300.633 199.062 313.821 194.751 326.08C208.671 310.472 220.989 293.509 231.522 275.445C232.993 273.169 234.114 270.684 234.848 268.075C235.52 265.299 235.417 261.962 234.07 259.736C233.204 258.458 232.032 257.417 230.662 256.705Z" fill="white"/>
<path d="M188.884 138.21C187.76 140.736 187.328 144.103 188.348 146.716C189.39 149.385 191.592 150.591 193.619 151.596L199.468 154.493C201.414 155.457 203.512 156.43 205.495 155.637C207.888 154.681 209.547 150.932 209.118 147.453C208.661 143.75 206.325 141.202 204.165 139.033C201.142 135.998 198.119 132.963 195.096 129.927L193.393 132.012C191.55 133.809 190.025 135.904 188.884 138.21Z" fill="white"/>
<path d="M394.774 177.796C397.405 178.415 400.037 179.034 402.668 179.653C402.21 188.535 397.804 196.754 391.897 199.731C389.435 200.97 386.693 201.428 384.656 203.744C382.814 205.847 381.881 209.121 381.023 212.251C379.521 217.714 378.019 223.177 376.516 228.639C374.904 234.526 372.832 241.066 368.639 243.187C365.04 245.01 360.924 242.78 358.157 239.039C355.389 235.298 353.7 230.268 352.062 225.365C352.164 230.709 349.677 235.951 346.154 237.809C342.623 239.666 338.328 237.987 335.969 233.839C334.271 230.862 333.567 226.934 331.903 223.915C330.239 220.895 326.751 219.164 324.934 221.998C323.737 223.881 323.89 226.765 323.296 229.157C322.371 232.872 319.57 235.205 316.794 235.408C314.027 235.612 311.328 234.017 309.01 231.854C304.232 227.375 300.709 220.267 299.342 212.37C298.74 208.85 298.57 205.016 299.614 201.716C300.658 198.417 303.179 195.872 305.683 196.5C307.33 193.022 304.079 188.407 301.15 188.814C298.213 189.222 295.913 192.368 293.503 194.786C291.101 197.204 287.739 198.959 285.32 196.559C285.337 198.79 283.521 200.266 281.95 200.079C280.388 199.901 278.997 198.646 277.562 197.755C272.019 194.302 264.983 196.593 261.044 203.124C263.506 192.657 267.113 180.646 274.676 178.186C277.766 177.177 281.136 178.008 284.055 176.26C289.225 173.164 290.269 161.467 285.804 156.641C286.373 161.204 286.262 166.531 283.852 169.653C281.441 172.774 276.382 170.738 276.688 166.124C275.992 169.305 272.529 169.788 270.933 167.345C269.329 164.902 269.464 160.907 270.602 157.989C271.739 155.071 273.674 152.976 275.55 150.966C279.582 146.648 283.673 142.28 288.342 139.565C293.019 136.851 298.417 135.935 303.103 138.632C305.573 140.057 307.746 142.433 310.267 143.688C312.788 144.952 315.988 144.791 317.66 141.839C319.536 138.548 318.653 133.662 319.349 129.548C320.597 122.278 327.871 118.877 331.903 123.678C328.89 122.906 325.774 126.469 325.401 130.786C325.019 135.104 327.2 139.464 330.12 140.77C335.026 142.941 339.831 137.479 343.54 132.423C347.411 127.13 351.287 121.84 355.169 116.553C355.789 115.652 356.484 114.807 357.248 114.025C358.464 112.841 360.085 112.163 361.782 112.128C363.48 112.093 365.127 112.705 366.39 113.838C370.311 117.036 372.153 123.593 375.37 128.106C380.039 134.663 387.025 136.257 393.526 137.53C398.373 138.471 403.223 139.418 408.075 140.371C411.31 146.385 414.131 152.611 416.521 159.007C408.304 162.493 400.724 169.017 394.774 177.796Z" fill="white"/>
<path d="M410.443 279.856C406.807 287.235 402.577 294.307 397.796 301.003C394.74 299.697 391.455 302.029 388.595 304.218C385.607 306.508 382.017 308.739 378.952 306.652C375.82 304.515 374.81 298.535 375.803 293.793C376.796 289.06 379.275 285.293 381.677 281.714C384.223 277.914 386.948 273.969 390.488 272.493C394.036 271.018 398.594 273.104 399.629 278.143L402.142 278.058C400.733 276.124 401.471 272.12 403.364 271.416C405.546 270.593 407.438 273.588 408.729 276.234C409.306 277.43 409.891 278.635 410.443 279.856Z" fill="white"/>
<path d="M314.217 244.027C308.817 244.367 304.539 237.723 301.697 231.187C298.854 224.651 296.26 217.177 291.388 213.85C288.603 211.949 285.429 211.688 282.409 210.767C279.389 209.846 276.228 207.94 274.784 204.058L271.358 202.675C266.834 205.217 262.25 207.806 258.352 211.943C253.98 216.584 251.256 222.534 250.602 228.875C249.947 235.727 252.364 243.368 256.879 245.942C260.447 247.976 264.601 246.694 268.215 248.556C272.73 250.883 275.411 257.641 276.425 264.313C277.44 270.986 277.183 277.921 277.909 284.669C278.635 291.417 280.636 298.439 284.777 301.898C289.958 306.225 297.562 302.629 299.886 294.751C301.027 290.887 300.988 286.527 301.84 282.516C303.342 275.452 307.396 270.211 310.61 264.416C313.825 258.622 316.355 250.752 314.217 244.027Z" fill="white"/>
<path d="M260.853 174.614C261.357 175.078 261.827 175.576 262.259 176.106C262.707 176.878 262.936 177.757 262.921 178.649C262.906 179.541 262.647 180.412 262.173 181.168C262.824 181.131 263.459 180.959 264.04 180.664C264.621 180.369 265.134 179.957 265.548 179.454C266.533 178.332 267.4 177.112 268.135 175.812C268.686 174.914 269.272 173.701 268.898 172.635C268.643 171.907 268.039 171.597 267.617 171.049C266.946 170.182 266.78 168.805 266.433 167.614C265.684 165.043 263.889 163.152 261.94 162.882L262.211 162.934C261.397 163.213 260.828 164.504 261.008 165.667C261.172 166.725 261.853 167.604 261.785 168.684C261.688 170.236 260.135 170.964 260.039 172.517C260.024 173.296 260.317 174.049 260.853 174.614Z" fill="white"/>
<path d="M251.6 148.234C251.608 148.232 251.616 148.231 251.624 148.229C251.791 148.078 251.945 147.914 252.085 147.739L251.6 148.234Z" fill="#E6E6E6"/>
<path d="M253.22 155.521C254.414 154.753 255.081 152.631 254.686 150.855C254.294 149.09 252.905 147.903 251.624 148.229C251.253 148.606 250.792 148.881 250.284 149.031C249.777 149.18 249.239 149.198 248.723 149.083C247.931 148.879 247.062 148.354 246.375 148.951C245.982 149.396 245.707 149.932 245.576 150.511C245.321 151.291 245.067 152.071 244.813 152.85C244.692 153.129 244.661 153.439 244.723 153.737C244.772 153.856 244.85 153.961 244.951 154.041C245.052 154.121 245.172 154.174 245.299 154.195C246.824 154.644 248.349 155.093 249.874 155.542C250.986 155.87 252.186 156.185 253.22 155.521Z" fill="white"/>
<path d="M368.354 256.121C367.649 254.968 366.944 253.814 366.239 252.661C365.547 251.325 364.6 250.137 363.452 249.164C363.2 248.953 362.908 248.794 362.593 248.697C362.279 248.6 361.948 248.567 361.62 248.6C361.293 248.633 360.975 248.731 360.686 248.888C360.397 249.045 360.142 249.259 359.937 249.516L360.022 250.175C361.629 252.189 363.329 254.427 363.737 257.418C363.898 258.596 363.842 259.816 363.983 261C364.124 262.184 364.524 263.412 365.289 263.922C366.399 264.663 367.702 263.571 368.493 262.237C369.199 261.142 369.516 259.841 369.392 258.544C369.216 257.674 368.863 256.849 368.354 256.121Z" fill="white"/>
<path d="M399.729 212.07C399.933 210.734 400.137 209.398 400.341 208.062C400.672 206.594 400.713 205.076 400.462 203.593C400.405 203.269 400.284 202.96 400.106 202.683C399.928 202.407 399.696 202.168 399.424 201.983C399.152 201.797 398.846 201.668 398.524 201.602C398.201 201.536 397.869 201.535 397.546 201.6L397.187 202.159C397.118 204.735 396.977 207.541 395.362 210.091C394.725 211.096 393.896 211.993 393.241 212.99C392.586 213.986 392.101 215.183 392.357 216.066C392.729 217.347 394.43 217.35 395.894 216.839C397.14 216.455 398.221 215.664 398.962 214.592C399.388 213.813 399.649 212.955 399.729 212.07Z" fill="#E6E6E6"/>
<path d="M379.413 257.622C379.758 256.632 379.26 255.496 379.155 254.402C379.105 252.988 379.48 251.592 380.232 250.394C380.979 249.264 381.544 248.024 381.909 246.719C382.063 246.125 382.035 245.498 381.829 244.92C381.595 244.396 381.03 244.157 380.706 244.572L381.4 245.018C380.463 244.851 379.5 244.898 378.584 245.154C378.061 245.354 377.594 245.677 377.223 246.096C376.851 246.514 376.586 247.016 376.45 247.558C376.335 248.404 376.148 249.239 375.89 250.052C375.477 250.903 374.675 251.185 374.172 251.931C373.829 252.593 373.655 253.329 373.668 254.074C373.68 254.82 373.878 255.55 374.243 256.2C374.875 257.262 375.88 258.052 377.063 258.416C377.91 258.719 379.026 258.735 379.413 257.622Z" fill="white"/>
<path d="M399.107 263.56C399.414 264.357 399.824 265.109 400.328 265.799C401.271 266.748 402.552 266.164 403.696 265.934C404.734 265.77 405.797 265.89 406.772 266.281C407.747 266.672 408.599 267.319 409.236 268.154C408.792 265.943 407.824 263.871 406.413 262.112C405.002 260.352 403.189 258.957 401.126 258.043C398.429 256.945 395.59 256.839 392.786 256.74L392.301 256.864C393.535 260.454 397.411 260.374 399.107 263.56Z" fill="white"/>
<path d="M315.695 270.904L315.702 270.919C315.749 270.829 315.796 270.739 315.843 270.648L315.695 270.904Z" fill="#E6E6E6"/>
<path d="M312.707 276.683C312.055 277.865 311.495 279.095 311.031 280.363C310.416 282.415 310.009 284.525 309.816 286.659C309.664 287.872 309.617 289.422 310.378 290.013C310.596 290.158 310.86 290.218 311.12 290.183C311.38 290.148 311.618 290.019 311.79 289.821C312.212 289.375 312.558 288.861 312.813 288.301C314.308 285.728 315.469 282.975 316.267 280.108C316.995 277.089 316.989 273.534 315.702 270.919C314.703 272.841 313.705 274.762 312.707 276.683Z" fill="white"/>
<path d="M283.884 122.714C284.359 123.177 284.959 123.492 285.61 123.619C286.261 123.746 286.936 123.68 287.55 123.429C288.822 122.873 289.988 122.103 290.999 121.152C291.836 120.533 292.546 119.759 293.09 118.872C293.39 118.342 293.582 117.759 293.655 117.154C293.729 116.55 293.682 115.937 293.518 115.351C293.045 113.97 291.847 113.507 290.789 113.194C289.097 112.692 287.404 112.191 285.711 111.689L286.936 110.586C285.676 109.91 284.282 111.164 283.494 112.717C282.989 113.731 282.637 114.814 282.45 115.931C282.028 118.367 282.44 121.269 283.884 122.714Z" fill="#E6E6E6"/>
<path d="M313.77 112.687C314.247 113.213 314.907 113.537 315.615 113.595C316.323 113.653 317.026 113.439 317.582 112.997C318.06 112.638 318.458 112.182 318.748 111.659C319.038 111.137 319.215 110.559 319.267 109.963C319.387 108.632 318.729 107.153 317.789 107.038L318.004 105.793C316.192 105.466 313.963 105.4 312.993 107.598C312.665 108.44 312.565 109.354 312.701 110.247C312.838 111.14 313.206 111.981 313.77 112.687Z" fill="#E6E6E6"/>
<path d="M309.778 46.4354C299.159 45.2384 288.499 48.306 280.143 54.9635C271.787 61.6209 266.42 71.3229 265.222 81.935C262.727 104.034 274.377 152.021 295.618 171.886C305.619 133.827 340.664 111.252 345.302 90.962C350.256 69.2815 331.892 48.9282 309.778 46.4354Z" fill="#2594EA"/>
<path d="M302.434 95.563C309.691 95.563 315.575 89.6834 315.575 82.4306C315.575 75.1778 309.691 69.2983 302.434 69.2983C295.176 69.2983 289.292 75.1778 289.292 82.4306C289.292 89.6834 295.176 95.563 302.434 95.563Z" fill="white"/>
<path d="M288.616 190.821C293.37 190.821 297.223 186.97 297.223 182.22C297.223 177.469 293.37 173.618 288.616 173.618C283.863 173.618 280.009 177.469 280.009 182.22C280.009 186.97 283.863 190.821 288.616 190.821Z" fill="#2594EA"/>
<path opacity="0.2" d="M313.307 73.022C314.786 73.9102 316.075 75.0809 317.102 76.4672C318.128 77.8535 318.872 79.4283 319.289 81.1016C319.706 82.7749 319.79 84.514 319.535 86.2196C319.28 87.9252 318.691 89.5638 317.802 91.042C316.913 92.5202 315.742 93.809 314.355 94.8347C312.967 95.8605 311.392 96.6032 309.717 97.0203C306.335 97.8628 302.757 97.3283 299.77 95.5344C302.816 96.2116 306.003 95.7833 308.762 94.3264C311.521 92.8695 313.671 90.4789 314.827 87.5826C315.983 84.6864 316.07 81.4734 315.073 78.5189C314.075 75.5644 312.058 73.0612 309.382 71.4572C310.766 71.7638 312.091 72.2922 313.307 73.022Z" fill="#231F20"/>
<path opacity="0.2" d="M345.353 91.0044C340.716 111.294 305.67 133.869 295.669 171.929C293.672 170.043 291.816 168.011 290.119 165.852C301.357 130.077 334.221 108.339 338.701 88.735C342.711 71.1893 331.447 54.5145 315.284 47.4706C334.85 52.3856 349.894 71.1364 345.353 91.0044Z" fill="#231F20"/>
<path d="M186.632 97.6758C178.658 96.7769 170.652 99.0806 164.377 104.08C158.102 109.08 154.072 116.365 153.172 124.335C151.299 140.93 160.048 176.967 175.998 191.885C183.509 163.304 209.827 146.351 213.309 131.114C217.03 114.832 203.239 99.5478 186.632 97.6758Z" fill="#2594EA"/>
<path d="M181.117 134.569C186.567 134.569 190.985 130.154 190.985 124.707C190.985 119.26 186.567 114.845 181.117 114.845C175.667 114.845 171.248 119.26 171.248 124.707C171.248 130.154 175.667 134.569 181.117 134.569Z" fill="white"/>
<path d="M170.741 206.105C174.31 206.105 177.204 203.213 177.204 199.645C177.204 196.078 174.31 193.186 170.741 193.186C167.171 193.186 164.277 196.078 164.277 199.645C164.277 203.213 167.171 206.105 170.741 206.105Z" fill="#2594EA"/>
<path opacity="0.2" d="M189.282 117.641C190.393 118.308 191.361 119.188 192.132 120.229C192.903 121.27 193.461 122.452 193.775 123.709C194.088 124.966 194.151 126.272 193.959 127.552C193.768 128.833 193.326 130.064 192.658 131.174C191.991 132.284 191.111 133.252 190.069 134.022C189.027 134.792 187.844 135.35 186.587 135.663C185.329 135.977 184.022 136.039 182.74 135.848C181.459 135.656 180.227 135.215 179.117 134.548C181.404 135.056 183.798 134.734 185.869 133.64C187.941 132.546 189.556 130.751 190.424 128.576C191.292 126.401 191.357 123.988 190.608 121.769C189.859 119.551 188.344 117.671 186.335 116.466C187.374 116.697 188.37 117.093 189.282 117.641Z" fill="#231F20"/>
<path opacity="0.2" d="M213.348 131.146C209.865 146.383 183.547 163.336 176.037 191.917C174.537 190.501 173.144 188.975 171.869 187.353C180.308 160.488 204.988 144.163 208.353 129.441C211.364 116.265 202.905 103.743 190.767 98.4532C205.46 102.144 216.758 116.225 213.348 131.146Z" fill="#231F20"/>
<path d="M495.595 454.929H484.76L479.605 413.164L495.597 413.164L495.595 454.929Z" fill="#A0616A"/>
<path d="M501.424 475.489H493.735L492.363 468.235L488.848 475.489H468.456C467.479 475.489 466.527 475.177 465.74 474.598C464.952 474.019 464.371 473.204 464.08 472.271C463.789 471.339 463.804 470.338 464.123 469.414C464.442 468.491 465.047 467.694 465.852 467.139L482.136 455.9V448.566L499.264 449.588L501.424 475.489Z" fill="#2F2E41"/>
<path d="M453.627 454.929H442.792L437.637 413.164L453.629 413.164L453.627 454.929Z" fill="#A0616A"/>
<path d="M459.456 475.489H451.768L450.395 468.235L446.88 475.489H426.488C425.511 475.489 424.559 475.177 423.772 474.598C422.984 474.019 422.403 473.204 422.112 472.271C421.821 471.339 421.836 470.338 422.155 469.414C422.474 468.491 423.079 467.694 423.884 467.139L440.168 455.9V448.566L457.296 449.588L459.456 475.489Z" fill="#2F2E41"/>
<path d="M412.463 344.659C414.536 347.767 437.094 433.211 437.094 433.211L457.095 435.491L454.721 413.992L451.092 375.948L445.473 350.554C445.473 350.554 465.317 305.423 466.571 301.828L467.463 299.248L473.663 355.475C474.399 357.483 474.72 359.619 474.606 361.754C474.419 365.266 477.944 418.105 477.944 418.105L479.639 437.055L496.776 439.434L503.729 406.646C509.534 395.996 506.206 358.148 503.832 354.626C501.458 351.103 502.401 326.569 502.401 326.569C505.433 325.503 523.512 263.896 514.469 264.26C515.05 260.976 515.506 258.044 515.506 258.044L499.809 245.393L460.527 235.188L450.616 230.433C450.616 230.433 432.916 263.141 433.092 264.768C433.336 266.828 432.864 268.91 431.754 270.663L413.883 330.434C413.883 330.434 410.369 341.52 412.463 344.659Z" fill="#2F2E41"/>
<path d="M511.154 130.778L504.905 117.518L483.635 118.335L476.697 132.129C476.697 132.129 456.87 155.795 456.228 163.491C455.421 173.169 462.129 220.603 455.421 217.528C455.421 217.528 439.606 236.079 448.964 236.079C458.322 236.079 500.651 262.633 503.429 265.619C506.206 268.605 518.605 270.542 517.565 264.307C516.526 258.073 511.154 224.357 511.154 224.357L525.696 171.341C529.882 159.895 531.184 147.056 521.723 139.367L511.154 130.778Z" fill="#CCCCCC"/>
<path d="M432.368 91.7512C429.523 90.6227 426.483 90.0651 423.423 90.1105C420.362 90.1558 417.34 90.8031 414.53 92.0155C411.72 93.2279 409.176 94.9815 407.044 97.1763C404.912 99.3711 403.233 101.964 402.104 104.807C397.355 116.764 396.567 145.318 405.406 159.629C416.77 139.901 439.762 132.617 445.433 121.995C451.492 110.645 444.333 96.4975 432.368 91.7512Z" fill="#2594EA"/>
<path d="M422.8 118.326C426.998 118.326 430.402 114.925 430.402 110.729C430.402 106.534 426.998 103.133 422.8 103.133C418.602 103.133 415.198 106.534 415.198 110.729C415.198 114.925 418.602 118.326 422.8 118.326Z" fill="white"/>
<path d="M399.928 169.31C402.678 169.31 404.907 167.083 404.907 164.335C404.907 161.587 402.678 159.359 399.928 159.359C397.178 159.359 394.949 161.587 394.949 164.335C394.949 167.083 397.178 169.31 399.928 169.31Z" fill="#2594EA"/>
<path opacity="0.2" d="M430.299 107.127C431.691 108.582 432.449 110.53 432.405 112.543C432.361 114.556 431.52 116.469 430.065 117.862C428.611 119.255 426.662 120.014 424.648 119.973C422.634 119.931 420.718 119.092 419.323 117.64C420.92 118.48 422.764 118.724 424.526 118.329C426.287 117.935 427.85 116.927 428.935 115.485C430.021 114.044 430.557 112.264 430.449 110.463C430.341 108.663 429.595 106.959 428.345 105.658C429.072 106.039 429.731 106.535 430.299 107.127Z" fill="#231F20"/>
<path opacity="0.2" d="M445.455 122.026C439.784 132.649 416.793 139.933 405.428 159.66C404.6 158.304 403.873 156.889 403.253 155.426C414.961 137.162 436.608 130.013 442.087 119.751C446.991 110.565 443.236 99.5484 435.284 93.1644C445.459 98.8762 451.008 111.625 445.455 122.026Z" fill="#231F20"/>
<path d="M397.684 162.621C398.841 162.383 400.037 162.401 401.187 162.674C402.337 162.948 403.412 163.47 404.338 164.203C405.264 164.937 406.018 165.865 406.547 166.921C407.075 167.978 407.365 169.137 407.397 170.317L424.643 176.933L423.176 188.387L398.953 178.702C396.965 178.624 395.074 177.82 393.64 176.441C392.206 175.063 391.327 173.207 391.171 171.225C391.015 169.243 391.591 167.272 392.792 165.686C393.992 164.101 395.733 163.01 397.684 162.621Z" fill="#A0616A"/>
<path d="M518.185 139.018C516.369 137.911 514.353 137.172 512.251 136.845C510.148 136.518 508.002 136.608 505.936 137.112C503.869 137.615 501.922 138.522 500.206 139.779C498.49 141.036 497.04 142.619 495.938 144.438L471.184 185.288L415.216 172.03L410.117 186.019L481.79 219.947L518.09 162.169C523.524 154.537 526.186 143.9 518.185 139.018Z" fill="#CCCCCC"/>
<path d="M519.109 88.9551C519.111 92.8923 518.145 96.7697 516.297 100.247C514.449 103.724 511.775 106.695 508.51 108.898C505.245 111.101 501.488 112.47 497.57 112.884C493.652 113.298 489.692 112.744 486.038 111.272C482.384 109.799 479.148 107.453 476.613 104.439C474.079 101.424 472.323 97.8344 471.501 93.9839C470.679 90.1334 470.815 86.14 471.897 82.3543C472.98 78.5687 474.976 75.1065 477.71 72.2717L477.826 72.1564C478.018 71.9542 478.211 71.7522 478.413 71.5597C478.414 71.5598 478.416 71.5595 478.417 71.559C478.418 71.5586 478.419 71.5579 478.42 71.557C478.421 71.5561 478.422 71.555 478.422 71.5538C478.422 71.5526 478.423 71.5514 478.423 71.5501C478.673 71.3192 478.923 71.0883 479.183 70.867C482.661 67.8199 486.944 65.839 491.52 65.1615C496.095 64.4841 500.769 65.1388 504.982 67.0473C509.195 68.9559 512.768 72.0373 515.273 75.9227C517.779 79.8081 519.111 84.3328 519.109 88.9551Z" fill="#2F2E41"/>
<path d="M489.11 114.69C500.257 114.69 509.293 105.66 509.293 94.5203C509.293 83.381 500.257 74.3507 489.11 74.3507C477.963 74.3507 468.927 83.381 468.927 94.5203C468.927 105.66 477.963 114.69 489.11 114.69Z" fill="#9E616A"/>
<path d="M510.543 100.272L507.199 99.682C505.33 99.3426 503.61 98.4412 502.268 97.0983C500.926 95.7554 500.026 94.035 499.689 92.1672L496.426 97.6322L496.284 97.6795C488.509 100.259 480.42 99.4875 471.56 95.3241C469.027 94.1232 466.569 92.7691 464.201 91.2693L464.026 91.1602L464.012 90.955C463.56 84.3937 465.033 78.9122 468.161 75.5202C469.362 74.2441 470.82 73.2359 472.438 72.5619C474.056 71.8878 475.798 71.563 477.551 71.6089C477.675 71.5763 477.79 71.5131 477.884 71.425C477.929 71.3919 477.974 71.3592 478.019 71.3281V71.2942L478.25 71.1851C478.749 70.9512 479.256 70.7271 479.764 70.5223C483.757 68.9774 488.106 68.5898 492.311 69.4042C496.515 70.2185 500.404 72.2018 503.531 75.126C509.748 81.0573 512.599 91.011 510.626 99.8955L510.543 100.272Z" fill="#2F2E41"/>
<path d="M553.113 117.457C546.245 113.914 555.078 101.057 553.303 93.539C551.528 86.0214 538.746 83.6035 537.932 75.9225C537.118 68.2414 535.202 60.3192 530.13 54.4908C526.889 50.7665 522.114 48.017 517.197 48.4835C515.533 48.6414 513.923 49.1556 512.476 49.9913C511.03 50.8271 509.78 51.9645 508.813 53.3264C507.846 54.6882 507.184 56.2423 506.872 57.8829C506.56 59.5235 506.605 61.212 507.005 62.8334C505.605 60.8512 501.982 61.2808 501.085 63.5356C500.288 65.54 502.049 67.968 504.122 68.1453C506.834 71.4925 509.94 75.0447 514.189 75.7199C514.866 75.8752 515.569 75.8748 516.246 75.7187C516.923 75.5626 517.555 75.2549 518.096 74.8187C519.095 73.8594 519.173 71.9415 517.987 71.2246C523.327 73.3443 526.458 79.1137 527.25 84.8007C528.042 90.4875 526.946 96.2415 526.224 101.938C525.501 107.634 525.19 113.626 527.425 118.916C530.066 125.165 536.145 129.645 542.78 131.081C549.415 132.518 556.48 131.114 562.486 127.951C568.491 124.787 573.499 119.958 577.591 114.545C570.543 119.545 560.794 121.419 553.113 117.457Z" fill="#2F2E41"/>
<path d="M509.684 99.7116C509.684 99.7116 503.705 77.4096 478.076 72.2621C478.047 72.2526 477.951 72.214 477.826 72.1564C477.749 72.1083 477.652 72.0601 477.556 72.0121C477.845 71.8484 478.124 71.7042 478.413 71.5598L478.417 71.5591L478.42 71.557L478.422 71.5538L478.423 71.5501C478.673 71.3192 478.923 71.0883 479.183 70.8671L479.915 70.896C479.915 70.896 505.631 66.8262 509.684 99.7116Z" fill="#FD6584"/>
<path opacity="0.2" d="M496.298 171.273L481.823 188.032L457.905 180.974L483.979 192.982L496.298 171.273Z" fill="black"/>
<path d="M583.181 476.752L360.63 477C360.375 476.999 360.132 476.898 359.952 476.718C359.773 476.538 359.672 476.294 359.672 476.04C359.672 475.785 359.773 475.542 359.952 475.362C360.132 475.182 360.375 475.08 360.63 475.079L583.181 474.831C583.436 474.831 583.68 474.933 583.86 475.113C584.04 475.293 584.142 475.537 584.142 475.792C584.142 476.046 584.04 476.291 583.86 476.471C583.68 476.651 583.436 476.752 583.181 476.752Z" fill="#CACACA"/>
<path d="M592.949 327.511C582.528 327.511 571.107 327.118 558.684 326.33C494.43 322.253 411.201 308.076 324.329 286.413C237.457 264.75 157.32 238.187 98.6822 211.62C70.1178 198.677 48.1947 186.427 33.5227 175.207C17.9889 163.329 11.1942 152.975 13.3265 144.435C17.4814 127.797 54.2703 124.157 84.4008 124.034L84.411 126.453C43.0339 126.623 18.6234 133.217 15.6761 145.021C11.9217 160.055 42.5409 183.526 99.682 209.416C158.191 235.925 238.181 262.437 324.915 284.066C411.649 305.695 494.725 319.847 558.838 323.916C621.449 327.89 659.515 321.546 663.269 306.512C666.385 294.03 645.837 275.642 605.41 254.734L606.523 252.585C635.898 267.777 669.996 289.566 665.618 307.098C663.485 315.638 652.62 321.587 633.323 324.78C622.323 326.599 608.812 327.511 592.949 327.511Z" fill="#2594EA"/>
</g>
<defs>
<clipPath id="clip0_211_180">
<rect width="666" height="477" fill="white"/>
</clipPath>
</defs>
</svg>
