<svg width="253" height="181" fill="none" xmlns="http://www.w3.org/2000/svg"><g clip-path="url(#a)"><mask id="b" style="mask-type:luminance" maskUnits="userSpaceOnUse" x="0" y="0" width="253" height="181"><path d="M253 0H0v181h253V0z" fill="#fff"/></mask><g mask="url(#b)"><path d="M204.75 115.17a1.111 1.111 0 0 0 1.103-.628 1.104 1.104 0 0 0-.212-1.249l-.062-.305a2.963 2.963 0 0 1 1.195-1.339 2.984 2.984 0 0 1 3.291.165c.471.348.829.828 1.028 1.378.796 2.197 1.837 4.409 2.012 6.702a8.792 8.792 0 0 1-.296 3.011 35.169 35.169 0 0 0 3.888-14.464c.06-1.266.048-2.534-.034-3.799a34.92 34.92 0 0 0-.342-3.094 35.587 35.587 0 0 0-6.367-15.413 9.486 9.486 0 0 1-3.756-4.27 7.25 7.25 0 0 1-.566-2.005 8.857 8.857 0 0 0 .759.098l.023.002a1.1 1.1 0 0 0 1.056-.552 1.094 1.094 0 0 0-.073-1.189l-.234-.317c-.119-.163-.241-.323-.359-.486a.51.51 0 0 1-.039-.05l-.41-.554a3.173 3.173 0 0 1 1.086-.954c1.492-.782 3.467-.1 4.455 1.26.991 1.359 1.103 3.208.662 4.828a12.695 12.695 0 0 1-1.94 3.83c.074.104.151.205.225.31a35.929 35.929 0 0 1 3.47 6.097 14.876 14.876 0 0 1 1.213-6.876c.948-2.013 2.626-3.668 4.116-5.377 1.79-2.053 5.212-.961 5.384 1.755l.005.078c-.215.108-.425.224-.632.347a1.503 1.503 0 0 0-.704 1.54 1.494 1.494 0 0 0 1.182 1.215l.031.006c-.11.748-.276 1.487-.498 2.21a15.366 15.366 0 0 1-8.105 9.265c-.126.057-.248.114-.374.168a36.562 36.562 0 0 1 1.54 9.354c.055 1.87-.04 3.743-.287 5.598l.013-.066a9.175 9.175 0 0 1 3.38-5.145c2.504-1.866 5.945-2.436 8.621-3.904.285-.164.611-.244.939-.23.329.015.646.123.916.312.269.188.478.45.603.754.126.303.161.636.103.96l-.014.069a9.946 9.946 0 0 0-1.787.837 1.495 1.495 0 0 0-.705 1.541 1.5 1.5 0 0 0 1.183 1.214l.03.006.063.012a14.966 14.966 0 0 1-2.95 4.17 15.434 15.434 0 0 1-5.243 3.359 15.446 15.446 0 0 1-6.147 1.011h-.004a36.445 36.445 0 0 1-2.794 7.054l-8.787-.408c-.027-.1-.05-.201-.074-.3.811.089 1.63.078 2.438-.032-.615-.828-1.229-1.664-1.844-2.493-.014-.015-.026-.032-.038-.049-.312-.424-.627-.845-.939-1.269a14.59 14.59 0 0 1 .603-3.699zM27.698 39.321a1.11 1.11 0 0 1-1.272-1.21c.024-.225.117-.438.267-.609l.042-.307a2.973 2.973 0 0 0-2.968-1.573 2.978 2.978 0 0 0-2.523 2.117c-.658 2.242-1.56 4.514-1.593 6.812a8.771 8.771 0 0 0 .481 2.987 35.18 35.18 0 0 1-4.775-14.196 33.966 33.966 0 0 1-.051-6.902 35.588 35.588 0 0 1 5.4-15.777 9.484 9.484 0 0 0 3.485-4.494c.244-.653.393-1.34.44-2.036a9.02 9.02 0 0 1-.57.116l-.18.03-.023.003A1.1 1.1 0 0 1 22.593 3.2c0-.211.06-.418.175-.595l.215-.331c.108-.17.22-.338.328-.508a.558.558 0 0 0 .036-.051l.375-.579A3.173 3.173 0 0 0 22.578.25c-1.537-.688-3.466.114-4.368 1.532-.905 1.418-.903 3.27-.361 4.86a12.691 12.691 0 0 0 2.173 3.703c-.068.109-.139.215-.206.323a35.836 35.836 0 0 0-3.085 6.3c0-2.36-.56-4.686-1.637-6.787-1.07-1.951-2.848-3.5-4.441-5.113C8.74 3.128 5.39 4.429 5.388 7.15v.079c.22.094.438.196.652.306a1.501 1.501 0 0 1 .445 2.307c-.197.23-.46.394-.752.472l-.03.008c.156.74.368 1.468.634 2.176a15.364 15.364 0 0 0 3.416 5.277A15.396 15.396 0 0 0 15 21.245c.129.05.255.099.383.145a36.539 36.539 0 0 0-.957 9.43c.06 1.871.271 3.734.632 5.57l-.017-.064A9.175 9.175 0 0 0 11.35 31.4c-2.615-1.708-6.085-2.064-8.846-3.365A1.727 1.727 0 0 0 .1 29.02a1.719 1.719 0 0 0-.025 1.033 10.105 10.105 0 0 1 1.836.726 1.5 1.5 0 0 1-.307 2.778l-.03.008-.061.017c.83 1.5 1.914 2.846 3.202 3.98a15.412 15.412 0 0 0 11.639 3.659h.003a36.555 36.555 0 0 0 3.225 6.868l8.745-.95c.021-.1.038-.204.056-.304a9.995 9.995 0 0 1-2.435.12c.562-.866 1.123-1.737 1.686-2.602a.577.577 0 0 0 .035-.052c.285-.443.573-.882.858-1.325a14.589 14.589 0 0 0-.83-3.655z" fill="#F2F2F2"/><path d="M148.518 36.086a3.077 3.077 0 0 1 1.979 1.681 3.064 3.064 0 0 1-.022 2.594l4.693 5.208-2.474 3.619-6.524-7.448a3.085 3.085 0 0 1-1.408-1.68 3.084 3.084 0 0 1 1.572-3.782 3.09 3.09 0 0 1 2.184-.192z" fill="#A0616A"/><path d="M192.452 48.875a6.132 6.132 0 0 0-3.816-2.756 6.144 6.144 0 0 0-4.649.754l-15.433 9.541-16.649-14.126-4.141 3.85 18.391 23.819 23.903-12.44c-.557.291 3.068-7.547 2.394-8.642z" fill="#CCC"/><path d="M161.877 80.601a57.81 57.81 0 0 1-4.415 22.173 57.92 57.92 0 0 1-12.581 18.798 58.06 58.06 0 0 1-18.831 12.559 58.13 58.13 0 0 1-22.213 4.407c-32.054 0-58.04-25.94-58.04-57.937a57.813 57.813 0 0 1 2.96-18.314 58.003 58.003 0 0 1 21.14-28.678 58.171 58.171 0 0 1 33.94-10.944 58.103 58.103 0 0 1 29.833 8.23 57.966 57.966 0 0 1 21.349 22.37 57.135 57.135 0 0 1 3.576 8.088v.003c.532 1.5 1 3.028 1.406 4.584a57.889 57.889 0 0 1 1.876 14.661z" fill="#3F3D56"/><path d="M97.487 41.512a19.5 19.5 0 0 0-17.096-.698c-2.39 1.038-4.907 2.901-5.705 6.265 3.225-1.9 7.4 1.102 8.23 5.917l-.194.054c-.438 3.335.54 6.966 2.435 9.035.249-2.149 1.664-3.61 3.056-4.524 1.391-.913 2.931-1.577 3.994-3.147 1.259-1.861 1.579-4.581 2.08-7.062.5-2.481 1.449-5.149 3.2-5.84z" fill="#fff"/><path d="M79.434 69.895c-.893 1.34-2.086 2.18-3.156 3.226-1.068 1.05-2.084 2.465-2.296 4.284-.136 1.165.074 2.35.045 3.527-.029 1.179-.423 2.505-1.226 2.797-1.267.458-2.234-1.892-3.537-2.056-1.035-.129-1.967 1.497-1.667 2.906.3 1.41 1.71 2.035 2.519 1.114.732 1.226.216 3.45-.884 3.827-.116.772-.232 1.541-.345 2.314-2.78-1.94-5.588-3.914-7.952-6.756a20.49 20.49 0 0 1-4.681-11.046c-.307-3.267.148-7.004-1.354-9.518-1.204-2.012-3.267-2.456-5.124-2.33-.339.022-.68.06-1.02.103a57.22 57.22 0 0 1 4.157-9.495c.378-.162.73-.38 1.041-.647 1.729-1.465 2.496-4.43 3.9-6.48.09-.132.182-.26.28-.386 1.434-1.87 3.356-2.833 5.213-3.727 4.112-1.993 8.342-4.01 12.682-3.734l-1.235.12a26533.613 26533.613 0 0 1-4.991 13.946c-.82 2.291-1.664 4.731-1.538 7.297.074 1.519.603 3.141 1.609 3.662.938.483 1.963-.109 2.87-.695l1.147-.737c1.377-.885 2.902-1.793 4.357-1.2 1.331.54 2.315 2.346 2.502 4.293a8.57 8.57 0 0 1-1.316 5.391zM87.624 97.408 75.56 89.994l.068-.176c-2.5.95-3.538 5.388-3.125 9.015.413 3.628 1.814 6.871 2.522 10.406a27.574 27.574 0 0 1-1.043 14.494 118.697 118.697 0 0 0 13.968-19.214c.56-.863.985-1.806 1.264-2.796.255-1.054.216-2.32-.296-3.165a3.53 3.53 0 0 0-1.294-1.15z" fill="#fff"/><path d="M71.752 52.444c-.426.959-.59 2.236-.203 3.228.396 1.013 1.232 1.47 2.002 1.852l2.222 1.099c.74.366 1.536.735 2.29.434.909-.363 1.539-1.785 1.376-3.105-.174-1.405-1.061-2.372-1.882-3.195a37465.79 37465.79 0 0 1-3.445-3.456l-.647.791a8.63 8.63 0 0 0-1.713 2.352zM149.966 67.466l2.999.704c-.174 3.37-1.848 6.49-4.092 7.619-.935.47-1.976.644-2.75 1.523-.7.798-1.054 2.04-1.38 3.228l-1.712 6.218c-.613 2.234-1.4 4.716-2.993 5.52-1.367.692-2.931-.154-3.982-1.574-1.051-1.42-1.693-3.328-2.315-5.188.039 2.028-.906 4.017-2.244 4.722-1.342.704-2.973.067-3.869-1.507-.646-1.13-.913-2.62-1.545-3.765-.632-1.146-1.957-1.803-2.647-.728-.455.715-.397 1.809-.623 2.717-.351 1.41-1.415 2.295-2.47 2.372-1.051.077-2.076-.528-2.957-1.349-1.815-1.7-3.153-4.397-3.672-7.393-.229-1.336-.294-2.79.103-4.043.397-1.252 1.354-2.218 2.306-1.98.625-1.319-.61-3.07-1.723-2.916-1.115.155-1.989 1.349-2.904 2.266-.913.918-2.19 1.584-3.109.673.006.847-.683 1.407-1.28 1.336-.594-.068-1.122-.544-1.667-.882-2.106-1.31-4.779-.44-6.275 2.037.935-3.971 2.306-8.53 5.179-9.462 1.173-.383 2.454-.068 3.562-.731 1.964-1.175 2.361-5.614.665-7.445.216 1.731.174 3.753-.742 4.938-.916 1.184-2.837.411-2.721-1.34-.265 1.207-1.58 1.39-2.186.464-.61-.927-.558-2.443-.126-3.55.432-1.108 1.167-1.903 1.88-2.665 1.531-1.639 3.085-3.296 4.859-4.326 1.777-1.03 3.827-1.378 5.607-.355.939.541 1.764 1.443 2.722 1.919.958.48 2.173.419 2.808-.702.713-1.248.378-3.102.642-4.663.474-2.76 3.237-4.05 4.769-2.228-1.145-.293-2.328 1.06-2.47 2.697-.145 1.639.683 3.293 1.793 3.789 1.863.824 3.689-1.249 5.098-3.167 1.47-2.009 2.943-4.016 4.417-6.023.236-.341.5-.662.79-.959a2.547 2.547 0 0 1 3.473-.07c1.489 1.213 2.189 3.7 3.411 5.413 1.774 2.488 4.428 3.093 6.897 3.576 1.842.357 3.684.717 5.527 1.078a57.135 57.135 0 0 1 3.209 7.072c-3.122 1.323-6.001 3.798-8.262 7.13zM155.919 106.193a57.688 57.688 0 0 1-4.805 8.024c-1.161-.495-2.408.389-3.495 1.22-1.135.869-2.499 1.716-3.663.924-1.19-.811-1.574-3.08-1.196-4.88.377-1.796 1.319-3.225 2.231-4.583.967-1.442 2.002-2.939 3.347-3.499 1.348-.56 3.08.232 3.473 2.144l.954-.032c-.535-.734-.255-2.254.465-2.521.828-.312 1.547.824 2.038 1.828.219.454.441.911.651 1.375z" fill="#fff"/><path d="M119.365 92.597c-2.052.13-3.677-2.392-4.757-4.872-1.08-2.48-2.065-5.316-3.916-6.578-1.058-.722-2.263-.82-3.411-1.17-1.147-.35-2.348-1.073-2.896-2.546l-1.302-.525c-1.718.965-3.46 1.947-4.94 3.517a11.014 11.014 0 0 0-2.945 6.425c-.248 2.6.67 5.5 2.385 6.476 1.355.772 2.933.285 4.306.992 1.715.883 2.734 3.447 3.119 5.979.386 2.532.288 5.164.564 7.724.276 2.561 1.036 5.225 2.609 6.538 1.968 1.642 4.857.277 5.739-2.712.434-1.466.419-3.121.743-4.643.57-2.68 2.11-4.669 3.331-6.868 1.222-2.198 2.183-5.185 1.371-7.737zM99.093 66.258c.191.176.37.365.534.566a1.858 1.858 0 0 1-.033 1.92 1.787 1.787 0 0 0 1.282-.65c.374-.425.704-.888.983-1.381.209-.341.432-.801.29-1.206-.097-.276-.327-.394-.487-.602-.255-.329-.318-.851-.45-1.303-.284-.976-.966-1.693-1.706-1.796l.103.02c-.31.106-.526.596-.457 1.037.062.401.32.735.295 1.145-.037.589-.627.865-.664 1.454-.005.296.106.581.31.796z" fill="#fff"/><path d="m95.577 56.248.01-.002c.063-.057.121-.12.174-.186l-.184.188z" fill="#E6E6E6"/><path d="M96.193 59.013c.453-.291.707-1.097.557-1.77-.15-.67-.677-1.12-1.163-.997a1.185 1.185 0 0 1-1.103.324c-.3-.077-.63-.276-.891-.05a1.34 1.34 0 0 0-.304.592l-.29.887a.56.56 0 0 0-.034.337.286.286 0 0 0 .219.174l1.738.511c.422.124.878.244 1.27-.008zM139.93 97.186l-.804-1.313a4.368 4.368 0 0 0-1.058-1.327.94.94 0 0 0-1.336.134l.033.25c.61.764 1.256 1.613 1.411 2.748.061.447.04.91.093 1.36.054.449.206.915.497 1.108.421.282.916-.133 1.217-.639a2.2 2.2 0 0 0 .341-1.401 2.46 2.46 0 0 0-.394-.92z" fill="#fff"/><path d="m151.848 80.471.233-1.52a4.38 4.38 0 0 0 .046-1.697.943.943 0 0 0-1.108-.756l-.136.212c-.026.978-.08 2.043-.694 3.01-.242.382-.556.722-.805 1.1-.249.378-.433.832-.336 1.167.141.487.787.488 1.344.294a2.205 2.205 0 0 0 1.165-.853c.162-.296.261-.621.291-.957z" fill="#E6E6E6"/><path d="M144.131 97.756c.131-.376-.058-.807-.098-1.222a2.677 2.677 0 0 1 .409-1.52c.284-.43.498-.9.637-1.395a1.16 1.16 0 0 0-.03-.683c-.089-.199-.304-.29-.427-.132l.264.17a2.41 2.41 0 0 0-1.07.051 1.319 1.319 0 0 0-.811.912 5.57 5.57 0 0 1-.212.947c-.157.323-.462.43-.653.713a1.704 1.704 0 0 0 .027 1.62c.24.403.622.702 1.071.84.322.115.746.121.893-.3zM151.612 100.009c.116.303.272.588.464.85.358.36.845.138 1.279.051a2.213 2.213 0 0 1 2.105.842 5.35 5.35 0 0 0-3.081-3.836c-1.025-.417-2.103-.457-3.168-.495l-.185.047c.469 1.363 1.942 1.332 2.586 2.541z" fill="#fff"/><path d="m119.926 102.796.002.006.054-.103-.056.097z" fill="#E6E6E6"/><path d="M118.791 104.989c-.248.448-.46.915-.637 1.396-.233.779-.388 1.58-.461 2.389-.058.461-.076 1.049.213 1.273a.413.413 0 0 0 .537-.073c.16-.169.291-.364.388-.577a13.258 13.258 0 0 0 1.312-3.108c.277-1.146.275-2.495-.214-3.487l-1.138 2.187z" fill="#fff"/><path d="M107.842 46.564a1.293 1.293 0 0 0 1.392.272 4.596 4.596 0 0 0 1.311-.864c.318-.235.587-.529.794-.866a1.75 1.75 0 0 0 .162-1.336c-.179-.524-.634-.7-1.036-.818l-1.929-.571.465-.419c-.479-.256-1.008.22-1.307.809a4.335 4.335 0 0 0-.397 1.22c-.16.924-.004 2.025.545 2.573zM119.194 42.76a1.064 1.064 0 0 0 1.448.117 1.607 1.607 0 0 0 .64-1.151c.046-.505-.204-1.066-.561-1.11l.082-.472c-.689-.124-1.536-.15-1.904.684a1.948 1.948 0 0 0 .295 1.931z" fill="#E6E6E6"/><path d="M117.678 17.62a15.326 15.326 0 0 0-11.258 3.236 15.273 15.273 0 0 0-5.668 10.235c-.948 8.385 3.477 26.594 11.546 34.132 3.8-14.442 17.113-23.008 18.874-30.707 1.882-8.227-5.094-15.95-13.494-16.896z" fill="#2594EA"/><path d="M114.888 36.262a4.988 4.988 0 0 0 4.992-4.983 4.988 4.988 0 0 0-4.992-4.984 4.988 4.988 0 0 0-4.992 4.983 4.988 4.988 0 0 0 4.992 4.984z" fill="#fff"/><path d="M109.639 72.408a3.266 3.266 0 0 0 3.269-3.264 3.266 3.266 0 0 0-3.269-3.264 3.267 3.267 0 0 0-3.27 3.264 3.267 3.267 0 0 0 3.27 3.264z" fill="#2594EA"/><path opacity=".2" d="M119.018 27.709a4.99 4.99 0 0 1 2.273 3.065 4.983 4.983 0 0 1-3.636 6.04 5 5 0 0 1-3.779-.563 5 5 0 0 0 3.416-.458 4.975 4.975 0 0 0 .235-8.678 5.001 5.001 0 0 1 1.491.594z" fill="#231F20"/><path opacity=".2" d="M131.192 34.532c-1.761 7.7-15.075 16.266-18.874 30.708a21.252 21.252 0 0 1-2.108-2.306c4.269-13.575 16.753-21.824 18.455-29.263 1.524-6.658-2.755-12.985-8.895-15.658 7.432 1.865 13.147 8.98 11.422 16.52z" fill="#231F20"/><path d="M70.898 37.064a11.51 11.51 0 0 0-8.455 2.43 11.47 11.47 0 0 0-4.256 7.685c-.712 6.298 2.612 19.972 8.67 25.633 2.854-10.845 12.852-17.278 14.175-23.06 1.413-6.178-3.826-11.978-10.134-12.688z" fill="#2594EA"/><path d="M68.802 51.063a3.745 3.745 0 0 0 3.748-3.742 3.745 3.745 0 0 0-3.748-3.742 3.746 3.746 0 0 0-3.75 3.742 3.746 3.746 0 0 0 3.75 3.742z" fill="#fff"/><path d="M64.86 78.207a2.453 2.453 0 0 0 2.456-2.45c0-1.354-1.1-2.452-2.455-2.452a2.453 2.453 0 0 0-2.456 2.451c0 1.354 1.1 2.451 2.456 2.451z" fill="#2594EA"/><path opacity=".2" d="M71.903 44.64a3.748 3.748 0 0 1 1.707 2.302 3.736 3.736 0 0 1-1.408 3.913 3.753 3.753 0 0 1-4.16.2 3.755 3.755 0 0 0 4.295-2.266 3.737 3.737 0 0 0-1.553-4.596c.395.088.773.238 1.12.446z" fill="#231F20"/><path opacity=".2" d="M81.046 49.764c-1.323 5.782-11.32 12.214-14.174 23.06a15.87 15.87 0 0 1-1.583-1.732c3.206-10.194 12.581-16.389 13.86-21.975 1.143-5-2.07-9.751-6.681-11.759 5.582 1.4 9.873 6.744 8.578 12.406z" fill="#231F20"/><path d="M188.266 172.625h-4.116l-1.959-15.848h6.075v15.848z" fill="#A0616A"/><path d="M190.48 180.427h-2.921l-.521-2.753-1.335 2.753h-7.747a1.743 1.743 0 0 1-1.646-2.306c.121-.35.351-.652.657-.863l6.186-4.265v-2.783l6.506.388.821 9.829z" fill="#2F2E41"/><path d="M172.323 172.625h-4.116l-1.958-15.848h6.075l-.001 15.848z" fill="#A0616A"/><path d="M174.538 180.427h-2.921l-.521-2.753-1.336 2.753h-7.746a1.743 1.743 0 0 1-1.646-2.306c.121-.35.351-.652.657-.863l6.185-4.265v-2.783l6.507.388.821 9.829zM156.686 130.783c.787 1.179 9.356 33.601 9.356 33.601l7.598.865-.901-8.158-1.379-14.436-2.135-9.636s7.539-17.125 8.015-18.489l.339-.979 2.355 21.336c.28.762.402 1.572.358 2.382-.071 1.333 1.268 21.383 1.268 21.383l.644 7.191 6.51.902 2.642-12.441c2.205-4.041.941-18.403.039-19.739-.902-1.337-.544-10.647-.544-10.647 1.152-.404 8.02-23.781 4.585-23.643.22-1.246.394-2.359.394-2.359l-5.963-4.8-14.923-3.873-3.765-1.804s-6.724 12.411-6.657 13.029a3.425 3.425 0 0 1-.508 2.236l-6.789 22.681s-1.335 4.206-.539 5.398z" fill="#2F2E41"/><path d="m194.176 49.624-2.374-5.031-8.08.31-2.635 5.234s-7.532 8.98-7.776 11.9c-.307 3.673 2.242 21.672-.307 20.505 0 0-6.007 7.04-2.452 7.04 3.554 0 19.634 10.075 20.69 11.208 1.055 1.133 5.765 1.868 5.37-.497-.395-2.366-2.436-15.16-2.436-15.16l5.524-20.117c1.591-4.343 2.085-9.215-1.509-12.133l-4.015-3.259z" fill="#CCC"/><path d="M164.248 34.815a8.87 8.87 0 0 0-9.62 2.059 8.837 8.837 0 0 0-1.877 2.895c-1.804 4.538-2.103 15.373 1.254 20.803 4.317-7.486 13.052-10.25 15.206-14.28 2.302-4.307-.418-9.676-4.963-11.477z" fill="#2594EA"/><path d="M160.612 44.9a2.885 2.885 0 0 0 2.888-2.883 2.885 2.885 0 0 0-2.888-2.883 2.885 2.885 0 0 0-2.887 2.883 2.885 2.885 0 0 0 2.887 2.882z" fill="#fff"/><path d="M151.924 64.246a1.89 1.89 0 0 0 1.891-1.888 1.89 1.89 0 0 0-1.891-1.888 1.89 1.89 0 0 0-1.892 1.888 1.89 1.89 0 0 0 1.892 1.888z" fill="#2594EA"/><path opacity=".2" d="M163.462 40.65c.528.552.816 1.291.8 2.055a2.884 2.884 0 0 1-2.947 2.82 2.891 2.891 0 0 1-2.023-.886 2.892 2.892 0 0 0 3.651-.818 2.875 2.875 0 0 0-.224-3.729c.276.145.527.333.743.558z" fill="#231F20"/><path opacity=".2" d="M169.219 46.303c-2.154 4.031-10.888 6.795-15.205 14.28a12.136 12.136 0 0 1-.826-1.606c4.447-6.93 12.67-9.643 14.752-13.537 1.863-3.486.436-7.666-2.585-10.088 3.866 2.167 5.974 7.005 3.864 10.951z" fill="#231F20"/><path d="M151.072 61.708a3.08 3.08 0 0 1 2.527.6 3.07 3.07 0 0 1 1.162 2.32l6.552 2.51-.558 4.347-9.201-3.675a3.089 3.089 0 0 1-2.957-2.838 3.081 3.081 0 0 1 2.475-3.264z" fill="#A0616A"/><path d="M196.848 52.751a6.153 6.153 0 0 0-6.83.289 6.116 6.116 0 0 0-1.621 1.768l-9.404 15.5-21.261-5.03-1.937 5.308 27.227 12.874 13.79-21.924c2.064-2.896 3.075-6.932.036-8.785z" fill="#CCC"/><path d="M197.199 33.755a9.109 9.109 0 0 1-4.027 7.567 9.154 9.154 0 0 1-12.117-1.692 9.12 9.12 0 0 1 .417-12.206l.044-.044c.073-.076.146-.153.223-.226h.002l.001-.001.001-.001v-.002c.095-.087.19-.175.289-.26a9.147 9.147 0 0 1 9.8-1.448 9.136 9.136 0 0 1 3.91 3.367 9.106 9.106 0 0 1 1.457 4.946z" fill="#2F2E41"/><path d="M185.803 43.52c4.234 0 7.667-3.427 7.667-7.654 0-4.226-3.433-7.653-7.667-7.653-4.235 0-7.667 3.427-7.667 7.653 0 4.227 3.432 7.654 7.667 7.654z" fill="#9E616A"/><path d="m193.945 38.049-1.27-.224a3.538 3.538 0 0 1-2.853-2.852l-1.24 2.074-.054.018c-2.953.979-6.026.686-9.392-.894a26.293 26.293 0 0 1-2.796-1.538l-.066-.042-.005-.078c-.172-2.49.388-4.57 1.576-5.856a4.723 4.723 0 0 1 3.567-1.485.29.29 0 0 0 .126-.07l.052-.036v-.013l.087-.041c.19-.09.383-.174.576-.252a8.659 8.659 0 0 1 9.028 1.747c2.362 2.25 3.445 6.028 2.695 9.399l-.031.143z" fill="#2F2E41"/><path d="M210.116 44.57c-2.609-1.345.747-6.223.072-9.076-.674-2.852-5.53-3.77-5.839-6.685-.309-2.914-1.037-5.92-2.964-8.132-1.231-1.413-3.045-2.456-4.913-2.28a4.425 4.425 0 0 0-3.185 1.838 4.417 4.417 0 0 0-.686 3.608c-.532-.753-1.909-.59-2.249.266-.303.76.366 1.682 1.153 1.75 1.031 1.27 2.211 2.617 3.825 2.873a1.744 1.744 0 0 0 1.484-.341c.379-.364.409-1.092-.042-1.364 2.029.804 3.218 2.993 3.519 5.151.301 2.158-.115 4.342-.389 6.503-.275 2.162-.393 4.435.456 6.443 1.003 2.37 3.312 4.07 5.833 4.616 2.52.545 5.204.012 7.486-1.188 2.281-1.2 4.183-3.033 5.738-5.087-2.678 1.897-6.381 2.608-9.299 1.105z" fill="#2F2E41"/><path d="M193.618 37.836s-2.271-8.463-12.007-10.416a1.171 1.171 0 0 1-.198-.095c.11-.062.216-.117.326-.171h.001l.001-.002h.001v-.002c.095-.088.19-.175.289-.26l.278.012s9.769-1.545 11.309 10.934z" fill="#FD6584"/><path opacity=".2" d="m188.533 64.99-5.499 6.36-9.086-2.679 9.905 4.557 4.68-8.238z" fill="#000"/><path d="m221.538 180.906-84.542.094a.366.366 0 0 1 0-.729l84.542-.094c.097 0 .19.038.258.107a.36.36 0 0 1 0 .515.366.366 0 0 1-.258.107z" fill="#CACACA"/><path d="M225.249 124.276c-3.959 0-8.297-.149-13.016-.448-24.409-1.547-56.026-6.927-89.027-15.147s-63.444-18.3-85.719-28.38c-10.85-4.912-19.179-9.56-24.753-13.818-5.9-4.507-8.482-8.436-7.672-11.676 1.579-6.314 15.554-7.695 27-7.742l.004.918c-15.719.065-24.992 2.567-26.111 7.046C4.529 60.734 16.16 69.64 37.867 79.464c22.226 10.059 52.613 20.12 85.561 28.326 32.949 8.208 64.508 13.578 88.863 15.122 23.785 1.508 38.245-.9 39.671-6.604 1.184-4.737-6.622-11.714-21.979-19.648l.423-.815c11.159 5.764 24.112 14.032 22.449 20.685-.811 3.241-4.938 5.498-12.269 6.709-4.178.691-9.311 1.037-15.337 1.037z" fill="#2594EA"/></g></g><defs><clipPath id="a"><path fill="#fff" d="M0 0h253v181H0z"/></clipPath></defs></svg>