<svg width="478" height="448" viewBox="0 0 478 448" fill="none" xmlns="http://www.w3.org/2000/svg">
<path d="M16.7632 61.0068L184.365 61.0068C193.583 61.0068 201.125 66.9413 201.125 74.1946L201.125 126.945C201.125 134.199 193.583 140.133 184.365 140.133L16.7631 140.133C7.54506 140.133 0.00297989 134.199 0.00298021 126.945L0.00298252 74.1945C0.00298283 66.9413 7.54506 61.0068 16.7632 61.0068Z" fill="#E6B263"/>
<path d="M196.263 4.84182L280.063 88.6427C283.248 91.9947 284.924 96.1847 284.924 100.542C284.924 104.9 283.248 109.09 280.063 112.442L196.263 196.243C191.402 200.936 184.195 202.444 177.994 199.763C171.625 197.249 167.603 191.047 167.603 184.343L167.603 16.7415C167.603 10.0375 171.625 3.83621 177.994 1.32219C184.195 -1.35944 191.402 0.148975 196.263 4.84182Z" fill="#FF7124"/>
<circle cx="399.228" cy="100.896" r="78.7728" fill="#8ECAC1"/>
<path d="M461.239 386.117L293.637 386.117C284.419 386.117 276.877 380.183 276.877 372.929L276.877 320.179C276.877 312.925 284.419 306.991 293.637 306.991L461.239 306.991C470.457 306.991 477.999 312.925 477.999 320.179L477.999 372.929C477.999 380.183 470.457 386.117 461.239 386.117Z" fill="#E6B263"/>
<path d="M281.739 442.282L197.939 358.481C194.754 355.129 193.078 350.939 193.078 346.582C193.078 342.224 194.754 338.034 197.939 334.682L281.739 250.881C286.6 246.188 293.807 244.68 300.008 247.361C306.377 249.875 310.399 256.077 310.399 262.781L310.399 430.382C310.399 437.087 306.377 443.288 300.008 445.802C293.807 448.483 286.6 446.975 281.739 442.282Z" fill="#FF7124"/>
<circle cx="78.7721" cy="346.228" r="78.7728" transform="rotate(180 78.7721 346.228)" fill="#8ECAC1"/>
</svg>
