<svg width="46" height="46" viewBox="0 0 46 46" fill="none" xmlns="http://www.w3.org/2000/svg">
<rect width="46" height="46" rx="23" fill="#2594EA"/>
<path d="M39.7807 10.1962V23.3755C39.7807 23.7507 39.4772 24.0554 39.1008 24.0554H21.1751C20.7999 24.0554 20.4952 23.7507 20.4952 23.3755V22.3344L21.855 21.4228V22.6956H38.4197V10.8749H21.8538V15.8495C21.7938 15.8953 21.7291 15.9353 21.6727 15.9871L21.4821 16.1188C21.2527 15.5189 20.9034 15.0461 20.4952 14.6579V10.1962C20.4952 9.82092 20.801 9.51625 21.1751 9.51625H39.1008C39.4772 9.51625 39.7807 9.81974 39.7807 10.1962ZM23.73 19.129L24.544 18.5832H24.5429C24.544 18.5785 24.5464 18.5785 24.5487 18.575C24.9628 18.1644 25.0263 17.5539 24.7699 17.0728L31.356 12.604L31.0572 12.1629L24.4158 16.6682C24.2076 16.5176 23.9747 16.4223 23.73 16.4141C23.3818 16.4023 23.0278 16.52 22.7619 16.787C22.7619 16.787 22.7561 16.794 22.7537 16.794L22.5914 16.907L21.1163 17.9139V17.4857C20.8422 14.2285 17.0675 14.2768 17.0675 14.2768H15.4324L14.0585 16.5376L12.6775 14.2779H11.1095C6.85009 14.3579 7.00066 17.4857 7.00066 17.4857V24.7858H7.00301C7.00419 24.8047 7.00066 24.827 7.00066 24.8423C7.00066 25.5375 7.56175 26.0962 8.2546 26.0962C8.94508 26.0962 9.50618 25.5351 9.50618 24.8423C9.50618 24.827 9.50618 24.8047 9.50383 24.7858H9.50618V18.0339H10.2896L10.2802 39.3049C10.2802 40.2401 11.0401 41 11.9717 41C12.9069 41 13.6644 40.2401 13.6644 39.3049V25.5775H14.4184V39.3202L14.4325 39.3355C14.4443 40.2542 15.1924 41 16.117 41C17.0451 41 17.8003 40.2436 17.8003 39.3155L17.7956 17.9986H18.6108V20.2194C18.6108 20.2218 18.6108 20.2277 18.6108 20.23C18.6108 20.9205 19.1719 21.4828 19.8612 21.4828C20.0647 21.4828 20.247 21.4251 20.4199 21.3357L20.4258 21.344L22.5902 19.8924L23.73 19.129ZM14.0338 13.7333C15.6171 13.7333 16.9004 12.45 16.9004 10.8666C16.9004 9.28335 15.6171 8 14.0338 8C12.4505 8 11.1671 9.28452 11.1671 10.8666C11.1671 12.4488 12.4505 13.7333 14.0338 13.7333Z" fill="white"/>
</svg>
