<svg width="361" height="338" viewBox="0 0 361 338" fill="none" xmlns="http://www.w3.org/2000/svg">
<path d="M352.803 21.0388V238.08C352.803 244.777 347.376 250.211 340.672 250.211H305.362C312.382 240.66 316.523 228.861 316.523 216.099C316.523 207.769 314.752 199.843 311.574 192.686L312.366 192.346V73.6069C298.965 73.6069 288.104 62.7455 288.104 49.3447H72.7851C72.7851 62.7455 61.9237 73.6069 48.5229 73.6069V185.512C61.9237 185.512 72.7851 196.374 72.7851 209.774H201.084L201.423 209.815C201.197 211.877 201.084 213.972 201.084 216.099C201.084 228.861 205.224 240.66 212.244 250.211H20.217C13.5126 250.211 8.08594 244.777 8.08594 238.08V21.0388C8.08594 14.3424 13.5126 8.90771 20.217 8.90771H340.672C347.376 8.90771 352.803 14.3424 352.803 21.0388Z" fill="#F2D59F"/>
<path d="M304.836 250.915L335.463 303.96L301.706 297.409L290.505 329.913L258.859 275.104L259.603 273.81C278.083 273.56 294.452 264.631 304.836 250.915Z" fill="#8ECAC1"/>
<path d="M224.501 169.677C211.877 179.018 203.199 193.381 201.42 209.815L201.08 209.775H72.7817C72.7817 196.374 61.9203 185.512 48.5195 185.512V73.607C61.9203 73.607 72.7817 62.7457 72.7817 49.3448H288.101C288.101 62.7457 298.962 73.607 312.363 73.607V192.346L311.57 192.686C302.593 172.475 282.342 158.379 258.8 158.379C245.949 158.379 234.085 162.576 224.501 169.677Z" fill="#E6B263"/>
<path d="M212.243 250.211C205.223 240.66 201.082 228.861 201.082 216.099C201.082 213.972 201.195 211.877 201.422 209.815C203.201 193.381 211.879 179.018 224.503 169.677C234.087 162.576 245.951 158.379 258.802 158.379C282.344 158.379 302.595 172.475 311.572 192.686C314.75 199.843 316.522 207.769 316.522 216.099C316.522 228.861 312.381 240.66 305.361 250.211C305.191 250.454 305.021 250.689 304.835 250.915C294.451 264.631 278.082 273.56 259.602 273.81C259.336 273.818 259.069 273.819 258.802 273.819C258.567 273.819 258.333 273.818 258.106 273.81C239.627 273.592 223.233 264.696 212.833 250.996C212.631 250.737 212.437 250.478 212.243 250.211ZM282.554 216.099C282.554 202.981 271.92 192.346 258.802 192.346C245.684 192.346 235.049 202.981 235.049 216.099C235.049 229.217 245.684 239.851 258.802 239.851C271.92 239.851 282.554 229.217 282.554 216.099Z" fill="#FF7124"/>
<path d="M258.8 239.851C271.918 239.851 282.552 229.217 282.552 216.099C282.552 202.98 271.918 192.346 258.8 192.346C245.681 192.346 235.047 202.98 235.047 216.099C235.047 229.217 245.681 239.851 258.8 239.851Z" fill="#8ECAC1"/>
<path d="M258.109 273.81L258.862 275.104L227.216 329.913L216.015 297.409L182.258 303.96L212.836 250.996C223.237 264.696 239.63 273.592 258.109 273.81Z" fill="#8ECAC1"/>
<path d="M340.673 258.299H304.838C300.372 258.299 296.751 254.677 296.751 250.211C296.751 245.745 300.372 242.124 304.838 242.124H340.673C342.903 242.124 344.717 240.31 344.717 238.08V21.0388C344.717 18.8091 342.903 16.9951 340.673 16.9951H20.2185C17.9888 16.9951 16.1748 18.8091 16.1748 21.0388V238.08C16.1748 240.31 17.9888 242.124 20.2185 242.124H212.836C217.303 242.124 220.923 245.745 220.923 250.211C220.923 254.677 217.303 258.299 212.836 258.299H20.2185C9.07001 258.299 0 249.229 0 238.08V21.0388C0 9.89033 9.07001 0.820312 20.2185 0.820312H340.673C351.822 0.820312 360.892 9.89033 360.892 21.0388V238.08C360.892 249.229 351.822 258.299 340.673 258.299Z" fill="#5E2A41"/>
<path d="M213.733 97.5698H147.158C142.691 97.5698 139.07 93.9483 139.07 89.4824C139.07 85.0166 142.691 81.395 147.158 81.395H213.733C218.2 81.395 221.821 85.0166 221.821 89.4824C221.821 93.9483 218.2 97.5698 213.733 97.5698Z" fill="#5E2A41"/>
<path d="M265.364 137.667H95.5288C91.0621 137.667 87.4414 134.046 87.4414 129.58C87.4414 125.114 91.0621 121.492 95.5288 121.492H265.364C269.831 121.492 273.452 125.114 273.452 129.58C273.452 134.046 269.831 137.667 265.364 137.667Z" fill="#5E2A41"/>
<path d="M224.507 177.765H95.5288C91.0621 177.765 87.4414 174.143 87.4414 169.677C87.4414 165.21 91.0621 161.59 95.5288 161.59H224.507C228.973 161.59 232.594 165.21 232.594 169.677C232.594 174.144 228.973 177.765 224.507 177.765Z" fill="#5E2A41"/>
<path d="M201.086 217.862H72.7871C68.3204 217.862 64.6997 214.24 64.6997 209.774C64.6997 200.856 57.4437 193.6 48.5249 193.6C44.0582 193.6 40.4375 189.978 40.4375 185.512V73.6069C40.4375 69.141 44.0582 65.5195 48.5249 65.5195C57.4437 65.5195 64.6997 58.2635 64.6997 49.3447C64.6997 44.8789 68.3204 41.2573 72.7871 41.2573H288.106C292.573 41.2573 296.193 44.8789 296.193 49.3447C296.193 58.2635 303.449 65.5195 312.368 65.5195C316.835 65.5195 320.455 69.141 320.455 73.6069V192.345C320.455 196.811 316.835 200.433 312.368 200.433C307.901 200.433 304.281 196.811 304.281 192.345V80.6704C292.929 77.7379 283.974 68.7836 281.042 57.4321H79.8506C76.9189 68.7836 67.9638 77.7388 56.6123 80.6704V178.448C67.9638 181.38 76.9189 190.335 79.8506 201.686H201.086C205.552 201.686 209.173 205.308 209.173 209.774C209.173 214.241 205.552 217.862 201.086 217.862Z" fill="#5E2A41"/>
<path d="M227.219 338C226.961 338 226.702 337.988 226.442 337.963C223.288 337.66 220.602 335.543 219.57 332.548L210.659 306.686L183.8 311.899C180.685 312.505 177.513 311.234 175.674 308.655C173.835 306.076 173.671 302.66 175.255 299.916L205.833 246.952C208.066 243.084 213.013 241.76 216.881 243.992C220.749 246.225 222.074 251.171 219.84 255.04L198.131 292.641L214.475 289.47C218.432 288.699 222.349 290.965 223.662 294.774L229.083 310.506L252.595 269.779C254.823 265.906 259.767 264.574 263.638 266.799C267.51 269.027 268.844 273.97 266.617 277.842L265.873 279.136L234.22 333.956C232.767 336.474 230.086 338 227.219 338Z" fill="#5E2A41"/>
<path d="M290.508 338C287.639 338 284.96 336.474 283.506 333.956L251.121 277.876C248.876 274.015 250.185 269.064 254.047 266.819C257.909 264.573 262.858 265.883 265.103 269.744L265.855 271.038L288.644 310.506L294.066 294.775C295.379 290.964 299.297 288.699 303.252 289.47L319.594 292.641L297.838 254.958C295.604 251.09 296.929 246.144 300.798 243.911C304.666 241.676 309.611 243.003 311.845 246.87L342.472 299.917C344.056 302.661 343.892 306.076 342.053 308.656C340.214 311.235 337.038 312.506 333.928 311.9L307.069 306.687L298.157 332.548C297.125 335.544 294.439 337.66 291.285 337.964C291.025 337.988 290.765 338 290.508 338Z" fill="#5E2A41"/>
<path d="M258.804 281.906C258.511 281.906 258.219 281.904 257.933 281.896C237.542 281.631 218.775 272.169 206.424 255.928C206.181 255.615 205.946 255.301 205.712 254.98C197.399 243.669 192.996 230.216 192.996 216.099C192.996 213.69 193.126 211.279 193.383 208.933C195.35 190.776 204.94 174.093 219.694 163.176C231.069 154.749 244.594 150.292 258.803 150.292C284.796 150.292 308.41 165.643 318.965 189.402L318.965 189.404C322.711 197.84 324.61 206.822 324.61 216.099C324.61 230.186 320.227 243.612 311.933 254.929C311.739 255.204 311.493 255.543 311.201 255.907C298.865 272.134 280.13 281.602 259.773 281.897C259.45 281.905 259.128 281.906 258.804 281.906ZM258.804 166.466C248.088 166.466 237.892 169.823 229.32 176.175C218.183 184.416 210.947 196.993 209.464 210.685C209.27 212.459 209.172 214.276 209.172 216.098C209.172 226.745 212.488 236.885 218.762 245.422C218.919 245.639 219.062 245.83 219.211 246.02C219.232 246.048 219.255 246.076 219.277 246.105C228.603 258.39 242.792 265.54 258.204 265.723C258.266 265.724 258.328 265.725 258.39 265.727C258.525 265.732 258.663 265.729 258.804 265.73C258.991 265.731 259.178 265.731 259.365 265.725C259.408 265.725 259.452 265.724 259.495 265.723C274.898 265.514 289.074 258.337 298.389 246.032C298.456 245.944 298.524 245.857 298.594 245.773C298.641 245.714 298.689 245.643 298.739 245.572C298.774 245.521 298.81 245.471 298.846 245.421C305.12 236.885 308.436 226.745 308.436 216.097C308.436 209.096 307.004 202.323 304.182 195.965C296.223 178.047 278.41 166.466 258.804 166.466Z" fill="#5E2A41"/>
<path d="M258.801 247.939C241.244 247.939 226.961 233.656 226.961 216.099C226.961 198.542 241.244 184.259 258.801 184.259C276.357 184.259 290.641 198.542 290.641 216.099C290.641 233.656 276.358 247.939 258.801 247.939ZM258.801 200.433C250.163 200.433 243.136 207.46 243.136 216.098C243.136 224.736 250.163 231.763 258.801 231.763C267.439 231.763 274.466 224.736 274.466 216.098C274.466 207.46 267.439 200.433 258.801 200.433Z" fill="#5E2A41"/>
</svg>
