<svg width="569" height="569" viewBox="0 0 569 569" fill="none" xmlns="http://www.w3.org/2000/svg">
<path d="M284.409 22.7651C317.103 41.7008 343.568 70.1931 360.001 104.419L359.995 104.426L208.676 104.29L208.669 104.283C225.165 70.0867 251.681 41.642 284.409 22.7651Z" fill="#FF7124"/>
<path d="M203.404 364.247L193.78 235.632L193.786 235.625L190.059 185.867C190.086 156.634 196.767 128.963 208.671 104.284L208.678 104.29L359.996 104.426L360.003 104.42C371.862 129.12 378.494 156.804 378.467 186.036L374.651 235.788L364.789 364.392L324.453 364.356L284.103 364.32L243.753 364.283L203.404 364.247ZM334.062 214.021C334.093 186.501 311.797 164.164 284.276 164.146C256.756 164.115 234.419 186.411 234.401 213.932C234.37 241.452 256.666 263.789 284.187 263.807C311.707 263.838 334.044 241.542 334.062 214.021Z" fill="#F2D59F"/>
<path d="M374.648 235.789C406.909 265.732 427.087 308.529 427.044 356.012C427.024 370.588 425.115 384.718 421.522 398.172L364.786 364.393L374.648 235.789Z" fill="#F2D59F"/>
<path d="M284.274 164.147C311.795 164.165 334.091 186.501 334.06 214.022C334.042 241.542 311.705 263.839 284.185 263.807C256.664 263.789 234.368 241.453 234.399 213.932C234.417 186.412 256.754 164.115 284.274 164.147Z" fill="#8ECAC1"/>
<path d="M364.787 364.393L347.545 401.652C342.809 411.899 332.545 418.451 321.258 418.434L311.914 418.425L324.45 364.357L364.787 364.393Z" fill="#E6B263"/>
<path d="M324.448 364.357L311.912 418.425L311.905 418.431L284.05 418.406L284.099 364.32L324.448 364.357Z" fill="#E6B263"/>
<path d="M193.774 235.633L203.398 364.248L146.615 397.924C143.046 384.464 141.163 370.33 141.169 355.755C141.212 308.271 161.452 265.525 193.774 235.633Z" fill="#F2D59F"/>
<path d="M284.101 364.32L284.053 418.406L256.191 418.374L243.752 364.284L284.101 364.32Z" fill="#E6B263"/>
<path d="M243.75 364.283L256.19 418.373L246.839 418.372C235.551 418.355 225.306 411.791 220.582 401.543L203.4 364.247L243.75 364.283Z" fill="#E6B263"/>
<path d="M251.163 495.832C249.416 497.576 247.002 498.653 244.34 498.651C239.013 498.646 234.698 494.323 234.702 488.996L234.727 460.977C234.733 455.651 239.055 451.337 244.382 451.34C249.709 451.345 254.024 455.667 254.02 460.995L253.994 489.013C253.991 491.677 252.91 494.087 251.163 495.832Z" fill="#5E2A41"/>
<path d="M290.727 561.247C288.98 562.991 286.567 564.068 283.903 564.066C278.576 564.061 274.262 559.738 274.267 554.411L274.358 461.018C274.363 455.692 278.686 451.377 284.012 451.382C289.339 451.387 293.653 455.71 293.648 461.038L293.557 554.43C293.556 557.093 292.474 559.503 290.727 561.247Z" fill="#5E2A41"/>
<path d="M330.405 514.582C328.657 516.327 326.245 517.403 323.582 517.401C318.255 517.396 313.94 513.074 313.944 507.746L313.987 461.054C313.992 455.728 318.315 451.414 323.641 451.417C328.968 451.422 333.282 455.745 333.278 461.072L333.236 507.764C333.233 510.427 332.151 512.838 330.405 514.582Z" fill="#5E2A41"/>
<path d="M371.598 371.221C369.851 372.965 367.439 374.041 364.775 374.04L203.39 373.895C198.063 373.89 193.748 369.567 193.752 364.24C193.758 358.914 198.08 354.599 203.407 354.602L364.793 354.748C370.12 354.753 374.435 359.076 374.431 364.403C374.428 367.066 373.345 369.477 371.598 371.221Z" fill="#5E2A41"/>
<path d="M326.248 256.074C315.002 267.3 300.059 273.472 284.171 273.454C268.288 273.444 253.356 267.245 242.131 255.999C230.905 244.752 224.733 229.809 224.75 213.922C224.76 198.039 230.959 183.107 242.205 171.881C253.452 160.655 268.395 154.483 284.282 154.5C300.164 154.512 315.096 160.711 326.322 171.957C337.547 183.202 343.719 198.143 343.703 214.028C343.704 214.03 343.703 214.029 343.703 214.034C343.692 229.919 337.493 244.85 326.248 256.074ZM255.836 185.535C248.238 193.119 244.05 203.207 244.043 213.939C244.03 224.677 248.201 234.772 255.785 242.37C263.369 249.968 273.457 254.157 284.189 254.163C294.927 254.176 305.022 250.005 312.62 242.421C320.218 234.837 324.406 224.749 324.413 214.017C324.413 214.015 324.413 214.013 324.413 214.011C324.426 203.279 320.255 193.184 312.671 185.586C305.087 177.988 294.999 173.8 284.267 173.793C273.529 173.78 263.434 177.951 255.836 185.535Z" fill="#5E2A41"/>
<path d="M262.995 425.209C261.76 426.442 260.175 427.356 258.348 427.775C253.156 428.969 247.98 425.728 246.786 420.537L234.346 366.446C233.153 361.254 236.393 356.076 241.585 354.884C246.776 353.69 251.953 356.931 253.147 362.122L265.586 416.213C266.36 419.578 265.271 422.937 262.995 425.209Z" fill="#5E2A41"/>
<path d="M290.869 425.233C289.122 426.977 286.709 428.054 284.046 428.052C278.719 428.047 274.403 423.725 274.408 418.398L274.456 364.312C274.462 358.985 278.784 354.671 284.11 354.675C289.437 354.68 293.753 359.001 293.748 364.328L293.699 418.414C293.698 421.078 292.616 423.489 290.869 425.233Z" fill="#5E2A41"/>
<path d="M318.733 425.244C316.457 427.516 313.097 428.6 309.733 427.82C304.544 426.616 301.312 421.433 302.516 416.245L315.053 362.177C316.254 356.986 321.438 353.755 326.628 354.959C331.818 356.163 335.049 361.345 333.846 366.534L321.309 420.602C320.885 422.429 319.969 424.011 318.733 425.244Z" fill="#5E2A41"/>
<path d="M200.594 242.454C199.019 244.026 196.896 245.064 194.503 245.243C189.191 245.641 184.562 241.658 184.164 236.345L180.437 186.586C180.039 181.275 184.022 176.646 189.336 176.248C194.648 175.85 199.277 179.833 199.674 185.146L203.401 234.905C203.62 237.823 202.515 240.537 200.594 242.454Z" fill="#5E2A41"/>
<path d="M348.569 416.763C341.436 423.882 331.638 428.095 321.241 428.079L312.263 428.071C312.141 428.076 312.019 428.078 311.897 428.078L246.838 428.018C231.834 427.995 218.095 419.189 211.823 405.582L194.64 368.284C194.159 367.238 193.868 366.115 193.782 364.969L184.158 236.354C183.763 231.041 187.745 226.413 193.057 226.015C198.37 225.618 202.998 229.602 203.396 234.914L212.888 361.793L229.342 397.508C232.478 404.312 239.353 408.717 246.854 408.728L311.557 408.787C311.678 408.783 311.8 408.78 311.922 408.78L321.266 408.789C328.769 408.8 335.643 404.411 338.79 397.607L355.302 361.923L368.847 185.301C369.255 179.987 373.893 176.014 379.202 176.42C384.514 176.827 388.49 181.464 388.082 186.775L374.402 365.132C374.314 366.278 374.023 367.401 373.54 368.444L356.297 405.703C354.365 409.883 351.728 413.609 348.569 416.763Z" fill="#5E2A41"/>
<path d="M385.277 192.863C383.53 194.606 381.118 195.683 378.454 195.681C373.127 195.677 368.813 191.354 368.817 186.027C368.842 158.902 362.949 132.851 351.302 108.594C336.478 77.7194 313.415 52.0347 284.395 34.0074C255.345 51.9811 232.234 77.6264 217.353 108.474C205.663 132.71 199.723 158.752 199.699 185.875C199.693 191.201 195.372 195.516 190.044 195.513C184.717 195.508 180.402 191.185 180.407 185.858C180.434 155.815 187.018 126.958 199.977 100.093C217.365 64.0499 244.892 34.42 279.587 14.41C282.574 12.6871 286.255 12.6904 289.239 14.4186C323.898 34.4924 351.373 64.1704 368.693 100.246C381.603 127.134 388.135 156.001 388.108 186.045C388.106 188.707 387.025 191.118 385.277 192.863Z" fill="#5E2A41"/>
<path d="M366.805 111.255C365.058 113 362.646 114.076 359.982 114.074L208.663 113.938C203.337 113.933 199.022 109.61 199.026 104.283C199.033 98.954 203.355 94.6419 208.681 94.6454L360 94.7821C365.327 94.7869 369.641 99.1094 369.637 104.437C369.634 107.101 368.552 109.512 366.805 111.255Z" fill="#5E2A41"/>
<path d="M210.223 371.068C209.655 371.635 209.012 372.135 208.322 372.545L151.538 406.221C148.938 407.763 145.765 407.996 142.968 406.852C140.17 405.708 138.07 403.318 137.295 400.396C133.461 385.936 131.521 370.917 131.528 355.752C131.571 307.625 151.852 261.263 187.195 228.583C190.98 225.045 196.92 225.122 200.607 228.816C204.37 232.585 204.369 238.69 200.599 242.453L200.592 242.46C200.505 242.547 200.417 242.632 200.327 242.715C168.901 271.768 150.856 312.983 150.819 355.764C150.814 364.885 151.602 373.945 153.164 382.827L198.305 356.056C202.03 353.733 206.998 354.19 210.231 357.43C213.995 361.2 213.994 367.304 210.223 371.068Z" fill="#5E2A41"/>
<path d="M428.337 404.998C427.439 405.894 426.363 406.615 425.158 407.105C422.357 408.245 419.185 408.005 416.589 406.46L359.852 372.682C355.274 369.957 353.773 364.036 356.499 359.46C359.219 354.882 365.143 353.381 369.72 356.106L415.003 383.065C416.582 374.185 417.386 365.124 417.399 356.001C417.437 313.223 399.463 271.982 368.085 242.859C364.181 239.235 363.954 233.132 367.577 229.228C371.179 225.315 377.304 225.096 381.209 228.719C416.509 261.485 436.732 307.885 436.689 356.023C436.668 371.189 434.7 386.207 430.841 400.661C430.398 402.323 429.523 403.813 428.337 404.998Z" fill="#5E2A41"/>
</svg>
