<svg width="361" height="337" viewBox="0 0 361 337" fill="none" xmlns="http://www.w3.org/2000/svg">
<path d="M352.803 20.2185V237.26C352.803 243.956 347.376 249.391 340.672 249.391H305.362C312.382 239.84 316.523 228.04 316.523 215.278C316.523 206.948 314.752 199.023 311.574 191.865L312.366 191.526V72.7866C298.965 72.7866 288.104 61.9252 288.104 48.5244H72.7851C72.7851 61.9252 61.9237 72.7866 48.5229 72.7866V184.692C61.9237 184.692 72.7851 195.553 72.7851 208.954H201.084L201.423 208.994C201.197 211.057 201.084 213.151 201.084 215.278C201.084 228.04 205.224 239.84 212.244 249.391H20.217C13.5126 249.391 8.08594 243.956 8.08594 237.26V20.2185C8.08594 13.5221 13.5126 8.0874 20.217 8.0874H340.672C347.376 8.0874 352.803 13.5221 352.803 20.2185Z" fill="#F2D59F"/>
<path d="M304.836 250.095L335.463 303.14L301.706 296.589L290.505 329.092L258.859 274.284L259.603 272.99C278.083 272.739 294.452 263.811 304.836 250.095Z" fill="#8ECAC1"/>
<path d="M224.501 168.857C211.877 178.198 203.199 192.561 201.42 208.995L201.08 208.954H72.7817C72.7817 195.553 61.9203 184.692 48.5195 184.692V72.7867C61.9203 72.7867 72.7817 61.9254 72.7817 48.5245H288.101C288.101 61.9254 298.962 72.7867 312.363 72.7867V191.526L311.57 191.866C302.593 171.655 282.342 157.559 258.8 157.559C245.949 157.559 234.085 161.756 224.501 168.857Z" fill="#E6B263"/>
<path d="M212.243 249.391C205.223 239.84 201.082 228.04 201.082 215.278C201.082 213.151 201.195 211.057 201.422 208.995C203.201 192.561 211.879 178.198 224.503 168.857C234.087 161.756 245.951 157.559 258.802 157.559C282.344 157.559 302.595 171.655 311.572 191.865C314.75 199.023 316.522 206.948 316.522 215.278C316.522 228.04 312.381 239.84 305.361 249.391C305.191 249.634 305.021 249.868 304.835 250.095C294.451 263.811 278.082 272.739 259.602 272.99C259.336 272.998 259.069 272.998 258.802 272.998C258.567 272.998 258.333 272.998 258.106 272.99C239.627 272.772 223.233 263.876 212.833 250.176C212.631 249.917 212.437 249.658 212.243 249.391ZM282.554 215.278C282.554 202.161 271.92 191.526 258.802 191.526C245.684 191.526 235.049 202.161 235.049 215.278C235.049 228.396 245.684 239.031 258.802 239.031C271.92 239.031 282.554 228.396 282.554 215.278Z" fill="#FF7124"/>
<path d="M258.8 239.031C271.918 239.031 282.552 228.397 282.552 215.278C282.552 202.16 271.918 191.526 258.8 191.526C245.681 191.526 235.047 202.16 235.047 215.278C235.047 228.397 245.681 239.031 258.8 239.031Z" fill="#8ECAC1"/>
<path d="M258.109 272.99L258.862 274.284L227.216 329.092L216.015 296.589L182.258 303.14L212.836 250.176C223.237 263.876 239.63 272.772 258.109 272.99Z" fill="#8ECAC1"/>
<path d="M340.673 257.478H304.838C300.372 257.478 296.751 253.857 296.751 249.391C296.751 244.925 300.372 241.304 304.838 241.304H340.673C342.903 241.304 344.717 239.49 344.717 237.26V20.2185C344.717 17.9888 342.903 16.1748 340.673 16.1748H20.2185C17.9888 16.1748 16.1748 17.9888 16.1748 20.2185V237.26C16.1748 239.49 17.9888 241.304 20.2185 241.304H212.836C217.303 241.304 220.923 244.925 220.923 249.391C220.923 253.857 217.303 257.478 212.836 257.478H20.2185C9.07001 257.478 0 248.408 0 237.26V20.2185C0 9.07001 9.07001 0 20.2185 0H340.673C351.822 0 360.892 9.07001 360.892 20.2185V237.26C360.892 248.408 351.822 257.478 340.673 257.478Z" fill="#5E2A41"/>
<path d="M213.733 96.7495H147.158C142.691 96.7495 139.07 93.128 139.07 88.6621C139.07 84.1962 142.691 80.5747 147.158 80.5747H213.733C218.2 80.5747 221.821 84.1962 221.821 88.6621C221.821 93.128 218.2 96.7495 213.733 96.7495Z" fill="#5E2A41"/>
<path d="M265.364 136.847H95.5288C91.0621 136.847 87.4414 133.226 87.4414 128.76C87.4414 124.294 91.0621 120.672 95.5288 120.672H265.364C269.831 120.672 273.452 124.294 273.452 128.76C273.452 133.226 269.831 136.847 265.364 136.847Z" fill="#5E2A41"/>
<path d="M224.507 176.944H95.5288C91.0621 176.944 87.4414 173.323 87.4414 168.857C87.4414 164.39 91.0621 160.769 95.5288 160.769H224.507C228.973 160.769 232.594 164.39 232.594 168.857C232.594 173.323 228.973 176.944 224.507 176.944Z" fill="#5E2A41"/>
<path d="M201.086 217.041H72.7871C68.3204 217.041 64.6997 213.42 64.6997 208.954C64.6997 200.035 57.4437 192.779 48.5249 192.779C44.0582 192.779 40.4375 189.158 40.4375 184.692V72.7866C40.4375 68.3207 44.0582 64.6992 48.5249 64.6992C57.4437 64.6992 64.6997 57.4432 64.6997 48.5244C64.6997 44.0585 68.3204 40.437 72.7871 40.437H288.106C292.573 40.437 296.193 44.0585 296.193 48.5244C296.193 57.4432 303.449 64.6992 312.368 64.6992C316.835 64.6992 320.455 68.3207 320.455 72.7866V191.525C320.455 195.991 316.835 199.612 312.368 199.612C307.901 199.612 304.281 195.991 304.281 191.525V79.8501C292.929 76.9176 283.974 67.9633 281.042 56.6118H79.8506C76.9189 67.9633 67.9638 76.9184 56.6123 79.8501V177.628C67.9638 180.559 76.9189 189.514 79.8506 200.866H201.086C205.552 200.866 209.173 204.487 209.173 208.953C209.173 213.421 205.552 217.041 201.086 217.041Z" fill="#5E2A41"/>
<path d="M227.219 337.18C226.961 337.18 226.702 337.168 226.442 337.143C223.288 336.839 220.602 334.723 219.57 331.727L210.659 305.866L183.8 311.078C180.685 311.685 177.513 310.414 175.674 307.835C173.835 305.256 173.671 301.839 175.255 299.095L205.833 246.132C208.066 242.264 213.013 240.94 216.881 243.172C220.749 245.405 222.074 250.351 219.84 254.219L198.131 291.821L214.475 288.65C218.432 287.879 222.349 290.144 223.662 293.954L229.083 309.686L252.595 268.958C254.823 265.085 259.767 263.753 263.638 265.979C267.51 268.206 268.844 273.149 266.617 277.022L265.873 278.316L234.22 333.136C232.767 335.654 230.086 337.18 227.219 337.18Z" fill="#5E2A41"/>
<path d="M290.508 337.18C287.639 337.18 284.96 335.654 283.506 333.136L251.121 277.056C248.876 273.195 250.185 268.244 254.047 265.999C257.909 263.753 262.858 265.063 265.103 268.924L265.855 270.218L288.644 309.686L294.066 293.954C295.379 290.143 299.297 287.879 303.252 288.65L319.594 291.821L297.838 254.138C295.604 250.269 296.929 245.324 300.798 243.09C304.666 240.856 309.611 242.183 311.845 246.05L342.472 299.096C344.056 301.84 343.892 305.256 342.053 307.835C340.214 310.415 337.038 311.686 333.928 311.079L307.069 305.867L298.157 331.728C297.125 334.724 294.439 336.84 291.285 337.143C291.025 337.168 290.765 337.18 290.508 337.18Z" fill="#5E2A41"/>
<path d="M258.804 281.086C258.511 281.086 258.219 281.084 257.933 281.076C237.542 280.811 218.775 271.349 206.424 255.107C206.181 254.794 205.946 254.48 205.712 254.159C197.399 242.848 192.996 229.396 192.996 215.278C192.996 212.869 193.126 210.458 193.383 208.113C195.35 189.955 204.94 173.273 219.694 162.356C231.069 153.928 244.594 149.471 258.803 149.471C284.796 149.471 308.41 164.823 318.965 188.582L318.965 188.584C322.711 197.02 324.61 206.001 324.61 215.278C324.61 229.366 320.227 242.792 311.933 254.108C311.739 254.383 311.493 254.723 311.201 255.087C298.865 271.314 280.13 280.782 259.773 281.077C259.45 281.085 259.128 281.086 258.804 281.086ZM258.804 165.645C248.088 165.645 237.892 169.002 229.32 175.355C218.183 183.595 210.947 196.173 209.464 209.865C209.27 211.638 209.172 213.456 209.172 215.278C209.172 225.925 212.488 236.065 218.762 244.602C218.919 244.818 219.062 245.009 219.211 245.199C219.232 245.228 219.255 245.256 219.277 245.284C228.603 257.57 242.792 264.72 258.204 264.903C258.266 264.904 258.328 264.904 258.39 264.907C258.525 264.912 258.663 264.909 258.804 264.91C258.991 264.911 259.178 264.911 259.365 264.905C259.408 264.904 259.452 264.904 259.495 264.903C274.898 264.693 289.074 257.516 298.389 245.212C298.456 245.124 298.524 245.037 298.594 244.953C298.641 244.894 298.689 244.823 298.739 244.751C298.774 244.7 298.81 244.651 298.846 244.601C305.12 236.065 308.436 225.925 308.436 215.277C308.436 208.276 307.004 201.502 304.182 195.145C296.223 177.226 278.41 165.645 258.804 165.645Z" fill="#5E2A41"/>
<path d="M258.801 247.119C241.244 247.119 226.961 232.835 226.961 215.279C226.961 197.722 241.244 183.438 258.801 183.438C276.357 183.438 290.641 197.722 290.641 215.279C290.641 232.835 276.358 247.119 258.801 247.119ZM258.801 199.612C250.163 199.612 243.136 206.64 243.136 215.278C243.136 223.916 250.163 230.943 258.801 230.943C267.439 230.943 274.466 223.916 274.466 215.278C274.466 206.64 267.439 199.612 258.801 199.612Z" fill="#5E2A41"/>
</svg>
