<svg width="528" height="434" viewBox="0 0 528 434" fill="none" xmlns="http://www.w3.org/2000/svg">
<g clip-path="url(#clip0_211_792)">
<path d="M528 420.731C528.161 437.639 421.697 439.189 419.669 420.732C419.508 403.825 525.972 402.275 528 420.731Z" fill="#E6E6E6"/>
<path d="M444.703 362.033L436.791 366.352L441.826 382.909L449.738 383.629L454.054 374.271L444.703 362.033Z" fill="#9F616A"/>
<path d="M469.159 395.147V403.065L481.387 402.345L481.216 395.824L469.159 395.147Z" fill="#9F616A"/>
<path d="M441.826 267.011L446.142 321.001L459.808 400.186L481.387 397.306L474.194 334.678L477.072 277.089L441.826 267.011Z" fill="#2F2E41"/>
<path d="M499.369 226.699L447.58 227.419L441.826 267.011L477.071 283.568L485.703 315.242L441.826 362.033L459.089 383.629C459.089 383.629 483.545 350.516 501.527 331.799C519.51 313.083 510.878 256.213 510.878 256.213L499.369 226.699Z" fill="#2F2E41"/>
<path d="M468.44 124.479C477.179 124.479 484.264 117.388 484.264 108.642C484.264 99.895 477.179 92.8046 468.44 92.8046C459.7 92.8046 452.615 99.895 452.615 108.642C452.615 117.388 459.7 124.479 468.44 124.479Z" fill="#9F616A"/>
<path d="M462.686 119.439V135.276L473.475 152.553C473.475 152.553 490.019 140.316 486.422 137.436C482.826 134.557 482.106 112.241 482.106 112.241L462.686 119.439Z" fill="#9F616A"/>
<path d="M462.686 132.397L451.896 145.354L456.212 235.337L490.019 234.617L495.773 156.153L488.58 135.996L483.646 129.278L474.914 142.475L462.686 132.397Z" fill="#D0CDE1"/>
<path d="M445.422 179.188L437.51 209.422L445.422 239.657L432.475 256.933L420.966 202.224C420.966 202.224 429.598 157.592 430.317 152.553C431.036 147.514 432.475 146.794 432.475 146.794L438.229 147.514L445.422 179.188Z" fill="#2F2E41"/>
<path d="M502.965 190.705L508.001 200.064L509.44 215.901L506.562 233.897L516.632 250.455L526.702 205.103L515.913 146.794H511.597L502.965 190.705Z" fill="#2F2E41"/>
<path d="M441.826 361.313C441.826 361.313 431.756 364.193 428.159 364.913C424.563 365.633 430.317 379.31 430.317 379.31C430.317 379.31 433.914 398.026 434.633 401.626C435.352 405.225 440.387 417.463 446.861 418.902C453.335 420.342 449.019 393.707 449.019 393.707C449.019 393.707 451.896 385.069 451.896 382.189C451.896 379.31 447.58 380.75 447.58 380.75C436.072 379.31 441.826 361.313 441.826 361.313Z" fill="#2F2E41"/>
<path d="M465.563 416.743C466.282 421.062 464.843 421.062 476.352 422.502C487.861 423.942 484.984 414.583 484.984 414.583C484.502 410.172 483.538 405.826 482.106 401.626C479.949 395.867 468.44 403.066 468.44 403.066C468.44 403.066 464.843 412.424 465.563 416.743Z" fill="#2F2E41"/>
<path d="M482.125 112.744L482.5 119.146C482.5 119.146 487.141 108.642 487.861 97.8436C488.58 87.0456 476.352 84.886 469.159 84.1662C461.966 83.4463 449.738 88.4854 449.738 94.2443C449.738 100.003 462.686 98.5634 467.721 97.1237C472.756 95.684 474.914 107.922 474.914 107.922L477.791 108.642L482.125 112.744Z" fill="#2F2E41"/>
<path d="M458.44 137.495L462.686 132.397L474.913 142.475L462.686 151.113L458.44 137.495Z" fill="#D0CDE1"/>
<path d="M488.58 135.996L483.545 129.518L474.913 142.475L485.703 150.394L488.58 135.996Z" fill="#D0CDE1"/>
<path d="M443.264 189.266L446.142 216.621L440.387 233.178L436.791 249.015C436.791 249.015 436.791 264.132 451.177 264.852C465.562 265.572 477.79 219.5 477.79 219.5C477.79 219.5 479.948 229.579 481.387 235.337C482.826 241.096 507.281 264.132 507.281 264.132C507.281 264.132 513.036 263.412 518.071 251.894C523.106 240.377 508.001 229.579 508.001 229.579L503.685 214.461L505.124 195.745L515.194 146.794L485.343 131.317L488.58 172.709L477.791 205.103L461.606 133.477L456.212 137.436L433.194 146.794L443.264 189.266Z" fill="#2F2E41"/>
<path d="M158.993 298.147C157.571 298.135 156.132 298.126 154.719 298.082L154.763 296.656C156.162 296.699 157.591 296.719 158.994 296.72C160.402 296.72 161.837 296.697 163.261 296.651L163.307 298.076C161.867 298.123 160.417 298.147 158.993 298.147ZM146.151 297.544C143.313 297.275 140.448 296.911 137.634 296.462L137.859 295.053C140.643 295.498 143.478 295.858 146.285 296.124L146.151 297.544ZM171.874 297.529L171.738 296.109C174.545 295.84 177.38 295.476 180.164 295.027L180.391 296.436C177.576 296.889 174.711 297.257 171.874 297.529ZM129.203 294.834C126.424 294.203 123.629 293.473 120.894 292.665L121.298 291.297C124.004 292.097 126.769 292.819 129.518 293.442L129.203 294.834ZM188.819 294.798L188.503 293.408C191.258 292.779 194.023 292.054 196.72 291.252L197.126 292.62C194.399 293.43 191.604 294.163 188.819 294.798ZM112.742 289.965C110.061 288.979 107.378 287.894 104.769 286.738L105.346 285.435C107.927 286.577 110.58 287.651 113.233 288.626L112.742 289.965ZM205.274 289.909L204.781 288.57C207.417 287.599 210.062 286.525 212.641 285.38L213.219 286.684C210.612 287.842 207.939 288.927 205.274 289.909ZM97.0235 283.005C94.5005 281.687 91.9809 280.266 89.5355 278.782L90.2747 277.562C92.6943 279.031 95.1867 280.436 97.6829 281.74L97.0235 283.005ZM220.943 282.953L220.283 281.688C222.774 280.385 225.26 278.98 227.674 277.513L228.414 278.732C225.975 280.215 223.461 281.635 220.943 282.953ZM82.3354 274.089C79.9986 272.457 77.6826 270.726 75.4513 268.946L76.34 267.83C78.5478 269.592 80.8393 271.304 83.1511 272.919L82.3354 274.089ZM235.602 274.038L234.785 272.869C237.097 271.253 239.385 269.541 241.587 267.78L242.477 268.895C240.251 270.674 237.938 272.404 235.602 274.038ZM68.9099 263.373C66.7975 261.454 64.7207 259.443 62.7381 257.397L63.7612 256.404C65.7229 258.428 67.7778 260.417 69.8683 262.317L68.9099 263.373ZM249.011 263.323L248.052 262.267C250.138 260.372 252.191 258.381 254.156 256.352L255.179 257.344C253.194 259.395 251.118 261.407 249.011 263.323ZM56.9599 251.042C55.1103 248.871 53.307 246.614 51.5993 244.332L52.7404 243.476C54.43 245.734 56.2141 247.968 58.0443 250.115L56.9599 251.042ZM260.956 250.982L259.871 250.057C261.701 247.908 263.485 245.672 265.175 243.411L266.316 244.265C264.609 246.55 262.805 248.811 260.956 250.982ZM46.6783 237.294C45.1189 234.904 43.6183 232.436 42.2179 229.958L43.4589 229.256C44.8439 231.707 46.3289 234.149 47.8719 236.514L46.6783 237.294ZM271.239 237.216L270.045 236.438C271.588 234.069 273.073 231.622 274.459 229.166L275.7 229.866C274.3 232.35 272.799 234.823 271.239 237.216ZM38.2375 222.353C36.9972 219.786 35.8255 217.147 34.7551 214.51L36.0754 213.974C37.1347 216.582 38.2939 219.192 39.5209 221.732L38.2375 222.353ZM279.682 222.242L278.399 221.622C279.625 219.078 280.785 216.461 281.845 213.84L283.166 214.375C282.094 217.024 280.922 219.671 279.682 222.242ZM31.7797 206.449C30.878 203.739 30.0543 200.968 29.3311 198.211L30.7099 197.849C31.4251 200.576 32.2401 203.318 33.132 205.998L31.7797 206.449ZM286.136 206.298L284.783 205.849C285.67 203.172 286.482 200.429 287.195 197.697L288.575 198.058C287.853 200.82 287.033 203.592 286.136 206.298ZM27.4189 189.834C26.8743 187.035 26.4135 184.182 26.0492 181.352L27.4627 181.169C27.8232 183.969 28.2791 186.792 28.8178 189.561L27.4189 189.834ZM290.477 189.677L289.078 189.407C289.613 186.639 290.066 183.815 290.423 181.012L291.837 181.193C291.476 184.026 291.018 186.88 290.477 189.677ZM25.2251 172.799C25.0424 169.956 24.9481 167.066 24.9449 164.209L26.3704 164.208C26.3735 167.035 26.4667 169.894 26.6477 172.707L25.2251 172.799ZM292.651 172.64L291.229 172.549C291.406 169.739 291.496 166.879 291.496 164.052L291.495 163.739H292.921L292.921 164.047C292.921 166.909 292.83 169.798 292.651 172.64ZM26.6279 155.71L25.2053 155.622C25.382 152.773 25.6524 149.895 26.0091 147.067L27.4234 147.246C27.0702 150.044 26.8026 152.892 26.6279 155.71ZM291.209 155.242C291.024 152.422 290.746 149.575 290.384 146.781L291.797 146.597C292.163 149.422 292.445 152.298 292.632 155.149L291.209 155.242ZM28.7584 138.851L27.3587 138.581C27.8964 135.781 28.5332 132.961 29.2508 130.199L30.6302 130.558C29.9203 133.291 29.2904 136.08 28.7584 138.851ZM289.018 138.391C288.475 135.619 287.834 132.831 287.116 130.105L288.494 129.741C289.221 132.497 289.867 135.315 290.417 138.116L289.018 138.391ZM33.0335 122.404L31.6798 121.956C32.5745 119.246 33.5705 116.527 34.6406 113.875L35.9623 114.409C34.9037 117.033 33.9185 119.722 33.0335 122.404ZM284.686 121.959C283.791 119.281 282.797 116.599 281.733 113.987L283.053 113.448C284.129 116.089 285.133 118.8 286.037 121.506L284.686 121.959ZM39.4005 106.622L38.1157 106.003C39.3521 103.431 40.6892 100.864 42.0892 98.3744L43.3315 99.0744C41.9461 101.537 40.6237 104.076 39.4005 106.622ZM278.279 106.233C277.051 103.699 275.724 101.17 274.332 98.7132L275.572 98.0097C276.979 100.492 278.321 103.05 279.561 105.61L278.279 106.233ZM47.7372 91.7965L46.5422 91.0185C48.0967 88.6272 49.7501 86.2537 51.4559 83.9645L52.5988 84.817C50.911 87.0822 49.275 89.4303 47.7372 91.7965ZM269.91 91.4607C268.368 89.1033 266.727 86.7625 265.033 84.5036L266.173 83.6475C267.886 85.9308 269.544 88.2967 271.103 90.6792L269.91 91.4607ZM57.8946 78.1646L56.8089 77.241C58.655 75.0674 60.5958 72.9248 62.5773 70.8731L63.6025 71.8643C61.6419 73.8944 59.7216 76.0144 57.8946 78.1646ZM259.722 77.8707C257.889 75.7263 255.962 73.6127 253.997 71.5885L255.019 70.5945C257.006 72.6399 258.952 74.7762 260.804 76.9436L259.722 77.8707ZM69.6985 65.9412L68.7387 64.8866C70.8479 62.9638 73.0445 61.0862 75.2668 59.3065L76.1577 60.4203C73.9587 62.1812 71.7854 64.0389 69.6985 65.9412ZM247.883 65.6824C245.792 63.7888 243.613 61.9367 241.404 60.1779L242.292 59.0613C244.524 60.8393 246.727 62.7109 248.839 64.625L247.883 65.6824ZM82.9538 55.3233L82.136 54.1552C84.4683 52.5193 86.8848 50.9378 89.3184 49.4541L90.06 50.6724C87.6525 52.1404 85.2614 53.7052 82.9538 55.3233ZM234.588 55.0962C232.267 53.4799 229.869 51.9203 227.458 50.4607L228.196 49.2403C230.632 50.7153 233.057 52.2915 235.402 53.9253L234.588 55.0962ZM97.4459 46.4875L96.784 45.224C99.3039 43.9012 101.901 42.6426 104.503 41.4831L105.083 42.7864C102.509 43.9333 99.9393 45.1787 97.4459 46.4875ZM220.045 46.2918C217.542 44.9878 214.963 43.7483 212.378 42.6074L212.954 41.302C215.566 42.4552 218.173 43.7083 220.704 45.0262L220.045 46.2918ZM112.939 39.5864L112.444 38.2483C115.117 37.2589 117.857 36.3436 120.59 35.5283L120.997 36.8956C118.294 37.7019 115.583 38.6074 112.939 39.5864ZM204.487 39.4245C201.838 38.4545 199.124 37.5588 196.42 36.7626L196.822 35.3938C199.555 36.1987 202.299 37.1043 204.977 38.085L204.487 39.4245ZM129.212 34.7311L128.894 33.3408C131.667 32.7048 134.502 32.1507 137.32 31.6928L137.549 33.1012C134.76 33.5539 131.955 34.1021 129.212 34.7311ZM188.197 34.6273C185.449 34.0074 182.642 33.469 179.854 33.0267L180.077 31.6175C182.895 32.0647 185.732 32.6091 188.51 33.2356L188.197 34.6273ZM145.973 32.0093L145.835 30.5898C148.665 30.315 151.548 30.1273 154.402 30.0322L154.45 31.458C151.625 31.5521 148.773 31.7377 145.973 32.0093ZM171.426 31.9651C168.622 31.7029 165.769 31.5273 162.948 31.4434L162.99 30.0176C165.841 30.1026 168.724 30.2798 171.558 30.5449L171.426 31.9651Z" fill="#D0CDE1"/>
<path d="M153.944 67.0473C172.444 67.0473 187.441 52.0383 187.441 33.5237C187.441 15.0091 172.444 0 153.944 0C135.444 0 120.447 15.0091 120.447 33.5237C120.447 52.0383 135.444 67.0473 153.944 67.0473Z" fill="#2594EA"/>
<path d="M283.656 158.346C302.156 158.346 317.153 143.337 317.153 124.822C317.153 106.308 302.156 91.2985 283.656 91.2985C265.156 91.2985 250.159 106.308 250.159 124.822C250.159 143.337 265.156 158.346 283.656 158.346Z" fill="#2594EA"/>
<path d="M243.032 298.147C261.532 298.147 276.529 283.138 276.529 264.623C276.529 246.108 261.532 231.099 243.032 231.099C224.532 231.099 209.535 246.108 209.535 264.623C209.535 283.138 224.532 298.147 243.032 298.147Z" fill="#2594EA"/>
<path d="M81.961 303.853C100.461 303.853 115.458 288.844 115.458 270.329C115.458 251.814 100.461 236.805 81.961 236.805C63.461 236.805 48.4639 251.814 48.4639 270.329C48.4639 288.844 63.461 303.853 81.961 303.853Z" fill="#2594EA"/>
<path d="M33.4971 158.346C51.997 158.346 66.9942 143.337 66.9942 124.822C66.9942 106.308 51.997 91.2985 33.4971 91.2985C14.9972 91.2985 0 106.308 0 124.822C0 143.337 14.9972 158.346 33.4971 158.346Z" fill="#2594EA"/>
<path d="M168.299 30.851H156.615C155.552 30.851 154.533 30.4286 153.782 29.6767C153.031 28.9249 152.609 27.9051 152.609 26.8419V15.1486C152.609 15.1048 152.6 15.0613 152.583 15.0208C152.567 14.9802 152.542 14.9434 152.511 14.9124C152.48 14.8814 152.443 14.8568 152.403 14.84C152.362 14.8232 152.319 14.8145 152.275 14.8145H144.597C143.18 14.8145 141.822 15.3777 140.82 16.3802C139.818 17.3827 139.256 18.7423 139.256 20.16V46.8873C139.256 48.305 139.818 49.6647 140.82 50.6672C141.822 51.6696 143.18 52.2328 144.597 52.2328H163.291C164.708 52.2328 166.066 51.6696 167.068 50.6672C168.07 49.6647 168.633 48.305 168.633 46.8873V31.185C168.633 31.1412 168.624 31.0977 168.607 31.0572C168.59 31.0166 168.566 30.9798 168.535 30.9488C168.504 30.9178 168.467 30.8932 168.426 30.8764C168.386 30.8596 168.343 30.851 168.299 30.851ZM160.621 44.2146H147.268C146.913 44.2146 146.574 44.0738 146.323 43.8232C146.073 43.5726 145.932 43.2327 145.932 42.8782C145.932 42.5238 146.073 42.1839 146.323 41.9333C146.574 41.6827 146.913 41.5419 147.268 41.5419H160.621C160.975 41.5419 161.314 41.6827 161.565 41.9333C161.815 42.1839 161.956 42.5238 161.956 42.8782C161.956 43.2327 161.815 43.5726 161.565 43.8232C161.314 44.0738 160.975 44.2146 160.621 44.2146ZM160.621 37.5328H147.268C146.913 37.5328 146.574 37.392 146.323 37.1414C146.073 36.8907 145.932 36.5508 145.932 36.1964C145.932 35.842 146.073 35.5021 146.323 35.2514C146.574 35.0008 146.913 34.86 147.268 34.86H160.621C160.975 34.86 161.314 35.0008 161.565 35.2514C161.815 35.5021 161.956 35.842 161.956 36.1964C161.956 36.5508 161.815 36.8907 161.565 37.1414C161.314 37.392 160.975 37.5328 160.621 37.5328Z" fill="white"/>
<path d="M167.566 27.8934L155.564 15.8819C155.541 15.8587 155.511 15.8429 155.479 15.8365C155.446 15.8301 155.413 15.8334 155.383 15.846C155.352 15.8586 155.326 15.8799 155.308 15.9072C155.289 15.9346 155.28 15.9668 155.279 15.9997V26.8418C155.279 27.1962 155.42 27.5361 155.671 27.7867C155.921 28.0374 156.261 28.1782 156.615 28.1782H167.448C167.481 28.178 167.513 28.1682 167.541 28.1498C167.568 28.1314 167.589 28.1054 167.602 28.0749C167.614 28.0445 167.618 28.011 167.611 27.9787C167.605 27.9464 167.589 27.9167 167.566 27.8934Z" fill="white"/>
<path d="M247.877 258.019C247.466 258.019 247.069 258.162 246.751 258.423C246.434 258.684 246.217 259.047 246.137 259.45C246.057 259.853 246.119 260.272 246.313 260.634C246.507 260.996 246.82 261.28 247.2 261.437C247.579 261.594 248.001 261.615 248.394 261.496C248.787 261.376 249.127 261.124 249.355 260.782C249.583 260.44 249.685 260.03 249.645 259.621C249.604 259.212 249.423 258.829 249.133 258.539C248.968 258.374 248.772 258.243 248.557 258.154C248.341 258.065 248.11 258.019 247.877 258.019Z" fill="white"/>
<path d="M257.76 250.915V250.909C257.704 250.662 257.58 250.436 257.402 250.256C257.224 250.076 257 249.949 256.754 249.89C254.772 249.406 251.654 249.922 248.198 251.307C244.876 252.599 241.836 254.526 239.247 256.979C238.54 257.683 237.884 258.435 237.282 259.231C235.952 259.139 234.62 259.353 233.386 259.857C229.546 261.549 228.449 265.878 228.157 267.655C228.115 267.907 228.131 268.166 228.205 268.411C228.279 268.656 228.409 268.881 228.584 269.068C228.759 269.255 228.975 269.399 229.214 269.488C229.454 269.578 229.711 269.611 229.965 269.585H229.974L234.252 269.118C234.257 269.173 234.263 269.222 234.268 269.268C234.323 269.79 234.556 270.277 234.927 270.648L237.014 272.738C237.384 273.11 237.871 273.343 238.392 273.398L238.535 273.413L238.069 277.689V277.698C238.047 277.916 238.067 278.135 238.13 278.345C238.192 278.554 238.295 278.749 238.433 278.919C238.57 279.088 238.74 279.229 238.932 279.333C239.124 279.437 239.335 279.502 239.552 279.525C239.603 279.53 239.655 279.533 239.706 279.533C239.799 279.533 239.891 279.526 239.982 279.511C241.768 279.223 246.091 278.139 247.777 274.275C248.276 273.044 248.491 271.717 248.405 270.391C249.204 269.79 249.958 269.133 250.663 268.424C253.113 265.858 255.04 262.84 256.337 259.537C257.714 256.118 258.232 252.974 257.76 250.915ZM250.639 262.555C250.093 263.103 249.397 263.476 248.639 263.627C247.88 263.778 247.094 263.701 246.38 263.406C245.666 263.11 245.055 262.609 244.625 261.966C244.195 261.323 243.965 260.566 243.965 259.793C243.965 259.019 244.194 258.262 244.623 257.619C245.052 256.975 245.662 256.474 246.376 256.177C247.09 255.881 247.876 255.803 248.635 255.953C249.393 256.104 250.09 256.476 250.637 257.023L250.639 257.026C251.372 257.748 251.788 258.732 251.796 259.761C251.804 260.79 251.403 261.781 250.681 262.514L250.639 262.555Z" fill="white"/>
<path d="M236.775 273.306C236.518 273.274 236.257 273.337 236.043 273.483C235.618 273.774 235.191 274.062 234.76 274.342C234.573 274.462 234.351 274.517 234.13 274.495C233.908 274.474 233.7 274.379 233.539 274.226C233.378 274.072 233.273 273.869 233.241 273.649C233.209 273.428 233.252 273.204 233.364 273.011L234.172 271.613C234.287 271.444 234.352 271.245 234.357 271.04C234.362 270.835 234.309 270.633 234.202 270.458C234.096 270.283 233.941 270.142 233.757 270.053C233.573 269.964 233.367 269.93 233.163 269.955C232.266 270.068 231.433 270.477 230.794 271.117C230.55 271.361 229.81 272.103 229.411 274.928C229.298 275.74 229.227 276.557 229.197 277.376C229.194 277.516 229.218 277.655 229.268 277.786C229.318 277.916 229.393 278.035 229.49 278.137C229.586 278.238 229.701 278.32 229.829 278.376C229.956 278.433 230.094 278.464 230.234 278.468C230.243 278.468 230.252 278.468 230.261 278.468H230.288C231.107 278.439 231.924 278.368 232.736 278.255C235.56 277.856 236.301 277.114 236.545 276.871C237.187 276.231 237.595 275.393 237.701 274.492C237.736 274.212 237.657 273.929 237.484 273.707C237.31 273.484 237.055 273.34 236.775 273.306Z" fill="white"/>
<path d="M70.4329 288.546H68.0059C67.5231 288.546 67.0602 288.354 66.7188 288.012C66.3774 287.671 66.1857 287.207 66.1857 286.724V275.794C66.1857 275.311 66.3774 274.848 66.7188 274.506C67.0602 274.164 67.5231 273.972 68.0059 273.972H70.4329C70.9156 273.972 71.3786 274.164 71.72 274.506C72.0614 274.848 72.2531 275.311 72.2531 275.794V286.724C72.2531 287.207 72.0614 287.671 71.72 288.012C71.3786 288.354 70.9156 288.546 70.4329 288.546Z" fill="white"/>
<path d="M87.4217 288.546H84.9947C84.5119 288.546 84.0489 288.354 83.7076 288.012C83.3662 287.671 83.1744 287.207 83.1744 286.724V268.507C83.1744 268.024 83.3662 267.561 83.7076 267.219C84.0489 266.878 84.5119 266.686 84.9947 266.686H87.4217C87.9044 266.686 88.3674 266.878 88.7088 267.219C89.0501 267.561 89.2419 268.024 89.2419 268.507V286.724C89.2419 287.207 89.0501 287.671 88.7088 288.012C88.3674 288.354 87.9044 288.546 87.4217 288.546Z" fill="white"/>
<path d="M95.9162 288.546H93.4892C93.0064 288.546 92.5434 288.354 92.2021 288.012C91.8607 287.671 91.6689 287.207 91.6689 286.724V260.006C91.6689 259.523 91.8607 259.06 92.2021 258.718C92.5434 258.376 93.0064 258.185 93.4892 258.185H95.9162C96.3989 258.185 96.8619 258.376 97.2033 258.718C97.5446 259.06 97.7364 259.523 97.7364 260.006V286.724C97.7364 287.207 97.5446 287.671 97.2033 288.012C96.8619 288.354 96.3989 288.546 95.9162 288.546Z" fill="white"/>
<path d="M78.9272 288.546H76.5003C76.0175 288.546 75.5546 288.354 75.2132 288.012C74.8718 287.671 74.6801 287.207 74.6801 286.724V253.934C74.6801 253.451 74.8718 252.987 75.2132 252.646C75.5546 252.304 76.0175 252.112 76.5003 252.112H78.9273C79.41 252.112 79.873 252.304 80.2144 252.646C80.5557 252.987 80.7475 253.451 80.7475 253.934V286.724C80.7475 286.963 80.7004 287.2 80.609 287.421C80.5175 287.642 80.3834 287.843 80.2144 288.012C80.0453 288.181 79.8447 288.316 79.6238 288.407C79.403 288.499 79.1663 288.546 78.9272 288.546Z" fill="white"/>
<path d="M285.261 123.944L283.527 122.208C283.13 121.811 282.592 121.587 282.03 121.585C281.468 121.584 280.929 121.805 280.529 122.2L268.474 133.335C268.032 133.727 267.761 134.277 267.72 134.867C267.708 135.16 267.755 135.453 267.86 135.726C267.966 136 268.126 136.249 268.332 136.458L270.922 139.079L270.927 139.084C271.327 139.483 271.868 139.708 272.433 139.71H272.512C272.804 139.693 273.091 139.619 273.355 139.492C273.619 139.364 273.855 139.186 274.05 138.967L285.254 126.958C285.654 126.56 285.88 126.02 285.883 125.456C285.885 124.892 285.663 124.35 285.267 123.95L285.261 123.944Z" fill="white"/>
<path d="M299.196 120.436L299.176 120.415L296.9 118.161C296.767 118.028 296.608 117.922 296.434 117.851C296.26 117.78 296.073 117.743 295.885 117.745C295.58 117.745 295.283 117.841 295.036 118.02C295.036 117.991 295.04 117.963 295.042 117.939C295.134 117.357 295.011 116.761 294.696 116.263C294.195 115.586 293.645 114.948 293.05 114.352L293.044 114.347C291.381 112.75 289.425 111.487 287.285 110.629C286.167 110.17 284.969 109.934 283.76 109.935C282.195 109.92 280.674 110.454 279.46 111.442C279.115 111.772 278.799 112.133 278.518 112.52C278.384 112.705 278.313 112.929 278.317 113.158C278.32 113.387 278.396 113.609 278.536 113.791C278.675 113.972 278.869 114.104 279.089 114.167C279.309 114.229 279.543 114.219 279.757 114.138C279.943 114.068 280.134 114.01 280.327 113.963C280.729 113.878 281.142 113.852 281.552 113.886C282.402 113.975 283.216 114.274 283.922 114.756C284.318 115.09 284.633 115.509 284.843 115.982C285.053 116.455 285.153 116.97 285.135 117.487C284.84 118.328 284.389 119.105 283.807 119.779C283.651 119.984 283.575 120.238 283.593 120.495C283.611 120.752 283.721 120.993 283.903 121.175L286.188 123.462C286.38 123.654 286.639 123.766 286.91 123.774C287.182 123.781 287.447 123.684 287.649 123.503C288.295 122.925 289.279 122.055 289.623 121.841C289.918 121.644 290.25 121.513 290.6 121.456C290.86 121.43 291.122 121.486 291.349 121.614C291.351 121.625 291.349 121.637 291.346 121.648C291.342 121.659 291.336 121.669 291.329 121.677L291.208 121.792L291.188 121.811C290.92 122.078 290.768 122.442 290.768 122.821C290.767 123.201 290.917 123.565 291.184 123.833L291.191 123.84L293.467 126.094C293.6 126.227 293.758 126.332 293.932 126.404C294.107 126.475 294.293 126.511 294.481 126.51C294.859 126.51 295.222 126.362 295.492 126.098L299.178 122.454C299.19 122.441 299.203 122.428 299.215 122.415C299.462 122.144 299.598 121.789 299.594 121.422C299.591 121.054 299.449 120.702 299.196 120.436Z" fill="white"/>
<path d="M38.8155 122.826C38.5526 122.826 38.2955 122.748 38.0769 122.602C37.8582 122.456 37.6878 122.248 37.5872 122.005C37.4865 121.762 37.4602 121.494 37.5115 121.236C37.5628 120.978 37.6894 120.741 37.8754 120.555L40.924 117.503L37.8754 114.452C37.626 114.203 37.486 113.864 37.486 113.511C37.486 113.159 37.626 112.82 37.8754 112.571C38.1247 112.321 38.4629 112.181 38.8155 112.181C39.1682 112.181 39.5064 112.321 39.7557 112.571L43.7445 116.563C43.868 116.686 43.966 116.833 44.0328 116.994C44.0996 117.156 44.134 117.329 44.134 117.503C44.134 117.678 44.0996 117.851 44.0328 118.013C43.966 118.174 43.868 118.321 43.7445 118.444L39.7557 122.436C39.6324 122.56 39.4858 122.658 39.3245 122.725C39.1631 122.792 38.9902 122.826 38.8155 122.826Z" fill="white"/>
<path d="M17.5418 126.818C17.3672 126.818 17.1943 126.784 17.0329 126.717C16.8716 126.65 16.725 126.552 16.6016 126.428C16.4781 126.305 16.3802 126.158 16.3134 125.997C16.2465 125.835 16.2122 125.662 16.2122 125.487V124.157C16.2226 122.043 17.0659 120.019 18.5589 118.524C20.0519 117.029 22.074 116.184 24.1859 116.173H41.4748C41.8275 116.173 42.1657 116.313 42.415 116.563C42.6644 116.812 42.8045 117.151 42.8045 117.503C42.8045 117.856 42.6644 118.195 42.415 118.444C42.1657 118.694 41.8275 118.834 41.4748 118.834H24.1899C22.7812 118.842 21.4327 119.406 20.437 120.404C19.4412 121.401 18.8787 122.751 18.8714 124.161V125.487C18.8714 125.662 18.837 125.835 18.7702 125.997C18.7034 126.158 18.6054 126.305 18.482 126.428C18.3585 126.552 18.2119 126.65 18.0506 126.717C17.8893 126.784 17.7164 126.818 17.5418 126.818Z" fill="white"/>
<path d="M28.1787 137.463C28.0041 137.464 27.8311 137.429 27.6698 137.363C27.5084 137.296 27.3619 137.197 27.2385 137.074L23.2497 133.082C23.1262 132.958 23.0283 132.811 22.9615 132.65C22.8946 132.489 22.8602 132.316 22.8602 132.141C22.8602 131.966 22.8946 131.793 22.9615 131.632C23.0283 131.47 23.1262 131.323 23.2497 131.2L27.2385 127.208C27.488 126.959 27.826 126.819 28.1785 126.819C28.5309 126.819 28.8688 126.959 29.118 127.209C29.3672 127.458 29.5073 127.796 29.5074 128.149C29.5076 128.502 29.3678 128.84 29.1189 129.09L26.0703 132.141L29.1189 135.192C29.3048 135.378 29.4314 135.615 29.4827 135.873C29.534 136.131 29.5077 136.399 29.4071 136.642C29.3064 136.885 29.136 137.093 28.9174 137.239C28.6987 137.385 28.4417 137.463 28.1787 137.463Z" fill="white"/>
<path d="M25.5194 133.471C25.1668 133.471 24.8286 133.331 24.5793 133.082C24.3299 132.832 24.1898 132.494 24.1898 132.141C24.1898 131.788 24.3299 131.449 24.5793 131.2C24.8286 130.95 25.1668 130.81 25.5194 130.81H42.8044C44.213 130.802 45.5616 130.238 46.5573 129.241C47.553 128.243 48.1155 126.893 48.1228 125.483V124.157C48.1228 123.804 48.2629 123.465 48.5123 123.216C48.7616 122.966 49.0998 122.826 49.4525 122.826C49.8051 122.826 50.1433 122.966 50.3926 123.216C50.642 123.465 50.7821 123.804 50.7821 124.157V125.487C50.7716 127.601 49.9283 129.625 48.4353 131.12C46.9423 132.615 44.9202 133.46 42.8083 133.471L25.5194 133.471Z" fill="white"/>
</g>
<defs>
<clipPath id="clip0_211_792">
<rect width="528" height="434" fill="white"/>
</clipPath>
</defs>
</svg>
