<svg width="331" height="201" viewBox="0 0 331 201" fill="none" xmlns="http://www.w3.org/2000/svg">
<g clip-path="url(#clip0_211_713)">
<path d="M122.699 62.9978C67.3405 107.047 95.2316 125.996 61.3493 125.996C27.467 125.996 0 97.7905 0 62.9978C0 28.2051 27.467 0 61.3493 0C95.2316 0 178.057 18.9485 122.699 62.9978Z" fill="#F2F2F2"/>
<path d="M135.71 128.037C135.71 135.358 109.438 151.999 74.8029 151.999C40.1675 151.999 10.146 135.358 10.146 128.037C10.146 126.206 13.0867 128.48 16.2575 126.896C25.4885 122.277 47.4996 125.682 72.482 125.492C73.2527 125.485 74.0263 125.481 74.8029 125.481C109.438 125.481 135.71 120.716 135.71 128.037Z" fill="#3F3D56"/>
<path opacity="0.1" d="M135.71 128.037C135.71 135.358 109.438 151.999 74.8029 151.999C40.1675 151.999 10.146 135.358 10.146 128.037C10.146 126.206 13.0867 128.48 16.2575 126.896C25.4885 122.277 47.4996 125.682 72.482 125.492C73.2527 125.485 74.0263 125.481 74.8029 125.481C109.438 125.481 135.71 120.716 135.71 128.037Z" fill="black"/>
<path d="M135.571 127.9C135.571 135.221 107.494 141.159 72.8584 141.159C38.223 141.159 10.146 135.221 10.146 127.9C10.146 126.069 11.8984 124.327 15.0692 122.743C24.3002 118.124 45.5551 114.842 70.5374 114.652C71.3081 114.645 72.0818 114.641 72.8584 114.641C107.494 114.641 135.571 120.579 135.571 127.9Z" fill="#3F3D56"/>
<path opacity="0.1" d="M71.2833 114.924C68.6195 119.383 65.007 123.165 60.7169 125.987C56.4267 128.809 51.5702 130.596 46.5113 131.216C41.4525 131.836 36.3227 131.272 31.5065 129.565C26.6904 127.859 22.3128 125.056 18.7021 121.365C27.4527 117.688 47.6012 115.075 71.2833 114.924Z" fill="black"/>
<path d="M43.2037 125.755C60.387 125.755 74.3168 110.429 74.3168 91.5238C74.3168 72.6184 60.387 57.2926 43.2037 57.2926C26.0204 57.2926 12.0906 72.6184 12.0906 91.5238C12.0906 110.429 26.0204 125.755 43.2037 125.755Z" fill="#3F3D56"/>
<path d="M77.0526 38.4855V46.51L73.0397 51.2814C73.0397 51.2814 71.3501 50.6307 71.3501 46.2931L70.7164 40.0036L77.0526 38.4855Z" fill="#FFB9B9"/>
<path d="M73.0397 46.51C73.0397 46.51 79.5871 41.9556 79.7983 40.4374C80.0095 38.9192 89.3025 31.9791 87.8241 36.3167C86.3457 40.6543 81.6992 42.6062 81.6992 42.6062C81.6992 42.6062 78.1087 52.5827 74.9406 52.3658C71.7725 52.1489 71.7725 48.0282 73.0397 46.51Z" fill="#FFB9B9"/>
<path d="M69.238 95.3079L68.6044 99.212L71.9838 98.3442V95.3079H69.238Z" fill="#FFB9B9"/>
<path d="M69.8716 97.4768C69.8716 97.4768 73.7773 95.1007 73.9365 96.1803C74.0957 97.2599 75.7853 101.381 76.6302 101.814C77.475 102.248 78.531 107.019 76.6302 106.803C75.1579 106.635 69.7582 103.735 67.3978 102.435C67.1073 102.274 66.8879 102.005 66.7847 101.683C66.6815 101.361 66.7025 101.011 66.8433 100.705C66.9817 100.442 67.0772 100.157 67.1259 99.8624C67.1259 99.4287 69.8716 97.4768 69.8716 97.4768Z" fill="#2F2E41"/>
<path d="M67.9709 53.4502C67.9709 53.4502 83.3888 60.8241 81.9104 66.463C80.4319 72.1018 74.9406 95.9586 74.9406 95.9586C74.9406 95.9586 68.8157 97.4768 68.3933 95.9586C67.9709 94.4405 72.4062 70.8006 71.9837 69.933C71.5613 69.0655 63.7468 63.4266 63.7468 63.4266L47.6952 56.4865L54.4537 49.9801L67.9709 53.4502Z" fill="#2F2E41"/>
<path d="M79.5871 96.6093L81.488 101.598L78.1087 103.116L75.9966 99.212L79.5871 96.6093Z" fill="#FFB9B9"/>
<path d="M68.1821 17.8819C68.1821 17.8819 66.2812 20.4845 67.7597 21.7857C69.2381 23.087 68.1821 27.8584 68.1821 27.8584L66.2812 33.2804L58.6779 31.7622V22.8701L59.1003 18.5325C59.1003 18.5325 62.902 14.8456 63.3244 12.0262C63.7468 9.20671 68.1821 17.8819 68.1821 17.8819Z" fill="#FFB9B9"/>
<path opacity="0.1" d="M68.1821 17.8819C68.1821 17.8819 66.2812 20.4845 67.7597 21.7857C69.2381 23.087 68.1821 27.8584 68.1821 27.8584L66.2812 33.2804L58.6779 31.7622V22.8701L59.1003 18.5325C59.1003 18.5325 62.902 14.8456 63.3244 12.0262C63.7468 9.20671 68.1821 17.8819 68.1821 17.8819Z" fill="black"/>
<path d="M55.5097 51.7151C55.5097 51.7151 65.4363 62.9929 65.4363 63.4267C65.4363 63.8604 70.7165 72.7525 70.7165 72.7525L81.0655 96.3924C81.0655 96.3924 77.0526 102.031 75.363 101.598C73.6733 101.164 61.6347 76.0057 61.6347 76.0057C61.6347 76.0057 59.5226 70.3668 53.8201 69.0655C48.1176 67.7643 43.6823 63.2098 45.7943 58.0047C47.9063 52.7996 55.5097 51.7151 55.5097 51.7151Z" fill="#2F2E41"/>
<path d="M68.182 19.4001C71.9147 19.4001 74.9406 16.2929 74.9406 12.4599C74.9406 8.62699 71.9147 5.51978 68.182 5.51978C64.4494 5.51978 61.4235 8.62699 61.4235 12.4599C61.4235 16.2929 64.4494 19.4001 68.182 19.4001Z" fill="#FFB9B9"/>
<path d="M67.9709 23.7377C67.9709 23.7377 67.126 28.7259 66.2812 29.1597C65.4364 29.5934 64.8028 31.1116 62.9019 28.9428C61.0011 26.774 59.3115 22.4364 59.3115 22.4364L52.7641 30.6778L52.1305 53.4502C52.1305 53.4502 59.5227 51.4983 61.8459 53.4502C64.1692 55.4021 69.2381 55.1853 69.2381 55.1853L68.1821 50.8477L69.0269 43.4737L68.8157 36.7505L68.6045 31.9791L67.9709 23.7377Z" fill="#F2F2F2"/>
<path d="M67.2268 20.0872C67.2268 20.0872 70.0829 21.5689 70.2941 22.4364C70.5053 23.3039 74.307 25.039 74.307 25.039C74.307 25.039 75.7854 26.5571 75.7854 27.4246C75.7854 28.2922 70.7165 38.2686 70.7165 38.2686C70.7165 38.2686 69.6605 44.9919 70.0829 46.2932C70.5053 47.5944 69.238 52.5827 69.238 52.5827L71.7725 55.619H69.4493C69.4493 55.619 66.9148 54.3177 66.9148 53.6671C66.9148 53.0164 67.3372 48.462 67.5484 46.51C67.7596 44.5581 67.7596 37.618 67.3372 35.2323C66.9148 32.8466 67.126 26.5571 67.126 25.0389C67.126 23.5208 67.2268 20.0872 67.2268 20.0872Z" fill="#3F3D56"/>
<path d="M60.6842 16.7939C60.6842 16.7939 59.7338 17.0144 56.9881 17.8819C54.2425 18.7494 50.0184 20.0507 48.5399 21.7858C47.5022 23.0689 46.583 24.4484 45.7943 25.9065L46.6391 41.5218C46.6391 41.5218 44.9495 44.775 45.1607 46.51C45.3719 48.2451 47.0615 48.462 45.7943 52.1489C44.5271 55.8359 41.9926 59.0891 44.3158 59.5228C46.6391 59.9566 52.764 58.4384 55.5097 59.306C58.2554 60.1735 61.4234 56.0528 61.4234 56.0528C61.4234 56.0528 57.1993 56.4865 57.833 54.7515C58.4666 53.0164 65.4363 33.4973 63.9579 29.1597C62.4795 24.8221 60.6842 16.7939 60.6842 16.7939Z" fill="#3F3D56"/>
<path d="M74.7293 26.3402L75.7853 27.2077C75.7853 27.2077 78.7422 38.0517 77.8974 39.1361C77.0526 40.2205 70.294 42.6062 69.8716 41.088C69.4492 39.5699 74.7293 26.3402 74.7293 26.3402Z" fill="#3F3D56"/>
<path d="M43.471 33.931C43.471 33.931 40.303 43.2569 40.303 45.8594C40.303 48.462 40.7254 63.6436 40.7254 63.6436C40.7254 63.6436 40.9366 70.15 45.3719 67.5474C49.8072 64.9448 45.3719 63.2098 45.3719 63.2098C45.3719 63.2098 45.5831 46.0763 47.2727 43.6906C48.9624 41.3049 49.596 37.8349 49.596 37.8349L43.471 33.931Z" fill="#FFB9B9"/>
<path d="M78.1087 101.381C78.1087 101.381 81.2767 99.6456 81.9103 100.947C82.5439 102.248 85.9232 109.405 85.5008 110.273C85.0784 111.14 82.7552 114.61 80.0095 113.743C77.2638 112.875 77.0526 108.321 77.0526 108.321L76.8414 103.116L78.1087 101.381Z" fill="#2F2E41"/>
<path d="M69.5054 10.7835C69.0399 11.0085 68.4876 11.143 68.195 11.5777C67.9783 11.8998 67.9567 12.3183 67.7985 12.6746C67.6259 13.0273 67.3288 13.2992 66.9677 13.4348C66.6066 13.5704 66.2088 13.5595 65.8553 13.4043C65.7689 12.9723 65.5243 12.5908 65.1719 12.3386C64.9939 12.2184 64.7831 12.16 64.5704 12.172C64.3577 12.184 64.1544 12.2658 63.9903 12.4052C63.5549 12.8314 63.709 13.5746 63.5059 14.1559C63.3152 14.5649 63.0528 14.9343 62.7319 15.2457C62.2696 15.7934 61.9014 16.4358 61.3447 16.8814C60.788 17.3269 59.9437 17.52 59.3907 17.0697C58.9256 16.6911 58.8292 15.9925 58.9421 15.3942C59.0551 14.7959 59.3351 14.2449 59.4931 13.6574C60.0064 11.7485 59.1881 9.71056 59.4413 7.74737C59.7657 5.23184 61.8478 3.24483 64.1718 2.3825C65.1389 1.97809 66.1977 1.8629 67.2259 2.05023C68.2887 2.29392 69.1967 2.98875 70.2146 3.38614C71.3032 3.81111 72.4869 3.88531 73.626 4.13375C74.7652 4.38219 75.9374 4.86254 76.5985 5.84706C77.0596 6.53374 77.218 7.38653 77.6001 8.12256C78.04 8.96268 78.7524 9.61812 79.6138 9.97511L78.4096 9.90463C78.6115 10.4566 78.9407 10.95 79.3691 11.3426C78.8044 11.4609 78.2174 11.3812 77.7021 11.1163C77.7114 11.3705 77.7713 11.62 77.8782 11.8494C77.9851 12.0788 78.1367 12.2833 78.3236 12.4503C77.397 12.4216 76.4198 12.3777 75.6368 11.868C75.2533 11.6184 74.9406 11.2707 74.5797 10.9877C73.8104 10.3845 72.856 10.0982 71.9256 9.82397C71.4371 9.67999 70.8491 9.47979 70.4072 9.80243C70.0393 10.0711 69.9812 10.5535 69.5054 10.7835Z" fill="#2F2E41"/>
<path d="M48.9624 23.3039L45.7943 25.9065L41.5702 35.8829C41.5702 35.8829 47.4839 40.6543 48.9624 40.0036C50.4408 39.353 52.9752 27.8584 52.9752 27.8584L48.9624 23.3039Z" fill="#3F3D56"/>
<path d="M96.4785 35.2082L83.1479 42.7272C83.0706 42.78 82.9831 42.8147 82.8913 42.8289C82.7996 42.8431 82.7059 42.8365 82.6169 42.8095C82.528 42.7826 82.4458 42.7359 82.3763 42.6729C82.3068 42.6098 82.2515 42.5318 82.2145 42.4445L78.9489 35.4352C78.887 35.2354 78.8971 35.0194 78.9772 34.8265C79.0574 34.6337 79.2023 34.4768 79.3856 34.3845L90.4534 28.5264C90.5897 28.4422 90.7515 28.4126 90.9078 28.4433C91.064 28.4739 91.2038 28.5627 91.3002 28.6926L96.8287 34.041C96.8831 34.1406 96.9173 34.2505 96.9291 34.3641C96.9409 34.4776 96.93 34.5925 96.8973 34.7016C96.8645 34.8108 96.8105 34.912 96.7386 34.9991C96.6666 35.0861 96.5781 35.1573 96.4785 35.2082Z" fill="#2F2E41"/>
<path d="M95.5889 34.1727L83.0918 41.5076L79.766 35.3528L90.487 29.3661L95.5889 34.1727Z" fill="#2594EA"/>
<path d="M85.1034 32.0525C85.1685 31.9724 85.1673 31.8613 85.1008 31.8043C85.0343 31.7473 84.9276 31.766 84.8625 31.8462C84.7974 31.9263 84.7986 32.0374 84.8651 32.0944C84.9316 32.1514 85.0383 32.1327 85.1034 32.0525Z" fill="#F2F2F2"/>
<path d="M89.7033 38.3152C89.7467 38.2618 89.7459 38.1877 89.7016 38.1497C89.6572 38.1117 89.5861 38.1242 89.5427 38.1776C89.4993 38.231 89.5001 38.3051 89.5444 38.3431C89.5887 38.3811 89.6599 38.3686 89.7033 38.3152Z" fill="#F2F2F2"/>
<path d="M26.9568 125.423C26.9568 130.392 24.0809 132.126 20.5327 132.126C20.4505 132.126 20.3684 132.125 20.2868 132.123C20.1224 132.12 19.9592 132.112 19.7984 132.1C16.5961 131.868 14.1086 130.044 14.1086 125.423C14.1086 120.643 20.0579 114.609 20.5061 114.162L20.5067 114.161C20.5239 114.144 20.5327 114.135 20.5327 114.135C20.5327 114.135 26.9568 120.456 26.9568 125.423Z" fill="#2594EA"/>
<path d="M20.2986 131.366L22.6483 127.995L20.2927 131.737L20.2868 132.123C20.1224 132.12 19.9592 132.112 19.7984 132.1L20.0515 127.13L20.0497 127.091L20.0538 127.085L20.0781 126.615L17.7166 122.864L20.0852 126.262L20.0911 126.362L20.282 122.607L18.2605 118.731L20.3069 121.948L20.5061 114.162L20.5067 114.135V114.161L20.4736 120.301L22.4863 117.867L20.4653 120.83L20.4121 124.192L22.2918 120.965L20.4044 124.687L20.3749 126.556L23.1024 122.065L20.3642 127.208L20.2986 131.366Z" fill="#3F3D56"/>
<path d="M116.685 115.154C116.685 120.122 113.809 121.857 110.261 121.857C110.179 121.857 110.096 121.856 110.015 121.854C109.85 121.85 109.687 121.842 109.526 121.831C106.324 121.598 103.837 119.774 103.837 115.154C103.837 110.373 109.786 104.34 110.234 103.893L110.235 103.892C110.252 103.874 110.261 103.866 110.261 103.866C110.261 103.866 116.685 110.186 116.685 115.154Z" fill="#2594EA"/>
<path d="M110.027 121.097L112.376 117.726L110.021 121.467L110.015 121.854C109.85 121.85 109.687 121.842 109.526 121.831L109.779 116.861L109.778 116.822L109.782 116.815L109.806 116.345L107.445 112.595L109.813 115.993L109.819 116.093L110.01 112.337L107.989 108.462L110.035 111.679L110.234 103.893L110.235 103.866V103.892L110.202 110.031L112.214 107.597L110.193 110.56L110.14 113.923L112.02 110.696L110.132 114.418L110.103 116.287L112.83 111.795L110.092 116.939L110.027 121.097Z" fill="#3F3D56"/>
<path d="M249.801 74.5874H143.002V134.972H249.801V74.5874Z" fill="#F2F2F2"/>
<path opacity="0.3" d="M160.899 105.446C165.761 105.446 169.701 101.399 169.701 96.4073C169.701 91.4154 165.761 87.3687 160.899 87.3687C156.038 87.3687 152.097 91.4154 152.097 96.4073C152.097 101.399 156.038 105.446 160.899 105.446Z" fill="#2594EA"/>
<path opacity="0.3" d="M196.401 105.446C201.262 105.446 205.203 101.399 205.203 96.4073C205.203 91.4154 201.262 87.3687 196.401 87.3687C191.54 87.3687 187.599 91.4154 187.599 96.4073C187.599 101.399 191.54 105.446 196.401 105.446Z" fill="#2594EA"/>
<path opacity="0.3" d="M231.903 105.446C236.764 105.446 240.705 101.399 240.705 96.4073C240.705 91.4154 236.764 87.3687 231.903 87.3687C227.042 87.3687 223.101 91.4154 223.101 96.4073C223.101 101.399 227.042 105.446 231.903 105.446Z" fill="#2594EA"/>
<path opacity="0.3" d="M172.782 112.225H148.723V114.635H172.782V112.225Z" fill="#2594EA"/>
<path opacity="0.3" d="M208.578 112.225H184.518V114.635H208.578V112.225Z" fill="#2594EA"/>
<path d="M244.373 112.225H220.314V114.635H244.373V112.225Z" fill="#2594EA"/>
<path d="M331 192.692C331 200.424 303.253 218 266.671 218C230.09 218 198.382 200.424 198.382 192.692C198.382 190.758 201.488 193.16 204.837 191.487C214.586 186.608 237.834 190.204 264.22 190.004C265.034 189.996 265.851 189.992 266.671 189.992C303.253 189.992 331 184.959 331 192.692Z" fill="#3F3D56"/>
<path opacity="0.1" d="M331 192.692C331 200.424 303.253 218 266.671 218C230.09 218 198.382 200.424 198.382 192.692C198.382 190.758 201.488 193.16 204.837 191.487C214.586 186.608 237.834 190.204 264.22 190.004C265.034 189.996 265.851 189.992 266.671 189.992C303.253 189.992 331 184.959 331 192.692Z" fill="black"/>
<path d="M330.853 192.547C330.853 200.28 301.199 206.551 264.618 206.551C228.036 206.551 198.382 200.28 198.382 192.547C198.382 190.613 200.233 188.774 203.582 187.101C213.331 182.222 235.78 178.755 262.166 178.555C262.98 178.547 263.797 178.543 264.618 178.543C301.199 178.543 330.853 184.815 330.853 192.547Z" fill="#3F3D56"/>
<path d="M268.049 180.112C276.805 180.112 283.904 171.844 283.904 161.647C283.904 151.449 276.805 143.181 268.049 143.181C259.292 143.181 252.193 151.449 252.193 161.647C252.193 171.844 259.292 180.112 268.049 180.112Z" fill="#36334A"/>
<path d="M275.014 128.236L251.185 128.989C251.185 128.989 226.739 152.548 244.153 158.948C244.153 158.948 268.965 160.047 274.098 155.906C274.098 155.906 280.513 129.93 275.014 128.236ZM273.914 135.201L248.435 136.895C248.435 136.895 250.268 130.495 257.601 130.495C264.933 130.495 273.181 128.801 273.914 132.754C274.648 136.706 273.914 135.201 273.914 135.201Z" fill="#3F3D56"/>
<path d="M299.393 143.106L268.049 141.977L275.381 110.166C275.381 110.166 304.709 107.907 303.976 115.625C303.243 123.342 299.393 143.106 299.393 143.106Z" fill="#36334A"/>
<path d="M269.134 158.312C269.134 158.312 250.268 161.741 243.486 151.576C236.704 141.412 269.148 146.871 269.148 146.871L271.898 154.588L269.134 158.312Z" fill="#36334A"/>
<path d="M263.466 201.457C268.224 201.457 272.081 197.496 272.081 192.61C272.081 187.724 268.224 183.763 263.466 183.763C258.708 183.763 254.851 187.724 254.851 192.61C254.851 197.496 258.708 201.457 263.466 201.457Z" fill="#36334A"/>
<path d="M264.291 199.01C267.277 199.01 269.698 196.144 269.698 192.61C269.698 189.075 267.277 186.21 264.291 186.21C261.305 186.21 258.884 189.075 258.884 192.61C258.884 196.144 261.305 199.01 264.291 199.01Z" fill="#3F3D56"/>
<path d="M310.575 109.225C310.575 109.225 303.426 105.084 303.059 114.872L297.01 160.423H299.577L306.542 111.672C306.542 111.672 310.025 112.237 310.575 112.237C311.125 112.237 310.575 109.225 310.575 109.225Z" fill="#3F3D56"/>
<path d="M317.698 114.251C317.633 114.493 317.518 114.717 317.361 114.91C317.204 115.102 317.009 115.258 316.789 115.367C316.568 115.475 316.328 115.534 316.084 115.54C315.84 115.545 315.597 115.497 315.372 115.399L307.079 111.758L308.584 108.355L316.757 112.178C317.128 112.352 317.427 112.656 317.6 113.036C317.773 113.416 317.807 113.847 317.698 114.251Z" fill="#36334A"/>
<path d="M267.315 157.223C267.315 157.223 254.118 155.717 250.452 168.705C246.786 181.693 247.152 191.669 244.036 190.916C240.92 190.163 234.321 187.528 234.321 187.528L234.871 191.481C234.871 191.481 246.419 197.504 248.252 191.104C250.085 184.704 251.185 161.176 261.633 161.741C272.081 162.305 273.914 161.176 273.914 161.176L267.315 157.223Z" fill="#3F3D56"/>
<path d="M242.203 151.012C242.203 151.012 231.938 152.329 227.906 160.047C223.873 167.764 221.857 181.693 221.857 181.693H225.706C225.706 181.693 227.906 154.023 239.454 155.529L242.203 151.012Z" fill="#3F3D56"/>
<path d="M235.238 194.116L218.924 183.763C218.924 183.763 218.007 179.999 228.455 178.493C228.455 178.493 248.209 185.587 246.306 188.252C244.403 190.916 237.987 195.057 235.238 194.116Z" fill="#36334A"/>
<path d="M265.526 134.615C266.028 135.176 275.272 144.208 275.272 144.208C275.272 144.208 274.354 150.512 264.463 151.294L247.978 152.598C247.978 152.598 244.863 164.339 241.158 168.092C237.453 171.844 239.153 172.053 237.763 173.882C236.373 175.711 238.324 176.201 236.214 176.379C234.103 176.557 229.743 173.936 229.695 171.91C229.648 169.883 230.879 168.722 231.426 168.206C231.973 167.69 233.361 162.757 234.193 161.713C235.025 160.67 238.174 148.12 238.174 148.12C238.174 148.12 241.318 142.048 245.676 141.564C250.033 141.08 254.882 138.903 254.882 138.903" fill="#2F2E41"/>
<path opacity="0.1" d="M265.526 134.615C266.028 135.176 275.272 144.208 275.272 144.208C275.272 144.208 274.354 150.512 264.463 151.294L247.978 152.598C247.978 152.598 244.863 164.339 241.158 168.092C237.453 171.844 239.153 172.053 237.763 173.882C236.373 175.711 238.324 176.201 236.214 176.379C234.103 176.557 229.743 173.936 229.695 171.91C229.648 169.883 230.879 168.722 231.426 168.206C231.973 167.69 233.361 162.757 234.193 161.713C235.025 160.67 238.174 148.12 238.174 148.12C238.174 148.12 241.318 142.048 245.676 141.564C250.033 141.08 254.882 138.903 254.882 138.903" fill="black"/>
<path d="M249.535 104.471C249.535 104.471 246.066 94.7918 243.692 97.876C241.317 100.96 247.512 106.025 247.512 106.025L249.535 104.471Z" fill="#A0616A"/>
<path d="M267.81 109.524L265.835 108.666C265.835 108.666 262.209 111.182 261.97 111.999C261.732 112.816 262.249 112.53 260.825 113.249C259.4 113.968 255.51 115.707 254.993 115.993C254.476 116.279 248.62 105.641 250.021 104.114C250.021 104.114 247.4 105.084 246.206 104.716C246.206 104.716 249.185 119.546 249.638 121.556C250.092 123.565 251.15 123.802 253.123 123.876C255.096 123.95 267.077 120.34 267.077 120.34L267.81 109.524Z" fill="#575A89"/>
<path d="M236.906 173.261C236.906 173.261 236.806 175.365 237.148 175.607C237.49 175.849 239.604 180.968 236.349 181.462C233.093 181.956 231.305 181.313 230.518 181.585C229.731 181.857 216.753 180.757 216.853 178.653C216.953 176.549 223.442 177.099 223.442 177.099C223.442 177.099 229.869 173.981 231.072 172.036C232.276 170.091 236.906 173.261 236.906 173.261Z" fill="#2F2E41"/>
<path opacity="0.1" d="M236.906 173.261C236.906 173.261 236.806 175.365 237.148 175.607C237.49 175.849 239.604 180.968 236.349 181.462C233.093 181.956 231.305 181.313 230.518 181.585C229.731 181.857 216.753 180.757 216.853 178.653C216.953 176.549 223.442 177.099 223.442 177.099C223.442 177.099 229.869 173.981 231.072 172.036C232.276 170.091 236.906 173.261 236.906 173.261Z" fill="black"/>
<path d="M243.603 184.344C243.603 184.344 241.629 193.174 240.181 193.084C238.733 192.994 228.512 187.886 227.254 186.874C225.639 185.575 225.703 183.28 227.557 183.762C229.41 184.244 234.653 183.812 235.544 182.84L237.835 180.34L243.603 184.344Z" fill="#2F2E41"/>
<path d="M263.838 135.281C264.379 135.804 280.829 150.135 280.829 150.135C280.829 150.135 280.359 156.49 270.55 158.009L254.201 160.54C254.201 160.54 251.925 172.483 248.496 176.502C245.067 180.521 246.777 180.602 245.52 182.53C244.263 184.458 246.244 184.801 244.151 185.136C242.059 185.471 237.525 183.183 237.334 181.165C237.143 179.147 238.289 177.898 238.798 177.342C239.307 176.787 240.342 171.763 241.098 170.66C241.854 169.557 244.106 156.805 244.106 156.805C244.106 156.805 246.812 150.515 251.124 149.707C255.435 148.899 260.117 146.366 260.117 146.366" fill="#2F2E41"/>
<path d="M278.98 104.236C283.288 104.236 286.781 100.65 286.781 96.226C286.781 91.8022 283.288 88.2161 278.98 88.2161C274.672 88.2161 271.18 91.8022 271.18 96.226C271.18 100.65 274.672 104.236 278.98 104.236Z" fill="#A0616A"/>
<path d="M283.069 101.226C283.069 101.226 281.899 106.119 283.681 108.627C285.463 111.135 271.764 109.941 271.764 109.941C271.764 109.941 275.471 102.001 274.103 100.155C272.735 98.3085 283.069 101.226 283.069 101.226Z" fill="#A0616A"/>
<path d="M265.558 108.92C263.904 110.725 264.467 120.961 264.467 120.961L265.525 130.102C265.525 130.102 264.26 131.761 264.673 132.422C265.087 133.084 265.763 133.738 264.458 134.048C263.154 134.358 260.146 134.856 261.109 136.31C261.423 136.722 261.76 137.116 262.117 137.489C262.424 137.823 262.789 138.209 263.202 138.64C264.17 139.644 265.4 140.878 266.766 142.179C267.152 142.55 267.549 142.925 267.955 143.303C273.163 148.141 279.64 153.262 280.98 150.805C283.224 146.687 284.783 146.099 284.68 142.595C284.577 139.09 287.466 130.096 287.466 130.096C287.466 130.096 290.824 114.747 286.091 110.171L285.351 108.956C285.008 108.391 284.5 107.951 283.899 107.699C283.299 107.446 282.636 107.394 282.006 107.55C279.695 108.117 276.154 108.9 274.62 108.773C272.249 108.577 272.769 107.576 272.769 107.576C272.769 107.576 267.213 107.114 265.558 108.92Z" fill="#575A89"/>
<path d="M258.244 141.661C258.244 141.661 248.594 144.119 250.01 147.583C251.426 151.047 259.779 144.716 259.779 144.716L258.244 141.661Z" fill="#A0616A"/>
<path d="M283.297 99.1564C283.105 98.9174 283.295 98.5684 283.462 98.3105C284.358 96.9293 284.529 94.9641 283.544 93.649C283.155 93.1591 282.67 92.7601 282.119 92.4785C281.346 92.0578 280.502 91.7919 279.633 91.6948C279.17 91.6879 278.712 91.5953 278.282 91.4216C278.01 91.2798 276.726 90.8182 276.45 90.6837C275.845 90.388 275.002 90.5158 274.614 89.9541C274.243 89.4167 274.589 88.6806 274.95 88.1356C275.772 86.8941 277.85 85.8652 279.277 85.5394C280.36 85.2921 281.49 85.6398 282.493 86.1253C283.65 86.7146 284.748 87.4196 285.77 88.2302C287.174 89.2982 288.556 90.4817 289.4 92.053C290.243 93.6243 290.446 95.6709 289.493 97.1748C289.295 97.4881 289.052 97.7709 288.867 98.0923C288.413 98.8762 288.332 99.8244 288.011 100.675C287.773 101.296 287.411 101.859 286.947 102.328C286.484 102.797 285.93 103.161 285.322 103.396C284.346 103.767 283.146 103.869 282.57 104.758L282.301 102.904C282.231 102.67 282.241 102.419 282.329 102.192C282.418 101.965 282.58 101.776 282.788 101.657L284.169 100.461C284.445 100.269 284.654 99.9923 284.767 99.6706C285.066 98.3903 283.618 99.5548 283.297 99.1564Z" fill="#2F2E41"/>
<path opacity="0.1" d="M269.462 134.432L263.202 138.64C264.444 139.929 266.12 141.597 267.955 143.303C269.692 142.342 271.464 141.302 273.05 140.257C278.85 136.435 283.823 126.836 286.051 122.18C288.278 117.524 286.465 113.937 286.465 113.937C284.989 113.266 283.427 112.815 281.827 112.597C278.923 112.148 269.462 134.432 269.462 134.432Z" fill="black"/>
<path opacity="0.1" d="M268.635 133.109L262.117 137.489C262.424 137.823 262.789 138.209 263.202 138.64C264.17 139.644 265.4 140.878 266.766 142.179C268.617 141.164 270.528 140.051 272.222 138.934C278.022 135.111 282.995 125.513 285.223 120.857C287.451 116.2 281.457 117.87 281.457 117.87C281.457 117.87 284.567 116.425 281.664 115.975C278.76 115.526 268.635 133.109 268.635 133.109Z" fill="black"/>
<path d="M286.179 113.137C286.179 113.137 287.992 116.723 285.764 121.38C283.536 126.036 278.563 135.634 272.763 139.457C266.963 143.279 258.666 147.045 258.666 147.045C258.666 147.045 257.878 142.617 256.55 142.118L269.176 133.632C269.176 133.632 278.637 111.347 281.541 111.797C283.141 112.014 284.703 112.465 286.179 113.137Z" fill="#575A89"/>
<path d="M260.533 160.423V182.446H262.916V160.047L260.533 160.423Z" fill="#3F3D56"/>
<path d="M264.016 173.975C264.016 173.975 268.599 192.422 265.666 195.057C265.666 195.057 261.816 183.387 258.884 184.893L259.8 173.975H264.016Z" fill="#36334A"/>
<path d="M299.577 133.883L275.747 134.636C275.747 134.636 254.668 155.717 272.081 162.117C272.081 162.117 293.528 165.693 298.66 161.552C298.66 161.552 305.076 135.577 299.577 133.883ZM298.477 140.847L272.998 142.541C272.998 142.541 274.831 136.142 282.163 136.142C289.495 136.142 297.744 134.448 298.477 138.4C299.21 142.353 298.477 140.847 298.477 140.847Z" fill="#3F3D56"/>
<path d="M294.169 201.457C307.38 201.457 318.09 188.984 318.09 173.599C318.09 158.214 307.38 145.741 294.169 145.741C280.958 145.741 270.248 158.214 270.248 173.599C270.248 188.984 280.958 201.457 294.169 201.457Z" fill="#36334A"/>
<path d="M295.269 194.304C305.241 194.304 313.324 185.034 313.324 173.599C313.324 162.164 305.241 152.894 295.269 152.894C285.298 152.894 277.214 162.164 277.214 173.599C277.214 185.034 285.298 194.304 295.269 194.304Z" fill="#3F3D56"/>
<path d="M299.943 173.317C299.943 172.955 299.908 172.595 299.839 172.241L313.324 165.317L312.408 163.246L298.785 170.062C298.648 169.916 298.496 169.786 298.332 169.673L298.343 169.675L302.326 149.318L298.803 149.235L296.46 169.27L296.685 169.318C296.503 169.357 296.327 169.418 296.16 169.502L284.378 157.084L282.713 159.482L294.818 170.918C294.514 171.516 294.332 172.172 294.282 172.845L277.214 179.999L276.847 183.01L294.639 175.327C294.804 175.75 295.04 176.14 295.334 176.481L289.862 195.622H291.878L296.471 177.26C296.675 177.327 296.888 177.362 297.102 177.364C297.516 177.36 297.92 177.235 298.267 177.005L307.825 189.975L310.758 187.904L299.559 175.343C299.816 174.7 299.947 174.011 299.943 173.317Z" fill="#36334A"/>
<path d="M237.111 105.319C241.972 105.319 245.913 101.272 245.913 96.2801C245.913 91.2882 241.972 87.2415 237.111 87.2415C232.25 87.2415 228.309 91.2882 228.309 96.2801C228.309 101.272 232.25 105.319 237.111 105.319Z" fill="#2594EA"/>
<path d="M326.143 189.036C326.143 194.005 323.267 195.739 319.719 195.739C319.636 195.739 319.554 195.738 319.473 195.736C319.308 195.733 319.145 195.725 318.984 195.713C315.782 195.481 313.295 193.657 313.295 189.036C313.295 184.256 319.244 178.222 319.692 177.775L319.693 177.774C319.71 177.757 319.719 177.748 319.719 177.748C319.719 177.748 326.143 184.069 326.143 189.036Z" fill="#2594EA"/>
<path d="M319.484 194.979L321.834 191.608L319.479 195.349L319.473 195.736C319.308 195.733 319.145 195.725 318.984 195.713L319.237 190.743L319.236 190.704L319.24 190.697L319.264 190.228L316.902 186.477L319.271 189.875L319.277 189.975L319.468 186.22L317.446 182.344L319.493 185.561L319.692 177.775L319.693 177.748V177.774L319.66 183.914L321.672 181.48L319.651 184.443L319.598 187.805L321.478 184.578L319.59 188.3L319.561 190.169L322.288 185.678L319.55 190.821L319.484 194.979Z" fill="#3F3D56"/>
</g>
<defs>
<clipPath id="clip0_211_713">
<rect width="331" height="201" fill="white"/>
</clipPath>
</defs>
</svg>
