<svg width="331" height="206" viewBox="0 0 331 206" fill="none" xmlns="http://www.w3.org/2000/svg">
<g clip-path="url(#clip0_211_636)">
<path d="M195.647 6.62266C197.365 6.62266 198.758 5.22967 198.758 3.51133C198.758 1.79298 197.365 0.399994 195.647 0.399994C193.929 0.399994 192.536 1.79298 192.536 3.51133C192.536 5.22967 193.929 6.62266 195.647 6.62266Z" fill="#F2F2F2"/>
<path d="M208.636 6.62266C210.354 6.62266 211.747 5.22967 211.747 3.51133C211.747 1.79298 210.354 0.399994 208.636 0.399994C206.918 0.399994 205.525 1.79298 205.525 3.51133C205.525 5.22967 206.918 6.62266 208.636 6.62266Z" fill="#F2F2F2"/>
<path d="M221.625 6.62266C223.343 6.62266 224.736 5.22967 224.736 3.51133C224.736 1.79298 223.343 0.399994 221.625 0.399994C219.907 0.399994 218.514 1.79298 218.514 3.51133C218.514 5.22967 219.907 6.62266 221.625 6.62266Z" fill="#F2F2F2"/>
<path d="M221.625 19.0226C223.343 19.0226 224.736 17.6296 224.736 15.9113C224.736 14.1929 223.343 12.8 221.625 12.8C219.907 12.8 218.514 14.1929 218.514 15.9113C218.514 17.6296 219.907 19.0226 221.625 19.0226Z" fill="#F2F2F2"/>
<path d="M221.625 31.4226C223.343 31.4226 224.736 30.0296 224.736 28.3113C224.736 26.5929 223.343 25.2 221.625 25.2C219.907 25.2 218.514 26.5929 218.514 28.3113C218.514 30.0296 219.907 31.4226 221.625 31.4226Z" fill="#F2F2F2"/>
<path d="M234.614 6.62266C236.332 6.62266 237.725 5.22967 237.725 3.51133C237.725 1.79298 236.332 0.399994 234.614 0.399994C232.895 0.399994 231.503 1.79298 231.503 3.51133C231.503 5.22967 232.895 6.62266 234.614 6.62266Z" fill="#F2F2F2"/>
<path d="M234.614 19.0226C236.332 19.0226 237.725 17.6296 237.725 15.9113C237.725 14.1929 236.332 12.8 234.614 12.8C232.895 12.8 231.503 14.1929 231.503 15.9113C231.503 17.6296 232.895 19.0226 234.614 19.0226Z" fill="#F2F2F2"/>
<path d="M234.614 31.4226C236.332 31.4226 237.725 30.0296 237.725 28.3113C237.725 26.5929 236.332 25.2 234.614 25.2C232.895 25.2 231.503 26.5929 231.503 28.3113C231.503 30.0296 232.895 31.4226 234.614 31.4226Z" fill="#F2F2F2"/>
<path d="M247.602 6.62266C249.321 6.62266 250.714 5.22967 250.714 3.51133C250.714 1.79298 249.321 0.399994 247.602 0.399994C245.884 0.399994 244.491 1.79298 244.491 3.51133C244.491 5.22967 245.884 6.62266 247.602 6.62266Z" fill="#F2F2F2"/>
<path d="M260.591 6.62266C262.31 6.62266 263.702 5.22967 263.702 3.51133C263.702 1.79298 262.31 0.399994 260.591 0.399994C258.873 0.399994 257.48 1.79298 257.48 3.51133C257.48 5.22967 258.873 6.62266 260.591 6.62266Z" fill="#F2F2F2"/>
<path d="M355.566 152.185H332.469C332.469 152.849 308.666 153.388 308.666 153.388C308.293 153.669 307.952 153.992 307.651 154.35C306.747 155.429 306.253 156.792 306.256 158.199V159.162C306.256 160.756 306.89 162.286 308.018 163.413C309.145 164.541 310.675 165.175 312.269 165.175H355.566C357.16 165.174 358.689 164.54 359.816 163.413C360.944 162.285 361.578 160.756 361.579 159.162V158.199C361.577 156.605 360.942 155.077 359.815 153.949C358.688 152.822 357.16 152.188 355.566 152.185Z" fill="#3F3D56"/>
<path d="M355.082 205.131C355.082 205.806 345.605 205.392 333.915 205.392C322.225 205.392 312.748 205.806 312.748 205.131C312.748 204.455 322.225 199.096 333.915 199.096C345.605 199.096 355.082 204.455 355.082 205.131Z" fill="#3F3D56"/>
<path d="M302.641 199.815L296.743 199.815L293.937 177.064L302.642 177.064L302.641 199.815Z" fill="#FFB8B8"/>
<path d="M292.53 198.13H303.905V205.292H285.369C285.369 203.392 286.123 201.571 287.466 200.227C288.809 198.884 290.631 198.13 292.53 198.13Z" fill="#2F2E41"/>
<path d="M293.434 196.523L287.807 194.757L291.941 172.209L300.246 174.816L293.434 196.523Z" fill="#FFB8B8"/>
<path d="M284.292 191.888L295.145 195.294L293 202.127L275.315 196.577C275.597 195.679 276.052 194.846 276.656 194.125C277.259 193.404 277.999 192.808 278.833 192.373C279.666 191.937 280.577 191.67 281.514 191.587C282.451 191.504 283.395 191.606 284.292 191.888Z" fill="#2F2E41"/>
<path d="M339.77 148.241C339.634 147.095 339.389 145.964 339.039 144.864L337.937 143.478L335.07 139.88L334.945 139.884C334.733 139.894 333.853 139.942 332.492 140.048H332.477C331.635 140.115 330.606 140.202 329.437 140.313C329.129 140.346 328.807 140.375 328.475 140.409V145.432H334.488C334.78 145.432 335.063 145.539 335.282 145.732C335.501 145.925 335.643 146.191 335.681 146.481C335.686 146.534 335.691 146.582 335.691 146.635C335.691 146.953 335.564 147.259 335.338 147.485C335.113 147.71 334.807 147.837 334.488 147.837H299.562C299.117 148.133 298.69 148.454 298.283 148.8C297.052 149.752 296.166 151.08 295.757 152.581C293.717 161.549 289.999 178.273 288.902 183.185C288.822 183.555 288.84 183.94 288.954 184.301C289.068 184.662 289.274 184.987 289.551 185.244C289.756 185.435 289.996 185.584 290.259 185.682L294.598 187.308C294.776 187.374 294.962 187.418 295.151 187.438C295.175 187.438 295.194 187.443 295.218 187.443C295.263 187.447 295.308 187.449 295.353 187.448C295.792 187.446 296.22 187.312 296.581 187.063C296.943 186.814 297.22 186.462 297.378 186.052L300.804 177.065L306.081 163.209L308.169 157.729C310.589 158.297 330.89 162.79 337.687 155.55C338.358 154.836 338.887 154.002 339.246 153.091C339.818 151.543 339.998 149.877 339.77 148.241Z" fill="#2F2E41"/>
<path d="M345.658 149.55C345.553 149.122 345.432 148.679 345.293 148.232L341.324 143.247L341.199 143.252C340.949 143.267 339.761 143.329 337.937 143.478C335.869 143.652 332.978 143.931 329.73 144.368C329.634 144.378 329.533 144.393 329.437 144.407C329.119 144.45 328.797 144.494 328.475 144.542V145.432H334.488C334.78 145.432 335.063 145.539 335.282 145.732C335.501 145.925 335.643 146.191 335.681 146.481C335.686 146.534 335.691 146.582 335.691 146.635C335.691 146.954 335.564 147.259 335.338 147.485C335.113 147.71 334.807 147.837 334.488 147.837H313.234C312.306 148.14 311.411 148.458 310.555 148.8C306.062 150.58 302.699 152.913 302.011 155.949C301.78 156.969 301.525 158.09 301.256 159.283C300.255 163.719 299.038 169.151 297.936 174.087V174.092C297.71 175.112 297.484 176.103 297.268 177.065C296.349 181.203 295.57 184.71 295.156 186.553C295.146 186.606 295.137 186.654 295.127 186.707V186.716C295.079 187.089 295.125 187.468 295.262 187.818L295.266 187.823V187.828C295.399 188.163 295.614 188.459 295.892 188.689C296.078 188.842 296.287 188.964 296.513 189.05L300.852 190.676C301.093 190.766 301.349 190.814 301.607 190.816C301.969 190.816 302.324 190.725 302.641 190.551C303.096 190.305 303.448 189.903 303.632 189.42L312.975 164.903L314.423 161.097C316.842 161.665 337.144 166.153 343.941 158.917C345.284 157.464 346.05 155.57 346.096 153.591C346.144 152.23 345.996 150.869 345.658 149.55Z" fill="#2F2E41"/>
<path d="M345.124 107.106C345.048 107.015 344.966 106.923 344.879 106.837C343.598 105.489 342.016 104.465 340.262 103.847C338.509 103.229 336.634 103.035 334.791 103.281C333.184 103.492 331.591 103.806 330.024 104.219C327.999 104.74 326.145 105.78 324.645 107.236C323.477 108.369 322.557 109.732 321.943 111.239C321.33 112.747 321.036 114.365 321.081 115.992C321.1 116.651 321.105 117.325 321.095 118.008C321.095 118.326 321.09 118.648 321.086 118.97H325.829C326.035 118.97 326.24 118.994 326.44 119.042C327.019 119.181 327.534 119.51 327.903 119.977C328.272 120.444 328.474 121.021 328.475 121.616V143.998C328.797 144.089 329.119 144.181 329.437 144.277C329.538 144.311 329.634 144.34 329.73 144.368C329.841 144.402 329.952 144.436 330.057 144.469C331.034 144.773 331.988 145.093 332.92 145.432H334.488C334.78 145.432 335.062 145.539 335.282 145.732C335.501 145.925 335.643 146.191 335.681 146.481C336.008 146.61 336.326 146.74 336.638 146.87C337.75 147.332 338.803 147.794 339.77 148.241C341.074 148.838 342.233 149.406 343.205 149.901C343.511 150.057 343.848 150.139 344.191 150.142C344.642 150.14 345.08 149.995 345.442 149.728C345.517 149.673 345.589 149.613 345.658 149.55C345.916 149.309 346.111 149.008 346.225 148.674C346.34 148.341 346.372 147.984 346.318 147.635C345.821 143.856 345.676 140.039 345.885 136.233C346.019 133.033 346.308 129.752 346.683 126.582C346.885 124.864 347.111 123.18 347.347 121.559C347.573 120.009 347.814 118.523 348.049 117.118C348.359 115.337 348.256 113.508 347.749 111.772C347.242 110.037 346.344 108.441 345.124 107.106Z" fill="#2594EA"/>
<path d="M325.406 107.5C325.159 107.394 324.905 107.306 324.645 107.236C323.363 106.891 322 107.018 320.804 107.595C319.608 108.172 318.66 109.159 318.132 110.378L314.827 118.008L314.413 118.97H325.829C326.035 118.97 326.24 118.994 326.44 119.042L326.825 118.152L328.287 114.775C328.868 113.428 328.891 111.906 328.351 110.542C327.81 109.178 326.751 108.084 325.406 107.5Z" fill="#2594EA"/>
<path d="M335.67 99.5242C342.195 99.5242 347.485 94.2337 347.485 87.7075C347.485 81.1813 342.195 75.8907 335.67 75.8907C329.144 75.8907 323.854 81.1813 323.854 87.7075C323.854 94.2337 329.144 99.5242 335.67 99.5242Z" fill="#FFB8B8"/>
<path d="M347.347 121.559L340.603 121.742L340.112 126.481L340.001 127.577L329.437 132.321L328.475 132.754V141.188L329.437 140.914L332.477 140.048H332.492L345.885 136.233L346.038 136.189C347.121 135.877 348.073 135.224 348.754 134.326C349.436 133.429 349.809 132.336 349.82 131.21L349.853 125.615L349.882 121.491L347.347 121.559Z" fill="#FFB8B8"/>
<path d="M330.058 144.47H329.437V144.407C329.119 144.45 328.797 144.494 328.475 144.542V145.432H332.92C331.986 145.095 331.032 144.774 330.058 144.47ZM330.058 144.47H329.437V144.407C329.119 144.45 328.797 144.494 328.475 144.542V145.432H332.92C331.986 145.095 331.032 144.774 330.058 144.47ZM334.488 144.47H329.437V121.616C329.435 120.834 329.18 120.073 328.708 119.449C328.237 118.824 327.576 118.369 326.825 118.152C326.502 118.055 326.166 118.006 325.829 118.008H283.014C282.057 118.009 281.14 118.39 280.464 119.066C279.787 119.743 279.407 120.66 279.406 121.616V145.191C279.406 146.148 279.786 147.066 280.463 147.742C281.139 148.419 282.057 148.799 283.014 148.8H334.488C335.021 148.799 335.535 148.601 335.932 148.246C336.328 147.89 336.58 147.4 336.638 146.87C336.648 146.792 336.653 146.713 336.653 146.635C336.652 146.061 336.424 145.51 336.018 145.105C335.612 144.699 335.062 144.47 334.488 144.47ZM335.691 146.635C335.691 146.954 335.564 147.259 335.338 147.485C335.113 147.71 334.807 147.837 334.488 147.837H283.014C282.312 147.837 281.639 147.558 281.143 147.062C280.647 146.566 280.368 145.893 280.368 145.191V121.616C280.368 120.915 280.647 120.242 281.143 119.746C281.639 119.25 282.312 118.971 283.014 118.97H325.829C326.035 118.97 326.24 118.994 326.44 119.042C327.019 119.181 327.534 119.51 327.903 119.977C328.272 120.444 328.474 121.021 328.475 121.616V145.432H334.488C334.78 145.432 335.062 145.539 335.282 145.732C335.501 145.925 335.643 146.191 335.681 146.481C335.686 146.534 335.691 146.582 335.691 146.635ZM330.058 144.47H329.437V144.407C329.119 144.45 328.797 144.494 328.475 144.542V145.432H332.92C331.986 145.095 331.032 144.774 330.058 144.47Z" fill="#3F3D56"/>
<path d="M304.42 136.291C306.014 136.291 307.306 134.999 307.306 133.405C307.306 131.81 306.014 130.518 304.42 130.518C302.826 130.518 301.533 131.81 301.533 133.405C301.533 134.999 302.826 136.291 304.42 136.291Z" fill="#2594EA"/>
<path d="M333.147 83.0201C330.402 85.472 326.723 88.1038 323.362 86.3074C321.156 85.1279 320.173 82.5412 320.688 80.0926C321.615 75.6893 325.421 73.3101 329.107 71.3869C333.898 68.8866 339.185 66.7063 344.549 67.3563C349.914 68.0062 355.156 72.4396 354.902 77.8382C354.699 82.1796 351.154 86.2296 352.276 90.4284C353.405 94.6542 358.534 96.2906 362.902 96.5055C367.271 96.7205 372.079 96.348 375.545 99.0167C379.965 102.421 379.895 109.54 376.748 114.147C373.601 118.755 368.286 121.348 363.067 123.319C356.151 125.93 348.549 127.817 341.41 125.897C334.272 123.977 328.022 117.128 329.069 109.809C329.511 106.718 331.138 103.943 332.707 101.243C334.276 98.5431 335.855 95.7281 336.184 92.6227C336.459 90.0349 335.637 87.1782 333.729 85.5112C333.383 85.2209 333.139 84.8286 333.03 84.3906C332.921 83.9526 332.954 83.4915 333.124 83.0734L333.147 83.0201Z" fill="#2F2E41"/>
<path d="M0.572755 206H372.581C372.733 206 372.879 205.94 372.986 205.832C373.094 205.725 373.154 205.579 373.154 205.427C373.154 205.275 373.094 205.13 372.986 205.022C372.879 204.915 372.733 204.854 372.581 204.854H0.572755C0.497393 204.854 0.422732 204.869 0.353045 204.897C0.283357 204.926 0.22002 204.968 0.166654 205.022C0.113288 205.075 0.0709454 205.138 0.0420553 205.208C0.0131653 205.277 -0.00170898 205.352 -0.00170898 205.427C-0.00170898 205.503 0.0131653 205.577 0.0420553 205.647C0.0709454 205.716 0.113288 205.78 0.166654 205.833C0.22002 205.886 0.283357 205.928 0.353045 205.957C0.422732 205.986 0.497393 206 0.572755 206Z" fill="#3F3D56"/>
<path d="M19.4497 158.199V159.162C19.4511 160.756 20.0851 162.285 21.2125 163.413C22.3399 164.54 23.8687 165.174 25.4631 165.175H68.7594C70.354 165.175 71.8832 164.541 73.0108 163.413C74.1384 162.286 74.7722 160.756 74.7727 159.162V158.199C74.7757 156.792 74.2816 155.429 73.3774 154.35C73.0766 153.992 72.7361 153.669 72.3625 153.388C72.3625 153.388 48.5591 152.849 48.5591 152.185H25.4631C23.8689 152.188 22.3407 152.822 21.2134 153.949C20.0862 155.077 19.4519 156.605 19.4497 158.199Z" fill="#3F3D56"/>
<path d="M43.746 205.35H49.9999L49.9999 164.937H43.746L43.746 205.35Z" fill="#3F3D56"/>
<path d="M25.9464 205.131C25.9464 205.806 35.4232 205.392 47.1135 205.392C58.8037 205.392 68.2806 205.806 68.2806 205.131C68.2806 204.455 58.8037 199.096 47.1135 199.096C35.4232 199.096 25.9464 204.455 25.9464 205.131Z" fill="#3F3D56"/>
<path d="M78.6693 200.181H84.5672L87.3728 177.43L78.6683 177.431L78.6693 200.181Z" fill="#A0616A"/>
<path d="M95.9418 205.658L77.4058 205.659L77.4055 198.496L88.7798 198.496C90.6792 198.496 92.5008 199.25 93.844 200.594C95.1871 201.937 95.9417 203.758 95.9418 205.658Z" fill="#2F2E41"/>
<path d="M87.876 196.89L93.5031 195.123L89.3698 172.576L81.0646 175.183L87.876 196.89Z" fill="#A0616A"/>
<path d="M105.995 196.943L88.3099 202.494L86.1656 195.66L97.0181 192.254C98.8303 191.685 100.794 191.86 102.478 192.739C104.161 193.619 105.427 195.131 105.995 196.943Z" fill="#2F2E41"/>
<path d="M83.9303 186.418L73.1412 158.094C70.7207 158.663 50.4219 163.155 43.6233 155.916C41.2933 153.434 40.8389 149.84 42.2726 145.231L46.2403 140.245L46.3636 140.251C47.8638 140.33 83.1343 142.307 85.5521 152.947C87.5907 161.917 91.3137 178.641 92.4061 183.554C92.5168 184.062 92.441 184.594 92.1926 185.052C91.9441 185.51 91.5394 185.863 91.0523 186.047L86.7134 187.674C86.4717 187.766 86.2155 187.812 85.9572 187.812C85.518 187.812 85.0891 187.679 84.7273 187.43C84.3654 187.181 84.0875 186.828 83.9303 186.418Z" fill="#2F2E41"/>
<path d="M77.6764 189.786L66.8873 161.462C64.4667 162.031 44.168 166.522 37.3694 159.283C35.0394 156.802 34.585 153.207 36.0187 148.599L39.9864 143.612L40.1097 143.619C41.6099 143.698 76.8804 145.675 79.2982 156.315C81.3368 165.285 85.0598 182.009 86.1522 186.921C86.2629 187.43 86.1871 187.962 85.9387 188.42C85.6902 188.878 85.2855 189.231 84.7984 189.415L80.4595 191.042C80.2178 191.133 79.9616 191.18 79.7033 191.18C79.2641 191.18 78.8352 191.047 78.4734 190.798C78.1115 190.549 77.8336 190.196 77.6764 189.786Z" fill="#2F2E41"/>
<path d="M67.9715 134.834C66.3725 134.833 64.801 134.417 63.4109 133.627C62.0208 132.837 60.8597 131.699 60.0413 130.325L56.6149 124.52L64.7591 120.068L68.2172 124.81L91.6806 122.338C91.7949 122.131 91.9233 121.933 92.0651 121.744C92.5153 121.151 93.0853 120.66 93.7379 120.303C94.3905 119.945 95.1111 119.729 95.8527 119.668C96.5977 119.605 97.3477 119.701 98.0524 119.951C98.757 120.201 99.4001 120.599 99.9383 121.118C100.801 121.945 101.359 123.04 101.521 124.225C101.684 125.409 101.441 126.614 100.833 127.643C100.452 128.285 99.9407 128.838 99.3312 129.268C98.7218 129.698 98.0285 129.994 97.2966 130.137C96.5648 130.28 95.8109 130.267 95.0845 130.099C94.3581 129.93 93.6754 129.61 93.0814 129.159C92.9437 129.054 92.8115 128.941 92.6855 128.822L70.2125 134.553C69.4802 134.74 68.7273 134.834 67.9715 134.834Z" fill="#A0616A"/>
<path d="M35.8661 150.094C35.5414 149.86 35.2878 149.541 35.1334 149.172C34.979 148.802 34.9298 148.398 34.9913 148.002C36.3298 139.177 34.7897 126.535 33.262 117.483C32.9492 115.647 33.0709 113.763 33.6173 111.982C34.1637 110.201 35.1195 108.572 36.4083 107.227C37.6971 105.882 39.2829 104.857 41.0388 104.236C42.7948 103.614 44.6719 103.412 46.5199 103.646C48.1278 103.858 49.7205 104.172 51.2887 104.586C53.8935 105.242 56.1976 106.765 57.8222 108.904C59.4468 111.044 60.2952 113.672 60.2279 116.358C59.9995 125.092 61.7728 135.99 62.5459 140.27C62.5986 140.564 62.5903 140.866 62.5213 141.156C62.4523 141.447 62.3241 141.72 62.1448 141.959C61.969 142.195 61.7457 142.392 61.4893 142.537C61.2328 142.682 60.9489 142.772 60.6557 142.801C52.0887 143.675 42.8502 147.854 38.1058 150.266C37.8008 150.424 37.4629 150.506 37.1198 150.507C36.6687 150.506 36.2298 150.361 35.8661 150.094Z" fill="#CCCCCC"/>
<path d="M58.9916 127.332C58.7268 127.228 58.4853 127.072 58.281 126.874C58.0768 126.676 57.9138 126.44 57.8016 126.178L53.0239 115.14C52.7346 114.473 52.5796 113.756 52.5676 113.029C52.5557 112.302 52.6871 111.58 52.9544 110.904C53.2216 110.228 53.6195 109.612 54.1252 109.089C54.6309 108.567 55.2345 108.15 55.9016 107.861C56.5687 107.572 57.2861 107.418 58.0129 107.406C58.7397 107.395 59.4616 107.527 60.1374 107.795C60.8131 108.063 61.4295 108.461 61.9512 108.967C62.4729 109.474 62.8897 110.078 63.1779 110.745L67.9557 121.783C68.183 122.31 68.192 122.906 67.9808 123.439C67.7696 123.973 67.3554 124.401 66.8291 124.63L60.6483 127.306C60.3877 127.419 60.107 127.48 59.8226 127.485C59.5382 127.489 59.2557 127.437 58.9916 127.332Z" fill="#CCCCCC"/>
<path d="M45.6408 99.8907C52.1663 99.8907 57.4563 94.6002 57.4563 88.074C57.4563 81.5478 52.1663 76.2573 45.6408 76.2573C39.1152 76.2573 33.8252 81.5478 33.8252 88.074C33.8252 94.6002 39.1152 99.8907 45.6408 99.8907Z" fill="#A0616A"/>
<path d="M38.5003 98.5723C38.333 98.7655 38.1285 98.9232 37.8992 99.0361C37.6698 99.1489 37.4201 99.2146 37.1649 99.2293C36.9097 99.2439 36.6541 99.2073 36.4133 99.1215C36.1725 99.0356 35.9514 98.9024 35.763 98.7296C33.1283 96.5967 31.0387 93.8676 29.6667 90.7677C28.1306 87.1059 27.9055 82.6373 29.6537 79.205C31.1316 76.3035 33.7845 74.4565 36.4329 72.947C37.4482 72.3072 38.5609 71.8368 39.7272 71.5545C40.3163 71.4207 40.9269 71.4119 41.5197 71.5285C42.1124 71.645 42.6742 71.8844 43.1688 72.2313C43.6936 72.6304 44.0998 73.165 44.3437 73.7776C44.5877 74.3903 44.6601 75.0577 44.5533 75.7084C45.7648 74.1124 47.398 72.8865 49.2688 72.1691C50.4167 71.675 51.6992 71.5891 52.9027 71.9257C54.6035 72.4934 55.8625 74.2111 56.563 76.0566C57.1296 77.4694 57.3371 79.0008 57.167 80.5135C57.0928 81.2358 56.8725 81.9355 56.5195 82.57C56.1664 83.2045 55.688 83.7606 55.1133 84.2044C53.7259 85.1617 51.9386 85.0645 50.3251 84.6408C48.7117 84.2171 47.1458 83.4986 45.5042 83.2983C43.8626 83.098 42.0433 83.5323 41.0652 84.9966C40.3764 86.0279 40.2141 87.3863 40.0735 88.6812L39.3425 95.4161C39.2909 96.3797 39.0833 97.3286 38.7279 98.2257C38.6678 98.3508 38.5912 98.4674 38.5003 98.5723Z" fill="#2F2E41"/>
<path d="M81.2373 171.351H62.0559C61.745 171.352 61.4381 171.282 61.1584 171.146C60.8787 171.011 60.6336 170.813 60.4418 170.569C60.2457 170.321 60.1089 170.031 60.0416 169.722C59.9743 169.414 59.9784 169.093 60.0535 168.786C61.8477 161.27 61.8477 153.437 60.0534 145.921C59.9783 145.614 59.9742 145.294 60.0416 144.985C60.1089 144.676 60.2457 144.387 60.4418 144.139C60.6336 143.894 60.8787 143.697 61.1584 143.561C61.4381 143.425 61.745 143.355 62.0559 143.356H81.2373C81.7275 143.357 82.2013 143.532 82.5746 143.85C82.9479 144.168 83.1963 144.607 83.2757 145.091C84.5268 153.218 84.5268 161.489 83.2757 169.616C83.1963 170.1 82.9479 170.54 82.5746 170.857C82.2013 171.175 81.7275 171.35 81.2373 171.351Z" fill="#CCCCCC"/>
<path d="M66.5154 153.785V153.222C66.5158 152.839 66.668 152.472 66.9385 152.201C67.2091 151.931 67.576 151.779 67.9586 151.778H78.0243C78.4069 151.779 78.7738 151.931 79.0443 152.201C79.3149 152.472 79.4671 152.839 79.4675 153.222V153.785C79.4671 154.168 79.3149 154.535 79.0443 154.806C78.7738 155.076 78.4069 155.228 78.0243 155.229H67.9586C67.576 155.228 67.2091 155.076 66.9385 154.806C66.668 154.535 66.5158 154.168 66.5154 153.785Z" fill="white"/>
<path d="M66.5154 159.725V159.161C66.5158 158.778 66.668 158.411 66.9385 158.14C67.2091 157.87 67.576 157.718 67.9586 157.717H78.0243C78.4069 157.718 78.7738 157.87 79.0443 158.14C79.3149 158.411 79.4671 158.778 79.4675 159.161V159.725C79.4671 160.107 79.3149 160.474 79.0443 160.745C78.7738 161.015 78.4069 161.168 78.0243 161.168H67.9586C67.576 161.168 67.2091 161.015 66.9385 160.745C66.668 160.474 66.5158 160.107 66.5154 159.725Z" fill="white"/>
<path d="M72.7031 136.589C72.5038 136.337 72.3647 136.042 72.2963 135.728C72.2279 135.414 72.232 135.089 72.3083 134.777C74.1321 127.137 74.1321 119.176 72.3082 111.536C72.2319 111.224 72.2278 110.898 72.2963 110.584C72.3647 110.271 72.5039 109.976 72.7031 109.724C72.8981 109.476 73.1473 109.275 73.4316 109.137C73.7159 108.999 74.0278 108.928 74.3438 108.929H93.8402C94.3384 108.93 94.8201 109.108 95.1995 109.431C95.5789 109.754 95.8314 110.201 95.912 110.692C97.1838 118.953 97.1838 127.36 95.912 135.621C95.8314 136.112 95.5789 136.559 95.1995 136.882C94.8201 137.205 94.3384 137.383 93.8402 137.384H74.3437C74.0278 137.385 73.7159 137.314 73.4316 137.176C73.1473 137.038 72.8981 136.837 72.7031 136.589Z" fill="#2594EA"/>
<path d="M90.078 119.428H79.8075C79.4248 119.428 79.058 119.275 78.7874 119.005C78.5169 118.734 78.3647 118.367 78.3643 117.985V117.372C78.3647 116.989 78.5169 116.622 78.7874 116.352C79.058 116.081 79.4248 115.929 79.8075 115.928H90.078C90.4606 115.929 90.8275 116.081 91.098 116.352C91.3686 116.622 91.5208 116.989 91.5212 117.372V117.985C91.5208 118.367 91.3686 118.734 91.098 119.005C90.8275 119.275 90.4606 119.428 90.078 119.428Z" fill="white"/>
<path d="M90.078 125.465H79.8075C79.4248 125.464 79.058 125.312 78.7874 125.042C78.5169 124.771 78.3647 124.404 78.3643 124.021V123.409C78.3647 123.026 78.5169 122.659 78.7874 122.388C79.058 122.118 79.4248 121.966 79.8075 121.965H90.078C90.4606 121.966 90.8275 122.118 91.098 122.388C91.3686 122.659 91.5208 123.026 91.5212 123.409V124.021C91.5208 124.404 91.3686 124.771 91.098 125.042C90.8275 125.312 90.4606 125.464 90.078 125.465Z" fill="white"/>
<path d="M63.7577 147.173C63.0552 146.927 62.4122 146.536 61.8707 146.026C61.3291 145.515 60.9011 144.897 60.6144 144.21C60.5483 144.05 60.4906 143.886 60.4417 143.72L35.2711 136.554C34.1895 136.242 33.2374 135.589 32.5561 134.693C31.8749 133.796 31.5008 132.704 31.4894 131.578L31.428 121.859L40.7058 122.107L41.3105 127.945L62.8339 137.609C63.0365 137.488 63.2473 137.381 63.4648 137.29C64.2576 136.957 65.1196 136.823 65.976 136.898C66.8324 136.973 67.6576 137.256 68.3804 137.721C69.1032 138.186 69.7019 138.821 70.1247 139.57C70.5475 140.318 70.7817 141.158 70.8072 142.018C70.8327 142.877 70.6486 143.73 70.2708 144.502C69.8931 145.275 69.333 145.943 68.639 146.451C67.9451 146.958 67.138 147.289 66.2875 147.415C65.4371 147.541 64.5688 147.457 63.7577 147.173Z" fill="#A0616A"/>
<path d="M31.5722 126.126C31.3833 125.913 31.2384 125.665 31.1459 125.396C31.0534 125.127 31.0152 124.842 31.0335 124.558L31.7715 112.553C31.8149 111.827 32.0011 111.117 32.3193 110.463C32.6375 109.809 33.0816 109.224 33.626 108.742C34.1705 108.259 34.8047 107.889 35.4923 107.653C36.18 107.416 36.9076 107.317 37.6335 107.361C38.3594 107.406 39.0694 107.593 39.7228 107.913C40.3762 108.232 40.9603 108.677 41.4415 109.223C41.9228 109.768 42.2918 110.403 42.5275 111.091C42.7631 111.779 42.8608 112.507 42.8149 113.233L42.0771 125.238C42.0411 125.811 41.7795 126.346 41.3495 126.726C40.9196 127.106 40.3564 127.3 39.7836 127.266L33.0613 126.853C32.7774 126.836 32.4996 126.763 32.2439 126.638C31.9883 126.514 31.76 126.339 31.5722 126.126Z" fill="#CCCCCC"/>
<path d="M139.761 61.6417H100.314C99.1658 61.6404 98.0653 61.1837 97.2536 60.372C96.4419 59.5602 95.9853 58.4596 95.984 57.3116V14.4922C95.9853 13.3442 96.4419 12.2436 97.2536 11.4318C98.0653 10.6201 99.1658 10.1634 100.314 10.1621H139.761C140.909 10.1634 142.01 10.6201 142.821 11.4318C143.633 12.2436 144.09 13.3442 144.091 14.4922V57.3116C144.09 58.4596 143.633 59.5602 142.821 60.372C142.01 61.1837 140.909 61.6403 139.761 61.6417ZM100.314 11.1243C99.4208 11.1253 98.5649 11.4805 97.9336 12.1119C97.3023 12.7432 96.9471 13.5993 96.9461 14.4922V57.3116C96.9471 58.2045 97.3023 59.0605 97.9336 59.6919C98.5649 60.3233 99.4208 60.6784 100.314 60.6794H139.761C140.654 60.6784 141.51 60.3233 142.141 59.6919C142.773 59.0605 143.128 58.2045 143.129 57.3116V14.4922C143.128 13.5993 142.773 12.7432 142.141 12.1119C141.51 11.4805 140.654 11.1253 139.761 11.1243H100.314Z" fill="#3F3D56"/>
<path d="M211.922 61.6417H172.474C171.326 61.6404 170.226 61.1837 169.414 60.372C168.602 59.5602 168.146 58.4596 168.145 57.3116V14.4922C168.146 13.3442 168.602 12.2436 169.414 11.4318C170.226 10.6201 171.326 10.1634 172.474 10.1621H211.922C213.07 10.1634 214.17 10.6201 214.982 11.4318C215.794 12.2436 216.25 13.3442 216.252 14.4922V57.3116C216.25 58.4596 215.794 59.5602 214.982 60.372C214.17 61.1837 213.07 61.6403 211.922 61.6417ZM172.474 11.1243C171.581 11.1253 170.725 11.4805 170.094 12.1119C169.463 12.7432 169.108 13.5993 169.107 14.4922V57.3116C169.108 58.2045 169.463 59.0605 170.094 59.6919C170.725 60.3233 171.581 60.6784 172.474 60.6794H211.922C212.815 60.6784 213.671 60.3233 214.302 59.6919C214.933 59.0605 215.288 58.2045 215.289 57.3116V14.4922C215.288 13.5993 214.933 12.7432 214.302 12.1119C213.671 11.4805 212.815 11.1253 211.922 11.1243H172.474Z" fill="#3F3D56"/>
<path d="M108.259 27.9635H104.41C103.836 27.9628 103.286 27.7345 102.88 27.3287C102.474 26.9228 102.246 26.3725 102.245 25.7985V21.9495C102.246 21.3755 102.474 20.8252 102.88 20.4193C103.286 20.0134 103.836 19.7851 104.41 19.7845H108.259C108.833 19.7851 109.383 20.0134 109.789 20.4193C110.195 20.8252 110.423 21.3755 110.423 21.9495V25.7985C110.423 26.3725 110.195 26.9228 109.789 27.3287C109.383 27.7345 108.833 27.9628 108.259 27.9635Z" fill="#2594EA"/>
<path d="M108.259 39.9914H104.41C103.836 39.9907 103.286 39.7624 102.88 39.3565C102.474 38.9507 102.246 38.4004 102.245 37.8263V33.9774C102.246 33.4034 102.474 32.8531 102.88 32.4472C103.286 32.0413 103.836 31.813 104.41 31.8124H108.259C108.833 31.813 109.383 32.0413 109.789 32.4472C110.195 32.8531 110.423 33.4034 110.423 33.9774V37.8263C110.423 38.4004 110.195 38.9507 109.789 39.3565C109.383 39.7624 108.833 39.9907 108.259 39.9914Z" fill="#CCCCCC"/>
<path d="M136.387 25.6238H118.419C118.036 25.6233 117.67 25.4711 117.399 25.2005C117.128 24.93 116.976 24.5631 116.976 24.1804V23.5675C116.976 23.1848 117.128 22.8179 117.399 22.5474C117.67 22.2768 118.036 22.1246 118.419 22.1241H136.387C136.769 22.1246 137.136 22.2768 137.407 22.5474C137.677 22.8179 137.829 23.1848 137.83 23.5675V24.1804C137.829 24.5631 137.677 24.93 137.407 25.2005C137.136 25.4711 136.769 25.6233 136.387 25.6238Z" fill="#2594EA"/>
<path d="M180.751 27.2088H176.902C176.328 27.2082 175.778 26.9799 175.372 26.574C174.966 26.1681 174.738 25.6178 174.737 25.0438V21.1949C174.738 20.6209 174.966 20.0706 175.372 19.6647C175.778 19.2588 176.328 19.0305 176.902 19.0298H180.751C181.325 19.0305 181.875 19.2588 182.281 19.6647C182.687 20.0706 182.915 20.6209 182.916 21.1949V25.0438C182.915 25.6178 182.687 26.1681 182.281 26.574C181.875 26.9799 181.325 27.2082 180.751 27.2088Z" fill="#CCCCCC"/>
<path d="M208.879 24.8691H190.911C190.529 24.8687 190.162 24.7165 189.891 24.4459C189.621 24.1753 189.469 23.8084 189.468 23.4258V22.8129C189.469 22.4302 189.621 22.0633 189.891 21.7927C190.162 21.5221 190.529 21.3699 190.911 21.3695H208.879C209.262 21.3699 209.628 21.5221 209.899 21.7927C210.17 22.0633 210.322 22.4302 210.322 22.8129V23.4258C210.322 23.8084 210.17 24.1753 209.899 24.4459C209.628 24.7165 209.262 24.8687 208.879 24.8691Z" fill="#CCCCCC"/>
<path d="M208.879 36.4159H175.517C175.134 36.4155 174.768 36.2633 174.497 35.9927C174.226 35.7221 174.074 35.3553 174.074 34.9726V34.3597C174.074 33.977 174.226 33.6101 174.497 33.3395C174.768 33.0689 175.134 32.9167 175.517 32.9163H208.879C209.262 32.9167 209.628 33.0689 209.899 33.3395C210.17 33.6101 210.322 33.977 210.322 34.3597V34.9726C210.322 35.3553 210.17 35.7221 209.899 35.9927C209.628 36.2633 209.262 36.4155 208.879 36.4159Z" fill="#2594EA"/>
<path d="M208.879 44.5949H175.517C175.134 44.5945 174.768 44.4423 174.497 44.1717C174.226 43.9011 174.074 43.5343 174.074 43.1516V42.5387C174.074 42.156 174.226 41.7891 174.497 41.5185C174.768 41.248 175.134 41.0958 175.517 41.0953H208.879C209.262 41.0958 209.628 41.248 209.899 41.5185C210.17 41.7891 210.322 42.156 210.322 42.5387V43.1516C210.322 43.5343 210.17 43.9011 209.899 44.1717C209.628 44.4423 209.262 44.5945 208.879 44.5949Z" fill="#CCCCCC"/>
<path d="M208.879 52.774H175.517C175.134 52.7735 174.768 52.6213 174.497 52.3508C174.226 52.0802 174.074 51.7133 174.074 51.3306V50.7177C174.074 50.335 174.226 49.9682 174.497 49.6976C174.768 49.427 175.134 49.2748 175.517 49.2744H208.879C209.262 49.2748 209.628 49.427 209.899 49.6976C210.17 49.9682 210.322 50.335 210.322 50.7177V51.3306C210.322 51.7133 210.17 52.0802 209.899 52.3508C209.628 52.6213 209.262 52.7735 208.879 52.774Z" fill="#CCCCCC"/>
<path d="M284.082 61.6417H244.635C243.487 61.6404 242.386 61.1837 241.575 60.372C240.763 59.5602 240.306 58.4596 240.305 57.3116V14.4922C240.306 13.3442 240.763 12.2436 241.575 11.4318C242.386 10.6201 243.487 10.1634 244.635 10.1621H284.082C285.23 10.1634 286.331 10.6201 287.142 11.4318C287.954 12.2436 288.411 13.3442 288.412 14.4922V57.3116C288.411 58.4596 287.954 59.5602 287.142 60.372C286.331 61.1837 285.23 61.6403 284.082 61.6417ZM244.635 11.1243C243.742 11.1253 242.886 11.4805 242.255 12.1119C241.623 12.7432 241.268 13.5993 241.267 14.4922V57.3116C241.268 58.2045 241.623 59.0605 242.255 59.6919C242.886 60.3233 243.742 60.6784 244.635 60.6794H284.082C284.975 60.6784 285.831 60.3233 286.462 59.6919C287.094 59.0605 287.449 58.2045 287.45 57.3116V14.4922C287.449 13.5993 287.094 12.7432 286.462 12.1119C285.831 11.4805 284.975 11.1253 284.082 11.1243H244.635Z" fill="#3F3D56"/>
<path d="M281.039 24.8691H263.072C262.689 24.8687 262.322 24.7165 262.052 24.4459C261.781 24.1753 261.629 23.8084 261.629 23.4258V22.8129C261.629 22.4302 261.781 22.0633 262.052 21.7927C262.322 21.5221 262.689 21.3699 263.072 21.3695H281.039C281.422 21.3699 281.789 21.5221 282.059 21.7927C282.33 22.0633 282.482 22.4302 282.483 22.8129V23.4258C282.482 23.8084 282.33 24.1753 282.059 24.4459C281.789 24.7165 281.422 24.8687 281.039 24.8691Z" fill="#CCCCCC"/>
<path d="M281.039 36.4159H247.678C247.295 36.4155 246.928 36.2633 246.658 35.9927C246.387 35.7221 246.235 35.3553 246.234 34.9726V34.3597C246.235 33.977 246.387 33.6101 246.658 33.3395C246.928 33.0689 247.295 32.9167 247.678 32.9163H281.039C281.422 32.9167 281.789 33.0689 282.06 33.3395C282.33 33.6101 282.482 33.977 282.483 34.3597V34.9726C282.482 35.3553 282.33 35.7221 282.06 35.9927C281.789 36.2633 281.422 36.4155 281.039 36.4159Z" fill="#CCCCCC"/>
<path d="M281.039 44.5949H247.678C247.295 44.5945 246.928 44.4423 246.658 44.1717C246.387 43.9011 246.235 43.5343 246.234 43.1516V42.5387C246.235 42.156 246.387 41.7891 246.658 41.5185C246.928 41.248 247.295 41.0958 247.678 41.0953H281.039C281.422 41.0958 281.789 41.248 282.06 41.5185C282.33 41.7891 282.482 42.156 282.483 42.5387V43.1516C282.482 43.5343 282.33 43.9011 282.06 44.1717C281.789 44.4423 281.422 44.5945 281.039 44.5949Z" fill="#CCCCCC"/>
<path d="M281.039 52.774H247.678C247.295 52.7735 246.928 52.6213 246.658 52.3508C246.387 52.0802 246.235 51.7133 246.234 51.3306V50.7177C246.235 50.335 246.387 49.9682 246.658 49.6976C246.928 49.427 247.295 49.2748 247.678 49.2744H281.039C281.422 49.2748 281.789 49.427 282.06 49.6976C282.33 49.9682 282.482 50.335 282.483 50.7177V51.3306C282.482 51.7133 282.33 52.0802 282.06 52.3508C281.789 52.6213 281.422 52.7735 281.039 52.774Z" fill="#CCCCCC"/>
<path d="M136.387 37.6517H118.419C118.036 37.6513 117.67 37.4991 117.399 37.2285C117.128 36.9579 116.976 36.591 116.976 36.2084V35.5955C116.976 35.2128 117.128 34.8459 117.399 34.5753C117.67 34.3047 118.036 34.1525 118.419 34.1521H136.387C136.769 34.1525 137.136 34.3047 137.407 34.5753C137.677 34.8459 137.829 35.2128 137.83 35.5955V36.2084C137.829 36.591 137.677 36.9579 137.407 37.2285C137.136 37.4991 136.769 37.6513 136.387 37.6517Z" fill="#CCCCCC"/>
<path d="M108.259 52.0193H104.41C103.836 52.0187 103.286 51.7904 102.88 51.3845C102.474 50.9786 102.246 50.4283 102.245 49.8543V46.0054C102.246 45.4314 102.474 44.881 102.88 44.4752C103.286 44.0693 103.836 43.841 104.41 43.8403H108.259C108.833 43.841 109.383 44.0693 109.789 44.4752C110.195 44.881 110.423 45.4314 110.423 46.0054V49.8543C110.423 50.4283 110.195 50.9786 109.789 51.3845C109.383 51.7904 108.833 52.0187 108.259 52.0193Z" fill="#CCCCCC"/>
<path d="M136.387 49.6796H118.419C118.036 49.6792 117.67 49.527 117.399 49.2564C117.128 48.9858 116.976 48.6189 116.976 48.2363V47.6233C116.976 47.2407 117.128 46.8738 117.399 46.6032C117.67 46.3326 118.036 46.1804 118.419 46.18H136.387C136.769 46.1804 137.136 46.3326 137.407 46.6032C137.677 46.8738 137.829 47.2407 137.83 47.6233V48.2363C137.829 48.6189 137.677 48.9858 137.407 49.2564C137.136 49.527 136.769 49.6792 136.387 49.6796Z" fill="#CCCCCC"/>
<path d="M255.217 22.6712C255.217 22.6601 255.218 22.6494 255.218 22.6382C255.218 22.0696 255.106 21.5065 254.889 20.9812C254.671 20.4558 254.352 19.9785 253.95 19.5764C253.548 19.1743 253.071 18.8554 252.545 18.6378C252.02 18.4202 251.457 18.3082 250.889 18.3082V22.6712H255.217Z" fill="#2594EA"/>
<path d="M250.407 23.1523V18.7893C249.552 18.789 248.717 19.0419 248.005 19.516C247.294 19.9902 246.738 20.6644 246.409 21.4537C246.081 22.2429 245.993 23.1119 246.157 23.9511C246.321 24.7902 246.73 25.5619 247.332 26.169C247.934 26.776 248.703 27.1911 249.54 27.362C250.378 27.533 251.248 27.452 252.04 27.1294C252.831 26.8067 253.51 26.2568 253.99 25.5491C254.469 24.8413 254.729 24.0074 254.735 23.1523H250.407Z" fill="#CCCCCC"/>
</g>
<defs>
<clipPath id="clip0_211_636">
<rect width="331" height="206" fill="white"/>
</clipPath>
</defs>
</svg>
