<svg width="410" height="434" viewBox="0 0 410 434" fill="none" xmlns="http://www.w3.org/2000/svg">
<g clip-path="url(#clip0_211_584)">
<path d="M180.327 377.384C180.174 394.835 178.898 412.258 176.507 429.544C176.423 430.151 176.332 430.758 176.248 431.365L13.0873 430.452C12.6082 429.849 12.1367 429.239 11.6799 428.622C10.1566 426.578 8.7289 424.477 7.41828 422.303C1.1189 411.83 -1.76503 399.568 1.12494 391.108L1.17669 390.977C1.80053 389.124 2.78356 387.413 4.06933 385.942C10.6584 378.513 23.9809 379.751 36.0707 385.748C25.2269 373.859 16.5924 358.856 15.9364 345.465C15.2931 332.403 22.1119 323.072 29.5077 315.142C29.7503 314.88 29.993 314.625 30.2356 314.37C30.3534 314.239 30.4782 314.116 30.5956 313.984C36.3659 307.941 43.0931 301.984 52.8303 302.705C63.5094 303.497 75.3493 312.456 83.651 322.897C91.9527 333.33 97.4694 345.182 103.061 356.749C108.66 368.309 114.718 380.164 123.702 390.045C111.533 374.627 101.722 357.085 98.0976 340.025C94.4733 322.965 97.663 306.579 108.508 298.544C111.801 296.18 115.611 294.64 119.619 294.054C120.087 293.976 120.563 293.912 121.045 293.857C131.085 292.712 143.072 296.19 153.271 304.504C164.503 313.658 172.29 327.228 176.165 340.111C180.039 352.993 180.452 365.395 180.327 377.384Z" fill="#F2F2F2"/>
<path d="M73.5782 430.791L70.4583 430.773C69.4676 430.153 68.4723 429.54 67.4723 428.934C66.8532 428.543 66.227 428.166 65.6004 427.782C55.2516 421.451 44.838 415.378 34.3597 409.564C23.891 403.745 13.3696 398.194 2.79559 392.911C2.5153 392.789 2.28663 392.572 2.14931 392.298C2.01199 392.025 1.97469 391.711 2.04391 391.413C2.05524 391.374 2.0728 391.337 2.09591 391.304C2.2434 391.026 2.57303 390.911 3.05412 391.148C4.35109 391.8 5.65556 392.451 6.95244 393.117C17.5553 398.49 28.1127 404.132 38.6246 410.042C49.1293 415.949 59.574 422.117 69.959 428.545C70.1773 428.678 70.396 428.819 70.6143 428.952C71.6047 429.565 72.5879 430.178 73.5782 430.791Z" fill="white"/>
<path d="M113.806 431.016L111.877 431.005C111.441 430.395 111.014 429.785 110.579 429.175C100.355 414.815 90.134 400.456 79.9149 386.096C63.1798 362.586 46.4498 339.077 29.7248 315.568C29.6257 315.442 29.552 315.297 29.5077 315.142C29.3647 314.622 29.7464 314.317 30.2357 314.371C30.442 314.4 30.6396 314.473 30.8153 314.585C30.9911 314.697 31.141 314.846 31.2551 315.02C40.6376 328.204 50.0178 341.383 59.3956 354.558C76.0435 377.949 92.689 401.339 109.332 424.725C110.391 426.21 111.449 427.702 112.508 429.186C112.943 429.796 113.378 430.406 113.806 431.016Z" fill="white"/>
<path d="M156.786 419.794C156.688 423.051 156.473 426.255 156.192 429.431C156.137 430.038 156.083 430.645 156.028 431.252L154.004 431.241C154.066 430.634 154.128 430.027 154.182 429.419C154.61 424.832 154.913 420.193 154.954 415.428C155.008 402.218 153.723 389.036 151.118 376.086C148.35 362.142 144.374 348.465 139.237 335.212C133.846 321.234 127.345 307.711 119.798 294.772C119.656 294.561 119.593 294.307 119.62 294.054C119.703 293.476 120.471 293.304 121.045 293.857C121.159 293.965 121.257 294.089 121.336 294.224C122.269 295.832 123.186 297.445 124.086 299.063C131.354 312.074 137.576 325.644 142.691 339.645C147.563 352.942 151.27 366.639 153.768 380.58C156.107 393.514 157.119 406.654 156.786 419.794Z" fill="white"/>
<path d="M280.117 222.346C279.297 221.102 278.215 220.054 276.947 219.275C275.678 218.496 274.255 218.004 272.777 217.836C271.298 217.667 269.801 217.825 268.391 218.299C266.98 218.773 265.69 219.551 264.612 220.578L232.475 203.963L234.473 222.681L264.684 235.589C266.527 237.288 268.928 238.252 271.432 238.297C273.937 238.342 276.371 237.466 278.273 235.833C280.175 234.201 281.414 231.926 281.754 229.44C282.094 226.955 281.511 224.43 280.117 222.346Z" fill="#FFB8B8"/>
<path d="M251.557 229.88C250.975 230.147 250.344 230.289 249.704 230.295C249.065 230.302 248.431 230.174 247.843 229.919L217.318 216.656C206.88 212.122 198.442 203.946 193.573 193.647L177.525 159.717C176.34 158.193 175.468 156.45 174.956 154.587C174.445 152.725 174.305 150.78 174.545 148.864C174.784 146.948 175.399 145.097 176.353 143.419C177.307 141.741 178.582 140.267 180.105 139.083C181.628 137.898 183.369 137.026 185.229 136.516C187.088 136.006 189.03 135.869 190.943 136.111C192.856 136.353 194.703 136.971 196.377 137.929C198.051 138.886 199.521 140.165 200.702 141.692L228.91 194.115L254.957 213.823C255.703 214.39 256.257 215.172 256.544 216.065C256.831 216.957 256.838 217.916 256.563 218.812L254.007 227.083C253.732 227.97 253.194 228.752 252.464 229.325C252.185 229.545 251.88 229.731 251.557 229.88Z" fill="#CCCCCC"/>
<path d="M176.819 119.813C190.547 119.813 201.676 108.666 201.676 94.9152C201.676 81.1644 190.547 70.0173 176.819 70.0173C163.09 70.0173 151.961 81.1644 151.961 94.9152C151.961 108.666 163.09 119.813 176.819 119.813Z" fill="#FFB8B8"/>
<path d="M186.887 421.531H199.294L205.197 373.594H186.884L186.887 421.531Z" fill="#FFB8B8"/>
<path d="M223.224 433.069L184.228 433.071L184.228 417.98L208.157 417.979C212.152 417.979 215.985 419.569 218.81 422.399C221.636 425.229 223.223 429.067 223.224 433.069Z" fill="#2F2E41"/>
<path d="M146.405 421.531H158.812L164.715 373.594H146.402L146.405 421.531Z" fill="#FFB8B8"/>
<path d="M182.741 433.069L143.746 433.071L143.745 417.98L167.674 417.979C171.67 417.979 175.502 419.569 178.328 422.399C181.154 425.229 182.741 429.067 182.741 433.069Z" fill="#2F2E41"/>
<path d="M142.072 407.81C141.644 407.321 141.326 406.746 141.139 406.124C140.951 405.502 140.898 404.846 140.984 404.202L162.707 241.009L216.679 250.19L222.439 246.728L207.544 401.567C207.42 402.612 206.94 403.583 206.185 404.315C205.43 405.047 204.445 405.495 203.398 405.585L187.056 406.949C186.406 407.004 185.753 406.918 185.139 406.697C184.525 406.477 183.966 406.127 183.499 405.671C183.032 405.215 182.668 404.664 182.432 404.055C182.196 403.447 182.093 402.794 182.131 402.142L186.362 328.402C186.369 328.277 186.33 328.153 186.252 328.055C186.174 327.957 186.062 327.892 185.938 327.872C185.815 327.851 185.688 327.878 185.583 327.946C185.477 328.014 185.401 328.119 185.368 328.24L164.436 405.992C164.174 406.96 163.602 407.815 162.807 408.424C162.013 409.034 161.04 409.365 160.039 409.367H145.499C144.85 409.367 144.208 409.228 143.617 408.959C143.026 408.691 142.499 408.299 142.072 407.81Z" fill="#2F2E41"/>
<path d="M179.45 252.432C178.83 251.87 178.034 251.543 177.199 251.508C176.364 251.473 175.543 251.733 174.879 252.241L164.089 260.648C163.501 261.106 162.811 261.414 162.077 261.543C161.344 261.672 160.59 261.619 159.882 261.388C159.174 261.157 158.533 260.755 158.016 260.219C157.499 259.682 157.121 259.026 156.916 258.309C151.623 239.743 139.632 193.008 142.586 160.114C144.26 141.47 160.334 127.299 178.417 128.488C190.78 129.314 198.914 136.457 202.591 149.72C211.622 182.283 221.545 242.013 223.443 253.656C223.593 254.56 223.467 255.487 223.081 256.318C222.695 257.148 222.067 257.842 221.281 258.308C216.175 261.378 210.342 263.022 204.388 263.07C197.183 263.07 188.544 260.557 179.45 252.432Z" fill="#CCCCCC"/>
<path d="M183.521 264.015C183.642 262.53 183.436 261.036 182.918 259.639C182.4 258.242 181.583 256.976 180.524 255.929C179.464 254.883 178.189 254.082 176.787 253.583C175.385 253.083 173.891 252.898 172.41 253.04L157.359 220.101L147.399 236.064L163.218 264.896C163.621 267.373 164.916 269.615 166.859 271.199C168.802 272.782 171.258 273.597 173.76 273.488C176.263 273.38 178.639 272.355 180.438 270.609C182.237 268.863 183.334 266.517 183.521 264.015Z" fill="#FFB8B8"/>
<path d="M156.406 252.289C155.784 252.14 155.2 251.861 154.692 251.471C154.185 251.081 153.765 250.589 153.46 250.025L137.612 220.72C132.192 210.701 130.59 199.051 133.104 187.937L141.381 151.319C141.388 149.388 141.776 147.477 142.521 145.696C143.266 143.915 144.354 142.299 145.723 140.939C147.092 139.58 148.716 138.504 150.5 137.773C152.285 137.042 154.196 136.671 156.123 136.681C158.051 136.69 159.958 137.08 161.736 137.828C163.513 138.576 165.126 139.668 166.482 141.041C167.837 142.413 168.91 144.04 169.638 145.829C170.365 147.617 170.734 149.531 170.723 151.462L160.621 210.149L168.974 241.757C169.212 242.664 169.165 243.622 168.842 244.501C168.518 245.381 167.932 246.14 167.164 246.675L160.056 251.603C159.294 252.131 158.389 252.414 157.462 252.414C157.106 252.414 156.752 252.372 156.406 252.289Z" fill="#CCCCCC"/>
<path opacity="0.2" d="M168.706 176.212L159.598 214.733L172.755 247.172L163.646 215.747L168.706 176.212Z" fill="black"/>
<path d="M162.634 115.389C160.423 115.43 158.225 115.032 156.169 114.217C155.264 113.868 154.325 113.581 153.421 113.232C145.445 110.145 140.19 101.636 140.002 93.0723C139.814 84.509 144.241 76.1975 150.815 70.7201C157.39 65.2426 165.905 62.4304 174.432 61.7801C183.616 61.0796 193.958 63.4126 199.091 71.0741C200.457 73.1135 201.412 75.5877 200.603 78.0501C200.36 78.7931 199.927 79.4594 199.347 79.9822C197.055 82.0247 194.77 80.4889 192.433 80.3532C189.222 80.1667 186.337 82.7705 185.301 85.8207C184.264 88.871 184.72 92.229 185.557 95.3402C186.195 97.2123 186.597 99.1568 186.754 101.129C186.822 102.117 186.636 103.107 186.215 104.004C185.794 104.9 185.151 105.675 184.347 106.253C182.34 107.468 179.705 106.764 177.697 105.551C175.689 104.338 173.954 102.652 171.785 101.759C169.616 100.866 166.702 101.064 165.439 103.044C165.038 103.764 164.767 104.549 164.637 105.364C163.505 110.528 163.766 110.224 162.634 115.389Z" fill="#2F2E41"/>
<path d="M378.152 199.883C377.74 199.36 377.452 198.75 377.31 198.1C377.169 197.449 377.177 196.774 377.335 196.127C381.11 180.291 381.11 163.786 377.335 147.95C377.177 147.303 377.169 146.628 377.31 145.977C377.452 145.327 377.74 144.717 378.152 144.194C378.556 143.679 379.072 143.263 379.66 142.977C380.248 142.691 380.894 142.544 381.548 142.546H421.901C422.932 142.548 423.929 142.917 424.714 143.586C425.499 144.255 426.022 145.182 426.189 146.201C428.821 163.325 428.821 180.752 426.189 197.876C426.022 198.895 425.499 199.822 424.714 200.491C423.929 201.161 422.932 201.529 421.901 201.531H381.548C380.894 201.533 380.248 201.386 379.66 201.1C379.072 200.815 378.556 200.398 378.152 199.883Z" fill="#E6E6E6"/>
<path d="M315.728 57.3363C315.315 56.8139 315.027 56.204 314.886 55.5532C314.744 54.9025 314.753 54.2279 314.911 53.581C318.685 37.7445 318.685 21.2404 314.911 5.40394C314.753 4.75698 314.744 4.08244 314.886 3.43166C315.027 2.78089 315.315 2.17104 315.728 1.64856C316.131 1.13312 316.647 0.716722 317.235 0.43104C317.824 0.145358 318.469 -0.00205609 319.123 2.16625e-05H359.476C360.508 0.00210328 361.504 0.370601 362.29 1.03994C363.075 1.70928 363.598 2.63601 363.765 3.65518C366.397 20.7791 366.397 38.2058 363.765 55.3297C363.598 56.3489 363.075 57.2756 362.29 57.9449C361.504 58.6143 360.508 58.9828 359.476 58.9849H319.123C318.469 58.987 317.824 58.8395 317.235 58.5539C316.647 58.2682 316.131 57.8518 315.728 57.3363Z" fill="#E6E6E6"/>
<path d="M246.087 103.215C243.455 86.0911 243.455 68.6645 246.087 51.5405C246.254 50.5214 246.776 49.5947 247.562 48.9253C248.347 48.256 249.344 47.8875 250.375 47.8854H290.728C291.382 47.8833 292.028 48.0307 292.616 48.3164C293.205 48.6021 293.72 49.0185 294.124 49.5339C294.536 50.0564 294.824 50.6663 294.966 51.317C295.107 51.9678 295.099 52.6423 294.941 53.2893C291.166 69.1258 291.166 85.6298 294.941 101.466C295.099 102.113 295.107 102.788 294.966 103.439C294.824 104.089 294.536 104.699 294.124 105.222C293.72 105.737 293.205 106.154 292.616 106.439C292.028 106.725 291.382 106.872 290.728 106.87H250.375C249.344 106.868 248.347 106.5 247.562 105.83C246.776 105.161 246.254 104.234 246.087 103.215Z" fill="#FF6584"/>
<path d="M256.068 222.501C255.648 221.97 255.356 221.35 255.212 220.688C255.068 220.027 255.076 219.341 255.237 218.683C259.074 202.587 259.074 185.811 255.237 169.715C255.076 169.057 255.068 168.371 255.212 167.71C255.356 167.048 255.648 166.428 256.068 165.897C256.478 165.373 257.002 164.95 257.6 164.66C258.198 164.37 258.855 164.22 259.519 164.222H300.535C301.583 164.224 302.596 164.599 303.395 165.279C304.193 165.959 304.724 166.901 304.894 167.937C307.569 185.343 307.569 203.055 304.894 220.461C304.724 221.497 304.193 222.439 303.395 223.119C302.596 223.799 301.583 224.174 300.535 224.176H259.519C258.855 224.178 258.198 224.028 257.6 223.738C257.002 223.448 256.478 223.025 256.068 222.501Z" fill="#2594EA"/>
<path d="M12.7336 434H795.349C795.669 434 795.975 433.873 796.201 433.646C796.427 433.42 796.554 433.113 796.554 432.793C796.554 432.473 796.427 432.166 796.201 431.94C795.975 431.713 795.669 431.586 795.349 431.586H12.7336C12.5751 431.586 12.418 431.616 12.2714 431.677C12.1248 431.737 11.9915 431.826 11.8793 431.938C11.767 432.05 11.6779 432.184 11.6172 432.33C11.5564 432.477 11.5251 432.634 11.5251 432.793C11.5251 432.952 11.5564 433.109 11.6172 433.256C11.6779 433.402 11.767 433.536 11.8793 433.648C11.9915 433.76 12.1248 433.849 12.2714 433.909C12.418 433.97 12.5751 434 12.7336 434Z" fill="#3F3D56"/>
<path d="M292.62 186.343H271.013C270.208 186.342 269.436 186.022 268.867 185.451C268.298 184.881 267.978 184.108 267.977 183.302V182.011C267.978 181.204 268.298 180.431 268.867 179.861C269.436 179.291 270.208 178.97 271.013 178.969H292.62C293.425 178.97 294.197 179.291 294.766 179.861C295.335 180.431 295.655 181.204 295.656 182.011V183.302C295.655 184.108 295.335 184.881 294.766 185.451C294.197 186.022 293.425 186.342 292.62 186.343Z" fill="white"/>
<path d="M292.62 199.063H271.013C270.208 199.062 269.436 198.741 268.867 198.171C268.298 197.601 267.978 196.828 267.977 196.021V194.73C267.978 193.924 268.298 193.151 268.867 192.581C269.436 192.01 270.208 191.69 271.013 191.689H292.62C293.425 191.69 294.197 192.01 294.766 192.581C295.335 193.151 295.655 193.924 295.656 194.73V196.021C295.655 196.828 295.335 197.601 294.766 198.171C294.197 198.741 293.425 199.062 292.62 199.063Z" fill="white"/>
<path d="M278.31 72.9005H257.134C256.329 72.8996 255.558 72.5789 254.988 72.0088C254.419 71.4387 254.099 70.6656 254.098 69.8593V68.6714C254.099 67.8651 254.419 67.0921 254.988 66.522C255.558 65.9518 256.329 65.6311 257.134 65.6302H278.31C279.115 65.6311 279.887 65.9518 280.456 66.522C281.025 67.0921 281.345 67.8651 281.346 68.6714V69.8593C281.345 70.6656 281.025 71.4387 280.456 72.0088C279.887 72.5789 279.115 72.8996 278.31 72.9005Z" fill="white"/>
<path d="M413.601 162.239H392.425C391.62 162.238 390.849 161.917 390.28 161.347C389.71 160.777 389.39 160.004 389.389 159.197V158.009C389.39 157.203 389.71 156.43 390.28 155.86C390.849 155.289 391.62 154.969 392.425 154.968H413.601C414.406 154.969 415.178 155.289 415.747 155.86C416.316 156.43 416.636 157.203 416.637 158.009V159.197C416.636 160.004 416.316 160.777 415.747 161.347C415.178 161.917 414.406 162.238 413.601 162.239Z" fill="white"/>
<path d="M413.601 177.255H392.425C391.62 177.254 390.849 176.934 390.28 176.364C389.71 175.793 389.39 175.02 389.389 174.214V173.026C389.39 172.219 389.71 171.446 390.28 170.876C390.849 170.306 391.62 169.985 392.425 169.985H413.601C414.406 169.985 415.178 170.306 415.747 170.876C416.316 171.446 416.636 172.219 416.637 173.026V174.214C416.636 175.02 416.316 175.793 415.747 176.364C415.178 176.934 414.406 177.254 413.601 177.255Z" fill="white"/>
<path d="M413.601 192.272H392.425C391.62 192.271 390.849 191.95 390.28 191.38C389.71 190.81 389.39 190.037 389.389 189.231V188.042C389.39 187.236 389.71 186.463 390.28 185.893C390.849 185.323 391.62 185.002 392.425 185.001H413.601C414.406 185.002 415.178 185.323 415.747 185.893C416.316 186.463 416.636 187.236 416.637 188.042V189.231C416.636 190.037 416.316 190.81 415.747 191.38C415.178 191.95 414.406 192.271 413.601 192.272Z" fill="white"/>
<path d="M278.31 85.4145H257.134C256.329 85.4137 255.558 85.093 254.988 84.5228C254.419 83.9527 254.099 83.1797 254.098 82.3734V81.1849C254.099 80.3787 254.419 79.6056 254.988 79.0355C255.558 78.4654 256.329 78.1447 257.134 78.1438H278.31C279.115 78.1447 279.887 78.4654 280.456 79.0355C281.025 79.6056 281.345 80.3787 281.346 81.1849V82.3734C281.345 83.1797 281.025 83.9527 280.456 84.5228C279.887 85.093 279.115 85.4137 278.31 85.4145Z" fill="white"/>
<path d="M351.357 22.1953H330.182C329.377 22.1945 328.605 21.8738 328.036 21.3036C327.467 20.7335 327.146 19.9605 327.146 19.1542V17.9657C327.146 17.1594 327.467 16.3864 328.036 15.8163C328.605 15.2462 329.377 14.9255 330.182 14.9246H351.357C352.162 14.9255 352.934 15.2462 353.503 15.8163C354.072 16.3864 354.393 17.1594 354.393 17.9657V19.1542C354.393 19.9605 354.072 20.7335 353.503 21.3036C352.934 21.8738 352.162 22.1945 351.357 22.1953Z" fill="white"/>
</g>
<defs>
<clipPath id="clip0_211_584">
<rect width="410" height="434" fill="white"/>
</clipPath>
</defs>
</svg>
