<svg width="773" height="370" viewBox="0 0 773 370" fill="none" xmlns="http://www.w3.org/2000/svg">
<g clip-path="url(#clip0_211_556)">
<path d="M603.824 55.5887H414.275V51.6787H328.326V55.5887H137.996C134.595 55.5887 131.334 56.9409 128.929 59.3478C126.525 61.7547 125.174 65.0191 125.174 68.4229V328.205C125.174 331.608 126.525 334.873 128.929 337.28C131.334 339.687 134.595 341.039 137.996 341.039H603.824C607.225 341.039 610.486 339.687 612.891 337.28C615.296 334.873 616.646 331.608 616.646 328.205V68.4214C616.646 65.0179 615.295 61.7538 612.89 59.3473C610.486 56.9407 607.224 55.5887 603.824 55.5887Z" fill="#3F3D56"/>
<path d="M599.455 78.2679H142.365V336.345H599.455V78.2679Z" fill="#E6E6E6"/>
<path d="M580.227 91.9159H161.749V314.991H580.227V91.9159Z" fill="white"/>
<path d="M370.519 71.2303C373.108 71.2303 375.207 69.1294 375.207 66.5378C375.207 63.9462 373.108 61.8453 370.519 61.8453C367.93 61.8453 365.831 63.9462 365.831 66.5378C365.831 69.1294 367.93 71.2303 370.519 71.2303Z" fill="#2594EA"/>
<path d="M629.479 331.653H584.87V328.436C584.87 328.266 584.803 328.104 584.684 327.984C584.564 327.865 584.402 327.798 584.233 327.798H568.938C568.769 327.798 568.607 327.865 568.487 327.984C568.368 328.104 568.301 328.266 568.301 328.436V331.653H558.742V328.436C558.742 328.266 558.675 328.104 558.555 327.984C558.436 327.865 558.274 327.798 558.104 327.798H542.81C542.641 327.798 542.479 327.865 542.359 327.984C542.24 328.104 542.172 328.266 542.172 328.436V331.653H532.614V328.436C532.614 328.266 532.547 328.104 532.427 327.984C532.307 327.865 532.145 327.798 531.976 327.798H516.682C516.513 327.798 516.35 327.865 516.231 327.984C516.111 328.104 516.044 328.266 516.044 328.436V331.653H506.485V328.436C506.485 328.266 506.418 328.104 506.299 327.984C506.179 327.865 506.017 327.798 505.848 327.798H490.554C490.385 327.798 490.223 327.865 490.103 327.984C489.984 328.104 489.917 328.266 489.917 328.436V331.653H480.357V328.436C480.357 328.266 480.29 328.104 480.17 327.984C480.051 327.865 479.889 327.798 479.72 327.798H464.426C464.257 327.798 464.095 327.865 463.975 327.984C463.855 328.104 463.788 328.266 463.788 328.436V331.653H454.229V328.436C454.229 328.266 454.162 328.104 454.042 327.984C453.923 327.865 453.76 327.798 453.591 327.798H438.3C438.131 327.798 437.969 327.865 437.85 327.984C437.73 328.104 437.663 328.266 437.663 328.436V331.653H428.101V328.436C428.101 328.266 428.033 328.104 427.914 327.984C427.794 327.865 427.632 327.798 427.463 327.798H307.656C307.487 327.798 307.325 327.865 307.205 327.984C307.086 328.104 307.019 328.266 307.019 328.436V331.653H297.46V328.436C297.46 328.266 297.393 328.104 297.273 327.984C297.154 327.865 296.992 327.798 296.822 327.798H281.528C281.359 327.798 281.197 327.865 281.077 327.984C280.958 328.104 280.89 328.266 280.89 328.436V331.653H271.332V328.436C271.332 328.266 271.265 328.104 271.145 327.984C271.025 327.865 270.863 327.798 270.694 327.798H255.4C255.231 327.798 255.069 327.865 254.95 327.984C254.83 328.104 254.763 328.266 254.763 328.436V331.653H245.203V328.436C245.203 328.266 245.136 328.104 245.017 327.984C244.897 327.865 244.735 327.798 244.566 327.798H229.272C229.103 327.798 228.941 327.865 228.821 327.984C228.702 328.104 228.635 328.266 228.635 328.436V331.653H219.077V328.436C219.077 328.266 219.01 328.104 218.891 327.984C218.771 327.865 218.609 327.798 218.44 327.798H203.144C202.975 327.798 202.813 327.865 202.693 327.984C202.573 328.104 202.506 328.266 202.506 328.436V331.653H192.948V328.436C192.948 328.266 192.88 328.104 192.761 327.984C192.641 327.865 192.479 327.798 192.31 327.798H177.016C176.846 327.798 176.684 327.865 176.565 327.984C176.445 328.104 176.378 328.266 176.378 328.436V331.653H166.819V328.436C166.819 328.266 166.752 328.104 166.633 327.984C166.513 327.865 166.351 327.798 166.182 327.798H150.884C150.715 327.798 150.553 327.865 150.434 327.984C150.314 328.104 150.247 328.266 150.247 328.436V331.653H120.935C116.879 331.653 112.989 333.266 110.121 336.137C107.252 339.008 105.641 342.901 105.641 346.961V353.883C105.641 357.943 107.252 361.837 110.121 364.708C112.989 367.579 116.879 369.191 120.935 369.191H629.479C633.535 369.191 637.426 367.579 640.294 364.708C643.162 361.837 644.774 357.944 644.774 353.884V346.962C644.774 342.902 643.162 339.008 640.294 336.137C637.426 333.267 633.536 331.654 629.479 331.654V331.653Z" fill="#3F3D56"/>
<path d="M463.515 107.562H278.461V302.261H463.515V107.562Z" fill="#E6E6E6"/>
<path d="M773 368.542H0V370H773V368.542Z" fill="#E6E6E6"/>
<path d="M697.927 317.595C708.401 328.844 708.942 345.378 708.942 345.378C708.942 345.378 692.502 343.673 682.029 332.425C671.555 321.176 671.014 304.642 671.014 304.642C671.014 304.642 687.453 306.347 697.927 317.595Z" fill="#2594EA"/>
<path d="M730.9 335.154C719.661 345.637 703.141 346.179 703.141 346.179C703.141 346.179 704.845 329.724 716.084 319.241C727.322 308.758 743.842 308.216 743.842 308.216C743.842 308.216 742.139 324.671 730.9 335.154Z" fill="#2594EA"/>
<path d="M728.106 368.541H686.769C685.975 368.541 685.198 368.318 684.526 367.897C683.853 367.476 683.313 366.874 682.966 366.16L673.966 347.643C673.652 346.998 673.507 346.283 673.545 345.567C673.582 344.85 673.802 344.155 674.182 343.546C674.562 342.938 675.091 342.436 675.719 342.089C676.346 341.741 677.052 341.559 677.769 341.56H737.107C737.824 341.559 738.529 341.741 739.157 342.089C739.784 342.436 740.313 342.938 740.693 343.546C741.074 344.155 741.293 344.85 741.331 345.567C741.368 346.283 741.223 346.998 740.909 347.643L731.909 366.161C731.563 366.875 731.022 367.477 730.35 367.898C729.677 368.319 728.9 368.542 728.107 368.542L728.106 368.541Z" fill="#E5E5E5"/>
<path d="M44.4107 317.595C54.8845 328.844 55.4258 345.378 55.4258 345.378C55.4258 345.378 38.9859 343.673 28.5121 332.425C18.0384 321.176 17.4971 304.642 17.4971 304.642C17.4971 304.642 33.937 306.347 44.4107 317.595Z" fill="#E5E5E5"/>
<path d="M68.0328 368.541H26.6951C25.902 368.541 25.1247 368.318 24.4523 367.897C23.7799 367.476 23.2395 366.874 22.8928 366.16L13.8929 347.643C13.5786 346.998 13.4336 346.283 13.4713 345.567C13.5091 344.85 13.7284 344.155 14.1088 343.546C14.4891 342.938 15.0179 342.436 15.6453 342.089C16.2727 341.741 16.9782 341.559 17.6953 341.56H77.0334C77.7505 341.559 78.4559 341.741 79.0834 342.089C79.7108 342.436 80.2396 342.938 80.6199 343.546C81.0002 344.155 81.2196 344.85 81.2573 345.567C81.2951 346.283 81.15 346.998 80.8357 347.643L71.8359 366.161C71.4892 366.875 70.9488 367.477 70.2763 367.898C69.6039 368.319 68.8267 368.542 68.0335 368.542L68.0328 368.541Z" fill="#E5E5E5"/>
<path d="M393.316 162.678C406.899 162.678 417.91 151.657 417.91 138.062C417.91 124.467 406.899 113.446 393.316 113.446C379.734 113.446 368.722 124.467 368.722 138.062C368.722 151.657 379.734 162.678 393.316 162.678Z" fill="#A0616A"/>
<path d="M336.729 302.662L352.612 202.588C353.456 197.267 355.423 192.187 358.382 187.686C361.34 183.185 365.222 179.367 369.77 176.485C374.317 173.602 379.426 171.722 384.756 170.97C390.086 170.217 395.515 170.61 400.681 172.12C409.715 174.735 417.45 180.627 422.375 188.645C427.301 196.663 429.063 206.231 427.318 215.479L410.707 304.851L336.729 302.662Z" fill="#2594EA"/>
<path d="M400.107 320.568C401.335 319.756 402.37 318.685 403.14 317.429C403.91 316.173 404.395 314.764 404.562 313.3C404.729 311.836 404.573 310.353 404.105 308.956C403.637 307.559 402.869 306.282 401.855 305.214L418.273 273.392L399.784 275.367L387.027 305.283C385.355 307.109 384.409 309.485 384.367 311.961C384.325 314.438 385.191 316.844 386.8 318.726C388.41 320.607 390.652 321.833 393.104 322.173C395.555 322.512 398.046 321.942 400.106 320.569L400.107 320.568Z" fill="#A0616A"/>
<path d="M403.623 299.601C402.714 299.473 401.867 299.07 401.193 298.448L394.911 292.638C394.233 292.007 393.764 291.183 393.569 290.278C393.373 289.372 393.46 288.428 393.818 287.573L406.373 257.788L404.592 198.937C405.112 195.119 407.126 191.664 410.192 189.333C413.257 187.002 417.122 185.984 420.936 186.505C424.751 187.026 428.203 189.042 430.532 192.11C432.861 195.178 433.878 199.047 433.357 202.865L436.403 239.86C437.328 251.088 434.148 262.27 427.453 271.327L407.874 297.818C407.498 298.327 407.018 298.751 406.467 299.063C405.916 299.374 405.306 299.566 404.675 299.626C404.325 299.659 403.971 299.651 403.623 299.601Z" fill="#2594EA"/>
<path d="M251.687 124.65C251.955 126.099 252.537 127.471 253.392 128.67C254.247 129.87 255.355 130.867 256.637 131.591C257.918 132.316 259.343 132.75 260.811 132.864C262.278 132.977 263.753 132.768 265.131 132.249L288.008 159.789L293.399 141.977L270.849 118.555C269.82 116.304 268.003 114.507 265.742 113.504C263.48 112.5 260.929 112.361 258.572 113.111C256.214 113.861 254.212 115.448 252.944 117.574C251.676 119.7 251.228 122.217 251.687 124.65Z" fill="#A0616A"/>
<path d="M269.607 136.065C270.08 135.278 270.78 134.654 271.616 134.276L279.411 130.751C280.256 130.372 281.197 130.261 282.107 130.434C283.017 130.607 283.851 131.056 284.498 131.719L307.006 154.903L361.846 176.207C363.487 177.181 364.919 178.468 366.062 179.997C367.204 181.525 368.035 183.263 368.506 185.113C368.977 186.963 369.08 188.887 368.807 190.776C368.535 192.666 367.894 194.483 366.92 196.124C365.945 197.765 364.658 199.197 363.13 200.34C361.603 201.483 359.865 202.313 358.017 202.783C356.169 203.254 354.246 203.355 352.358 203.081C350.471 202.807 348.656 202.164 347.017 201.188L311.794 189.57C301.102 186.046 292.054 178.754 286.332 169.052L269.593 140.679C269.271 140.133 269.068 139.526 268.996 138.896C268.925 138.267 268.986 137.63 269.177 137.026C269.283 136.69 269.428 136.368 269.609 136.066L269.607 136.065Z" fill="#2594EA"/>
<path opacity="0.1" d="M413.265 223.418L412.264 255.49L393.818 287.575L409.22 251.822L413.265 223.418Z" fill="black"/>
<path d="M376.661 125.724C379.198 128.729 383.49 129.576 387.451 129.924C395.493 130.63 407.188 129.486 415.048 127.668C415.609 133.11 414.08 138.978 417.282 143.454C418.783 138.035 419.656 132.46 419.883 126.841C419.98 124.434 419.942 121.937 418.964 119.725C417.985 117.513 415.851 115.635 413.394 115.615C415.22 114.229 417.358 113.314 419.621 112.951L411.84 109.037L413.838 106.984L399.751 106.121L403.831 103.526C397.69 102.683 391.477 102.487 385.296 102.943C382.425 103.154 379.423 103.559 377.098 105.224C374.772 106.889 373.428 110.197 374.872 112.641C373.064 112.939 371.362 113.693 369.927 114.832C368.492 115.972 367.372 117.46 366.672 119.154C365.635 121.785 365.729 124.708 366.049 127.512C366.58 131.996 367.621 136.405 369.153 140.652" fill="#2F2E41"/>
<path d="M481.799 64.0569L257.696 115.842C256.596 116.095 255.44 115.9 254.482 115.301C253.524 114.702 252.843 113.748 252.588 112.647L239.754 57.0066C239.501 55.905 239.695 54.7482 240.294 53.7897C240.892 52.8312 241.846 52.1495 242.946 51.8939L467.049 0.109238C468.149 -0.143687 469.305 0.050623 470.263 0.649537C471.22 1.24845 471.902 2.20306 472.157 3.30399L484.991 58.9443C485.244 60.0458 485.049 61.2027 484.451 62.1611C483.853 63.1196 482.899 63.8013 481.799 64.0569Z" fill="white"/>
<path d="M481.799 64.0569L257.696 115.842C256.596 116.095 255.44 115.9 254.482 115.301C253.524 114.702 252.843 113.748 252.588 112.647L239.754 57.0066C239.501 55.905 239.695 54.7482 240.294 53.7897C240.892 52.8312 241.846 52.1495 242.946 51.8939L467.049 0.109238C468.149 -0.143687 469.305 0.050623 470.263 0.649537C471.22 1.24845 471.902 2.20306 472.157 3.30399L484.991 58.9443C485.244 60.0458 485.049 61.2027 484.451 62.1611C483.853 63.1196 482.899 63.8013 481.799 64.0569ZM243.329 53.5558C242.669 53.7091 242.097 54.1182 241.738 54.6933C241.379 55.2685 241.262 55.9627 241.414 56.6237L254.248 112.264C254.401 112.925 254.81 113.498 255.384 113.857C255.959 114.217 256.653 114.333 257.313 114.181L481.416 62.3964C482.076 62.2433 482.649 61.8342 483.008 61.259C483.367 60.6838 483.483 59.9895 483.331 59.3285L470.497 3.68748C470.344 3.02672 469.935 2.45373 469.361 2.0943C468.786 1.73486 468.092 1.61837 467.432 1.77038L243.329 53.5558Z" fill="#E6E6E6"/>
<path d="M321.091 53.3837C320.721 53.4685 320.371 53.6254 320.061 53.8456C319.751 54.0657 319.488 54.3447 319.286 54.6667C319.084 54.9887 318.948 55.3474 318.884 55.7222C318.821 56.0971 318.832 56.4807 318.917 56.8513C319.002 57.2219 319.158 57.5721 319.378 57.8819C319.599 58.1918 319.877 58.4552 320.199 58.6572C320.521 58.8592 320.879 58.9957 321.254 59.059C321.628 59.1223 322.012 59.1111 322.382 59.0261L322.392 59.0238L455.217 28.3312C455.963 28.1576 456.61 27.6946 457.015 27.044C457.421 26.3934 457.552 25.6083 457.38 24.8611C457.207 24.1139 456.746 23.4658 456.096 23.0589C455.447 22.6521 454.663 22.5198 453.916 22.6911L321.091 53.3837Z" fill="#E6E6E6"/>
<path d="M324.994 70.3048C324.624 70.3895 324.274 70.5465 323.964 70.7666C323.654 70.9868 323.391 71.2658 323.189 71.5878C322.987 71.9098 322.851 72.2685 322.787 72.6433C322.724 73.0181 322.735 73.4018 322.82 73.7724C322.905 74.1429 323.062 74.4931 323.282 74.803C323.502 75.1129 323.781 75.3763 324.102 75.5783C324.424 75.7802 324.782 75.9167 325.157 75.98C325.532 76.0433 325.915 76.0322 326.285 75.9472L326.295 75.9449L383.45 62.7378C384.197 62.5662 384.846 62.1046 385.253 61.4544C385.66 60.8042 385.793 60.0187 385.622 59.2707C385.451 58.5226 384.99 57.8732 384.34 57.4653C383.691 57.0574 382.906 56.9243 382.159 57.0954L382.149 57.0977L324.994 70.3048Z" fill="#E6E6E6"/>
<path d="M284.779 90.8867C294.361 90.8867 302.129 83.1119 302.129 73.5212C302.129 63.9305 294.361 56.1558 284.779 56.1558C275.197 56.1558 267.429 63.9305 267.429 73.5212C267.429 83.1119 275.197 90.8867 284.779 90.8867Z" fill="#2594EA"/>
<path d="M284.291 83.539C283.723 83.6711 283.128 83.6148 282.595 83.3786L282.562 83.3639L275.581 80.1918C275.256 80.0448 274.964 79.8352 274.721 79.5752C274.478 79.3151 274.288 79.0097 274.163 78.6762C274.038 78.3428 273.98 77.9879 273.992 77.6319C274.004 77.2759 274.086 76.9258 274.233 76.6016C274.381 76.2774 274.59 75.9854 274.851 75.7424C275.111 75.4993 275.416 75.31 275.75 75.1853C276.083 75.0605 276.438 75.0027 276.793 75.0152C277.149 75.0278 277.499 75.1104 277.822 75.2583L282.346 77.3195L288.692 63.3624C288.989 62.709 289.534 62.2005 290.205 61.9487C290.877 61.6969 291.621 61.7225 292.274 62.0198L292.236 62.1109L292.276 62.0193C292.929 62.3175 293.436 62.8626 293.688 63.5349C293.939 64.2073 293.914 64.9519 293.617 65.6056L286.154 82.0242C285.98 82.4025 285.723 82.7358 285.4 82.9982C285.078 83.2607 284.699 83.4453 284.294 83.5377L284.291 83.539Z" fill="white"/>
</g>
<defs>
<clipPath id="clip0_211_556">
<rect width="773" height="370" fill="white"/>
</clipPath>
</defs>
</svg>
