<svg width="467" height="331" viewBox="0 0 467 331" fill="none" xmlns="http://www.w3.org/2000/svg">
<g clip-path="url(#clip0_211_473)">
<path d="M460.471 -0.458496H6.52112C4.79206 -0.456869 3.13427 0.253902 1.91166 1.51776C0.689052 2.78162 0.00151881 4.49528 0 6.28261V324.259C0.00151683 326.046 0.689051 327.76 1.91166 329.024C3.13428 330.288 4.79206 330.998 6.52112 331H460.471C461.414 331 462.346 330.788 463.202 330.38C464.058 329.972 464.818 329.376 465.43 328.634C465.482 328.576 465.529 328.514 465.572 328.449C465.961 327.957 466.276 327.407 466.507 326.818C466.835 326.007 467.003 325.137 467 324.259V6.28266C466.998 4.49406 466.309 2.77938 465.085 1.51538C463.861 0.251367 462.202 -0.458598 460.471 -0.458496ZM465.138 324.259C465.139 325.199 464.871 326.119 464.368 326.903C463.921 327.592 463.314 328.156 462.603 328.542C461.944 328.893 461.213 329.076 460.471 329.075H6.52112C5.2859 329.073 4.10168 328.565 3.22824 327.663C2.35481 326.76 1.86346 325.536 1.86196 324.259V6.28266C1.86345 5.0058 2.35481 3.78166 3.22824 2.87878C4.10168 1.9759 5.28589 1.46797 6.52112 1.46642H460.471C461.708 1.46626 462.894 1.9734 463.769 2.87642C464.644 3.77945 465.136 5.00454 465.138 6.28266V324.259Z" fill="#3F3D56"/>
<path d="M466.065 26.5596H0.929321V28.4867H466.065V26.5596Z" fill="#3F3D56"/>
<path d="M16.7757 19.776C19.8645 19.776 22.3685 17.1876 22.3685 13.9947C22.3685 10.8018 19.8645 8.21338 16.7757 8.21338C13.6868 8.21338 11.1829 10.8018 11.1829 13.9947C11.1829 17.1876 13.6868 19.776 16.7757 19.776Z" fill="#3F3D56"/>
<path d="M32.855 19.776C35.9438 19.776 38.4478 17.1876 38.4478 13.9947C38.4478 10.8018 35.9438 8.21338 32.855 8.21338C29.7662 8.21338 27.2622 10.8018 27.2622 13.9947C27.2622 17.1876 29.7662 19.776 32.855 19.776Z" fill="#3F3D56"/>
<path d="M48.9344 19.776C52.0232 19.776 54.5272 17.1876 54.5272 13.9947C54.5272 10.8018 52.0232 8.21338 48.9344 8.21338C45.8455 8.21338 43.3416 10.8018 43.3416 13.9947C43.3416 17.1876 45.8455 19.776 48.9344 19.776Z" fill="#3F3D56"/>
<path d="M207.14 190.388C201.546 186.624 198.764 177.877 200.135 169.877C201.505 161.878 206.667 154.987 212.854 152.016C215.864 150.614 219.163 150.006 222.457 150.248C225.75 150.49 228.933 151.574 231.721 153.402C237.395 156.989 245.419 158.953 248.114 166.129C250.185 171.643 247.558 182.84 244.771 188.196C242.363 192.826 237.785 194.943 233.485 195.863C228.728 196.866 223.817 196.801 219.086 195.673C214.355 194.544 209.913 192.379 206.062 189.322L207.14 190.388Z" fill="#2F2E41"/>
<path d="M204.222 232.875L199.75 240.845L199.159 241.897L198.299 243.443H185.114L186.004 241.897L188.308 237.885L193.677 228.515L199.757 231.028L204.222 232.875Z" fill="#FFB8B8"/>
<path d="M184.127 243.443L181.719 241.897L181.42 241.704L196.534 213.232C197.184 211.999 198.064 210.912 199.123 210.034C200.182 209.156 201.399 208.503 202.704 208.114C204.351 207.607 206.096 207.54 207.775 207.921C208.754 208.135 209.697 208.499 210.572 209.003C210.932 209.207 211.279 209.434 211.611 209.683C212.889 210.61 213.939 211.833 214.677 213.255C215.556 214.919 215.989 216.796 215.934 218.691C215.879 220.586 215.337 222.432 214.363 224.039L208.537 233.664L203.557 241.897L202.622 243.443H184.127Z" fill="#2F2E41"/>
<path d="M222.959 200.493C233.104 200.493 241.327 191.992 241.327 181.506C241.327 171.019 233.104 162.518 222.959 162.518C212.815 162.518 204.591 171.019 204.591 181.506C204.591 191.992 212.815 200.493 222.959 200.493Z" fill="#FFB8B8"/>
<path d="M241.398 243.443H200.109L200.296 242.894C200.191 242.561 200.094 242.229 200.004 241.897C199.907 241.549 199.825 241.193 199.75 240.845C199.079 237.609 199.082 234.262 199.757 231.027C202.039 219.447 211.14 210.039 211.14 210.039C211.297 209.915 211.454 209.799 211.611 209.683C212.965 208.658 214.434 207.807 215.986 207.147C222.747 204.248 229.836 205.416 234.6 206.915C236.259 207.434 237.881 208.072 239.454 208.825C240.007 209.096 240.306 209.266 240.306 209.266L240.778 224.116L241.346 241.897L241.398 243.443Z" fill="#2594EA"/>
<path d="M260.499 241.897L257.343 225.307L254.157 208.578C254.024 207.887 253.692 207.254 253.205 206.761C252.718 206.269 252.098 205.94 251.427 205.818L244.756 204.627L238.549 203.522C237.95 203.41 237.333 203.47 236.765 203.695C236.197 203.92 235.699 204.301 235.326 204.797C234.859 205.399 234.603 206.145 234.6 206.916C234.6 207.392 234.694 207.862 234.877 208.299C238.115 216.107 238.175 228.469 237.352 241.897C237.315 242.407 237.285 242.925 237.248 243.443H260.798L260.499 241.897Z" fill="#2F2E41"/>
<path d="M215.986 207.148C215.849 206.585 215.578 206.067 215.199 205.639C214.82 205.211 214.343 204.888 213.813 204.698C213.283 204.508 212.715 204.457 212.161 204.55C211.607 204.643 211.084 204.877 210.639 205.23L207.775 207.921L196.048 218.96C195.683 219.299 195.396 219.719 195.211 220.189C193.887 223.459 191.307 229.914 188.308 237.885C187.822 239.183 187.321 240.521 186.805 241.897C186.625 242.407 186.431 242.925 186.236 243.443H205.561C205.718 242.925 205.875 242.407 206.032 241.897C206.892 239.091 207.73 236.338 208.538 233.664C210.901 225.894 213.032 218.836 214.678 213.255C215.134 211.709 215.55 210.281 215.926 208.972C216.102 208.38 216.123 207.751 215.986 207.148Z" fill="#2F2E41"/>
<path d="M264.836 243.443H266.085L265.913 243.01L265.457 241.897L258.419 224.635L257.343 225.307L248.697 230.711L253.132 241.897L253.745 243.443H260.798H264.836Z" fill="#FFB8B8"/>
<path d="M257.702 210.943C256.749 208.367 254.87 206.271 252.458 205.094C250.045 203.917 247.285 203.75 244.756 204.627C244.433 204.738 244.116 204.867 243.806 205.014C242.035 205.831 240.525 207.153 239.454 208.825C239.017 209.493 238.658 210.212 238.384 210.967C237.899 212.277 237.67 213.674 237.709 215.076C237.749 216.479 238.057 217.859 238.616 219.138L240.778 224.116L248.51 241.897L249.183 243.443H264.836L265.913 243.01L268.71 241.897L269.099 241.742L257.702 210.943Z" fill="#2F2E41"/>
<path d="M237.385 159.698C238.026 159.897 238.711 159.871 239.336 159.626C239.961 159.381 240.49 158.93 240.842 158.342C241.175 157.744 241.371 157.074 241.415 156.385C241.459 155.695 241.349 155.005 241.095 154.366C240.574 153.091 239.752 151.971 238.705 151.108C237.517 149.996 236.069 149.221 234.504 148.86C233.723 148.686 232.914 148.688 232.133 148.865C231.352 149.043 230.617 149.392 229.978 149.888C229.35 150.402 228.885 151.097 228.642 151.885C228.398 152.673 228.388 153.518 228.612 154.312C229.088 155.738 230.376 156.693 231.663 157.405C234.215 158.813 237.03 159.64 239.918 159.83L237.385 159.698Z" fill="#2F2E41"/>
<path d="M240.959 180.938C238.006 181.359 238.385 179.805 237.202 176.977C236.019 174.148 234.436 170.791 231.468 170.504C229.036 170.269 227.032 172.279 225.061 173.772C221.549 176.432 216.816 177.735 212.744 176.139C208.673 174.543 205.844 169.527 207.389 165.319C207.87 164.157 208.576 163.109 209.465 162.241C210.353 161.373 211.405 160.702 212.554 160.271C214.86 159.424 217.308 159.072 219.75 159.238C225.181 159.417 230.507 160.827 235.354 163.367C238.698 165.123 241.954 167.637 243.223 171.286C244.492 174.935 245.327 180.064 241.699 181.051L240.959 180.938Z" fill="#2F2E41"/>
<path d="M235.876 149.661C234.416 147.034 235.621 143.431 238.01 141.676C240.398 139.921 243.602 139.749 246.452 140.452C249.27 141.186 251.852 142.673 253.939 144.765C256.027 146.856 257.545 149.477 258.343 152.366C259.552 156.959 258.833 161.892 259.857 166.533C260.403 169.007 261.433 171.339 262.884 173.386C264.335 175.433 266.176 177.151 268.293 178.435C270.41 179.718 272.76 180.54 275.196 180.85C277.632 181.16 280.104 180.951 282.459 180.236C285.527 179.305 288.645 177.041 288.946 173.751C289.264 177.529 288.43 181.315 286.563 184.58C284.695 187.844 281.886 190.423 278.53 191.955C274.578 193.66 270.169 193.771 265.888 193.657C263.098 193.583 260.244 193.41 257.67 192.294C255.89 191.454 254.289 190.256 252.962 188.769C251.635 187.281 250.608 185.535 249.942 183.633C248.632 179.808 248.278 175.704 248.914 171.7C249.335 168.586 250.173 165.534 250.407 162.399C250.642 159.264 250.197 155.916 248.327 153.436C246.458 150.956 242.886 149.689 240.228 151.217C239.159 151.832 238.297 152.835 237.137 153.231C235.976 153.628 234.331 152.931 234.436 151.672L235.876 149.661Z" fill="#2F2E41"/>
<path d="M361.22 243.443L361.362 241.897L365.58 196.533C366.963 195.414 368.448 194.438 370.015 193.619C378.698 189.097 387.074 191.261 391.605 193.132C392.807 193.618 393.967 194.205 395.076 194.887L397.544 241.897L397.626 243.443H361.22Z" fill="#2594EA"/>
<path d="M380.973 184.46C391.118 184.46 399.341 175.959 399.341 165.473C399.341 154.987 391.118 146.486 380.973 146.486C370.829 146.486 362.605 154.987 362.605 165.473C362.605 175.959 370.829 184.46 380.973 184.46Z" fill="#FFB8B8"/>
<path d="M395.877 177.05C397.242 175.563 398.148 173.689 398.481 171.668C398.813 169.646 398.556 167.568 397.743 165.698C396.929 163.828 395.596 162.25 393.913 161.166C392.229 160.081 390.272 159.538 388.289 159.607C385.75 159.695 383.356 160.769 380.932 161.558C377.258 162.849 373.339 163.214 369.501 162.622C365.64 162.002 362.156 159.876 359.767 156.68C357.494 153.451 356.785 148.973 358.391 145.341C360.244 141.149 364.574 138.839 368.647 136.962C370.289 136.112 372.044 135.516 373.854 135.193C374.76 135.037 375.689 135.077 376.58 135.309C377.471 135.541 378.307 135.961 379.034 136.543C380.178 137.56 380.849 139.09 382.094 139.972C383.496 140.965 385.318 140.938 387.009 141.113C390.817 141.508 394.42 143.091 397.336 145.653C400.253 148.215 402.347 151.634 403.338 155.456C404.329 159.278 404.171 163.321 402.885 167.048C401.599 170.775 399.245 174.008 396.138 176.319L395.877 177.05Z" fill="#2F2E41"/>
<path d="M372.752 201.473L370.015 193.619L369.844 193.13C369.763 192.897 369.632 192.687 369.461 192.515C369.29 192.343 369.083 192.214 368.856 192.137C368.63 192.059 368.389 192.037 368.152 192.07C367.916 192.103 367.69 192.191 367.491 192.328L364.383 194.47C364.383 194.47 344.453 194.47 342.853 206.831C342.83 207.024 342.8 207.241 342.778 207.472C342.777 207.483 342.774 207.494 342.77 207.503C342.569 208.315 338.807 223.343 335.576 241.897C335.487 242.407 335.397 242.925 335.307 243.443H378.615C380.025 224.805 379.236 207.476 372.752 201.473Z" fill="#2F2E41"/>
<path d="M424.414 241.897C422.051 222.864 418.671 207.472 418.671 207.472C418.641 207.24 418.611 207.024 418.588 206.831C416.995 194.469 397.065 194.469 397.065 194.469L393.959 192.329C393.761 192.192 393.534 192.104 393.298 192.071C393.061 192.037 392.82 192.06 392.593 192.138C392.366 192.215 392.16 192.345 391.988 192.517C391.817 192.689 391.686 192.9 391.605 193.132L388.697 201.473C382.212 207.476 381.424 224.805 382.833 243.442L424.601 243.443C424.541 242.925 424.474 242.407 424.414 241.897Z" fill="#2F2E41"/>
<path d="M73.6086 198.559L69.1664 241.897L69.0094 243.443H56.9915C57.1335 242.94 57.2756 242.422 57.4253 241.897C60.8356 229.806 65.4797 212.157 64.9783 207.48C64.1932 200.182 69.6901 197.747 69.6901 197.747L70.0341 197.817L73.6086 198.559Z" fill="#2594EA"/>
<path d="M92.9907 185.182C103.135 185.182 111.359 176.681 111.359 166.195C111.359 155.708 103.135 147.208 92.9907 147.208C82.8463 147.208 74.6226 155.708 74.6226 166.195C74.6226 176.681 82.8463 185.182 92.9907 185.182Z" fill="#A0616A"/>
<path d="M116.768 234.243C115.841 236.009 115.083 237.862 114.502 239.779C114.285 240.459 114.076 241.17 113.881 241.897C113.739 242.399 113.612 242.917 113.485 243.443H65.0382C65.1058 242.933 65.1653 242.415 65.2328 241.897C67.7083 221.681 69.7123 201.164 70.034 197.817C70.0639 197.5 70.0789 197.337 70.0789 197.337C99.1107 181.521 120.298 202.208 120.298 202.208C120.298 202.208 120.327 202.355 120.372 202.641C120.836 205.532 123.199 222.416 116.768 234.243Z" fill="#2594EA"/>
<path d="M114.502 239.779L111.271 232.62L112.056 204.233L120.372 202.641L120.664 202.587C124.963 205.17 128.289 209.18 130.102 213.966C131.717 218.141 134.791 230.695 137.386 241.897C137.506 242.415 137.625 242.933 137.745 243.443H116.154L115.459 241.897L114.502 239.779Z" fill="#2594EA"/>
<path d="M144.05 115.887H37.8388C35.5606 115.89 33.3766 116.827 31.7657 118.492C30.1547 120.157 29.2485 122.415 29.2457 124.77V234.56C29.2485 236.915 30.1547 239.173 31.7657 240.838C33.3766 242.503 35.5606 243.44 37.8388 243.443H144.05C146.328 243.441 148.513 242.505 150.124 240.839C151.735 239.174 152.641 236.916 152.642 234.56V124.77C152.641 122.415 151.735 120.156 150.124 118.491C148.513 116.825 146.328 115.889 144.05 115.887ZM151.147 234.56C151.145 236.506 150.397 238.371 149.066 239.746C147.736 241.122 145.931 241.895 144.05 241.897H37.8388C35.9574 241.894 34.1538 241.12 32.8234 239.745C31.493 238.37 30.7443 236.505 30.7414 234.56V124.77C30.7443 122.825 31.493 120.961 32.8234 119.586C34.1538 118.21 35.9574 117.437 37.8388 117.434H144.05C145.931 117.435 147.736 118.209 149.066 119.584C150.397 120.96 151.145 122.825 151.147 124.77V234.56ZM69.1663 241.897L69.0093 243.443H113.485C113.612 242.917 113.739 242.399 113.881 241.897H69.1663Z" fill="#3F3D56"/>
<path d="M286.599 115.887H180.388C178.11 115.89 175.926 116.827 174.315 118.492C172.704 120.157 171.798 122.415 171.795 124.77V234.56C171.798 236.915 172.704 239.173 174.315 240.838C175.926 242.503 178.11 243.44 180.388 243.443H286.599C288.877 243.441 291.062 242.505 292.673 240.839C294.284 239.174 295.19 236.916 295.192 234.56V124.77C295.19 122.415 294.284 120.156 292.673 118.491C291.062 116.825 288.877 115.889 286.599 115.887ZM293.696 234.56C293.694 236.506 292.946 238.371 291.616 239.746C290.285 241.122 288.481 241.895 286.599 241.897H180.388C178.507 241.894 176.703 241.12 175.373 239.745C174.042 238.37 173.294 236.505 173.291 234.56V124.77C173.294 122.825 174.042 120.961 175.373 119.586C176.703 118.21 178.507 117.437 180.388 117.434H286.599C288.481 117.435 290.285 118.209 291.616 119.584C292.946 120.96 293.694 122.825 293.696 124.77V234.56ZM200.004 241.897C200.094 242.229 200.191 242.562 200.296 242.894L200.109 243.443H237.248C237.285 242.925 237.315 242.407 237.352 241.897H200.004Z" fill="#3F3D56"/>
<path d="M429.156 115.887H322.945C320.666 115.889 318.482 116.825 316.87 118.491C315.259 120.156 314.353 122.415 314.352 124.77V234.56C314.353 236.916 315.259 239.174 316.87 240.84C318.482 242.505 320.666 243.441 322.945 243.443H429.156C431.434 243.44 433.618 242.503 435.229 240.838C436.84 239.173 437.746 236.915 437.749 234.56V124.77C437.746 122.415 436.84 120.157 435.229 118.492C433.618 116.827 431.434 115.89 429.156 115.887ZM436.253 234.56C436.25 236.505 435.501 238.369 434.171 239.745C432.841 241.12 431.037 241.894 429.156 241.897H322.945C321.063 241.895 319.259 241.122 317.928 239.746C316.598 238.371 315.849 236.506 315.848 234.56V124.77C315.849 122.825 316.598 120.96 317.928 119.584C319.259 118.209 321.063 117.435 322.945 117.434H429.156C431.037 117.437 432.841 118.21 434.171 119.586C435.501 120.961 436.25 122.825 436.253 124.77V234.56ZM378.728 241.897C378.69 242.407 378.653 242.925 378.615 243.443H410.841C410.9 242.933 410.968 242.415 411.028 241.897H378.728Z" fill="#3F3D56"/>
<path d="M356.894 288.28H110.101C108.514 288.28 106.992 287.629 105.87 286.469C104.748 285.309 104.118 283.736 104.118 282.096C104.118 280.456 104.748 278.883 105.87 277.723C106.992 276.563 108.514 275.911 110.101 275.911H356.894C358.481 275.911 360.002 276.563 361.124 277.723C362.246 278.883 362.877 280.456 362.877 282.096C362.877 283.736 362.246 285.309 361.124 286.469C360.002 287.629 358.481 288.28 356.894 288.28Z" fill="#CCCCCC"/>
<path d="M287.717 83.4188H179.277C177.691 83.4188 176.169 82.7672 175.047 81.6074C173.925 80.4476 173.295 78.8745 173.295 77.2343C173.295 75.5941 173.925 74.021 175.047 72.8612C176.169 71.7014 177.691 71.0498 179.277 71.0498H287.717C289.304 71.0498 290.825 71.7014 291.947 72.8612C293.069 74.021 293.7 75.5941 293.7 77.2343C293.7 78.8745 293.069 80.4476 291.947 81.6074C290.825 82.7672 289.304 83.4188 287.717 83.4188Z" fill="#2594EA"/>
<path d="M101.777 182.737C102.399 183.371 103.221 183.752 104.093 183.81C104.965 183.868 105.827 183.599 106.522 183.052C110.851 179.735 114.652 175.606 116.901 170.569C119.478 164.798 119.766 157.717 116.658 152.232C114.032 147.595 109.393 144.603 104.771 142.147C102.976 141.099 101.042 140.329 99.0317 139.86C96.9996 139.397 94.873 139.751 93.085 140.852C92.2103 141.419 91.5212 142.245 91.1076 143.223C90.6939 144.201 90.575 145.285 90.7662 146.334C88.5457 143.715 85.7017 141.741 82.5159 140.609C80.5099 139.797 78.3133 139.633 76.215 140.137C73.2815 140.997 71.1398 143.691 69.9685 146.601C69.0212 148.815 68.6941 151.259 69.0243 153.655C69.1982 154.848 69.6122 155.989 70.2396 157.006C70.8671 158.022 71.694 158.892 72.6669 159.557C75.0923 161.108 78.1865 160.997 80.9719 160.363C83.7573 159.729 86.4536 158.627 89.2929 158.348C92.1322 158.069 95.294 158.801 97.022 161.147C98.2389 162.798 98.5514 164.957 98.8245 167.014L100.245 177.712C100.361 179.26 100.744 180.773 101.374 182.182C101.484 182.385 101.619 182.572 101.777 182.737Z" fill="#2F2E41"/>
</g>
<defs>
<clipPath id="clip0_211_473">
<rect width="467" height="331" fill="white"/>
</clipPath>
</defs>
</svg>
