<svg width="486" height="331" viewBox="0 0 486 331" fill="none" xmlns="http://www.w3.org/2000/svg">
<g clip-path="url(#clip0_211_392)">
<path d="M44.3017 322.654L52.0525 322.653L55.74 292.756L44.3 292.756L44.3017 322.654Z" fill="#FFB6B6"/>
<path d="M44.0286 330.74L67.8645 330.739V330.437C67.8644 327.977 66.8868 325.617 65.147 323.877C63.4071 322.137 61.0474 321.16 58.5869 321.16H58.5864L54.2324 317.857L46.1089 321.16L44.0282 321.16L44.0286 330.74Z" fill="#2F2E41"/>
<path d="M56.8186 286.481L62.9207 291.261L84.2608 269.999L75.2546 262.944L56.8186 286.481Z" fill="#FFB6B6"/>
<path d="M51.6172 292.678L70.3818 307.377L70.5677 307.139C72.0849 305.202 72.7706 302.742 72.4738 300.299C72.1771 297.857 70.9223 295.632 68.9854 294.115L68.9849 294.114L67.5944 288.829L59.1622 286.42L57.5241 285.137L51.6172 292.678Z" fill="#2F2E41"/>
<path d="M93.3113 150.257C93.3113 150.257 103.599 160.925 99.0265 185.691L102.865 228.096L103.856 230.059C104.446 231.229 104.652 232.555 104.445 233.849C104.237 235.142 103.627 236.338 102.7 237.264L101.884 239.795L101.122 244.748L72.7365 287.421L61.8775 275.991L79.4042 235.985L74.6416 225.697L63.5921 189.882L55.9718 255.416L57.4959 311.806H42.9108L33.8729 248.939L24.3475 160.544L29.3022 150.257H93.3113Z" fill="#2F2E41"/>
<path d="M27.935 169L27.8344 168.858C22.4614 161.281 30.5424 143.075 31.7612 140.436C30.3139 139.963 29.0742 138.999 28.2531 137.709C27.4321 136.419 27.0805 134.882 27.2583 133.36L27.7837 128.861L28.3313 124.449L24.4078 120.497L24.3968 120.399L22.1389 100.5L18.8559 87.2835C17.619 82.2872 17.7244 77.0493 19.1614 72.1075C20.5984 67.1658 23.3152 62.6982 27.0329 59.1634L34.6214 57.9498L43.8438 49H58.716L63.8153 53.907C73.3346 55.5886 74.97 55.0395 83.1469 64.9224L79.4314 95.6484L78.5045 99.8753L78.5072 105.608L80.8637 108.246C81.7125 109.196 82.3293 110.333 82.665 111.566C83.0006 112.798 83.0457 114.093 82.7968 115.346L82.487 116.907C84.9173 117.956 87.2364 136.599 87.7905 139.203L88.6181 143.092C89.3262 144.034 94 150.31 94 152.026C94 152.284 93.8112 152.533 93.406 152.809C90.2209 154.981 77.5224 170.391 69.7307 167.251C61.4311 163.908 28.4388 168.922 28.1064 168.973L27.935 169Z" fill="#3F3D56"/>
<path d="M24.6585 131.935C24.6585 131.935 28.6046 109.634 24.6292 101.247L8.85846 102.374L11.2585 134.189L25.0451 169.513C24.8346 170.602 24.9159 171.726 25.2807 172.773C25.6454 173.82 26.2807 174.752 27.1219 175.474C27.9631 176.195 28.9803 176.682 30.0704 176.884C31.1604 177.085 32.2843 176.995 33.3282 176.622C34.372 176.249 35.2985 175.606 36.0136 174.759C36.7287 173.912 37.207 172.891 37.3999 171.799C37.5927 170.708 37.4934 169.584 37.1118 168.544C36.7303 167.503 36.0801 166.582 35.2274 165.873L24.6585 131.935Z" fill="#FFB6B6"/>
<path d="M8.85848 89.4192L9.83452 78.7903C10.2019 74.7899 11.3565 70.9017 13.232 67.3492C15.1075 63.7967 17.6669 60.6501 20.7629 58.0903C22.6866 56.5116 25.0135 55.5024 27.4806 55.1768C29.9477 54.8511 32.4568 55.2219 34.7242 56.2474C37.7885 57.6582 40.2028 60.1798 41.4789 63.3026C42.755 66.4253 42.7977 69.9161 41.5984 73.0692C37.9534 82.6287 39.2696 92.7381 32.1622 93.9705L32.9343 97.6442L25.946 120.45L6.04224 118.144L8.85848 89.4192Z" fill="#3F3D56"/>
<path d="M113.833 121.365C113.833 121.365 102.282 101.885 93.7984 98.1196L82.5771 109.258L105.144 131.812L138.633 149.602C139.183 150.564 139.978 151.364 140.937 151.919C141.896 152.475 142.985 152.767 144.094 152.766C145.202 152.764 146.291 152.47 147.249 151.912C148.206 151.354 149 150.553 149.548 149.589C150.096 148.625 150.379 147.534 150.369 146.426C150.358 145.317 150.055 144.231 149.489 143.278C148.924 142.324 148.116 141.538 147.148 140.998C146.18 140.457 145.086 140.183 143.978 140.202L113.833 121.365Z" fill="#FFB6B6"/>
<path d="M74.1292 99.4371L67.9376 90.7428C65.6074 87.4705 63.9471 83.7698 63.0522 79.8536C62.1574 75.9374 62.0456 71.8829 62.7234 67.9233C63.1522 65.472 64.2581 63.1895 65.9161 61.3337C67.5741 59.478 69.7181 58.1229 72.1058 57.4216C75.3488 56.4929 78.8236 56.8302 81.8275 58.3654C84.8313 59.9006 87.1402 62.5191 88.2872 65.6916C91.7579 75.3157 104.418 91.1332 99.8331 96.7025L102.814 98.9839L107.319 111.819L90.7267 123.05L74.1292 99.4371Z" fill="#3F3D56"/>
<path d="M49.8068 48.0453C59.2317 48.0453 66.8722 40.405 66.8722 30.9801C66.8722 21.5552 59.2317 13.9148 49.8068 13.9148C40.3818 13.9148 32.7413 21.5552 32.7413 30.9801C32.7413 40.405 40.3818 48.0453 49.8068 48.0453Z" fill="#FFB6B6"/>
<path d="M37.422 36.0147C37.273 35.8841 37.1324 35.7446 36.9868 35.6104C36.9816 35.6241 36.9808 35.6382 36.9752 35.652L37.422 36.0147Z" fill="#2F2E41"/>
<path d="M63.7918 12.9589C62.9439 11.594 61.7694 10.4617 60.3745 9.66414C59.421 9.2017 58.4191 8.84671 57.3872 8.60571L54.6864 7.86885C53.3027 7.44066 51.879 7.154 50.4373 7.01329C48.4354 6.91453 46.4447 7.36781 44.6829 8.32362C42.9211 9.27943 41.4558 10.701 40.4471 12.4331C39.6311 13.8804 38.9766 15.6838 37.4018 16.2133C36.132 16.6403 34.7465 16.038 33.4119 16.1549C32.6299 16.2682 31.8879 16.5727 31.2517 17.0413C30.6155 17.5099 30.1047 18.1283 29.7646 18.8415C29.0994 20.2768 28.7721 21.8454 28.8077 23.4269C28.7552 27.0175 29.456 30.5792 30.8648 33.8823C32.2736 37.1854 34.3591 40.1565 36.9868 42.604C37.4273 41.443 36.7018 40.1895 36.1283 39.0789C35.548 37.9551 35.1894 36.3884 36.1613 35.5791C37.2427 34.6784 38.9753 35.5518 40.2543 34.9645C40.6634 34.7294 41.0081 34.3967 41.2573 33.9961C41.5066 33.5954 41.6527 33.1393 41.6827 32.6684C41.8065 31.7353 41.6773 30.7867 41.7358 29.8473C41.7939 28.916 42.0359 28.0055 42.4478 27.1682C42.8597 26.331 43.4334 25.5836 44.1357 24.9694C44.8381 24.3551 45.6552 23.886 46.5398 23.5893C47.4244 23.2925 48.3591 23.174 49.2898 23.2405C52.2009 23.4484 55.026 25.4376 57.8275 24.6193C59.1425 24.2351 60.2641 23.2571 61.6241 23.0926C63.1303 22.9104 64.5472 23.7604 65.8262 24.5766C66.2909 22.6033 66.3502 20.5561 66.0005 18.5591C65.6508 16.5622 64.8994 14.657 63.7918 12.9589Z" fill="#2F2E41"/>
<path d="M122.954 321.152L118.611 314.173L117.744 318.161C117.592 318.859 117.44 319.569 117.299 320.273C116.066 319.22 114.753 318.245 113.469 317.311C109.526 314.449 105.586 311.584 101.647 308.716L102.88 315.869C103.64 320.273 104.435 324.768 106.316 328.795C106.524 329.251 106.75 329.702 106.992 330.141H125.32C125.467 329.733 125.569 329.31 125.624 328.879C125.628 328.851 125.63 328.823 125.629 328.795C125.917 326.063 124.407 323.489 122.954 321.152Z" fill="#F0F0F0"/>
<path d="M440.668 313.615L432.791 300.957L431.218 308.19C430.942 309.457 430.666 310.744 430.411 312.021C428.173 310.111 425.793 308.343 423.464 306.648C416.312 301.458 409.164 296.261 402.019 291.057L404.256 304.032C405.636 312.021 407.076 320.174 410.488 327.479C410.867 328.306 411.275 329.124 411.715 329.921H444.959C445.227 329.18 445.412 328.413 445.511 327.632C445.519 327.581 445.522 327.53 445.521 327.479C446.042 322.524 443.304 317.855 440.668 313.615Z" fill="#F0F0F0"/>
<path d="M462.329 330.827L-3.32935 331C-3.50687 330.999 -3.67695 330.929 -3.8023 330.803C-3.92765 330.677 -3.99805 330.507 -3.99805 330.329C-3.99805 330.152 -3.92765 329.982 -3.8023 329.856C-3.67695 329.73 -3.50687 329.659 -3.32935 329.659L462.329 329.486C462.507 329.486 462.677 329.557 462.802 329.683C462.928 329.808 462.998 329.979 462.998 330.156C462.998 330.334 462.928 330.504 462.802 330.63C462.677 330.755 462.507 330.826 462.329 330.827Z" fill="#CACACA"/>
<path d="M142.103 134.217V295.879C142.105 297.94 142.924 299.915 144.381 301.372C145.838 302.828 147.813 303.648 149.873 303.649H389.442C391.502 303.648 393.477 302.828 394.934 301.372C396.391 299.915 397.21 297.94 397.211 295.879V134.217C397.206 132.159 396.386 130.187 394.93 128.732C393.473 127.277 391.5 126.459 389.442 126.456H149.873C147.815 126.459 145.841 127.277 144.385 128.732C142.929 130.187 142.108 132.159 142.103 134.217Z" fill="#3F3D56"/>
<path d="M147.723 136.229V293.885C147.725 294.986 148.163 296.041 148.942 296.819C149.72 297.598 150.775 298.036 151.876 298.038H387.447C388.548 298.036 389.603 297.598 390.381 296.819C391.16 296.041 391.598 294.986 391.6 293.885V136.229C391.6 135.127 391.162 134.07 390.384 133.29C389.606 132.51 388.549 132.07 387.447 132.068H151.876C150.774 132.07 149.718 132.51 148.939 133.29C148.161 134.07 147.723 135.127 147.723 136.229Z" fill="white"/>
<path d="M137.093 327.408C137.532 327.958 138.09 328.402 138.725 328.706C139.36 329.009 140.055 329.165 140.759 329.162H397.28C397.982 329.161 398.674 329.004 399.308 328.702C399.941 328.399 400.499 327.96 400.94 327.415C401.382 326.87 401.697 326.234 401.862 325.552C402.027 324.87 402.038 324.16 401.894 323.473L397.912 304.559C397.747 303.788 397.392 303.07 396.879 302.471C396.365 301.872 395.71 301.411 394.973 301.13C394.44 300.921 393.872 300.814 393.298 300.814H144.725C144.152 300.814 143.584 300.921 143.05 301.13C142.313 301.411 141.658 301.872 141.145 302.471C140.631 303.07 140.276 303.788 140.111 304.559L136.129 323.473C135.987 324.16 136 324.869 136.167 325.549C136.334 326.23 136.65 326.865 137.093 327.408Z" fill="#2F2E41"/>
<path d="M383.851 308.961H391.202C391.353 308.961 391.477 308.838 391.477 308.686V304.495C391.477 304.344 391.353 304.221 391.202 304.221H383.851C383.699 304.221 383.576 304.344 383.576 304.495V308.686C383.576 308.838 383.699 308.961 383.851 308.961Z" fill="#3F3D56"/>
<path d="M368.049 308.961H375.4C375.552 308.961 375.675 308.838 375.675 308.686V304.495C375.675 304.344 375.552 304.221 375.4 304.221H368.049C367.897 304.221 367.774 304.344 367.774 304.495V308.686C367.774 308.838 367.897 308.961 368.049 308.961Z" fill="#3F3D56"/>
<path d="M352.248 308.961H359.599C359.75 308.961 359.874 308.838 359.874 308.686V304.495C359.874 304.344 359.75 304.221 359.599 304.221H352.248C352.096 304.221 351.973 304.344 351.973 304.495V308.686C351.973 308.838 352.096 308.961 352.248 308.961Z" fill="#3F3D56"/>
<path d="M336.446 308.961H343.797C343.949 308.961 344.072 308.838 344.072 308.686V304.495C344.072 304.344 343.949 304.221 343.797 304.221H336.446C336.294 304.221 336.171 304.344 336.171 304.495V308.686C336.171 308.838 336.294 308.961 336.446 308.961Z" fill="#3F3D56"/>
<path d="M320.645 308.961H327.996C328.147 308.961 328.271 308.838 328.271 308.686V304.495C328.271 304.344 328.147 304.221 327.996 304.221H320.645C320.493 304.221 320.37 304.344 320.37 304.495V308.686C320.37 308.838 320.493 308.961 320.645 308.961Z" fill="#3F3D56"/>
<path d="M304.843 308.961H312.194C312.346 308.961 312.469 308.838 312.469 308.686V304.495C312.469 304.344 312.346 304.221 312.194 304.221H304.843C304.691 304.221 304.568 304.344 304.568 304.495V308.686C304.568 308.838 304.691 308.961 304.843 308.961Z" fill="#3F3D56"/>
<path d="M289.042 308.961H296.392C296.544 308.961 296.667 308.838 296.667 308.686V304.495C296.667 304.344 296.544 304.221 296.392 304.221H289.042C288.89 304.221 288.767 304.344 288.767 304.495V308.686C288.767 308.838 288.89 308.961 289.042 308.961Z" fill="#3F3D56"/>
<path d="M273.24 308.961H280.591C280.743 308.961 280.866 308.838 280.866 308.686V304.495C280.866 304.344 280.743 304.221 280.591 304.221H273.24C273.088 304.221 272.965 304.344 272.965 304.495V308.686C272.965 308.838 273.088 308.961 273.24 308.961Z" fill="#3F3D56"/>
<path d="M257.439 308.961H264.79C264.941 308.961 265.065 308.838 265.065 308.686V304.495C265.065 304.344 264.941 304.221 264.79 304.221H257.439C257.287 304.221 257.164 304.344 257.164 304.495V308.686C257.164 308.838 257.287 308.961 257.439 308.961Z" fill="#3F3D56"/>
<path d="M241.637 308.961H248.988C249.14 308.961 249.263 308.838 249.263 308.686V304.495C249.263 304.344 249.14 304.221 248.988 304.221H241.637C241.485 304.221 241.362 304.344 241.362 304.495V308.686C241.362 308.838 241.485 308.961 241.637 308.961Z" fill="#3F3D56"/>
<path d="M225.836 308.961H233.187C233.338 308.961 233.462 308.838 233.462 308.686V304.495C233.462 304.344 233.338 304.221 233.187 304.221H225.836C225.684 304.221 225.561 304.344 225.561 304.495V308.686C225.561 308.838 225.684 308.961 225.836 308.961Z" fill="#3F3D56"/>
<path d="M210.034 308.961H217.385C217.537 308.961 217.66 308.838 217.66 308.686V304.495C217.66 304.344 217.537 304.221 217.385 304.221H210.034C209.882 304.221 209.759 304.344 209.759 304.495V308.686C209.759 308.838 209.882 308.961 210.034 308.961Z" fill="#3F3D56"/>
<path d="M194.233 308.961H201.584C201.736 308.961 201.859 308.838 201.859 308.686V304.495C201.859 304.344 201.736 304.221 201.584 304.221H194.233C194.081 304.221 193.958 304.344 193.958 304.495V308.686C193.958 308.838 194.081 308.961 194.233 308.961Z" fill="#3F3D56"/>
<path d="M178.431 308.961H185.782C185.934 308.961 186.057 308.838 186.057 308.686V304.495C186.057 304.344 185.934 304.221 185.782 304.221H178.431C178.279 304.221 178.156 304.344 178.156 304.495V308.686C178.156 308.838 178.279 308.961 178.431 308.961Z" fill="#3F3D56"/>
<path d="M162.63 308.961H169.981C170.133 308.961 170.256 308.838 170.256 308.686V304.495C170.256 304.344 170.133 304.221 169.981 304.221H162.63C162.478 304.221 162.355 304.344 162.355 304.495V308.686C162.355 308.838 162.478 308.961 162.63 308.961Z" fill="#3F3D56"/>
<path d="M146.828 308.961H154.179C154.331 308.961 154.454 308.838 154.454 308.686V304.495C154.454 304.344 154.331 304.221 154.179 304.221H146.828C146.676 304.221 146.553 304.344 146.553 304.495V308.686C146.553 308.838 146.676 308.961 146.828 308.961Z" fill="#3F3D56"/>
<path d="M384.038 316.862H391.388C391.54 316.862 391.663 316.739 391.663 316.587V312.396C391.663 312.245 391.54 312.121 391.388 312.121H384.038C383.886 312.121 383.763 312.245 383.763 312.396V316.587C383.763 316.739 383.886 316.862 384.038 316.862Z" fill="#3F3D56"/>
<path d="M368.236 316.862H375.587C375.739 316.862 375.862 316.739 375.862 316.587V312.396C375.862 312.245 375.739 312.121 375.587 312.121H368.236C368.084 312.121 367.961 312.245 367.961 312.396V316.587C367.961 316.739 368.084 316.862 368.236 316.862Z" fill="#3F3D56"/>
<path d="M352.435 316.862H359.785C359.937 316.862 360.06 316.739 360.06 316.587V312.396C360.06 312.245 359.937 312.121 359.785 312.121H352.435C352.283 312.121 352.16 312.245 352.16 312.396V316.587C352.16 316.739 352.283 316.862 352.435 316.862Z" fill="#3F3D56"/>
<path d="M336.633 316.862H343.984C344.136 316.862 344.259 316.739 344.259 316.587V312.396C344.259 312.245 344.136 312.121 343.984 312.121H336.633C336.481 312.121 336.358 312.245 336.358 312.396V316.587C336.358 316.739 336.481 316.862 336.633 316.862Z" fill="#3F3D56"/>
<path d="M320.831 316.862H328.182C328.334 316.862 328.457 316.739 328.457 316.587V312.396C328.457 312.245 328.334 312.121 328.182 312.121H320.831C320.68 312.121 320.557 312.245 320.557 312.396V316.587C320.557 316.739 320.68 316.862 320.831 316.862Z" fill="#3F3D56"/>
<path d="M305.03 316.862H312.381C312.533 316.862 312.656 316.739 312.656 316.587V312.396C312.656 312.245 312.533 312.121 312.381 312.121H305.03C304.878 312.121 304.755 312.245 304.755 312.396V316.587C304.755 316.739 304.878 316.862 305.03 316.862Z" fill="#3F3D56"/>
<path d="M289.228 316.862H296.579C296.731 316.862 296.854 316.739 296.854 316.587V312.396C296.854 312.245 296.731 312.121 296.579 312.121H289.228C289.077 312.121 288.954 312.245 288.954 312.396V316.587C288.954 316.739 289.077 316.862 289.228 316.862Z" fill="#3F3D56"/>
<path d="M273.427 316.862H280.778C280.93 316.862 281.053 316.739 281.053 316.587V312.396C281.053 312.245 280.93 312.121 280.778 312.121H273.427C273.275 312.121 273.152 312.245 273.152 312.396V316.587C273.152 316.739 273.275 316.862 273.427 316.862Z" fill="#3F3D56"/>
<path d="M257.626 316.862H264.976C265.128 316.862 265.251 316.739 265.251 316.587V312.396C265.251 312.245 265.128 312.121 264.976 312.121H257.626C257.474 312.121 257.351 312.245 257.351 312.396V316.587C257.351 316.739 257.474 316.862 257.626 316.862Z" fill="#3F3D56"/>
<path d="M241.824 316.862H249.175C249.327 316.862 249.45 316.739 249.45 316.587V312.396C249.45 312.245 249.327 312.121 249.175 312.121H241.824C241.672 312.121 241.549 312.245 241.549 312.396V316.587C241.549 316.739 241.672 316.862 241.824 316.862Z" fill="#3F3D56"/>
<path d="M226.023 316.862H233.373C233.525 316.862 233.648 316.739 233.648 316.587V312.396C233.648 312.245 233.525 312.121 233.373 312.121H226.023C225.871 312.121 225.748 312.245 225.748 312.396V316.587C225.748 316.739 225.871 316.862 226.023 316.862Z" fill="#3F3D56"/>
<path d="M210.221 316.862H217.572C217.724 316.862 217.847 316.739 217.847 316.587V312.396C217.847 312.245 217.724 312.121 217.572 312.121H210.221C210.069 312.121 209.946 312.245 209.946 312.396V316.587C209.946 316.739 210.069 316.862 210.221 316.862Z" fill="#3F3D56"/>
<path d="M194.419 316.862H201.77C201.922 316.862 202.045 316.739 202.045 316.587V312.396C202.045 312.245 201.922 312.121 201.77 312.121H194.419C194.268 312.121 194.145 312.245 194.145 312.396V316.587C194.145 316.739 194.268 316.862 194.419 316.862Z" fill="#3F3D56"/>
<path d="M178.618 316.862H185.969C186.121 316.862 186.244 316.739 186.244 316.587V312.396C186.244 312.245 186.121 312.121 185.969 312.121H178.618C178.466 312.121 178.343 312.245 178.343 312.396V316.587C178.343 316.739 178.466 316.862 178.618 316.862Z" fill="#3F3D56"/>
<path d="M162.816 316.862H170.167C170.319 316.862 170.442 316.739 170.442 316.587V312.396C170.442 312.245 170.319 312.121 170.167 312.121H162.816C162.665 312.121 162.542 312.245 162.542 312.396V316.587C162.542 316.739 162.665 316.862 162.816 316.862Z" fill="#3F3D56"/>
<path d="M147.015 316.862H154.366C154.518 316.862 154.641 316.739 154.641 316.587V312.396C154.641 312.245 154.518 312.121 154.366 312.121H147.015C146.863 312.121 146.74 312.245 146.74 312.396V316.587C146.74 316.739 146.863 316.862 147.015 316.862Z" fill="#3F3D56"/>
<path d="M235.425 326.343H298.081C298.232 326.343 298.356 326.219 298.356 326.068V321.877C298.356 321.725 298.232 321.602 298.081 321.602H235.425C235.273 321.602 235.15 321.725 235.15 321.877V326.068C235.15 326.219 235.273 326.343 235.425 326.343Z" fill="#3F3D56"/>
<path d="M323.327 227.57C323.301 240.878 318.297 253.696 309.3 263.503C300.302 273.309 287.962 279.395 274.704 280.565C261.447 281.734 248.231 277.901 237.656 269.821C227.081 261.741 219.911 249.996 217.556 236.898C215.201 223.799 217.831 210.293 224.929 199.035C232.027 187.777 243.08 179.581 255.914 176.059C268.749 172.537 282.437 173.944 294.287 180.002C306.137 186.061 315.292 196.332 319.952 208.799C320.069 209.112 320.182 209.425 320.292 209.741V209.744C320.784 211.133 321.217 212.548 321.592 213.989C322.748 218.423 323.331 222.987 323.327 227.57Z" fill="#3F3D56"/>
<path d="M263.79 191.362C261.379 190.058 258.701 189.322 255.961 189.21C253.222 189.098 250.493 189.613 247.983 190.716C245.773 191.677 243.445 193.403 242.708 196.519C245.69 194.759 249.55 197.539 250.318 202L250.138 202.049C249.733 205.139 250.638 208.503 252.389 210.418C252.52 209.554 252.841 208.729 253.33 208.005C253.818 207.28 254.462 206.673 255.215 206.228C256.502 205.382 257.925 204.768 258.908 203.313C260.072 201.59 260.368 199.07 260.831 196.772C261.293 194.473 262.171 192.003 263.79 191.362Z" fill="#2594EA"/>
<path d="M247.098 217.654C246.272 218.894 245.169 219.672 244.179 220.641C243.037 221.68 242.287 223.082 242.057 224.609C241.931 225.688 242.125 226.785 242.098 227.877C242.072 228.968 241.708 230.196 240.965 230.468C239.794 230.891 238.899 228.714 237.695 228.562C236.738 228.443 235.876 229.949 236.153 231.255C236.431 232.56 237.734 233.139 238.482 232.286C239.159 233.422 238.682 235.482 237.665 235.831C237.558 236.547 237.45 237.259 237.346 237.975C234.776 236.177 232.179 234.349 229.994 231.717C227.563 228.814 226.056 225.251 225.665 221.485C225.382 218.458 225.802 214.997 224.413 212.669C223.301 210.805 221.392 210.394 219.675 210.51C219.362 210.531 219.046 210.567 218.733 210.606C219.746 207.564 221.032 204.62 222.576 201.81C222.925 201.66 223.25 201.458 223.539 201.211C225.137 199.855 225.847 197.109 227.144 195.21C227.227 195.087 227.314 194.968 227.403 194.852C228.73 193.12 230.507 192.228 232.224 191.399C236.025 189.554 239.937 187.685 243.95 187.941L242.808 188.051C241.475 191.784 240.142 195.517 238.807 199.249C238.604 199.822 238.399 200.395 238.193 200.97C237.435 203.092 236.654 205.352 236.771 207.728C236.839 209.136 237.328 210.638 238.258 211.121C239.126 211.569 240.074 211.02 240.912 210.477C241.267 210.251 241.618 210.024 241.973 209.795C243.246 208.975 244.656 208.134 246.001 208.682C247.232 209.183 248.142 210.856 248.315 212.66C248.473 214.413 248.045 216.169 247.098 217.654Z" fill="#2594EA"/>
<path d="M254.67 243.138C250.952 240.848 247.234 238.559 243.516 236.27L243.579 236.107C241.267 236.988 240.307 241.097 240.689 244.457C241.071 247.818 242.367 250.822 243.021 254.096C243.903 258.577 243.57 263.213 242.056 267.521C246.946 262.035 251.272 256.073 254.972 249.724C255.489 248.924 255.883 248.051 256.14 247.134C256.413 246.156 256.316 245.113 255.867 244.203C255.563 243.754 255.151 243.388 254.67 243.138Z" fill="#2594EA"/>
<path d="M239.996 201.489C239.559 202.426 239.492 203.494 239.807 204.479C240.174 205.272 240.84 205.889 241.659 206.194L243.713 207.212C244.397 207.551 245.133 207.893 245.83 207.614C246.671 207.278 247.253 205.961 247.103 204.737C246.942 203.436 246.122 202.541 245.363 201.778C244.301 200.711 243.239 199.645 242.178 198.578L241.579 199.311C240.932 199.942 240.397 200.678 239.996 201.489Z" fill="#2594EA"/>
<path d="M312.314 215.403C313.238 215.62 314.162 215.838 315.087 216.055C314.925 219.177 313.378 222.066 311.303 223.112C310.439 223.548 309.476 223.709 308.76 224.523C308.113 225.262 307.785 226.413 307.484 227.513C306.956 229.433 306.428 231.353 305.901 233.273C305.334 235.342 304.607 237.641 303.134 238.386C301.87 239.027 300.424 238.243 299.452 236.928C298.48 235.613 297.887 233.845 297.311 232.122C297.347 234.001 296.474 235.843 295.236 236.496C293.996 237.149 292.487 236.559 291.659 235.101C291.062 234.054 290.815 232.674 290.23 231.612C289.646 230.551 288.421 229.943 287.783 230.939C287.362 231.601 287.416 232.614 287.207 233.455C287.102 234.013 286.826 234.525 286.417 234.918C286.007 235.312 285.485 235.569 284.924 235.652C284.407 235.64 283.898 235.524 283.428 235.309C282.958 235.094 282.537 234.786 282.19 234.403C280.364 232.535 279.175 230.138 278.794 227.555C278.535 226.316 278.568 225.034 278.889 223.81C279.256 222.65 280.141 221.756 281.021 221.977C281.599 220.754 280.457 219.132 279.429 219.275C278.397 219.419 277.589 220.525 276.743 221.374C275.899 222.224 274.718 222.841 273.868 221.997C273.878 222.158 273.855 222.319 273.8 222.47C273.744 222.621 273.658 222.759 273.547 222.875C273.436 222.991 273.302 223.083 273.154 223.145C273.005 223.207 272.846 223.237 272.685 223.235C272.12 223.073 271.595 222.794 271.143 222.418C269.197 221.204 266.725 222.009 265.342 224.305C266.206 220.626 267.473 216.404 270.13 215.54C271.215 215.185 272.399 215.477 273.424 214.863C275.24 213.775 275.607 209.663 274.038 207.967C274.238 209.571 274.199 211.443 273.353 212.54C272.506 213.638 270.729 212.922 270.836 211.3C270.812 211.528 270.717 211.743 270.563 211.913C270.409 212.084 270.206 212.201 269.982 212.249C269.757 212.297 269.523 212.272 269.314 212.179C269.104 212.085 268.93 211.928 268.815 211.73C268.251 210.871 268.299 209.467 268.699 208.441C269.111 207.512 269.701 206.673 270.437 205.972C271.853 204.455 273.29 202.92 274.93 201.965C276.573 201.011 278.469 200.689 280.114 201.638C280.982 202.138 281.745 202.973 282.631 203.414C282.843 203.546 283.079 203.634 283.326 203.672C283.573 203.711 283.825 203.7 284.067 203.639C284.309 203.578 284.536 203.47 284.736 203.319C284.935 203.169 285.103 202.981 285.228 202.764C285.887 201.608 285.576 199.89 285.821 198.444C286.259 195.889 288.814 194.694 290.23 196.381C289.172 196.11 288.078 197.362 287.947 198.88C287.813 200.397 288.579 201.93 289.604 202.389C291.328 203.152 293.015 201.232 294.318 199.455C295.677 197.595 297.039 195.735 298.403 193.877C298.62 193.561 298.865 193.263 299.133 192.989C299.56 192.572 300.129 192.334 300.725 192.322C301.322 192.31 301.9 192.525 302.344 192.923C303.721 194.047 304.368 196.352 305.498 197.938C307.138 200.242 309.592 200.803 311.876 201.25C313.578 201.581 315.281 201.914 316.986 202.249C318.122 204.362 319.113 206.551 319.952 208.799C316.827 210.224 314.176 212.516 312.314 215.403Z" fill="#2594EA"/>
<path d="M321.592 213.989C321.243 215.019 321.052 216.096 321.026 217.182C319.565 215.4 319.332 212.057 320.292 209.744C320.784 211.133 321.217 212.548 321.592 213.989Z" fill="#2594EA"/>
<path d="M317.817 251.275C316.54 253.868 315.055 256.354 313.375 258.707C312.302 258.248 311.148 259.068 310.143 259.837C309.094 260.642 307.833 261.426 306.756 260.693C305.656 259.941 305.301 257.84 305.65 256.173C306.051 254.636 306.752 253.193 307.713 251.927C308.608 250.592 309.565 249.205 310.808 248.687C312.054 248.168 313.655 248.901 314.019 250.672L314.902 250.642C314.407 249.963 314.666 248.555 315.331 248.308C316.097 248.019 316.762 249.071 317.215 250.001C317.418 250.422 317.624 250.845 317.817 251.275Z" fill="#2594EA"/>
<path d="M284.018 238.682C282.122 238.801 280.619 236.466 279.621 234.168C278.622 231.871 277.711 229.244 276 228.075C275.022 227.407 273.907 227.315 272.846 226.991C272.244 226.839 271.688 226.546 271.222 226.136C270.756 225.726 270.395 225.211 270.168 224.633L268.964 224.147C267.281 224.989 265.74 226.088 264.396 227.405C262.86 229.036 261.904 231.127 261.674 233.356C261.444 235.764 262.293 238.45 263.879 239.355C265.132 240.07 266.591 239.619 267.86 240.273C269.446 241.091 270.388 243.466 270.744 245.812C271.101 248.157 271.01 250.594 271.265 252.966C271.52 255.338 272.223 257.806 273.678 259.022C275.498 260.543 278.168 259.279 278.985 256.51C279.385 255.152 279.372 253.619 279.671 252.209C280.199 249.727 281.622 247.885 282.751 245.848C283.881 243.811 284.769 241.045 284.018 238.682Z" fill="#2594EA"/>
<path d="M265.274 214.284C265.451 214.447 265.616 214.622 265.768 214.809C265.926 215.08 266.006 215.389 266.001 215.702C265.995 216.016 265.905 216.322 265.738 216.588C265.967 216.575 266.19 216.514 266.394 216.411C266.598 216.307 266.778 216.162 266.923 215.985C267.27 215.591 267.574 215.162 267.832 214.705C267.954 214.549 268.04 214.368 268.086 214.176C268.133 213.983 268.137 213.783 268.1 213.588C268.011 213.333 267.799 213.224 267.65 213.031C267.444 212.655 267.304 212.247 267.234 211.824C267.152 211.427 266.961 211.062 266.682 210.768C266.403 210.474 266.048 210.264 265.656 210.161L265.751 210.179C265.589 210.275 265.462 210.419 265.386 210.591C265.31 210.764 265.29 210.955 265.329 211.139C265.386 211.511 265.626 211.82 265.602 212.2C265.568 212.745 265.022 213.001 264.989 213.547C264.983 213.821 265.086 214.086 265.274 214.284Z" fill="#2594EA"/>
<path d="M262.025 205.012L262.033 205.011C262.091 204.957 262.145 204.9 262.195 204.838L262.025 205.012Z" fill="#2594EA"/>
<path d="M262.593 207.573C262.821 207.373 262.99 207.115 263.081 206.825C263.171 206.536 263.181 206.228 263.108 205.933C262.971 205.313 262.483 204.896 262.033 205.01C261.902 205.143 261.741 205.24 261.562 205.292C261.384 205.345 261.195 205.351 261.014 205.31C260.736 205.239 260.43 205.054 260.189 205.264C260.051 205.42 259.955 205.609 259.908 205.812C259.819 206.087 259.73 206.361 259.64 206.635C259.598 206.733 259.587 206.842 259.609 206.946C259.626 206.988 259.654 207.025 259.689 207.053C259.724 207.081 259.767 207.1 259.811 207.107C260.347 207.265 260.883 207.423 261.418 207.581C261.603 207.666 261.804 207.709 262.007 207.708C262.21 207.707 262.41 207.661 262.593 207.573Z" fill="#2594EA"/>
<path d="M303.034 242.932C302.786 242.527 302.539 242.121 302.291 241.716C302.048 241.247 301.715 240.829 301.312 240.487C301.223 240.413 301.121 240.357 301.01 240.323C300.9 240.289 300.784 240.277 300.669 240.289C300.554 240.3 300.442 240.335 300.34 240.39C300.239 240.445 300.149 240.52 300.077 240.611L300.107 240.842C300.77 241.553 301.222 242.435 301.412 243.388C301.469 243.802 301.449 244.231 301.498 244.647C301.504 244.84 301.547 245.03 301.626 245.206C301.704 245.383 301.817 245.542 301.957 245.674C302.347 245.935 302.805 245.551 303.083 245.082C303.331 244.697 303.442 244.24 303.398 243.784C303.337 243.478 303.212 243.188 303.034 242.932Z" fill="#2594EA"/>
<path d="M306.918 243.46C306.966 243.08 306.935 242.695 306.828 242.328C306.81 241.831 306.942 241.34 307.206 240.919C307.468 240.522 307.667 240.086 307.795 239.628C307.849 239.419 307.839 239.198 307.767 238.995C307.685 238.811 307.486 238.727 307.372 238.873L307.616 239.03C307.287 238.971 306.949 238.987 306.627 239.078C306.444 239.148 306.28 239.261 306.149 239.408C306.019 239.556 305.926 239.732 305.878 239.923C305.837 240.22 305.772 240.513 305.681 240.799C305.536 241.098 305.254 241.197 305.077 241.46C304.957 241.692 304.896 241.951 304.9 242.213C304.905 242.475 304.974 242.731 305.102 242.96C305.324 243.333 305.677 243.611 306.093 243.739C306.39 243.845 306.782 243.851 306.918 243.46Z" fill="#2594EA"/>
<path d="M313.836 245.547C313.944 245.827 314.088 246.091 314.265 246.334C314.596 246.667 315.046 246.462 315.448 246.381C315.812 246.324 316.186 246.366 316.528 246.503C316.871 246.641 317.17 246.868 317.393 247.162C317.238 246.385 316.898 245.656 316.402 245.038C315.906 244.419 315.269 243.929 314.545 243.608C313.603 243.282 312.611 243.127 311.615 243.15L311.445 243.193C311.879 244.455 313.24 244.427 313.836 245.547Z" fill="#2594EA"/>
<path d="M284.537 248.128L284.54 248.133L284.589 248.038L284.537 248.128Z" fill="#2594EA"/>
<path d="M283.488 250.159C283.259 250.575 283.062 251.007 282.899 251.453C282.683 252.174 282.54 252.915 282.473 253.666C282.419 254.092 282.403 254.637 282.67 254.845C282.747 254.896 282.839 254.917 282.931 254.904C283.022 254.892 283.105 254.847 283.166 254.777C283.314 254.62 283.436 254.44 283.525 254.243C284.05 253.338 284.458 252.371 284.739 251.363C285.031 250.294 284.961 249.158 284.54 248.134C284.189 248.809 283.839 249.484 283.488 250.159Z" fill="#2594EA"/>
<path d="M273.364 196.042C273.531 196.205 273.741 196.316 273.97 196.361C274.199 196.405 274.436 196.382 274.652 196.294C275.098 196.098 275.508 195.828 275.863 195.493C276.157 195.276 276.406 195.004 276.598 194.692C276.703 194.506 276.77 194.301 276.796 194.088C276.822 193.876 276.806 193.66 276.748 193.454C276.666 193.257 276.535 193.084 276.367 192.951C276.199 192.818 276.001 192.731 275.79 192.696C275.195 192.52 274.6 192.344 274.006 192.167L274.436 191.78C273.993 191.542 273.504 191.983 273.227 192.529C273.05 192.885 272.926 193.266 272.86 193.658C272.766 194.068 272.763 194.494 272.85 194.906C272.937 195.317 273.112 195.705 273.364 196.042Z" fill="#2594EA"/>
<path d="M283.862 192.518C284.029 192.703 284.261 192.817 284.509 192.837C284.758 192.857 285.005 192.782 285.2 192.627C285.368 192.501 285.508 192.341 285.61 192.157C285.712 191.973 285.774 191.77 285.792 191.561C285.834 191.093 285.603 190.573 285.273 190.533L285.348 190.095C284.712 189.98 283.929 189.957 283.588 190.73C283.473 191.025 283.438 191.346 283.486 191.66C283.534 191.974 283.663 192.27 283.862 192.518Z" fill="#2594EA"/>
<path d="M378.74 160.609H160.584C160.434 160.606 160.292 160.544 160.187 160.437C160.083 160.33 160.024 160.187 160.024 160.037C160.024 159.888 160.083 159.744 160.187 159.637C160.292 159.53 160.434 159.469 160.584 159.465H378.74C378.889 159.469 379.031 159.53 379.136 159.637C379.241 159.744 379.299 159.888 379.299 160.037C379.299 160.187 379.241 160.33 379.136 160.437C379.031 160.544 378.889 160.606 378.74 160.609Z" fill="#CACACA"/>
<path d="M173.175 152.603C176.573 152.603 179.329 149.786 179.329 146.312C179.329 142.838 176.573 140.021 173.175 140.021C169.776 140.021 167.021 142.838 167.021 146.312C167.021 149.786 169.776 152.603 173.175 152.603Z" fill="#3F3D56"/>
<path d="M194.433 152.603C197.831 152.603 200.586 149.786 200.586 146.312C200.586 142.838 197.831 140.021 194.433 140.021C191.034 140.021 188.279 142.838 188.279 146.312C188.279 149.786 191.034 152.603 194.433 152.603Z" fill="#3F3D56"/>
<path d="M215.691 152.603C219.089 152.603 221.844 149.786 221.844 146.312C221.844 142.838 219.089 140.021 215.691 140.021C212.292 140.021 209.537 142.838 209.537 146.312C209.537 149.786 212.292 152.603 215.691 152.603Z" fill="#3F3D56"/>
<path d="M366.001 141.581H350.9C350.601 141.587 350.316 141.71 350.107 141.923C349.897 142.137 349.78 142.425 349.78 142.724C349.78 143.023 349.897 143.311 350.107 143.525C350.316 143.738 350.601 143.861 350.9 143.867H366.001C366.3 143.861 366.585 143.738 366.795 143.525C367.004 143.311 367.122 143.023 367.122 142.724C367.122 142.425 367.004 142.137 366.795 141.923C366.585 141.71 366.3 141.587 366.001 141.581Z" fill="#3F3D56"/>
<path d="M366.001 145.872H350.9C350.601 145.878 350.316 146.001 350.107 146.215C349.897 146.429 349.78 146.716 349.78 147.016C349.78 147.315 349.897 147.602 350.107 147.816C350.316 148.03 350.601 148.153 350.9 148.159H366.001C366.3 148.153 366.585 148.03 366.795 147.816C367.004 147.602 367.122 147.315 367.122 147.016C367.122 146.716 367.004 146.429 366.795 146.215C366.585 146.001 366.3 145.878 366.001 145.872Z" fill="#3F3D56"/>
<path d="M366.001 150.159H350.9C350.601 150.165 350.316 150.288 350.107 150.501C349.897 150.715 349.78 151.003 349.78 151.302C349.78 151.601 349.897 151.889 350.107 152.103C350.316 152.316 350.601 152.439 350.9 152.445H366.001C366.3 152.439 366.585 152.316 366.795 152.103C367.004 151.889 367.122 151.601 367.122 151.302C367.122 151.003 367.004 150.715 366.795 150.501C366.585 150.288 366.3 150.165 366.001 150.159Z" fill="#3F3D56"/>
<g opacity="0.35">
<path d="M384.52 230.214C388.031 228.683 380.91 227.791 372.831 227.498C364.752 227.205 354.979 227.222 349.817 226.388C344.823 225.582 345.191 224.149 344.771 222.85C344.351 221.552 342.432 220.22 334.64 219.932C324.931 219.572 308.92 220.957 301.591 220.125C294.752 219.35 298.817 216.916 288.844 216.823C283.149 216.77 275.812 217.572 269.475 217.766C264.983 217.961 260.483 217.726 256.036 217.065C252.947 216.559 250.796 215.918 247.32 215.471C238.194 214.297 220.338 214.692 204.401 216.196C188.465 217.7 174.804 220.164 167.1 222.606C159.395 225.047 157.267 227.45 159.062 229.489C160.208 230.79 163.14 232.007 170.253 232.53C183.559 233.508 207.247 231.825 220.996 232.715C228.659 233.211 232.058 234.44 238.781 235.113C246.004 235.836 256.578 235.875 266.967 235.857C288.598 235.822 310.782 235.6 333.403 235.192C342.851 235.022 352.751 234.8 362.805 233.989C372.859 233.178 383.113 231.613 385.234 230.145" fill="white"/>
</g>
</g>
<defs>
<clipPath id="clip0_211_392">
<rect width="486" height="331" fill="white"/>
</clipPath>
</defs>
</svg>
