<svg width="264" height="181" viewBox="0 0 264 181" fill="none" xmlns="http://www.w3.org/2000/svg">
<g clip-path="url(#clip0_211_352)">
<path d="M206.341 158.488C217.377 150.078 222.648 135.947 219.348 122.467C219.266 122.132 219.18 121.798 219.088 121.464C216.901 113.463 211.488 105.858 203.6 103.301C196.976 101.154 189.746 102.805 182.836 101.951C169.271 100.276 158.755 89.2954 151.355 77.7991C143.955 66.3028 138.268 53.4344 128.435 43.9367C112.228 28.2815 85.7894 24.9109 65.6943 35.1013C45.5993 45.2917 32.799 67.9 33.3449 90.4319C33.8908 112.964 47.2615 134.506 66.6791 145.936C73.8124 150.134 82.0626 153.109 90.2733 152.068C97.3976 151.165 103.871 147.335 110.962 146.198C122.11 144.411 133.187 149.453 142.83 155.329C152.472 161.206 161.786 168.171 172.744 170.895C183.383 173.54 196.564 165.937 206.341 158.488Z" fill="#F2F2F2"/>
<path d="M119.018 57.8617H9.07214C6.77918 57.8644 4.58091 58.7768 2.95955 60.3988C1.33819 62.0209 0.426128 64.2201 0.423462 66.514V121.256C0.426127 123.55 1.33819 125.749 2.95955 127.371C4.58092 128.993 6.77918 129.906 9.07214 129.908H119.018C121.311 129.907 123.509 128.994 125.131 127.372C126.752 125.75 127.664 123.55 127.666 121.256V66.514C127.664 64.2198 126.752 62.0202 125.131 60.398C123.509 58.7758 121.311 57.8636 119.018 57.8617Z" fill="white"/>
<path d="M119.018 130.335H9.07402C6.66828 130.332 4.36185 129.375 2.66073 127.673C0.959606 125.971 0.00272237 123.664 0 121.257V66.5132C0.00272125 64.1065 0.959606 61.7991 2.66073 60.0972C4.36185 58.3954 6.66828 57.4381 9.07402 57.4354H119.018C121.424 57.4381 123.73 58.3954 125.431 60.0972C127.132 61.7991 128.089 64.1065 128.092 66.5132V121.257C128.089 123.664 127.132 125.971 125.431 127.673C123.73 129.375 121.424 130.332 119.018 130.335ZM9.07402 58.2862C6.89375 58.2887 4.8035 59.1563 3.26181 60.6986C1.72013 62.2409 0.852909 64.332 0.850411 66.5132V121.257C0.852909 123.438 1.72013 125.529 3.26181 127.072C4.8035 128.614 6.89375 129.482 9.07402 129.484H119.018C121.198 129.482 123.288 128.614 124.83 127.072C126.372 125.529 127.239 123.438 127.241 121.257V66.5132C127.239 64.332 126.372 62.2409 124.83 60.6986C123.288 59.1563 121.198 58.2887 119.018 58.2862H9.07402Z" fill="#2F2E41"/>
<path d="M125.351 142.066H19.9899C19.0791 142.066 18.2057 141.704 17.5618 141.059C16.9178 140.415 16.556 139.541 16.556 138.63C16.556 137.719 16.9178 136.845 17.5618 136.201C18.2057 135.557 19.0791 135.195 19.9899 135.195H125.351C126.262 135.195 127.135 135.557 127.779 136.201C128.423 136.845 128.785 137.719 128.785 138.63C128.785 139.541 128.423 140.415 127.779 141.059C127.135 141.704 126.262 142.066 125.351 142.066Z" fill="#2594EA"/>
<path d="M222.617 97.4789H176.673C175.715 97.4778 174.796 97.0965 174.118 96.4186C173.441 95.7408 173.06 94.8217 173.059 93.8631V70.9862C173.06 70.0276 173.441 69.1085 174.118 68.4307C174.796 67.7528 175.715 67.3716 176.673 67.3705H222.617C223.575 67.3716 224.494 67.7528 225.172 68.4307C225.849 69.1085 226.23 70.0276 226.231 70.9862V93.8631C226.23 94.8217 225.849 95.7408 225.172 96.4186C224.494 97.0965 223.575 97.4778 222.617 97.4789Z" fill="white"/>
<path d="M222.617 97.9042H176.673C175.602 97.903 174.575 97.4768 173.818 96.7192C173.061 95.9617 172.635 94.9345 172.633 93.8631V70.9862C172.635 69.9148 173.061 68.8876 173.818 68.13C174.575 67.3724 175.602 66.9463 176.673 66.9451H222.617C223.688 66.9463 224.715 67.3724 225.472 68.13C226.23 68.8876 226.656 69.9148 226.657 70.9862V93.8631C226.656 94.9345 226.23 95.9617 225.472 96.7192C224.715 97.4768 223.688 97.903 222.617 97.9042ZM176.673 67.7958C175.827 67.7968 175.017 68.1332 174.419 68.7313C173.821 69.3294 173.485 70.1403 173.484 70.9862V93.8631C173.485 94.7089 173.821 95.5199 174.419 96.118C175.017 96.7161 175.827 97.0525 176.673 97.0534H222.617C223.463 97.0525 224.273 96.7161 224.871 96.118C225.469 95.5199 225.805 94.7089 225.806 93.8631V70.9862C225.805 70.1403 225.469 69.3294 224.871 68.7313C224.273 68.1332 223.463 67.7968 222.617 67.7958H176.673Z" fill="#2F2E41"/>
<path d="M205.743 14.6689H12.5755C12.3745 14.6647 12.1833 14.5818 12.0427 14.4382C11.9021 14.2945 11.8234 14.1015 11.8234 13.9005C11.8234 13.6994 11.9021 13.5064 12.0427 13.3627C12.1833 13.219 12.3745 13.1362 12.5755 13.132H205.743C205.944 13.1362 206.135 13.219 206.276 13.3627C206.417 13.5064 206.495 13.6994 206.495 13.9005C206.495 14.1015 206.417 14.2945 206.276 14.4382C206.135 14.5818 205.944 14.6647 205.743 14.6689Z" fill="#CACACA"/>
<path d="M25.7246 9.20818C28.211 9.20818 30.2265 7.14686 30.2265 4.60409C30.2265 2.06132 28.211 0 25.7246 0C23.2383 0 21.2228 2.06132 21.2228 4.60409C21.2228 7.14686 23.2383 9.20818 25.7246 9.20818Z" fill="#3F3D56"/>
<path d="M41.2765 9.20818C43.7628 9.20818 45.7784 7.14686 45.7784 4.60409C45.7784 2.06132 43.7628 0 41.2765 0C38.7902 0 36.7747 2.06132 36.7747 4.60409C36.7747 7.14686 38.7902 9.20818 41.2765 9.20818Z" fill="#3F3D56"/>
<path d="M56.8285 9.20818C59.3148 9.20818 61.3304 7.14686 61.3304 4.60409C61.3304 2.06132 59.3148 0 56.8285 0C54.3422 0 52.3267 2.06132 52.3267 4.60409C52.3267 7.14686 54.3422 9.20818 56.8285 9.20818Z" fill="#3F3D56"/>
<path d="M196.38 1.14111H185.333C185.114 1.14545 184.905 1.23551 184.752 1.39198C184.598 1.54844 184.512 1.75882 184.512 1.97793C184.512 2.19705 184.598 2.40743 184.752 2.56389C184.905 2.72035 185.114 2.81042 185.333 2.81475H196.38C196.599 2.81042 196.807 2.72035 196.961 2.56389C197.114 2.40743 197.2 2.19705 197.2 1.97793C197.2 1.75882 197.114 1.54844 196.961 1.39198C196.807 1.23551 196.599 1.14545 196.38 1.14111Z" fill="#3F3D56"/>
<path d="M196.38 4.28235H185.333C185.114 4.28668 184.905 4.37675 184.752 4.53321C184.598 4.68967 184.512 4.90005 184.512 5.11917C184.512 5.33828 184.598 5.54866 184.752 5.70513C184.905 5.86159 185.114 5.95165 185.333 5.95599H196.38C196.599 5.95165 196.807 5.86159 196.961 5.70513C197.114 5.54866 197.2 5.33828 197.2 5.11917C197.2 4.90005 197.114 4.68967 196.961 4.53321C196.807 4.37675 196.599 4.28668 196.38 4.28235Z" fill="#3F3D56"/>
<path d="M196.38 7.41943H185.333C185.114 7.42377 184.905 7.51384 184.752 7.6703C184.598 7.82677 184.512 8.03714 184.512 8.25625C184.512 8.47537 184.598 8.68575 184.752 8.84222C184.905 8.99868 185.114 9.08874 185.333 9.09307H196.38C196.599 9.08874 196.807 8.99868 196.961 8.84222C197.114 8.68575 197.2 8.47537 197.2 8.25625C197.2 8.03714 197.114 7.82677 196.961 7.6703C196.807 7.51384 196.599 7.42377 196.38 7.41943Z" fill="#3F3D56"/>
<path d="M225.912 102.159C228.817 102.159 231.172 99.8023 231.172 96.8957C231.172 93.989 228.817 91.6327 225.912 91.6327C223.006 91.6327 220.651 93.989 220.651 96.8957C220.651 99.8023 223.006 102.159 225.912 102.159Z" fill="#3F3D56"/>
<path d="M225.518 98.9991C225.507 98.9991 225.495 98.9987 225.484 98.9982C225.385 98.9934 225.288 98.9672 225.2 98.9214C225.112 98.8757 225.035 98.8114 224.974 98.7331L224.095 97.6023C224.04 97.531 223.999 97.4493 223.975 97.3621C223.951 97.275 223.944 97.1839 223.955 97.0941C223.966 97.0044 223.995 96.9177 224.04 96.8391C224.085 96.7605 224.144 96.6915 224.216 96.636L224.247 96.6113C224.319 96.5558 224.4 96.5148 224.487 96.4908C224.575 96.4668 224.666 96.4602 224.755 96.4714C224.845 96.4826 224.932 96.5114 225.01 96.5561C225.089 96.6009 225.158 96.6607 225.213 96.7321C225.258 96.7891 225.314 96.8359 225.378 96.8692C225.442 96.9025 225.513 96.9216 225.585 96.9251C225.657 96.9286 225.729 96.9165 225.796 96.8896C225.864 96.8627 225.924 96.8216 225.974 96.7691L227.759 94.8838C227.884 94.7514 228.057 94.6743 228.24 94.6693C228.422 94.6644 228.599 94.732 228.732 94.8574L228.761 94.8853C228.827 94.9475 228.88 95.022 228.916 95.1046C228.953 95.1872 228.974 95.2762 228.976 95.3666C228.978 95.457 228.963 95.547 228.931 95.6314C228.898 95.7159 228.85 95.7931 228.788 95.8588L226.017 98.784C225.953 98.8519 225.876 98.906 225.79 98.943C225.704 98.98 225.611 98.9991 225.518 98.9991Z" fill="white"/>
<path d="M81.9369 121.123C81.9415 123.932 81.2968 126.704 80.0532 129.222C79.9129 129.511 79.7641 129.792 79.6067 130.073H47.644C47.4867 129.792 47.3379 129.511 47.1976 129.222C45.9773 126.747 45.3318 124.028 45.3092 121.268C45.2866 118.508 45.8876 115.779 47.0673 113.284C48.2469 110.789 49.9747 108.593 52.1217 106.859C54.2686 105.126 56.7792 103.901 59.466 103.274C62.1529 102.648 64.9464 102.637 67.6381 103.242C70.3297 103.847 72.85 105.053 75.0106 106.769C77.1712 108.485 78.9164 110.667 80.1157 113.153C81.315 115.638 81.9376 118.363 81.9369 121.123Z" fill="#2F2E41"/>
<path d="M64.0894 122.744C67.546 122.744 70.3481 119.941 70.3481 116.483C70.3481 113.025 67.546 110.221 64.0894 110.221C60.6328 110.221 57.8307 113.025 57.8307 116.483C57.8307 119.941 60.6328 122.744 64.0894 122.744Z" fill="white"/>
<path d="M64.0894 118.57C65.2416 118.57 66.1756 117.635 66.1756 116.483C66.1756 115.33 65.2416 114.396 64.0894 114.396C62.9372 114.396 62.0032 115.33 62.0032 116.483C62.0032 117.635 62.9372 118.57 64.0894 118.57Z" fill="#3F3D56"/>
<path d="M45.862 104.084C44.3834 97.4588 49.11 90.7648 56.4193 89.132C63.7285 87.4992 70.8526 91.5461 72.3312 98.1709C73.8098 104.796 68.9657 107.239 61.6565 108.872C54.3472 110.504 47.3407 110.708 45.862 104.084Z" fill="#2594EA"/>
<path d="M88.7066 136.91C89.682 135.707 87.3668 132.211 83.5353 129.103C79.7039 125.995 75.8071 124.45 74.8317 125.654C73.8563 126.857 76.1715 130.352 80.003 133.461C83.8344 136.569 87.7311 138.113 88.7066 136.91Z" fill="#2F2E41"/>
<path d="M50.8633 121.171C51.8387 119.968 49.5235 116.472 45.6921 113.364C41.8606 110.256 37.9639 108.711 36.9885 109.914C36.013 111.118 38.3283 114.613 42.1597 117.722C45.9912 120.83 49.8879 122.374 50.8633 121.171Z" fill="#2F2E41"/>
<path d="M220.92 75.1867C225.696 73.9526 229.254 71.7361 228.867 70.2361C228.48 68.736 224.294 68.5205 219.517 69.7546C214.741 70.9888 211.183 73.2053 211.571 74.7053C211.958 76.2053 216.144 76.4209 220.92 75.1867Z" fill="#2F2E41"/>
<path d="M185.39 75.2486C187.283 70.6914 187.658 66.5152 186.228 65.9206C184.798 65.3261 182.104 68.5385 180.211 73.0957C178.318 77.6528 177.943 81.8291 179.373 82.4236C180.803 83.0182 183.497 79.8058 185.39 75.2486Z" fill="#2F2E41"/>
<path d="M202.312 87.8177C212.178 87.8177 220.176 79.8165 220.176 69.9464C220.176 60.0764 212.178 52.0752 202.312 52.0752C192.446 52.0752 184.448 60.0764 184.448 69.9464C184.448 79.8165 192.446 87.8177 202.312 87.8177Z" fill="#2F2E41"/>
<path d="M199.708 93.7118L194.282 93.737C190.309 89.8248 190.897 86.6844 194.236 84.0097L199.663 83.9845C197.161 87.0664 196.494 90.2653 199.708 93.7118Z" fill="#2F2E41"/>
<path d="M196.724 96.213C198.881 94.9536 200.247 93.2766 199.775 92.4673C199.303 91.658 197.172 92.0228 195.014 93.2822C192.857 94.5417 191.491 96.2187 191.963 97.028C192.435 97.8373 194.567 97.4724 196.724 96.213Z" fill="#2F2E41"/>
<path d="M209.488 93.7118L204.061 93.737C200.089 89.8248 200.677 86.6844 204.016 84.0097L209.443 83.9845C206.941 87.0664 206.274 90.2653 209.488 93.7118Z" fill="#2F2E41"/>
<path d="M206.504 96.213C208.661 94.9536 210.027 93.2766 209.555 92.4673C209.083 91.658 206.951 92.0228 204.794 93.2822C202.637 94.5417 201.271 96.2187 201.743 97.028C202.215 97.8373 204.347 97.4724 206.504 96.213Z" fill="#2F2E41"/>
<path d="M201.838 71.5322C205.21 71.5322 207.944 68.7976 207.944 65.4243C207.944 62.051 205.21 59.3164 201.838 59.3164C198.467 59.3164 195.733 62.051 195.733 65.4243C195.733 68.7976 198.467 71.5322 201.838 71.5322Z" fill="white"/>
<path d="M201.873 70.3983C202.997 70.3983 203.908 69.4868 203.908 68.3624C203.908 67.2379 202.997 66.3264 201.873 66.3264C200.749 66.3264 199.838 67.2379 199.838 68.3624C199.838 69.4868 200.749 70.3983 201.873 70.3983Z" fill="#3F3D56"/>
<path d="M219.563 53.2463C220.975 46.7771 216.334 40.2685 209.196 38.709C202.059 37.1494 195.128 41.1293 193.716 47.5985C192.303 54.0676 197.04 56.4291 204.177 57.9887C211.315 59.5483 218.15 59.7154 219.563 53.2463Z" fill="#2594EA"/>
<path d="M205.922 77.7343C205.928 78.8135 205.507 79.8512 204.749 80.6195C203.991 81.3877 202.96 81.8236 201.881 81.8315C200.802 81.8393 199.764 81.4183 198.996 80.6611C198.227 79.9039 197.79 78.8724 197.781 77.7932L197.781 77.7801L197.781 77.7721C197.771 75.5233 199.591 75.049 201.839 75.0386C204.087 75.0282 205.911 75.4854 205.922 77.7343Z" fill="white"/>
<path d="M260.566 71.6649H229.616C229.165 71.6654 228.718 71.5769 228.301 71.4045C227.884 71.2321 227.505 70.9792 227.186 70.6601C226.866 70.3411 226.613 69.9622 226.44 69.5452C226.267 69.1281 226.178 68.6811 226.178 68.2297C226.178 67.7782 226.267 67.3312 226.44 66.9142C226.613 66.4972 226.866 66.1183 227.186 65.7993C227.505 65.4802 227.884 65.2272 228.301 65.0548C228.718 64.8824 229.165 64.7939 229.616 64.7944H260.566C261.476 64.7954 262.349 65.1578 262.992 65.802C263.635 66.4461 263.996 67.3193 263.996 68.2297C263.996 69.1401 263.635 70.0133 262.992 70.6574C262.349 71.3015 261.476 71.6639 260.566 71.6649Z" fill="#2594EA"/>
<path d="M204.465 165.823C204.465 168.74 203.6 171.592 201.98 174.018C200.359 176.444 198.056 178.335 195.362 179.452C192.667 180.568 189.703 180.86 186.842 180.291C183.982 179.722 181.354 178.317 179.292 176.254C177.23 174.191 175.825 171.562 175.256 168.701C174.687 165.839 174.979 162.873 176.096 160.177C177.212 157.482 179.102 155.178 181.527 153.557C183.951 151.936 186.802 151.071 189.719 151.071C193.613 151.054 197.354 152.586 200.12 155.329C202.885 158.072 204.448 161.801 204.465 165.697C204.465 165.739 204.465 165.781 204.465 165.823Z" fill="white"/>
<path d="M189.719 181C187.726 181.001 185.752 180.609 183.911 179.847C182.069 179.085 180.396 177.967 178.986 176.557C177.577 175.148 176.458 173.475 175.695 171.633C174.932 169.791 174.54 167.816 174.54 165.823C174.54 163.829 174.932 161.855 175.695 160.013C176.458 158.171 177.577 156.497 178.986 155.088C180.396 153.678 182.069 152.561 183.911 151.798C185.752 151.036 187.726 150.644 189.719 150.645C189.741 150.645 189.763 150.645 189.785 150.645C193.781 150.646 197.613 152.23 200.443 155.051C203.274 157.871 204.873 161.699 204.89 165.695V165.822C204.885 169.846 203.286 173.704 200.441 176.55C197.597 179.395 193.741 180.995 189.719 181ZM189.783 151.496C189.762 151.496 189.742 151.496 189.721 151.496C186.888 151.496 184.119 152.336 181.764 153.91C179.409 155.483 177.573 157.721 176.489 160.339C175.405 162.957 175.121 165.837 175.673 168.616C176.225 171.396 177.589 173.949 179.592 175.952C181.595 177.956 184.146 179.321 186.924 179.874C189.702 180.427 192.582 180.143 195.199 179.059C197.816 177.974 200.052 176.138 201.626 173.782C203.2 171.426 204.04 168.656 204.04 165.822V165.699C204.019 161.928 202.508 158.318 199.838 155.658C197.167 152.997 193.552 151.501 189.783 151.496Z" fill="#2F2E41"/>
<path d="M199.974 176.389V176.419C197.322 178.99 193.802 180.471 190.111 180.569C186.419 180.667 182.826 179.375 180.042 176.948C180.03 176.764 180.024 176.573 180.024 176.389C180.02 173.742 181.067 171.202 182.935 169.328C184.803 167.454 187.339 166.399 189.985 166.396C192.63 166.392 195.169 167.44 197.042 169.309C198.915 171.178 199.97 173.714 199.974 176.361L199.974 176.389Z" fill="#2F2E41"/>
<path d="M190.25 177.27C192.133 177.27 193.66 175.743 193.66 173.859C193.66 171.975 192.133 170.448 190.25 170.448C188.367 170.448 186.84 171.975 186.84 173.859C186.84 175.743 188.367 177.27 190.25 177.27Z" fill="white"/>
<path d="M190.25 174.996C190.878 174.996 191.387 174.487 191.387 173.859C191.387 173.231 190.878 172.722 190.25 172.722C189.622 172.722 189.113 173.231 189.113 173.859C189.113 174.487 189.622 174.996 190.25 174.996Z" fill="#3F3D56"/>
<path d="M180.319 167.104C179.514 163.494 182.089 159.847 186.071 158.958C190.053 158.068 193.935 160.273 194.74 163.882C195.546 167.492 192.907 168.823 188.924 169.712C184.942 170.602 181.125 170.713 180.319 167.104Z" fill="#2594EA"/>
</g>
<defs>
<clipPath id="clip0_211_352">
<rect width="264" height="181" fill="white"/>
</clipPath>
</defs>
</svg>
