<svg width="324" height="234" viewBox="0 0 324 234" fill="none" xmlns="http://www.w3.org/2000/svg">
<g clip-path="url(#clip0_211_235)">
<path d="M65.3504 143.661C64.7906 143.687 64.2363 143.54 63.7628 143.24C63.2893 142.94 62.9194 142.502 62.7032 141.985C62.487 141.468 62.435 140.896 62.5542 140.349C62.6734 139.801 62.958 139.303 63.3695 138.923C63.4384 138.649 63.4879 138.452 63.5568 138.178C63.5321 138.118 63.5073 138.059 63.4824 137.999C60.966 131.998 52.4379 132.039 49.943 138.049C47.7286 143.384 44.9093 148.728 44.2151 154.368C43.9093 156.861 44.0383 159.388 44.5963 161.838C39.3952 150.49 36.6944 138.156 36.677 125.672C36.6759 122.54 36.8499 119.409 37.1982 116.296C37.4861 113.744 37.8854 111.21 38.3963 108.694C41.184 95.0438 47.1692 82.2494 55.8605 71.3618C60.0671 69.0661 63.469 65.5359 65.6078 61.2467C66.3826 59.7049 66.9303 58.0591 67.2337 56.3604C66.7592 56.4226 66.2768 56.4615 65.8023 56.4926C65.6545 56.5004 65.4989 56.5081 65.3511 56.516L65.2953 56.5185C64.7738 56.5419 64.2567 56.414 63.8061 56.1502C63.3555 55.8865 62.9908 55.4981 62.7558 55.0318C62.5208 54.5656 62.4256 54.0413 62.4815 53.5222C62.5375 53.003 62.7423 52.5111 63.0713 52.1057C63.2762 51.8535 63.4812 51.6014 63.6863 51.3495C63.9975 50.9604 64.3165 50.5791 64.6276 50.1901C64.6635 50.1532 64.6973 50.1142 64.7288 50.0734C65.0867 49.6299 65.4444 49.1942 65.8023 48.7506C65.1491 47.7366 64.2706 46.8872 63.2352 46.2686C59.649 44.1678 54.7014 45.6228 52.1109 48.8674C49.5127 52.1119 49.0226 56.6638 49.9249 60.7176C50.6952 64.1879 52.3754 67.3702 54.2658 70.3969C54.0712 70.6459 53.869 70.8872 53.6745 71.1362C50.1194 75.7086 47.0209 80.6185 44.4233 85.7954C45.1582 80.0537 44.0732 73.1364 42.2236 68.6774C40.118 63.5969 36.1715 59.3181 32.6961 54.926C28.5216 49.6505 19.9613 51.9528 19.2258 58.6404C19.2187 58.7052 19.2118 58.7699 19.205 58.8346C19.7212 59.1259 20.2265 59.4351 20.7209 59.7621C21.342 60.1772 21.8233 60.7702 22.1017 61.4636C22.38 62.1569 22.4425 62.9181 22.281 63.6476C22.1194 64.377 21.7413 65.0407 21.1962 65.5515C20.6511 66.0624 19.9644 66.3966 19.2262 66.5104L19.1506 66.5221C19.3345 68.383 19.6595 70.2272 20.1229 72.0388C21.4658 77.0961 23.8387 81.8215 27.0929 85.9186C30.3471 90.0157 34.4125 93.3962 39.0341 95.8482C39.3375 96.0038 39.6331 96.1594 39.9365 96.3072C37.3268 103.705 35.6898 111.41 35.0668 119.23C34.714 123.843 34.7348 128.477 35.129 133.087C35.1212 133.033 35.1134 132.978 35.1056 132.924C34.1098 127.798 31.3758 123.172 27.3653 119.829C21.4088 114.935 12.9932 113.132 6.56712 109.198C3.47378 107.305 -0.490112 109.752 0.0497605 113.339C0.0583846 113.396 0.0671425 113.453 0.0760396 113.511C1.03398 113.901 1.96668 114.351 2.86874 114.857C3.38495 115.148 3.89026 115.457 4.38466 115.784C5.00576 116.199 5.48702 116.792 5.76539 117.486C6.04376 118.179 6.10625 118.94 5.94467 119.67C5.7831 120.399 5.405 121.063 4.85991 121.574C4.31481 122.085 3.62815 122.419 2.8899 122.533L2.81424 122.544C2.7598 122.552 2.7131 122.56 2.65873 122.568C4.2955 126.477 6.59276 130.075 9.4499 133.204C12.9794 136.992 17.2453 140.019 21.9861 142.1C26.7268 144.18 31.8424 145.27 37.0193 145.303H37.0271C38.4324 151.411 40.4685 157.357 43.1027 163.044H64.8065C64.8844 162.802 64.9544 162.553 65.0244 162.312C63.0154 162.438 60.9986 162.318 59.0188 161.954C60.6291 159.978 62.2394 157.986 63.8497 156.01C63.8856 155.973 63.9194 155.934 63.9508 155.893C64.7676 154.882 65.5922 153.878 66.409 152.866L66.4095 152.865C66.453 149.764 66.0973 146.671 65.3511 143.661L65.3504 143.661Z" fill="#F2F2F2"/>
<path d="M323.487 163.869L0.622128 164.002C0.485958 164.002 0.355368 163.947 0.259082 163.851C0.162796 163.755 0.108704 163.624 0.108704 163.488C0.108704 163.352 0.162796 163.221 0.259082 163.125C0.355368 163.029 0.485958 162.974 0.622128 162.974L323.487 162.842C323.623 162.842 323.753 162.896 323.85 162.992C323.946 163.089 324 163.219 324 163.355C324 163.492 323.946 163.622 323.85 163.719C323.753 163.815 323.623 163.869 323.487 163.869Z" fill="#CACACA"/>
<path d="M273.733 163.544C259.032 164.166 250.72 163.713 240.003 154.409C232.707 154.215 226.907 148.937 227.074 142.644C227.241 136.351 233.314 131.389 240.61 131.583L267.102 132.84C274.398 133.034 287.967 132.585 287.8 138.878C287.718 141.968 287.716 145.974 287.43 150.172C287.194 153.696 285.666 157.01 283.138 159.478C280.611 161.945 277.262 163.393 273.733 163.544Z" fill="#2F2E41"/>
<path d="M226.514 222.452L218.923 223.692L210.527 194.999L221.73 193.168L226.514 222.452Z" fill="#FFB6B6"/>
<path d="M223.497 162.621C237.649 166.101 248.099 162.181 256.706 162.69C261.599 154.432 277.216 143.944 268.695 139.529C263.95 137.07 215.709 131.402 209.376 137.944C193.091 154.764 213.31 207.885 213.31 207.885L224.555 207.74L228.148 202.611L225.254 197.021L227.992 192.45L224.859 187.742L223.497 162.621Z" fill="#2F2E41"/>
<path d="M231.734 228.185L226.761 229.516L224.617 225.058L223.6 230.363L210.411 233.895C209.779 234.065 209.109 234.027 208.5 233.789C207.89 233.551 207.373 233.124 207.023 232.57C206.673 232.017 206.509 231.366 206.556 230.713C206.602 230.06 206.855 229.439 207.279 228.941L215.864 218.844L214.593 214.097L225.849 211.791L231.734 228.185Z" fill="#2F2E41"/>
<path d="M288.717 213.1L283.177 218.436L259.962 199.605L268.138 191.729L288.717 213.1Z" fill="#FFB6B6"/>
<path d="M244.061 153.769C257.033 158.767 268.379 153.209 279.589 146.766C278.92 137.191 278.547 123.384 269.027 124.598C263.726 125.273 219.909 132.515 218.417 141.498C214.581 164.596 269.575 208.624 269.575 208.624L278.744 202.11L278.785 195.847L273.227 192.894L272.881 187.577L267.628 185.485L244.061 153.769Z" fill="#2F2E41"/>
<path d="M296.27 214.848L292.936 218.771L288.638 216.323L290.817 221.265L281.974 231.67C281.55 232.169 280.978 232.519 280.341 232.67C279.704 232.82 279.036 232.763 278.434 232.507C277.831 232.251 277.327 231.808 276.994 231.245C276.66 230.682 276.516 230.026 276.582 229.375L277.905 216.187L274.162 213.004L282.111 204.708L296.27 214.848Z" fill="#2F2E41"/>
<path d="M237.221 134.718C236.307 134.718 235.788 134.539 235.587 134.155C235.292 133.591 233.409 132.854 234.001 132C234.415 131.405 235.412 130.609 235.028 130.15C233.549 128.383 229.855 77.7029 228.985 70.7889C228.771 68.6489 229.061 66.4885 229.832 64.4807C232.27 57.5713 235.598 55.4478 242.228 51.218C242.766 50.8746 243.326 50.5159 243.909 50.142C244.663 49.6575 244.621 50.7889 244.576 49.0879C244.527 47.1975 244.476 45.2425 245.402 44.0206L245.462 43.9409L245.559 43.9183C247.799 43.4005 255.331 42.4391 259.792 43.9253L259.854 43.9463L259.9 43.992C260.959 45.0519 261.056 47.1049 261.149 49.0901C261.226 50.72 261.298 49.5213 261.898 50.1899C264.189 52.7448 267.642 54.2211 270.522 55.0586C272.328 55.5772 273.908 56.6835 275.014 58.2022C276.12 59.7208 276.687 61.5651 276.627 63.4428C276.315 72.9014 276.56 87.8576 274.946 98.3974C272.26 115.939 296.785 141.271 282.738 141.792C282.773 141.847 282.793 141.911 282.795 141.977C282.797 142.042 282.781 142.107 282.749 142.164C281.746 144.038 240.665 134.718 237.221 134.718Z" fill="#E6E6E6"/>
<path d="M251.438 42.5103C260.685 42.5103 268.182 35.0119 268.182 25.7622C268.182 16.5124 260.685 9.01404 251.438 9.01404C242.19 9.01404 234.693 16.5124 234.693 25.7622C234.693 35.0119 242.19 42.5103 251.438 42.5103Z" fill="#2F2E41"/>
<path d="M252.786 43.8926C259.429 43.7043 264.662 38.1651 264.473 31.5205C264.285 24.8758 258.747 19.6419 252.104 19.8301C245.461 20.0184 240.228 25.5576 240.416 32.2023C240.604 38.8469 246.142 44.0809 252.786 43.8926Z" fill="#FFB6B6"/>
<path d="M252.561 13.5057L247.683 13.644C244.609 13.7336 241.696 15.0394 239.583 17.2749C237.471 19.5104 236.331 22.4929 236.415 25.5678L236.418 25.6759L236.507 25.7316C239.158 27.4863 242.287 28.3769 245.465 28.2811L245.74 28.2733L248.435 28.1512C248.888 26.9835 249.04 25.7203 248.876 24.4785C249.283 25.6556 249.6 26.8618 249.826 28.0868L261.92 27.5361C262.624 27.5012 263.286 27.1927 263.765 26.6764C264.245 26.16 264.503 25.4767 264.486 24.7722C264.396 21.6975 263.089 18.7843 260.853 16.6721C258.617 14.5599 255.635 13.4211 252.561 13.5057Z" fill="#2F2E41"/>
<path d="M242.84 10.4856C241.74 11.8436 239.972 12.4095 238.383 13.145C235.58 14.4707 233.143 16.4602 231.283 18.9409C229.423 21.4217 228.196 24.3189 227.708 27.3812C227.334 29.8749 227.465 32.4417 226.831 34.8803C226.202 37.3189 224.541 39.741 222.072 40.231C220.401 40.5654 218.7 39.9647 217.103 39.3694C216.225 39.0449 215.346 38.7191 214.468 38.3918C215.309 36.0928 216.149 33.7938 216.988 31.4949C215.598 33.6815 213.966 35.7047 212.123 37.5266C208.975 36.3597 205.825 35.1928 202.672 34.0261C210.343 33.8378 208.823 26.4274 210.327 18.9063C211.154 14.7735 219.107 11.7655 220.571 7.81425C221.362 5.6712 222.75 3.79965 224.572 2.42109C226.393 1.04253 228.571 0.214672 230.847 0.035496C233.124 -0.14368 235.405 0.333331 237.419 1.41007C239.433 2.4868 241.097 4.11818 242.213 6.11114C243.806 6.69407 243.921 9.14481 242.84 10.4856Z" fill="#2F2E41"/>
<path d="M243.607 15.4665C247.051 15.4665 249.843 12.6743 249.843 9.22999C249.843 5.78569 247.051 2.99353 243.607 2.99353C240.164 2.99353 237.372 5.78569 237.372 9.22999C237.372 12.6743 240.164 15.4665 243.607 15.4665Z" fill="#2F2E41"/>
<path d="M265.756 105.452H236.97C235.984 105.451 235.039 105.059 234.342 104.362C233.645 103.665 233.253 102.719 233.252 101.734V70.7854C233.253 69.7995 233.645 68.8543 234.342 68.1572C235.039 67.46 235.984 67.0679 236.97 67.0668H265.756C266.741 67.0679 267.686 67.46 268.383 68.1572C269.08 68.8543 269.472 69.7995 269.474 70.7854V101.734C269.472 102.719 269.08 103.665 268.383 104.362C267.686 105.059 266.741 105.451 265.756 105.452Z" fill="#3F3D56"/>
<path d="M237.78 73.7518C238.971 73.7518 239.936 72.7863 239.936 71.5953C239.936 70.4043 238.971 69.4388 237.78 69.4388C236.589 69.4388 235.624 70.4043 235.624 71.5953C235.624 72.7863 236.589 73.7518 237.78 73.7518Z" fill="#E6E6E6"/>
<path d="M237.78 72.8893C238.494 72.8893 239.074 72.31 239.074 71.5954C239.074 70.8808 238.494 70.3015 237.78 70.3015C237.065 70.3015 236.486 70.8808 236.486 71.5954C236.486 72.31 237.065 72.8893 237.78 72.8893Z" fill="#3F3D56"/>
<path d="M246.821 103.949L227.049 98.9346L223.976 109.11C223.976 109.11 245.248 110.685 246.043 110.693C246.637 111.534 247.473 112.176 248.44 112.532C249.407 112.888 250.459 112.942 251.457 112.687C252.455 112.432 253.353 111.88 254.03 111.104C254.708 110.327 255.134 109.364 255.252 108.34C255.371 107.316 255.175 106.281 254.692 105.371C254.209 104.46 253.462 103.718 252.548 103.242C251.634 102.766 250.597 102.579 249.575 102.705C248.552 102.832 247.592 103.266 246.821 103.949Z" fill="#FFB6B6"/>
<path d="M233.627 57.8059C219.529 65.3409 213.351 82.1384 204.702 96.9005C204.523 98.5134 204.683 100.146 205.171 101.693C205.659 103.241 206.464 104.67 207.536 105.888C208.607 107.107 209.921 108.088 211.394 108.77C212.866 109.451 214.464 109.818 216.086 109.847L233.007 110.237L230.886 99.794L225.227 96.5778L231.916 80.3915L233.627 57.8059Z" fill="#E6E6E6"/>
<path d="M254.524 74.12L268.019 90.499L262.446 99.3313C262.446 99.3313 248.878 78.1141 248.571 77.38C247.568 77.146 246.659 76.6127 245.966 75.8509C245.272 75.089 244.826 74.1345 244.686 73.1135C244.546 72.0925 244.72 71.0531 245.184 70.133C245.648 69.2128 246.38 68.4551 247.284 67.9602C248.187 67.4653 249.22 67.2565 250.245 67.3614C251.27 67.4662 252.239 67.8799 253.024 68.5475C253.808 69.2152 254.372 70.1054 254.64 71.1004C254.908 72.0955 254.868 73.1484 254.524 74.12Z" fill="#FFB6B6"/>
<path d="M274.864 58.2252C278.937 55.9739 290.817 90.6941 278.316 110.441C276.889 111.214 275.317 111.681 273.7 111.811C272.083 111.941 270.456 111.733 268.924 111.199C267.392 110.664 265.988 109.816 264.803 108.709C263.617 107.601 262.676 106.258 262.038 104.766L255.567 88.9236L265.936 85.6172L270.888 91.3009L270.199 79.9933L276.093 63.9224L274.864 58.2252Z" fill="#E6E6E6"/>
<path d="M139.885 40.9445C150.594 40.9445 159.275 32.2615 159.275 21.5505C159.275 10.8395 150.594 2.15649 139.885 2.15649C129.176 2.15649 120.495 10.8395 120.495 21.5505C120.495 32.2615 129.176 40.9445 139.885 40.9445Z" fill="#2594EA"/>
<path d="M148.552 18.1183H131.218C130.49 18.1183 129.792 18.4074 129.278 18.9219C128.763 19.4365 128.474 20.1345 128.474 20.8622V38.2006C128.474 38.9284 128.763 39.6263 129.278 40.1409C129.792 40.6555 130.49 40.9446 131.218 40.9446H148.552C149.28 40.9446 149.978 40.6555 150.492 40.1409C151.007 39.6263 151.296 38.9284 151.296 38.2006V20.8622C151.296 20.1345 151.007 19.4365 150.492 18.922C149.978 18.4074 149.28 18.1183 148.552 18.1183ZM139.885 35.6185C138.681 35.6185 137.505 35.2615 136.504 34.5926C135.503 33.9238 134.723 32.9731 134.263 31.8608C133.802 30.7486 133.681 29.5247 133.916 28.3439C134.151 27.1631 134.731 26.0785 135.582 25.2273C136.433 24.376 137.517 23.7962 138.698 23.5614C139.878 23.3265 141.102 23.4471 142.214 23.9078C143.326 24.3685 144.276 25.1487 144.945 26.1497C145.614 27.1507 145.971 28.3275 145.971 29.5314C145.971 31.1458 145.329 32.6941 144.188 33.8356C143.047 34.9771 141.499 35.6184 139.885 35.6185ZM146.731 23.4444C146.43 23.4444 146.136 23.3552 145.886 23.188C145.636 23.0207 145.441 22.7831 145.326 22.505C145.211 22.2269 145.18 21.921 145.239 21.6258C145.298 21.3306 145.443 21.0594 145.656 20.8466C145.868 20.6338 146.139 20.4889 146.435 20.4302C146.73 20.3714 147.036 20.4016 147.314 20.5168C147.592 20.6319 147.829 20.827 147.996 21.0772C148.164 21.3275 148.253 21.6217 148.253 21.9227C148.253 22.3263 148.093 22.7133 147.807 22.9987C147.522 23.2841 147.135 23.4444 146.731 23.4444Z" fill="white"/>
<path d="M145.948 152.024C156.657 152.024 165.338 143.341 165.338 132.63C165.338 121.919 156.657 113.236 145.948 113.236C135.239 113.236 126.558 121.919 126.558 132.63C126.558 143.341 135.239 152.024 145.948 152.024Z" fill="#2594EA"/>
<path d="M140.958 152.024C137.77 152.026 134.65 151.101 131.978 149.362L130.634 148.488L132.228 148.664C132.645 148.711 133.095 148.738 133.564 148.745C135.713 148.746 137.816 148.128 139.622 146.964C138.549 146.731 137.555 146.223 136.739 145.488C135.922 144.753 135.312 143.818 134.968 142.775L134.769 142.16L135.403 142.284C135.691 142.341 135.984 142.374 136.277 142.383C135.272 141.865 134.428 141.081 133.838 140.116C133.248 139.151 132.934 138.043 132.932 136.912V136.26L133.499 136.511C133.835 136.7 134.191 136.852 134.561 136.963C133.687 135.981 133.143 134.749 133.009 133.442C132.874 132.134 133.155 130.817 133.811 129.678L134.089 129.2L134.436 129.629C136.968 132.763 140.597 134.818 144.587 135.376C144.696 135.392 144.808 135.384 144.914 135.352C145.02 135.32 145.118 135.266 145.201 135.193C145.285 135.119 145.353 135.028 145.4 134.926C145.447 134.824 145.471 134.713 145.471 134.6C145.461 133.384 145.814 132.192 146.484 131.178C147.155 130.163 148.112 129.371 149.234 128.902C150.356 128.433 151.592 128.309 152.785 128.546C153.978 128.783 155.073 129.37 155.931 130.231C157.105 129.975 158.231 129.533 159.266 128.921L160.139 128.404L159.821 129.368C159.526 130.262 159.031 131.077 158.375 131.751C158.957 131.6 159.527 131.402 160.079 131.159L161.262 130.639L160.549 131.718C159.794 132.861 158.85 133.869 157.759 134.698V135.248C157.759 143.494 151.487 152.024 140.992 152.024H140.958Z" fill="white"/>
<path d="M100.643 96.4843C111.351 96.4843 120.032 87.8013 120.032 77.0903C120.032 66.3793 111.351 57.6963 100.643 57.6963C89.9339 57.6963 81.2527 66.3793 81.2527 77.0903C81.2527 87.8013 89.9339 96.4843 100.643 96.4843Z" fill="#2594EA"/>
<path d="M109.31 73.6581H91.9752C91.2477 73.6581 90.5499 73.9472 90.0354 74.4617C89.5209 74.9763 89.2319 75.6743 89.2319 76.402V93.7404C89.2319 94.4681 89.5209 95.1661 90.0354 95.6807C90.5499 96.1953 91.2477 96.4844 91.9752 96.4844H109.31C110.037 96.4844 110.735 96.1953 111.25 95.6807C111.764 95.1661 112.053 94.4681 112.053 93.7404V76.402C112.053 75.6743 111.764 74.9763 111.25 74.4617C110.735 73.9472 110.037 73.6581 109.31 73.6581ZM106.055 79.5117H104.067C102.71 79.5117 102.446 80.1545 102.446 81.1036V83.1159H105.683L105.262 86.2755H102.44V94.5146C101.233 94.7411 99.9939 94.7382 98.7881 94.5059V86.2755H96.1996V83.1159H98.8362V80.7793C98.8362 77.9859 100.776 76.4602 103.274 76.4602C104.475 76.4602 105.761 76.5504 106.055 76.5924L106.055 79.5117Z" fill="white"/>
</g>
<defs>
<clipPath id="clip0_211_235">
<rect width="324" height="234" fill="white"/>
</clipPath>
</defs>
</svg>
