<svg width="266" height="181" viewBox="0 0 266 181" fill="none" xmlns="http://www.w3.org/2000/svg">
<g clip-path="url(#clip0_211_264)">
<path d="M3.53748 13.9025H72.6342C73.5721 13.9035 74.4712 14.2766 75.1344 14.9399C75.7976 15.6032 76.1706 16.5025 76.1717 17.4405V119.917C76.1706 120.855 75.7976 121.755 75.1344 122.418C74.4712 123.081 73.5721 123.454 72.6342 123.455H3.53748C2.5996 123.454 1.70045 123.081 1.03727 122.418C0.374096 121.755 0.00105434 120.855 0 119.917V17.4405C0.00106015 16.5025 0.374102 15.6032 1.03728 14.9399C1.70045 14.2766 2.59961 13.9035 3.53748 13.9025Z" fill="#F2F2F2"/>
<path d="M4.39502 16.4756H71.7766C72.2598 16.4761 72.723 16.6683 73.0646 17.01C73.4062 17.3517 73.5984 17.815 73.5989 18.2982V119.06C73.5984 119.543 73.4062 120.006 73.0646 120.348C72.723 120.69 72.2598 120.882 71.7766 120.882H4.39502C3.91187 120.882 3.44867 120.69 3.10703 120.348C2.7654 120.006 2.57323 119.543 2.57269 119.06V18.2982C2.57323 17.815 2.7654 17.3517 3.10703 17.01C3.44867 16.6683 3.91187 16.4761 4.39502 16.4756Z" fill="white"/>
<path d="M51.2208 54.1102C51.2208 60.5878 45.2322 59.6081 37.8449 59.6081C30.4575 59.6081 24.4689 60.5878 24.4689 54.1102C24.4689 47.6325 27.3942 36.1504 37.8449 36.1504C48.6556 36.1504 51.2208 47.6325 51.2208 54.1102Z" fill="#2F2E41"/>
<path d="M66.9561 108.942C67.224 108.432 67.3771 107.87 67.4044 107.295C67.4317 106.721 67.3326 106.147 67.1142 105.614C66.8957 105.081 66.5632 104.603 66.1399 104.213C65.7167 103.823 65.2131 103.531 64.6646 103.356L49.3405 70.9336L42.3308 75.8498L59.5981 106.174C59.3663 107.115 59.4876 108.109 59.9392 108.966C60.3907 109.824 61.141 110.486 62.048 110.827C62.955 111.168 63.9555 111.164 64.8601 110.817C65.7647 110.47 66.5105 109.802 66.9561 108.942Z" fill="#A0616A"/>
<path d="M53.6216 73.7817L52.7457 72.4109L52.2987 71.7071L48.8575 66.3119C48.3277 65.1275 47.35 64.2015 46.1387 63.7369C44.9274 63.2723 43.5813 63.3069 42.3955 63.8332C41.2097 64.3595 40.2809 65.3346 39.8127 66.5446C39.3444 67.7547 39.3749 69.101 39.8974 70.2887L40.6855 73.0999L42.2941 78.8471C42.3917 79.2008 42.5998 79.5141 42.8878 79.7414C42.9969 79.8327 43.1177 79.9092 43.247 79.9686C43.4721 80.075 43.7172 80.1323 43.9661 80.1367C44.2151 80.1412 44.4621 80.0926 44.6908 79.9943C44.6981 79.9906 44.7092 79.9869 44.7166 79.9833L48.8796 78.1213L48.8869 78.1177L52.0641 76.6955L52.8557 76.3437C53.0827 76.2427 53.2852 76.094 53.4494 75.9075C53.6234 75.7153 53.7512 75.4859 53.8231 75.2368C53.8974 74.9942 53.9179 74.7383 53.8831 74.4869C53.8483 74.2356 53.759 73.9949 53.6216 73.7817Z" fill="#CCCCCC"/>
<path d="M31.6593 119.751C31.5036 119.493 31.2844 119.279 31.0225 119.129C30.7606 118.979 30.4648 118.899 30.1632 118.896C29.8616 118.893 29.5642 118.968 29.2994 119.112C29.0347 119.257 28.8113 119.467 28.6507 119.722C28.5812 119.827 28.5258 119.94 28.4859 120.059L28.2769 120.635H32.1908L31.6593 119.751Z" fill="#2F2E41"/>
<path d="M37.7607 59.2363C42.7317 59.2363 46.7614 55.2059 46.7614 50.2341C46.7614 45.2623 42.7317 41.2318 37.7607 41.2318C32.7897 41.2318 28.7599 45.2623 28.7599 50.2341C28.7599 55.2059 32.7897 59.2363 37.7607 59.2363Z" fill="#A0616A"/>
<path d="M53.5373 76.8605C53.5153 76.5379 53.486 76.2191 53.4494 75.9075C53.3194 74.7233 53.0839 73.5531 52.7457 72.4108C52.6761 72.1616 52.5991 71.9197 52.5149 71.6815C51.4433 68.5231 49.5812 65.6916 47.1059 63.4566C46.1259 62.5783 44.8562 62.0928 43.5402 62.0931H30.8605C30.0819 62.0932 29.3128 62.2634 28.6068 62.5919C27.9009 62.9204 27.2752 63.3992 26.7736 63.9948C26.272 64.5904 25.9066 65.2884 25.7029 66.04C25.4992 66.7916 25.4622 67.5787 25.5944 68.3461C25.5907 68.3497 25.5907 68.3497 25.5944 68.3534C25.6839 68.8658 25.8481 69.3622 26.0818 69.8268L26.5949 70.8494L30.0322 77.7255L34.3088 86.2802L34.5581 86.7787L50.4957 91.1623L50.5616 91.012C50.6203 90.8801 50.6825 90.7445 50.7375 90.6125C50.8255 90.4146 50.9098 90.2167 50.9941 90.0224C52.4135 86.7931 53.2759 83.3467 53.5447 79.8293V79.8257C53.6046 78.8381 53.6022 77.8477 53.5373 76.8605Z" fill="#3F3D56"/>
<path d="M50.994 90.0224C50.9399 89.8358 50.8544 89.6598 50.7412 89.5019C50.3308 88.9529 49.8404 88.4686 49.2863 88.0652L49.2827 88.0615C47.3514 86.5954 43.5182 84.8874 36.112 84.8434H36.1009C35.7615 84.8437 35.4293 84.9416 35.1441 85.1255C34.8588 85.3095 34.6325 85.5716 34.4921 85.8807L34.3088 86.2802L33.1289 88.8751C33.0283 89.0972 32.8701 89.2883 32.6708 89.4286C30.7983 90.7554 21.7283 98.1959 27.0529 114.532C27.5733 116.126 28.1083 117.867 28.6507 119.722C28.7387 120.023 28.8267 120.327 28.9146 120.635H44.8778L44.5369 118.069C44.5142 117.901 44.5229 117.731 44.5627 117.567L50.9867 91.0523L51.0161 90.9387C51.0895 90.6366 51.0819 90.3206 50.994 90.0224Z" fill="#2F2E41"/>
<path d="M56.0036 60.3412H62.9664C63.258 60.3412 63.5377 60.457 63.7438 60.6633C63.95 60.8695 64.0658 61.1491 64.0658 61.4408V63.2734C64.1629 63.2737 64.256 63.3124 64.3246 63.3811C64.3933 63.4497 64.432 63.5428 64.4323 63.6399V64.373C64.432 64.4701 64.3933 64.5631 64.3246 64.6318C64.256 64.7005 64.1629 64.7392 64.0658 64.7395V65.4726C64.1629 65.4729 64.256 65.5116 64.3246 65.5802C64.3933 65.6489 64.432 65.742 64.4323 65.8391V66.5721C64.432 66.6692 64.3933 66.7623 64.3246 66.831C64.256 66.8996 64.1629 66.9384 64.0658 66.9387V76.8349C64.0658 77.1265 63.95 77.4062 63.7438 77.6124C63.5377 77.8186 63.258 77.9344 62.9664 77.9344H56.0036C55.7121 77.9344 55.4324 77.8186 55.2262 77.6124C55.0201 77.4062 54.9042 77.1265 54.9042 76.8349V61.4408C54.9042 61.1491 55.0201 60.8695 55.2262 60.6633C55.4324 60.457 55.7121 60.3412 56.0036 60.3412Z" fill="#3F3D56"/>
<path d="M55.6371 76.8349V61.4408C55.6371 61.1491 55.7529 60.8695 55.9591 60.6633C56.1653 60.457 56.4449 60.3412 56.7365 60.3412H56.0036C55.712 60.3412 55.4324 60.457 55.2262 60.6633C55.02 60.8695 54.9042 61.1491 54.9042 61.4408V76.8349C54.9042 77.1265 55.02 77.4062 55.2262 77.6124C55.4324 77.8186 55.712 77.9344 56.0036 77.9344H56.7365C56.4449 77.9344 56.1653 77.8186 55.9591 77.6124C55.7529 77.4062 55.6371 77.1265 55.6371 76.8349Z" fill="#2594EA"/>
<path d="M59.3018 66.9387C60.1114 66.9387 60.7676 66.2823 60.7676 65.4726C60.7676 64.6629 60.1114 64.0065 59.3018 64.0065C58.4922 64.0065 57.8359 64.6629 57.8359 65.4726C57.8359 66.2823 58.4922 66.9387 59.3018 66.9387Z" fill="white"/>
<path d="M57.4419 70.6087C57.3229 70.7729 57.217 70.9462 57.1252 71.1271L39.0808 73.2951L36.4273 69.7657L30.5782 73.0748L34.6686 79.7795C34.9991 80.3212 35.4963 80.741 36.0856 80.976C36.6749 81.2109 37.3245 81.2484 37.9369 81.0826L57.8958 75.6816C58.4629 76.2188 59.1802 76.5706 59.9522 76.6902C60.7241 76.8098 61.5142 76.6915 62.2173 76.351C62.9204 76.0106 63.5032 75.4641 63.8882 74.7842C64.2732 74.1044 64.4421 73.3234 64.3725 72.5452C64.3029 71.767 63.998 71.0285 63.4985 70.4278C62.9989 69.8271 62.3284 69.3928 61.576 69.1825C60.8236 68.9723 60.0251 68.9962 59.2866 69.2509C58.5482 69.5057 57.9047 69.9793 57.4419 70.6087Z" fill="#A0616A"/>
<path d="M38.9301 71.0364L33.8728 64.4829C33.3084 63.473 32.3829 62.7141 31.2821 62.3586C30.1813 62.0032 28.9868 62.0775 27.9386 62.5667C26.8903 63.0559 26.066 63.9237 25.6311 64.9957C25.1963 66.0678 25.1832 67.2648 25.5944 68.3461C25.5907 68.3498 25.5907 68.3498 25.5944 68.3534C25.6698 68.5531 25.7604 68.7468 25.8655 68.9326L26.5949 70.8495L28.8119 76.6956C28.8957 76.9174 29.0266 77.1185 29.1955 77.2849C29.3645 77.4513 29.5674 77.5791 29.7905 77.6595C29.8691 77.6883 29.95 77.7104 30.0323 77.7255C30.4163 77.8039 30.8157 77.7415 31.1574 77.5496L32.7625 76.6516L38.428 73.4848C38.6341 73.3679 38.813 73.2083 38.9526 73.0168C39.0923 72.8253 39.1895 72.6063 39.2379 72.3742C39.2855 72.1422 39.2826 71.9027 39.2295 71.6718C39.1764 71.441 39.0743 71.2243 38.9301 71.0364Z" fill="#3F3D56"/>
<path d="M27.4006 51.9111H30.9606L32.5311 46.4978L32.8452 51.9111H34.5467L35.4628 48.7533L35.6461 51.9111H48.2891C48.2891 45.4334 44.0232 40.1823 38.761 40.1823H36.9287C31.6665 40.1823 27.4006 45.4334 27.4006 51.9111Z" fill="#2F2E41"/>
<path d="M131.798 45.0298H57.1898C56.2519 45.0288 55.3527 44.6557 54.6895 43.9924C54.0264 43.3291 53.6533 42.4298 53.6523 41.4918V3.53808C53.6533 2.60004 54.0264 1.70073 54.6895 1.03744C55.3527 0.374153 56.2519 0.00105451 57.1898 0H131.798C132.736 0.00105355 133.635 0.374153 134.298 1.03744C134.961 1.70073 135.334 2.60004 135.335 3.53808V41.4918C135.334 42.4298 134.961 43.3291 134.298 43.9924C133.635 44.6557 132.736 45.0288 131.798 45.0298Z" fill="#CCCCCC"/>
<path d="M130.94 42.4567H58.0473C57.5642 42.4561 57.101 42.2639 56.7593 41.9223C56.4177 41.5806 56.2255 41.1173 56.225 40.6341V4.39576C56.2255 3.91253 56.4177 3.44925 56.7593 3.10755C57.101 2.76586 57.5642 2.57366 58.0473 2.57312H130.94C131.424 2.57366 131.887 2.76586 132.228 3.10755C132.57 3.44925 132.762 3.91253 132.763 4.39576V40.6341C132.762 41.1173 132.57 41.5806 132.228 41.9223C131.887 42.2639 131.424 42.4561 130.94 42.4567Z" fill="white"/>
<path d="M61.663 52.0063C61.482 52.0058 61.3029 51.9695 61.136 51.8997C60.8869 51.7995 60.6737 51.6264 60.5245 51.4031C60.3754 51.1798 60.297 50.9166 60.2999 50.6481V43.6725L70.8101 43.4067L62.6121 51.606C62.4882 51.7322 62.3406 51.8326 62.1776 51.9013C62.0147 51.97 61.8398 52.0057 61.663 52.0063Z" fill="#CCCCCC"/>
<path d="M122.065 20.8898H85.1899C84.9645 20.8902 84.7412 20.846 84.5328 20.76C84.3244 20.6739 84.1351 20.5476 83.9755 20.3883C83.816 20.229 83.6894 20.0397 83.6031 19.8315C83.5167 19.6232 83.4723 19.3999 83.4723 19.1744C83.4723 18.9489 83.5167 18.7257 83.6031 18.5174C83.6894 18.3091 83.816 18.1199 83.9755 17.9605C84.1351 17.8012 84.3244 17.6749 84.5328 17.5888C84.7412 17.5028 84.9645 17.4587 85.1899 17.459H122.065C122.52 17.459 122.956 17.6397 123.278 17.9614C123.6 18.2831 123.78 18.7194 123.78 19.1744C123.78 19.6294 123.6 20.0657 123.278 20.3874C122.956 20.7091 122.52 20.8898 122.065 20.8898Z" fill="#CCCCCC"/>
<path d="M110.059 13.5993H85.1899C84.735 13.5993 84.2988 13.4186 83.9771 13.0969C83.6555 12.7752 83.4748 12.3388 83.4748 11.8839C83.4748 11.4289 83.6555 10.9926 83.9771 10.6709C84.2988 10.3492 84.735 10.1685 85.1899 10.1685H110.059C110.514 10.1685 110.95 10.3492 111.272 10.6709C111.594 10.9926 111.774 11.4289 111.774 11.8839C111.774 12.3388 111.594 12.7752 111.272 13.0969C110.95 13.4186 110.514 13.5993 110.059 13.5993Z" fill="#CCCCCC"/>
<path d="M69.9252 20.8898C72.8853 20.8898 75.2849 18.4898 75.2849 15.5292C75.2849 12.5685 72.8853 10.1685 69.9252 10.1685C66.965 10.1685 64.5654 12.5685 64.5654 15.5292C64.5654 18.4898 66.965 20.8898 69.9252 20.8898Z" fill="#2594EA"/>
<path d="M110.701 34.8614C111.649 34.8614 112.416 34.0934 112.416 33.146C112.416 32.1986 111.649 31.4305 110.701 31.4305C109.754 31.4305 108.986 32.1986 108.986 33.146C108.986 34.0934 109.754 34.8614 110.701 34.8614Z" fill="#E6E6E6"/>
<path d="M116.704 34.8614C117.652 34.8614 118.419 34.0934 118.419 33.146C118.419 32.1986 117.652 31.4305 116.704 31.4305C115.757 31.4305 114.989 32.1986 114.989 33.146C114.989 34.0934 115.757 34.8614 116.704 34.8614Z" fill="#E6E6E6"/>
<path d="M122.707 34.8614C123.654 34.8614 124.422 34.0934 124.422 33.146C124.422 32.1986 123.654 31.4305 122.707 31.4305C121.76 31.4305 120.992 32.1986 120.992 33.146C120.992 34.0934 121.76 34.8614 122.707 34.8614Z" fill="#E6E6E6"/>
<path d="M193.366 71.447H262.463C263.4 71.4481 264.3 71.8212 264.963 72.4845C265.626 73.1477 265.999 74.0471 266 74.9851V177.462C265.999 178.4 265.626 179.299 264.963 179.963C264.3 180.626 263.4 180.999 262.463 181H193.366C192.428 180.999 191.529 180.626 190.866 179.963C190.202 179.299 189.829 178.4 189.828 177.462V74.9851C189.829 74.0471 190.202 73.1477 190.866 72.4845C191.529 71.8212 192.428 71.4481 193.366 71.447Z" fill="#F2F2F2"/>
<path d="M194.223 74.0201H261.605C262.088 74.0207 262.551 74.2129 262.893 74.5546C263.235 74.8963 263.427 75.3595 263.427 75.8428V176.604C263.427 177.087 263.235 177.551 262.893 177.892C262.551 178.234 262.088 178.426 261.605 178.427H194.223C193.74 178.426 193.277 178.234 192.935 177.892C192.594 177.551 192.402 177.087 192.401 176.604V75.8428C192.402 75.3595 192.594 74.8963 192.935 74.5546C193.277 74.2129 193.74 74.0207 194.223 74.0201Z" fill="white"/>
<path d="M196.268 123.331H121.66C120.722 123.33 119.823 122.957 119.16 122.293C118.496 121.63 118.123 120.731 118.122 119.793V81.839C118.123 80.9009 118.496 80.0016 119.16 79.3383C119.823 78.675 120.722 78.302 121.66 78.3009H196.268C197.206 78.302 198.105 78.675 198.768 79.3383C199.431 80.0016 199.805 80.9009 199.806 81.839V119.793C199.805 120.731 199.431 121.63 198.768 122.293C198.105 122.957 197.206 123.33 196.268 123.331Z" fill="#CCCCCC"/>
<path d="M195.411 120.758H122.517C122.034 120.757 121.571 120.565 121.229 120.223C120.888 119.881 120.696 119.418 120.695 118.935V82.6967C120.696 82.2134 120.888 81.7501 121.229 81.4085C121.571 81.0668 122.034 80.8746 122.517 80.874H195.411C195.894 80.8746 196.357 81.0668 196.699 81.4085C197.04 81.7501 197.232 82.2134 197.233 82.6967V118.935C197.232 119.418 197.04 119.881 196.699 120.223C196.357 120.565 195.894 120.757 195.411 120.758Z" fill="white"/>
<path d="M191.189 129.907L182.991 121.708L193.501 121.974V128.949C193.504 129.218 193.426 129.481 193.277 129.704C193.127 129.927 192.914 130.101 192.665 130.201C192.498 130.271 192.319 130.307 192.138 130.307C191.961 130.307 191.786 130.271 191.624 130.202C191.461 130.134 191.313 130.033 191.189 129.907Z" fill="#CCCCCC"/>
<path d="M186.535 99.1907H149.66C149.435 99.1911 149.211 99.1469 149.003 99.0609C148.795 98.9748 148.605 98.8485 148.446 98.6892C148.286 98.5299 148.16 98.3406 148.073 98.1324C147.987 97.9241 147.942 97.7008 147.942 97.4753C147.942 97.2498 147.987 97.0265 148.073 96.8183C148.16 96.61 148.286 96.4208 148.446 96.2614C148.605 96.1021 148.795 95.9758 149.003 95.8897C149.211 95.8037 149.435 95.7596 149.66 95.7599H186.535C186.761 95.7596 186.984 95.8037 187.192 95.8897C187.401 95.9758 187.59 96.1021 187.75 96.2614C187.909 96.4208 188.036 96.61 188.122 96.8183C188.209 97.0265 188.253 97.2498 188.253 97.4753C188.253 97.7008 188.209 97.9241 188.122 98.1324C188.036 98.3406 187.909 98.5299 187.75 98.6892C187.59 98.8485 187.401 98.9748 187.192 99.0609C186.984 99.1469 186.761 99.1911 186.535 99.1907Z" fill="#CCCCCC"/>
<path d="M174.529 91.9002H149.66C149.435 91.9002 149.212 91.8558 149.004 91.7696C148.796 91.6834 148.606 91.5571 148.447 91.3978C148.288 91.2385 148.162 91.0494 148.075 90.8412C147.989 90.6331 147.945 90.4101 147.945 90.1848C147.945 89.9595 147.989 89.7364 148.075 89.5283C148.162 89.3202 148.288 89.1311 148.447 88.9718C148.606 88.8125 148.796 88.6861 149.004 88.5999C149.212 88.5137 149.435 88.4694 149.66 88.4694H174.529C174.984 88.4694 175.421 88.6501 175.742 88.9718C176.064 89.2935 176.245 89.7298 176.245 90.1848C176.245 90.6397 176.064 91.0761 175.742 91.3978C175.421 91.7195 174.984 91.9002 174.529 91.9002Z" fill="#CCCCCC"/>
<path d="M134.395 99.1908C137.355 99.1908 139.755 96.7907 139.755 93.8301C139.755 90.8694 137.355 88.4694 134.395 88.4694C131.435 88.4694 129.035 90.8694 129.035 93.8301C129.035 96.7907 131.435 99.1908 134.395 99.1908Z" fill="#2594EA"/>
<path d="M175.171 113.162C176.119 113.162 176.887 112.394 176.887 111.447C176.887 110.499 176.119 109.731 175.171 109.731C174.224 109.731 173.456 110.499 173.456 111.447C173.456 112.394 174.224 113.162 175.171 113.162Z" fill="#E6E6E6"/>
<path d="M181.174 113.162C182.122 113.162 182.89 112.394 182.89 111.447C182.89 110.499 182.122 109.731 181.174 109.731C180.227 109.731 179.459 110.499 179.459 111.447C179.459 112.394 180.227 113.162 181.174 113.162Z" fill="#E6E6E6"/>
<path d="M187.177 113.162C188.125 113.162 188.892 112.394 188.892 111.447C188.892 110.499 188.125 109.731 187.177 109.731C186.23 109.731 185.462 110.499 185.462 111.447C185.462 112.394 186.23 113.162 187.177 113.162Z" fill="#E6E6E6"/>
<path d="M197.088 146.303C197.385 145.853 197.777 145.474 198.236 145.192C198.695 144.911 199.21 144.733 199.746 144.672C200.281 144.611 200.823 144.668 201.334 144.839C201.845 145.011 202.312 145.292 202.702 145.663L214.339 139.656L213.616 146.424L202.676 151.091C202.009 151.705 201.139 152.054 200.232 152.07C199.326 152.086 198.444 151.769 197.755 151.179C197.067 150.589 196.618 149.767 196.495 148.868C196.372 147.969 196.583 147.056 197.088 146.303Z" fill="#FFB8B8"/>
<path d="M233.321 116.214C232.418 115.508 231.311 115.112 230.165 115.087C229.02 115.061 227.896 115.406 226.963 116.071C226.542 116.374 226.165 116.734 225.845 117.142L215.628 136.095L206.199 143.22C205.886 143.456 205.668 143.795 205.583 144.177C205.519 144.457 205.53 144.749 205.616 145.023L206.543 148.014C206.643 148.336 206.837 148.619 207.1 148.828C207.203 148.905 207.314 148.971 207.43 149.026C207.444 149.034 207.459 149.04 207.474 149.044C207.68 149.132 207.901 149.178 208.125 149.177C208.349 149.176 208.57 149.13 208.775 149.041L219.828 144.246L219.949 144.191C223.674 142.543 226.682 139.609 228.425 135.926L234.237 123.659C235.098 122.548 235.486 121.142 235.314 119.748C235.142 118.353 234.426 117.083 233.321 116.214Z" fill="#3F3D56"/>
<path d="M234.492 109.23C239.463 109.23 243.493 105.2 243.493 100.228C243.493 95.2562 239.463 91.2257 234.492 91.2257C229.521 91.2257 225.491 95.2562 225.491 100.228C225.491 105.2 229.521 109.23 234.492 109.23Z" fill="#FFB8B8"/>
<path d="M240.584 160.428L240.493 159.728L240.067 156.536L239.602 153.05L237.949 153.333L237.312 153.439L236.667 153.549L236.454 153.585L220.059 156.371L218.017 155.143L217.973 155.118L217.992 155.304L218.377 159.296L220.212 178.363H242.977L240.584 160.428Z" fill="#2F2E41"/>
<path d="M246.887 123.802C246.595 120.536 245.053 117.51 242.581 115.357C240.203 113.25 237.086 112.174 233.914 112.366C230.891 112.568 228.568 113.81 226.963 116.072C226.137 117.282 225.527 118.626 225.16 120.045C223.335 126.613 221.411 136.234 219.949 144.191C219.128 148.634 218.453 152.559 218.017 155.143C218.01 155.198 218.003 155.25 217.992 155.304C217.823 156.312 217.695 157.1 217.611 157.625C217.557 157.948 217.602 158.28 217.738 158.577C217.874 158.875 218.097 159.125 218.376 159.296C218.38 159.3 218.387 159.303 218.391 159.307C220.241 160.414 222.352 161.007 224.507 161.026C227.117 161.026 230.246 160.117 233.541 157.181C233.765 156.978 234.053 156.86 234.355 156.847C234.657 156.834 234.953 156.928 235.194 157.111L235.553 157.39L239.1 160.15C239.377 160.366 239.716 160.488 240.067 160.498C240.243 160.506 240.418 160.482 240.584 160.429C240.599 160.427 240.614 160.423 240.628 160.417C240.884 160.334 241.115 160.189 241.302 159.996C241.488 159.802 241.625 159.566 241.698 159.307C241.896 158.618 242.116 157.822 242.358 156.936C242.457 156.565 242.559 156.177 242.666 155.774C243.131 153.992 243.648 151.925 244.154 149.675C245.92 141.809 247.598 131.704 246.887 123.802Z" fill="#3F3D56"/>
<path d="M232.065 161.369C232.021 160.832 232.096 160.292 232.283 159.787C232.471 159.281 232.767 158.824 233.15 158.445C233.534 158.067 233.996 157.777 234.504 157.597C235.011 157.416 235.552 157.349 236.088 157.401L241.538 145.491L245.145 151.263L239.417 161.687C239.271 162.583 238.802 163.394 238.098 163.966C237.395 164.539 236.506 164.833 235.599 164.794C234.693 164.755 233.833 164.384 233.182 163.753C232.53 163.122 232.133 162.274 232.065 161.369Z" fill="#FFB8B8"/>
<path d="M250.321 133.863L247.323 120.62C247.316 119.314 246.829 118.056 245.955 117.085C245.08 116.115 243.88 115.5 242.581 115.357C242.395 115.338 242.204 115.327 242.01 115.327C241.31 115.329 240.617 115.469 239.971 115.739C239.326 116.009 238.739 116.403 238.246 116.9C237.753 117.397 237.362 117.986 237.097 118.633C236.832 119.281 236.697 119.975 236.7 120.675L240.357 141.893L240.346 141.937L238.408 149.257L237.334 153.321C237.323 153.36 237.315 153.399 237.312 153.439C237.243 153.78 237.288 154.134 237.44 154.447C237.562 154.709 237.752 154.935 237.99 155.099L240.068 156.536L240.562 156.88C240.838 157.072 241.165 157.175 241.5 157.174C241.63 157.174 241.759 157.159 241.885 157.13C241.9 157.126 241.911 157.122 241.925 157.119C242.078 157.079 242.223 157.017 242.358 156.935C242.608 156.784 242.813 156.569 242.952 156.312L248.69 145.716C250.651 142.093 251.23 137.881 250.321 133.863Z" fill="#3F3D56"/>
<path opacity="0.2" d="M237.429 129.622L240.728 143.55L235.964 155.279L239.262 143.917L237.429 129.622Z" fill="black"/>
<path d="M241.776 105.638C242.531 105.369 243.224 104.954 243.817 104.415C244.079 104.181 244.36 103.964 244.622 103.73C246.93 101.665 247.623 98.115 246.593 95.1943C245.564 92.2736 243.003 90.0286 240.076 89.0168C237.15 88.005 233.906 88.1431 230.934 89.0139C227.733 89.9519 224.528 92.0642 223.768 95.3123C223.565 96.1769 223.558 97.136 224.146 97.8654C224.323 98.0857 224.555 98.2557 224.818 98.3583C225.856 98.756 226.434 97.9442 227.208 97.5994C228.272 97.1255 229.581 97.6372 230.322 98.5363C231.063 99.4355 231.337 100.63 231.451 101.789C231.474 102.504 231.586 103.213 231.785 103.9C231.888 104.243 232.077 104.554 232.334 104.804C232.592 105.053 232.908 105.233 233.254 105.326C234.089 105.48 234.892 104.905 235.418 104.238C235.943 103.57 236.315 102.778 236.936 102.199C237.557 101.619 238.569 101.313 239.25 101.821C239.477 102.014 239.67 102.245 239.818 102.504C240.861 104.106 240.734 104.036 241.776 105.638Z" fill="#2F2E41"/>
<path d="M198.672 138.595L192.323 141.453C192.057 141.572 191.849 141.793 191.746 142.065C191.642 142.338 191.651 142.641 191.771 142.907L192.523 144.578C192.434 144.618 192.365 144.691 192.331 144.782C192.297 144.873 192.299 144.974 192.339 145.062L192.64 145.731C192.68 145.819 192.753 145.888 192.844 145.923C192.935 145.957 193.036 145.954 193.124 145.915L193.425 146.583C193.337 146.623 193.268 146.697 193.233 146.788C193.199 146.879 193.202 146.979 193.241 147.068L193.542 147.736C193.582 147.825 193.656 147.894 193.746 147.928C193.837 147.963 193.938 147.96 194.026 147.92L198.086 156.945C198.206 157.211 198.426 157.419 198.699 157.522C198.971 157.626 199.274 157.617 199.54 157.497L205.89 154.64C206.155 154.52 206.363 154.3 206.466 154.027C206.57 153.754 206.561 153.452 206.441 153.186L200.126 139.147C200.006 138.881 199.786 138.673 199.513 138.57C199.241 138.467 198.938 138.476 198.672 138.595Z" fill="#3F3D56"/>
<path d="M205.264 152.358L204.37 150.367L202.025 145.155L199.965 140.577C199.851 140.322 199.64 140.123 199.379 140.024C199.118 139.924 198.828 139.932 198.573 140.046L195.077 141.618L193.475 142.34C193.221 142.456 193.023 142.667 192.924 142.928C192.825 143.189 192.834 143.478 192.948 143.733L195.077 148.469L195.894 150.283L198.247 155.517C198.363 155.772 198.574 155.97 198.836 156.069C199.098 156.168 199.388 156.159 199.643 156.045L204.737 153.75C204.991 153.635 205.189 153.424 205.288 153.163C205.387 152.902 205.378 152.612 205.264 152.358Z" fill="#2594EA"/>
</g>
<defs>
<clipPath id="clip0_211_264">
<rect width="266" height="181" fill="white"/>
</clipPath>
</defs>
</svg>
