<svg width="176" height="132" viewBox="0 0 176 132" fill="none" xmlns="http://www.w3.org/2000/svg">
<g clip-path="url(#clip0_162_15)">
<g style="mix-blend-mode:multiply">
<path d="M165 5.5H11C7.96243 5.5 5.5 7.96243 5.5 11V121C5.5 124.038 7.96243 126.5 11 126.5H165C168.038 126.5 170.5 124.038 170.5 121V11C170.5 7.96243 168.038 5.5 165 5.5Z" stroke="black" stroke-opacity="0.1"/>
</g>
<mask id="mask0_162_15" style="mask-type:luminance" maskUnits="userSpaceOnUse" x="0" y="0" width="176" height="132">
<path d="M176 0H0V132H176V0Z" fill="white"/>
</mask>
<g mask="url(#mask0_162_15)">
<path d="M176 0H0V132H176V0Z" fill="white"/>
<path fill-rule="evenodd" clip-rule="evenodd" d="M0 0H176V132H0V0Z" fill="#E31D1C"/>
<path fill-rule="evenodd" clip-rule="evenodd" d="M0 11V22H176V11H0ZM0 33V44H176V33H0ZM0 66V55H176V66H0ZM0 77V88H176V77H0ZM0 110V99H176V110H0ZM0 132V121H176V132H0Z" fill="#F7FCFF"/>
<path d="M99 0H0V77H99V0Z" fill="#2E42A5"/>
<path fill-rule="evenodd" clip-rule="evenodd" d="M11.4408 23.9115L17.2699 19.8511L21.7916 23.1063H19.2314L24.4088 27.6856L22.6601 34.1063H19.9212L17.2618 28.2092L14.9938 34.1063H8.23145L13.4088 38.6856L11.4408 45.9115L17.2699 41.8511L21.7916 45.1063H19.2314L24.4088 49.6856L22.6601 56.1063H19.9212L17.2618 50.2092L14.9938 56.1063H8.23145L13.4088 60.6856L11.4408 67.9115L17.2699 63.8511L22.9101 67.9115L21.1564 60.6856L25.6859 56.1063H23.5968L28.2699 52.8511L32.7916 56.1063H30.2314L35.4088 60.6856L33.4408 67.9115L39.2699 63.8511L44.9101 67.9115L43.1564 60.6856L47.6859 56.1063H45.5968L50.2699 52.8511L54.7916 56.1063H52.2314L57.4088 60.6856L55.4408 67.9115L61.2699 63.8511L66.9101 67.9115L65.1564 60.6856L69.6859 56.1063H67.5968L72.2699 52.8511L76.7916 56.1063H74.2314L79.4088 60.6856L77.4408 67.9115L83.2699 63.8511L88.9101 67.9115L87.1564 60.6856L91.6859 56.1063H85.9212L83.2618 50.2092L80.9938 56.1063H77.7146L76.1564 49.6856L80.6859 45.1063H78.5968L83.2699 41.8511L88.9101 45.9115L87.1564 38.6856L91.6859 34.1063H85.9212L83.2618 28.2092L80.9938 34.1063H77.7146L76.1564 27.6856L80.6859 23.1063H78.5968L83.2699 19.8511L88.9101 23.9115L87.1564 16.6856L91.6859 12.1063H85.9212L83.2618 6.20923L80.9938 12.1063H74.2314L79.4088 16.6856L77.6601 23.1063H74.9212L72.2618 17.2092L69.9938 23.1063H66.7146L65.1564 16.6856L69.6859 12.1063H63.9212L61.2618 6.20923L58.9938 12.1063H52.2314L57.4088 16.6856L55.6601 23.1063H52.9212L50.2618 17.2092L47.9938 23.1063H44.7146L43.1564 16.6856L47.6859 12.1063H41.9212L39.2618 6.20923L36.9938 12.1063H30.2314L35.4088 16.6856L33.6601 23.1063H30.9212L28.2618 17.2092L25.9938 23.1063H22.7146L21.1564 16.6856L25.6859 12.1063H19.9212L17.2618 6.20923L14.9938 12.1063H8.23145L13.4088 16.6856L11.4408 23.9115ZM77.6601 45.1063L79.4088 38.6856L74.2314 34.1063H76.7916L72.2699 30.8511L67.5968 34.1063H69.6859L65.1564 38.6856L66.7146 45.1063H69.9938L72.2618 39.2092L74.9212 45.1063H77.6601ZM65.7916 45.1063L61.2699 41.8511L56.5968 45.1063H58.6859L54.1564 49.6856L55.7146 56.1063H58.9938L61.2618 50.2092L63.9212 56.1063H66.6601L68.4088 49.6856L63.2314 45.1063H65.7916ZM46.4088 49.6856L44.6601 56.1063H41.9212L39.2618 50.2092L36.9938 56.1063H33.7146L32.1564 49.6856L36.6859 45.1063H34.5968L39.2699 41.8511L43.7916 45.1063H41.2314L46.4088 49.6856ZM47.9938 45.1063H44.7146L43.1564 38.6856L47.6859 34.1063H45.5968L50.2699 30.8511L54.7916 34.1063H52.2314L57.4088 38.6856L55.6601 45.1063H52.9212L50.2618 39.2092L47.9938 45.1063ZM33.6601 45.1063L35.4088 38.6856L30.2314 34.1063H32.7916L28.2699 30.8511L23.5968 34.1063H25.6859L21.1564 38.6856L22.7146 45.1063H25.9938L28.2618 39.2092L30.9212 45.1063H33.6601ZM68.4088 27.6856L66.6601 34.1063H63.9212L61.2618 28.2092L58.9938 34.1063H55.7146L54.1564 27.6856L58.6859 23.1063H56.5968L61.2699 19.8511L65.7916 23.1063H63.2314L68.4088 27.6856ZM43.7916 23.1063L39.2699 19.8511L34.5968 23.1063H36.6859L32.1564 27.6856L33.7146 34.1063H36.9938L39.2618 28.2092L41.9212 34.1063H44.6601L46.4088 27.6856L41.2314 23.1063H43.7916Z" fill="#F7FCFF"/>
</g>
</g>
<defs>
<clipPath id="clip0_162_15">
<rect width="176" height="132" rx="10" fill="white"/>
</clipPath>
</defs>
</svg>
